<svg xmlns="http://www.w3.org/2000/svg" width="192" height="192" viewBox="0 0 192 192">
    <defs>
        <linearGradient id="prefix__a" x1="50%" x2="50%" y1="0%" y2="100%">
            <stop offset="0%" stop-color="#720125"/>
            <stop offset="100%" stop-color="#990434"/>
        </linearGradient>
    </defs>
    <path fill="url(#prefix__a)" fill-rule="evenodd" d="M120.224 136.976c-.695.697-1.099 1.664-1.099 2.65 0 .99.402 1.954 1.1 2.651.698.699 1.665 1.098 2.65 1.098.988 0 1.955-.4 2.652-1.098.697-.697 1.099-1.661 1.099-2.652 0-.985-.402-1.952-1.099-2.65s-1.664-1.1-2.651-1.1c-.986 0-1.953.402-2.652 1.1zm32.55-99.477c.987 0 1.955-.4 2.652-1.1.697-.697 1.099-1.664 1.099-2.65 0-.987-.4-1.953-1.1-2.65-.696-.7-1.665-1.1-2.65-1.1-.986 0-1.954.4-2.65 1.1-.7.697-1.1 1.663-1.1 2.65 0 .986.4 1.953 1.1 2.65.696.698 1.664 1.1 2.65 1.1zM95.95 118.245c1.9-1.163 3.822-2.297 5.767-3.388 6.085-3.417 12.362-6.454 18.785-9.116V84.624H85.125v27.517c3.67 1.903 7.279 3.939 10.824 6.104zM82.935 77.124h32.3L101.69 63.499h-32.3l13.544 13.625zm-5.31 7.5h-34.5v12.11c1.758.4 3.507.831 5.25 1.286v-4.46c0-2.07 1.68-3.75 3.75-3.75h16.5c2.072 0 3.75 1.68 3.75 3.75v12.595c1.763.743 3.511 1.516 5.25 2.316V84.624zM64.875 97.31h-9v2.84c3.027.933 6.027 1.95 9 3.045v-5.885zM48.391 77.124h23.97L60.374 65.068 48.391 77.124zM27.75 44.999v24.954c5.445-6.469 8.373-14.047 8.373-21.954 0-9.565-4.281-18.651-12.123-25.869C16.159 29.35 11.877 38.434 11.877 48c0 7.906 2.928 15.484 8.373 21.953V45c0-2.07 1.68-3.75 3.75-3.75 2.072 0 3.75 1.68 3.75 3.75zm121.275 31.718V47.999c0-2.07 1.678-3.75 3.75-3.75 2.07 0 3.75 1.68 3.75 3.75v28.718c8.754-9.266 13.494-20.468 13.494-32.213 0-13.328-6.099-25.954-17.244-35.847-11.147 9.893-17.245 22.519-17.245 35.847 0 11.745 4.74 22.947 13.495 32.213zm-95.296 89.55c-.11.174-.236.334-.37.483-3.433 4.51-6.652 9.208-9.632 14.09l-5.714 9.362c-.706 1.157-1.941 1.797-3.204 1.797-.666 0-1.34-.177-1.951-.55-1.766-1.078-2.326-3.387-1.247-5.153l5.715-9.362c2.316-3.797 4.778-7.496 7.37-11.096-13.134-5.25-26.883-7.917-40.946-7.917-2.07 0-3.75-1.678-3.75-3.75 0-2.07 1.68-3.75 3.75-3.75 15.699 0 31.03 3.1 45.617 9.217 4.917-6.237 10.246-12.138 15.947-17.653-19.243-9.335-40.425-14.251-61.564-14.251-2.07 0-3.75-1.679-3.75-3.75 0-2.071 1.68-3.75 3.75-3.75 23.232 0 46.509 5.632 67.458 16.305 5.601-4.95 11.518-9.548 17.712-13.758-25.855-15.05-55.185-22.985-85.17-22.985-2.071 0-3.75-1.678-3.75-3.75 0-2.07 1.679-3.75 3.75-3.75 5.527 0 11.032.264 16.5.775V80.564C10 71.748 4.377 60.25 4.377 48c0-12.798 6.135-24.779 17.274-33.735 1.372-1.103 3.326-1.103 4.699 0C37.488 23.222 43.623 35.201 43.623 48c0 12.25-5.623 23.75-15.873 32.567v13.368c2.637.36 5.262.783 7.875 1.261v-14.32c0-1.032.418-1.966 1.092-2.644v-.001l21-21.125c.703-.707 1.66-1.106 2.658-1.106h42.874c1 0 1.956.399 2.66 1.106l21 21.125v.001c.675.678 1.09 1.612 1.09 2.643v21.956c6.876-2.488 13.9-4.555 21.024-6.177v-9.628c-13.553-11.475-20.994-26.51-20.994-42.52 0-16.555 7.954-32.066 22.394-43.678 1.373-1.103 3.328-1.103 4.701 0 14.442 11.612 22.395 27.123 22.395 43.677 0 16.011-7.44 31.046-20.994 42.52v8.095c10.441-1.908 21.063-2.884 31.725-2.884 2.07 0 3.75 1.679 3.75 3.75 0 2.07-1.68 3.75-3.75 3.75-11.758 0-23.385 1.252-34.71 3.656l-.02.005c-39.407 8.37-75.12 30.704-99.79 62.87zM188.25 120.17c-16.765 0-33.359 2.864-49.32 8.512-1.952.69-2.975 2.833-2.283 4.786.543 1.54 1.99 2.5 3.534 2.5.415 0 .837-.07 1.251-.217 15.156-5.362 30.907-8.08 46.818-8.08 2.071 0 3.75-1.68 3.75-3.751 0-2.071-1.679-3.75-3.75-3.75zm-78.2 26.714c-1.16-1.716-3.49-2.167-5.205-1.008-16.036 10.832-29.578 24.384-40.254 40.28-1.154 1.72-.697 4.051 1.022 5.205.644.431 1.369.637 2.088.637 1.207 0 2.393-.582 3.117-1.659 10.134-15.092 22.993-27.961 38.225-38.248 1.715-1.16 2.167-3.49 1.008-5.207zM192 154.11c0 2.07-1.679 3.75-3.75 3.75-29.336 0-58.137 12.04-79.017 33.035-.734.736-1.696 1.104-2.658 1.104-.958 0-1.913-.363-2.646-1.091-1.467-1.46-1.475-3.834-.013-5.303 22.278-22.399 53.016-35.245 84.334-35.245 2.071 0 3.75 1.68 3.75 3.75z"/>
</svg>
