<svg xmlns="http://www.w3.org/2000/svg" width="157" height="34" viewBox="0 0 157 34">
    <g fill="none" fill-rule="evenodd">
        <path fill="#797979" fill-rule="nonzero" d="M49.398 24l.88-3.608h4.356L55.536 24h2.42L53.908 8.6h-2.706L47.066 24h2.332zm4.994-5.126h-3.85l1.936-7.722 1.914 7.722zM66.316 24c1.672 0 2.376-1.012 2.376-2.464V8.6h-2.134v12.54c0 .616-.308.924-.836.924H62.51c-.506 0-.814-.308-.814-.924V8.6h-2.134v12.936c0 1.452.704 2.464 2.376 2.464h4.378zm10.098 0V10.536h2.816c.198 0 .418.022.66.11V8.6h-9.108v2.046c.242-.088.462-.11.66-.11h2.838V24h2.134zm12.342 0c1.672 0 2.376-1.012 2.376-2.464V11.064c0-1.452-.704-2.464-2.376-2.464h-4.378c-1.672 0-2.376 1.012-2.376 2.464v10.472c0 1.452.704 2.464 2.376 2.464h4.378zm-.594-1.936H84.95c-.506 0-.814-.308-.814-.924v-9.68c0-.616.308-.924.836-.924h3.212c.506 0 .814.308.814.924v9.68c0 .616-.308.924-.836.924zM96.236 24V11.108l2.64 9.108h2.222l2.662-9.108V24h2.002V8.6h-3.08l-2.64 9.306L97.446 8.6h-3.234V24h2.024zm13.464 0l.88-3.608h4.356l.902 3.608h2.42L114.21 8.6h-2.706L107.368 24h2.332zm4.994-5.126h-3.85l1.936-7.722 1.914 7.722zM124.506 24V10.536h2.816c.198 0 .418.022.66.11V8.6h-9.108v2.046c.242-.088.462-.11.66-.11h2.838V24h2.134zm7.722 0V8.6h-2.134V24h2.134zm9.834 0c1.672 0 2.376-1.012 2.376-2.464V11.064c0-1.452-.704-2.464-2.376-2.464h-4.378c-1.672 0-2.376 1.012-2.376 2.464v10.472c0 1.452.704 2.464 2.376 2.464h4.378zm-.594-1.936h-3.212c-.506 0-.814-.308-.814-.924v-9.68c0-.616.308-.924.836-.924h3.212c.506 0 .814.308.814.924v9.68c0 .616-.308.924-.836.924zM149.52 24V12.472L154.47 24h2.266V8.6h-1.98v11.528L149.806 8.6h-2.266V24h1.98z"/>
        <path fill="#A30C33" d="M26.578 0L26.544 0 8.791 0 0.414 0 0.001 0 0.001 33.828 0.414 33.828 8.791 33.828 26.591 33.828 23.825 26.381 8.791 26.381 8.791 20.547 15.403 20.547 15.403 13.1 8.791 13.1 8.791 7.447 26.544 7.447 26.578 7.447 26.544 13.1 26.544 14.569 26.544 20.547 26.544 26.756 29.544 33.828 35.335 33.828 35.335 20.547 35.335 0z"/>
    </g>
</svg>
