<?xml version="1.0" encoding="utf-8"?>
<!-- Generator: Adobe Illustrator 25.0.1, SVG Export Plug-In . SVG Version: 6.00 Build 0)  -->
<svg version="1.1" id="Livello_1" xmlns="http://www.w3.org/2000/svg" xmlns:xlink="http://www.w3.org/1999/xlink" x="0px" y="0px"
	 width="157px" height="34px" viewBox="0 0 157 34" style="enable-background:new 0 0 157 34;" xml:space="preserve">
<style type="text/css">
	.st0{fill:#FFFFFF;}
	.st1{fill-rule:evenodd;clip-rule:evenodd;fill:#FFFFFF;}
</style>
<g>
	<path class="st0" d="M49.4,24l0.9-3.6h4.4l0.9,3.6H58l-4-15.4h-2.7L47.1,24C47.1,24,49.4,24,49.4,24z M54.4,18.9h-3.8l1.9-7.7
		C52.5,11.2,54.4,18.9,54.4,18.9z M66.3,24c1.7,0,2.4-1,2.4-2.5V8.6h-2.1v12.5c0,0.6-0.3,0.9-0.8,0.9h-3.2c-0.5,0-0.8-0.3-0.8-0.9
		V8.6h-2.1v12.9c0,1.5,0.7,2.5,2.4,2.5H66.3z M76.4,24V10.5h2.8c0.2,0,0.4,0,0.7,0.1v-2h-9.1v2c0.2-0.1,0.5-0.1,0.7-0.1h2.8V24
		C74.3,24,76.4,24,76.4,24z M88.8,24c1.7,0,2.4-1,2.4-2.5V11.1c0-1.5-0.7-2.5-2.4-2.5h-4.4c-1.7,0-2.4,1-2.4,2.5v10.5
		c0,1.5,0.7,2.5,2.4,2.5H88.8z M88.2,22.1h-3.2c-0.5,0-0.8-0.3-0.8-0.9v-9.7c0-0.6,0.3-0.9,0.8-0.9h3.2c0.5,0,0.8,0.3,0.8,0.9v9.7
		C89,21.8,88.7,22.1,88.2,22.1z M96.2,24V11.1l2.6,9.1h2.2l2.7-9.1V24h2V8.6h-3.1l-2.6,9.3l-2.6-9.3h-3.2V24H96.2z M109.7,24
		l0.9-3.6h4.4l0.9,3.6h2.4l-4-15.4h-2.7L107.4,24H109.7z M114.7,18.9h-3.8l1.9-7.7L114.7,18.9z M124.5,24V10.5h2.8
		c0.2,0,0.4,0,0.7,0.1v-2h-9.1v2c0.2-0.1,0.5-0.1,0.7-0.1h2.8V24C122.4,24,124.5,24,124.5,24z M132.2,24V8.6h-2.1V24H132.2z
		 M142.1,24c1.7,0,2.4-1,2.4-2.5V11.1c0-1.5-0.7-2.5-2.4-2.5h-4.4c-1.7,0-2.4,1-2.4,2.5v10.5c0,1.5,0.7,2.5,2.4,2.5H142.1z
		 M141.5,22.1h-3.2c-0.5,0-0.8-0.3-0.8-0.9v-9.7c0-0.6,0.3-0.9,0.8-0.9h3.2c0.5,0,0.8,0.3,0.8,0.9v9.7
		C142.3,21.8,142,22.1,141.5,22.1z M149.5,24V12.5l4.9,11.5h2.3V8.6h-2v11.5l-5-11.5h-2.3V24H149.5L149.5,24z"/>
	<path class="st1" d="M26.6,0L26.6,0H8.8H0.4H0v33.8h0.4h8.4h17.8l-2.8-7.4h-15v-5.8h6.6v-7.4H8.8V7.4h17.8h0l0,5.7v1.5v6v6.2l3,7.1
		h5.8V20.5V0H26.6z"/>
</g>
</svg>
