<svg xmlns="http://www.w3.org/2000/svg" width="20" height="48" viewBox="0 0 20 48">
    <path fill="#FFF" fill-rule="evenodd" d="M6.864 23.03c0 1.605 1.299 2.911 2.895 2.911s2.894-1.306 2.894-2.912c0-1.605-1.298-2.911-2.894-2.911s-2.895 1.306-2.895 2.911zm0-20.118c0 1.605 1.299 2.911 2.895 2.911s2.894-1.306 2.894-2.911C12.653 1.306 11.355 0 9.76 0S6.864 1.306 6.864 2.912zm-3.86 20.117c0-3.746 3.03-6.793 6.755-6.793 3.724 0 6.754 3.047 6.754 6.793 0 3.747-3.03 6.794-6.754 6.794-3.724 0-6.754-3.047-6.754-6.794zM20 37.796L9.855 48 0 38.087l2.729-2.745 7.126 7.168 7.416-7.46L20 37.796z"/>
</svg>
