<svg xmlns="http://www.w3.org/2000/svg" xmlns:xlink="http://www.w3.org/1999/xlink" width="690" height="466" viewBox="0 0 690 466">
    <defs>
        <path id="prefix__a" d="M0 465.453L688.589 465.453 688.589 0 0 0z"/>
    </defs>
    <g fill="none" fill-rule="evenodd">
        <path fill="#000" d="M369.052 130.684c0-.308.24-.55.55-.55.285 0 .549.242.549.55 0 .308-.264.55-.55.55-.31 0-.55-.242-.55-.55m0 2.198c0-.308.24-.55.55-.55.286 0 .55.242.55.55 0 .308-.264.55-.55.55-.31 0-.55-.242-.55-.55m0 2.22c0-.308.24-.55.55-.55.286 0 .55.242.55.55 0 .286-.264.55-.55.55-.31 0-.55-.264-.55-.55m0 2.198c0-.308.24-.55.55-.55.286 0 .55.242.55.55 0 .308-.264.55-.55.55-.31 0-.55-.242-.55-.55m0 2.198c0-.308.24-.55.55-.55.286 0 .55.242.55.55 0 .308-.264.55-.55.55-.31 0-.55-.242-.55-.55m0 2.198c0-.285.24-.527.55-.527.286 0 .55.242.55.527 0 .308-.264.572-.55.572-.31 0-.55-.264-.55-.572m0 2.22c0-.307.24-.55.55-.55.286 0 .55.243.55.55 0 .308-.264.55-.55.55-.31 0-.55-.242-.55-.55m0 2.199c0-.308.24-.55.55-.55.286 0 .55.242.55.55 0 .307-.264.549-.55.549-.31 0-.55-.242-.55-.55m0 2.199c0-.286.24-.55.55-.55.286 0 .55.264.55.55 0 .307-.264.55-.55.55-.31 0-.55-.243-.55-.55m0 2.22c0-.308.24-.55.55-.55.286 0 .55.242.55.55 0 .285-.264.55-.55.55-.31 0-.55-.265-.55-.55m0 2.198c0-.308.24-.55.55-.55.286 0 .55.242.55.55 0 .308-.264.55-.55.55-.31 0-.55-.242-.55-.55m0 2.198c0-.308.24-.55.55-.55.286 0 .55.242.55.55 0 .308-.264.55-.55.55-.31 0-.55-.242-.55-.55m0 2.22c0-.308.24-.55.55-.55.286 0 .55.242.55.55 0 .286-.264.55-.55.55-.31 0-.55-.264-.55-.55m0 2.198c0-.308.24-.55.55-.55.286 0 .55.242.55.55 0 .308-.264.55-.55.55-.31 0-.55-.242-.55-.55m0 2.198c0-.307.24-.55.55-.55.286 0 .55.243.55.55 0 .308-.264.55-.55.55-.31 0-.55-.242-.55-.55m0 2.22c0-.307.24-.571.55-.571.286 0 .55.264.55.571 0 .286-.264.528-.55.528-.31 0-.55-.242-.55-.528m0 2.198c0-.307.24-.549.55-.549.286 0 .55.242.55.55 0 .307-.264.549-.55.549-.31 0-.55-.242-.55-.55m0 2.199c0-.308.24-.55.55-.55.286 0 .55.242.55.55 0 .307-.264.55-.55.55-.31 0-.55-.243-.55-.55m0 2.198c0-.286.24-.55.55-.55.286 0 .55.264.55.55 0 .307-.264.55-.55.55-.31 0-.55-.243-.55-.55m0 2.22c0-.308.24-.55.55-.55.286 0 .55.242.55.55 0 .286-.264.55-.55.55-.31 0-.55-.264-.55-.55m0 2.198c0-.308.24-.55.55-.55.286 0 .55.242.55.55 0 .308-.264.55-.55.55-.31 0-.55-.242-.55-.55m0 2.198c0-.286.24-.55.55-.55.286 0 .55.264.55.55 0 .308-.264.55-.55.55-.31 0-.55-.242-.55-.55m0 2.22c0-.308.24-.571.55-.571.286 0 .55.263.55.571 0 .286-.264.55-.55.55-.31 0-.55-.264-.55-.55m0 2.198c0-.307.24-.55.55-.55.286 0 .55.243.55.55 0 .308-.264.55-.55.55-.31 0-.55-.242-.55-.55m0 2.198c0-.307.24-.55.55-.55.286 0 .55.243.55.55 0 .308-.264.55-.55.55-.31 0-.55-.242-.55-.55m0 2.22c0-.307.24-.571.55-.571.286 0 .55.264.55.571 0 .286-.264.528-.55.528-.31 0-.55-.242-.55-.528m0 2.199c0-.308.24-.55.55-.55.286 0 .55.242.55.55 0 .307-.264.55-.55.55-.31 0-.55-.243-.55-.55m0 2.198c0-.308.24-.55.55-.55.286 0 .55.242.55.55 0 .307-.264.55-.55.55-.31 0-.55-.243-.55-.55m0 2.198c0-.286.24-.55.55-.55.286 0 .55.264.55.55 0 .308-.264.55-.55.55-.31 0-.55-.242-.55-.55m0 2.22c0-.308.24-.55.55-.55.286 0 .55.242.55.55 0 .308-.264.55-.55.55-.31 0-.55-.242-.55-.55m0 2.198c0-.308.24-.55.55-.55.286 0 .55.242.55.55 0 .308-.264.55-.55.55-.31 0-.55-.242-.55-.55m0 2.198c0-.308.24-.55.55-.55.286 0 .55.242.55.55 0 .308-.264.55-.55.55-.31 0-.55-.242-.55-.55m0 2.22c0-.308.24-.55.55-.55.286 0 .55.242.55.55 0 .286-.264.55-.55.55-.31 0-.55-.264-.55-.55m0 2.198c0-.307.24-.55.55-.55.286 0 .55.243.55.55 0 .308-.264.55-.55.55-.31 0-.55-.242-.55-.55m0 2.198c0-.307.24-.55.55-.55.286 0 .55.243.55.55 0 .308-.264.55-.55.55-.31 0-.55-.242-.55-.55m0 2.199c0-.286.24-.528.55-.528.286 0 .55.242.55.528 0 .307-.264.571-.55.571-.31 0-.55-.264-.55-.571m0 2.22c0-.308.24-.55.55-.55.286 0 .55.242.55.55 0 .307-.264.55-.55.55-.31 0-.55-.243-.55-.55m0 2.198c0-.308.24-.55.55-.55.286 0 .55.242.55.55 0 .307-.264.55-.55.55-.31 0-.55-.243-.55-.55m0 2.198c0-.286.24-.55.55-.55.286 0 .55.264.55.55 0 .308-.264.55-.55.55-.31 0-.55-.242-.55-.55m0 2.22c0-.308.24-.55.55-.55.286 0 .55.242.55.55 0 .286-.264.55-.55.55-.31 0-.55-.264-.55-.55m0 2.198c0-.308.24-.55.55-.55.286 0 .55.242.55.55 0 .308-.264.55-.55.55-.31 0-.55-.242-.55-.55m0 2.198c0-.308.24-.55.55-.55.286 0 .55.242.55.55 0 .308-.264.55-.55.55-.31 0-.55-.242-.55-.55m0 2.22c0-.307.24-.55.55-.55.286 0 .55.243.55.55 0 .286-.264.55-.55.55-.31 0-.55-.264-.55-.55m0 2.198c0-.307.24-.55.55-.55.286 0 .55.243.55.55 0 .308-.264.55-.55.55-.31 0-.55-.242-.55-.55m0 2.199c0-.308.24-.55.55-.55.286 0 .55.242.55.55 0 .307-.264.549-.55.549-.31 0-.55-.242-.55-.55m0 2.22c0-.307.24-.57.55-.57.286 0 .55.263.55.57 0 .286-.264.528-.55.528-.31 0-.55-.242-.55-.527m0 2.198c0-.308.24-.55.55-.55.286 0 .55.242.55.55 0 .285-.264.55-.55.55-.31 0-.55-.265-.55-.55m0 2.198c0-.308.24-.55.55-.55.286 0 .55.242.55.55 0 .308-.264.55-.55.55-.31 0-.55-.242-.55-.55m0 2.198c0-.308.24-.55.55-.55.286 0 .55.242.55.55 0 .308-.264.55-.55.55-.31 0-.55-.242-.55-.55m0 2.22c0-.308.24-.55.55-.55.286 0 .55.242.55.55 0 .286-.264.55-.55.55-.31 0-.55-.264-.55-.55m0 2.198c0-.308.24-.55.55-.55.286 0 .55.242.55.55 0 .308-.264.55-.55.55-.31 0-.55-.242-.55-.55m0 2.198c0-.307.24-.55.55-.55.286 0 .55.243.55.55 0 .308-.264.55-.55.55-.31 0-.55-.242-.55-.55m0 2.22c0-.307.24-.571.55-.571.286 0 .55.264.55.571 0 .286-.264.55-.55.55-.31 0-.55-.264-.55-.55m0 2.198c0-.307.24-.55.55-.55.286 0 .55.243.55.55 0 .308-.264.55-.55.55-.31 0-.55-.242-.55-.55m0 2.199c0-.308.24-.55.55-.55.286 0 .55.242.55.55 0 .307-.264.55-.55.55-.31 0-.55-.243-.55-.55m0 2.198c0-.286.24-.55.55-.55.286 0 .55.264.55.55 0 .307-.264.55-.55.55-.31 0-.55-.243-.55-.55m0 2.218c0-.306.24-.55.55-.55.286 0 .55.244.55.55 0 .31-.264.55-.55.55-.31 0-.55-.24-.55-.55m0 2.198c0-.306.24-.55.55-.55.286 0 .55.244.55.55 0 .31-.264.55-.55.55-.31 0-.55-.24-.55-.55m0 2.198c0-.284.24-.55.55-.55.286 0 .55.266.55.55 0 .31-.264.55-.55.55-.31 0-.55-.24-.55-.55m0 2.222c0-.308.24-.55.55-.55.286 0 .55.242.55.55 0 .286-.264.55-.55.55-.31 0-.55-.264-.55-.55m0 2.198c0-.308.24-.55.55-.55.286 0 .55.242.55.55 0 .308-.264.55-.55.55-.31 0-.55-.242-.55-.55m0 2.198c0-.307.24-.55.55-.55.286 0 .55.243.55.55 0 .308-.264.55-.55.55-.31 0-.55-.242-.55-.55m0 2.198c0-.285.24-.55.55-.55.286 0 .55.265.55.55 0 .308-.264.572-.55.572-.31 0-.55-.264-.55-.572m0 2.22c0-.307.24-.549.55-.549.286 0 .55.242.55.55 0 .307-.264.55-.55.55-.31 0-.55-.243-.55-.55m0 2.198c0-.308.24-.55.55-.55.286 0 .55.242.55.55 0 .307-.264.55-.55.55-.31 0-.55-.243-.55-.55m0 2.198c0-.286.24-.528.55-.528.286 0 .55.242.55.528 0 .308-.264.571-.55.571-.31 0-.55-.263-.55-.571m0 2.22c0-.308.24-.55.55-.55.286 0 .55.242.55.55 0 .286-.264.55-.55.55-.31 0-.55-.264-.55-.55m0 2.198c0-.308.24-.55.55-.55.286 0 .55.242.55.55 0 .308-.264.55-.55.55-.31 0-.55-.242-.55-.55m0 2.198c0-.308.24-.55.55-.55.286 0 .55.242.55.55 0 .308-.264.55-.55.55-.31 0-.55-.242-.55-.55m0 2.218c0-.306.24-.55.55-.55.286 0 .55.244.55.55 0 .288-.264.55-.55.55-.31 0-.55-.262-.55-.55m0 2.198c0-.305.24-.55.55-.55.286 0 .55.245.55.55 0 .31-.264.55-.55.55-.31 0-.55-.24-.55-.55m0 2.198c0-.305.24-.55.55-.55.286 0 .55.245.55.55 0 .31-.264.55-.55.55-.31 0-.55-.24-.55-.55m0 2.223c0-.308.24-.55.55-.55.286 0 .55.242.55.55 0 .285-.264.525-.55.525-.31 0-.55-.24-.55-.525m0 2.198c0-.308.24-.55.55-.55.286 0 .55.242.55.55 0 .307-.264.55-.55.55-.31 0-.55-.243-.55-.55m0 2.198c0-.308.24-.55.55-.55.286 0 .55.242.55.55 0 .307-.264.55-.55.55-.31 0-.55-.243-.55-.55m0 2.198c0-.308.24-.55.55-.55.286 0 .55.242.55.55 0 .308-.264.55-.55.55-.31 0-.55-.242-.55-.55m0 2.22c0-.308.24-.55.55-.55.286 0 .55.242.55.55 0 .286-.264.55-.55.55-.31 0-.55-.264-.55-.55m0 2.198c0-.308.24-.55.55-.55.286 0 .55.242.55.55 0 .308-.264.55-.55.55-.31 0-.55-.242-.55-.55m0 2.198c0-.308.24-.55.55-.55.286 0 .55.242.55.55 0 .308-.264.55-.55.55-.31 0-.55-.242-.55-.55m0 2.22c0-.307.24-.55.55-.55.286 0 .55.243.55.55 0 .286-.264.55-.55.55-.31 0-.55-.264-.55-.55m0 2.198c0-.307.24-.55.55-.55.286 0 .55.243.55.55 0 .306-.264.55-.55.55-.31 0-.55-.244-.55-.55m0 2.198c0-.307.24-.549.55-.549.286 0 .55.242.55.55 0 .305-.264.549-.55.549-.31 0-.55-.244-.55-.55m0 2.22c0-.307.24-.57.55-.57.286 0 .55.263.55.57 0 .284-.264.55-.55.55-.31 0-.55-.266-.55-.55m0 2.199c0-.308.24-.55.55-.55.286 0 .55.242.55.55 0 .307-.264.55-.55.55-.31 0-.55-.243-.55-.55m0 2.198c0-.308.24-.55.55-.55.286 0 .55.242.55.55 0 .308-.264.55-.55.55-.31 0-.55-.242-.55-.55m0 2.198c0-.286.24-.55.55-.55.286 0 .55.264.55.55 0 .308-.264.55-.55.55-.31 0-.55-.242-.55-.55m0 2.22c0-.308.24-.55.55-.55.286 0 .55.242.55.55 0 .308-.264.55-.55.55-.31 0-.55-.242-.55-.55m0 2.198c0-.308.24-.55.55-.55.286 0 .55.242.55.55 0 .308-.264.55-.55.55-.31 0-.55-.242-.55-.55m0 2.198c0-.307.24-.55.55-.55.286 0 .55.243.55.55 0 .308-.264.55-.55.55-.31 0-.55-.242-.55-.55m0 2.22c0-.31.24-.55.55-.55.286 0 .55.24.55.55 0 .286-.264.55-.55.55-.31 0-.55-.264-.55-.55m0 2.198c0-.31.24-.55.55-.55.286 0 .55.24.55.55 0 .308-.264.55-.55.55-.31 0-.55-.242-.55-.55m0 2.199c0-.31.24-.55.55-.55.286 0 .55.24.55.55 0 .307-.264.55-.55.55-.31 0-.55-.243-.55-.55m0 2.198c0-.286.24-.55.55-.55.286 0 .55.264.55.55 0 .307-.264.571-.55.571-.31 0-.55-.264-.55-.571m0 2.22c0-.308.24-.55.55-.55.286 0 .55.242.55.55 0 .286-.264.55-.55.55-.31 0-.55-.264-.55-.55m0 2.198c0-.308.24-.55.55-.55.286 0 .55.242.55.55 0 .305-.264.55-.55.55-.31 0-.55-.245-.55-.55m0 2.198c0-.286.24-.528.55-.528.286 0 .55.242.55.528 0 .306-.264.572-.55.572-.31 0-.55-.266-.55-.572m0 2.22c0-.308.24-.55.55-.55.286 0 .55.242.55.55 0 .284-.264.55-.55.55-.31 0-.55-.266-.55-.55m0 2.198c0-.308.24-.55.55-.55.286 0 .55.242.55.55 0 .308-.264.55-.55.55-.31 0-.55-.242-.55-.55m0 2.198c0-.307.24-.55.55-.55.286 0 .55.243.55.55 0 .308-.264.55-.55.55-.31 0-.55-.242-.55-.55m0 2.22c0-.307.24-.55.55-.55.286 0 .55.243.55.55 0 .286-.264.55-.55.55-.31 0-.55-.264-.55-.55m0 2.199c0-.308.24-.55.55-.55.286 0 .55.242.55.55 0 .307-.264.549-.55.549-.31 0-.55-.242-.55-.55m0 2.199c0-.308.24-.55.55-.55.286 0 .55.242.55.55 0 .307-.264.55-.55.55-.31 0-.55-.243-.55-.55m0 2.22c0-.31.24-.55.55-.55.286 0 .55.24.55.55 0 .285-.264.527-.55.527-.31 0-.55-.242-.55-.527m0 2.198c0-.31.24-.55.55-.55.286 0 .55.24.55.55 0 .308-.264.55-.55.55-.31 0-.55-.242-.55-.55m0 2.198c0-.31.24-.55.55-.55.286 0 .55.24.55.55 0 .308-.264.55-.55.55-.31 0-.55-.242-.55-.55m0 2.198c0-.31.24-.55.55-.55.286 0 .55.24.55.55 0 .308-.264.55-.55.55-.31 0-.55-.242-.55-.55m0 2.22c0-.308.24-.55.55-.55.286 0 .55.242.55.55 0 .286-.264.55-.55.55-.31 0-.55-.264-.55-.55m0 2.198c0-.307.24-.55.55-.55.286 0 .55.243.55.55 0 .306-.264.55-.55.55-.31 0-.55-.244-.55-.55m0 2.198c0-.307.24-.55.55-.55.286 0 .55.243.55.55 0 .306-.264.55-.55.55-.31 0-.55-.244-.55-.55m0 2.22c0-.307.24-.549.55-.549.286 0 .55.242.55.55 0 .283-.264.549-.55.549-.31 0-.55-.266-.55-.55m0 2.199c0-.308.24-.55.55-.55.286 0 .55.242.55.55 0 .307-.264.55-.55.55-.31 0-.55-.243-.55-.55m0 2.198c0-.308.24-.55.55-.55.286 0 .55.242.55.55 0 .307-.264.55-.55.55-.31 0-.55-.243-.55-.55m0 2.198c0-.286.24-.55.55-.55.286 0 .55.264.55.55 0 .308-.264.571-.55.571-.31 0-.55-.263-.55-.571m0 2.22c0-.308.24-.55.55-.55.286 0 .55.242.55.55 0 .308-.264.55-.55.55-.31 0-.55-.242-.55-.55m0 2.198c0-.308.24-.55.55-.55.286 0 .55.242.55.55 0 .308-.264.55-.55.55-.31 0-.55-.242-.55-.55m0 2.198c0-.288.24-.55.55-.55.286 0 .55.262.55.55 0 .308-.264.55-.55.55-.31 0-.55-.242-.55-.55m0 2.22c0-.31.24-.55.55-.55.286 0 .55.24.55.55 0 .308-.264.55-.55.55-.31 0-.55-.242-.55-.55m0 2.198c0-.31.24-.55.55-.55.286 0 .55.24.55.55 0 .308-.264.55-.55.55-.31 0-.55-.242-.55-.55"/>
        <path fill="#000" d="M369.593 391.266c-.304 0-.55-.246-.55-.55l.013-262.236c0-.304.247-.55.55-.55.305 0 .55.246.55.55l-.014 262.237c0 .303-.246.55-.55.55M619.45 130.684c0-.308.241-.55.55-.55.309 0 .548.242.548.55 0 .308-.24.55-.549.55-.308 0-.55-.242-.55-.55m0 2.198c0-.286.242-.55.55-.55.31 0 .55.264.55.55 0 .308-.24.55-.55.55-.308 0-.55-.242-.55-.55m0 2.22c0-.308.242-.55.55-.55.31 0 .55.242.55.55 0 .286-.24.55-.55.55-.308 0-.55-.264-.55-.55m0 2.198c0-.308.242-.55.55-.55.31 0 .55.242.55.55 0 .308-.24.55-.55.55-.308 0-.55-.242-.55-.55m0 2.198c0-.308.242-.55.55-.55.31 0 .55.242.55.55 0 .308-.24.55-.55.55-.308 0-.55-.242-.55-.55m0 2.22c0-.307.242-.571.55-.571.31 0 .55.264.55.571 0 .286-.24.55-.55.55-.308 0-.55-.264-.55-.55m0 2.198c0-.307.242-.55.55-.55.31 0 .55.243.55.55 0 .286-.24.55-.55.55-.308 0-.55-.264-.55-.55m0 2.199c0-.308.242-.55.55-.55.31 0 .55.242.55.55 0 .307-.24.549-.55.549-.308 0-.55-.242-.55-.55m0 2.199c0-.286.242-.55.55-.55.31 0 .55.264.55.55 0 .307-.24.55-.55.55-.308 0-.55-.243-.55-.55m0 2.22c0-.308.242-.55.55-.55.31 0 .55.242.55.55 0 .285-.24.55-.55.55-.308 0-.55-.265-.55-.55m0 2.198c0-.308.242-.55.55-.55.31 0 .55.242.55.55 0 .308-.24.55-.55.55-.308 0-.55-.242-.55-.55m0 2.198c0-.308.242-.55.55-.55.31 0 .55.242.55.55 0 .308-.24.55-.55.55-.308 0-.55-.242-.55-.55m0 2.22c0-.308.242-.55.55-.55.31 0 .55.242.55.55 0 .286-.24.55-.55.55-.308 0-.55-.264-.55-.55m0 2.198c0-.308.242-.55.55-.55.31 0 .55.242.55.55 0 .308-.24.55-.55.55-.308 0-.55-.242-.55-.55m0 2.198c0-.307.242-.55.55-.55.31 0 .55.243.55.55 0 .308-.24.55-.55.55-.308 0-.55-.242-.55-.55m0 2.198c0-.285.242-.527.55-.527.31 0 .55.242.55.527 0 .308-.24.55-.55.55-.308 0-.55-.242-.55-.55m0 2.22c0-.307.242-.549.55-.549.31 0 .55.242.55.55 0 .307-.24.549-.55.549-.308 0-.55-.242-.55-.55m0 2.199c0-.308.242-.55.55-.55.31 0 .55.242.55.55 0 .307-.24.55-.55.55-.308 0-.55-.243-.55-.55m0 2.198c0-.286.242-.55.55-.55.31 0 .55.264.55.55 0 .307-.24.55-.55.55-.308 0-.55-.243-.55-.55m0 2.22c0-.308.242-.55.55-.55.31 0 .55.242.55.55 0 .286-.24.55-.55.55-.308 0-.55-.264-.55-.55m0 2.198c0-.308.242-.55.55-.55.31 0 .55.242.55.55 0 .308-.24.55-.55.55-.308 0-.55-.242-.55-.55m0 2.198c0-.308.242-.55.55-.55.31 0 .55.242.55.55 0 .308-.24.55-.55.55-.308 0-.55-.242-.55-.55m0 2.22c0-.308.242-.55.55-.55.31 0 .55.242.55.55 0 .286-.24.55-.55.55-.308 0-.55-.264-.55-.55m0 2.198c0-.307.242-.55.55-.55.31 0 .55.243.55.55 0 .308-.24.55-.55.55-.308 0-.55-.242-.55-.55m0 2.198c0-.307.242-.55.55-.55.31 0 .55.243.55.55 0 .308-.24.55-.55.55-.308 0-.55-.242-.55-.55m0 2.22c0-.307.242-.55.55-.55.31 0 .55.243.55.55 0 .286-.24.528-.55.528-.308 0-.55-.242-.55-.528m0 2.199c0-.308.242-.55.55-.55.31 0 .55.242.55.55 0 .307-.24.55-.55.55-.308 0-.55-.243-.55-.55m0 2.198c0-.308.242-.55.55-.55.31 0 .55.242.55.55 0 .307-.24.55-.55.55-.308 0-.55-.243-.55-.55m0 2.198c0-.286.242-.55.55-.55.31 0 .55.264.55.55 0 .308-.24.55-.55.55-.308 0-.55-.242-.55-.55m0 2.22c0-.308.242-.55.55-.55.31 0 .55.242.55.55 0 .308-.24.55-.55.55-.308 0-.55-.242-.55-.55m0 2.198c0-.308.242-.55.55-.55.31 0 .55.242.55.55 0 .308-.24.55-.55.55-.308 0-.55-.242-.55-.55m0 2.198c0-.286.242-.55.55-.55.31 0 .55.264.55.55 0 .308-.24.55-.55.55-.308 0-.55-.242-.55-.55m0 2.22c0-.308.242-.55.55-.55.31 0 .55.242.55.55 0 .286-.24.55-.55.55-.308 0-.55-.264-.55-.55m0 2.198c0-.307.242-.55.55-.55.31 0 .55.243.55.55 0 .308-.24.55-.55.55-.308 0-.55-.242-.55-.55m0 2.198c0-.307.242-.55.55-.55.31 0 .55.243.55.55 0 .308-.24.55-.55.55-.308 0-.55-.242-.55-.55m0 2.199c0-.286.242-.55.55-.55.31 0 .55.264.55.55 0 .307-.24.571-.55.571-.308 0-.55-.264-.55-.571m0 2.22c0-.308.242-.55.55-.55.31 0 .55.242.55.55 0 .307-.24.55-.55.55-.308 0-.55-.243-.55-.55m0 2.198c0-.308.242-.55.55-.55.31 0 .55.242.55.55 0 .307-.24.55-.55.55-.308 0-.55-.243-.55-.55m0 2.198c0-.308.242-.55.55-.55.31 0 .55.242.55.55 0 .308-.24.55-.55.55-.308 0-.55-.242-.55-.55m0 2.22c0-.308.242-.55.55-.55.31 0 .55.242.55.55 0 .286-.24.55-.55.55-.308 0-.55-.264-.55-.55m0 2.198c0-.308.242-.55.55-.55.31 0 .55.242.55.55 0 .308-.24.55-.55.55-.308 0-.55-.242-.55-.55m0 2.198c0-.308.242-.55.55-.55.31 0 .55.242.55.55 0 .308-.24.55-.55.55-.308 0-.55-.242-.55-.55m0 2.22c0-.307.242-.55.55-.55.31 0 .55.243.55.55 0 .286-.24.528-.55.528-.308 0-.55-.242-.55-.528m0 2.198c0-.307.242-.55.55-.55.31 0 .55.243.55.55 0 .308-.24.55-.55.55-.308 0-.55-.242-.55-.55m0 2.199c0-.308.242-.55.55-.55.31 0 .55.242.55.55 0 .307-.24.549-.55.549-.308 0-.55-.242-.55-.55m0 2.199c0-.286.242-.528.55-.528.31 0 .55.242.55.528 0 .307-.24.55-.55.55-.308 0-.55-.243-.55-.55m0 2.22c0-.308.242-.55.55-.55.31 0 .55.242.55.55 0 .307-.24.55-.55.55-.308 0-.55-.243-.55-.55m0 2.198c0-.308.242-.55.55-.55.31 0 .55.242.55.55 0 .308-.24.55-.55.55-.308 0-.55-.242-.55-.55m0 2.198c0-.308.242-.55.55-.55.31 0 .55.242.55.55 0 .308-.24.55-.55.55-.308 0-.55-.242-.55-.55m0 2.22c0-.308.242-.55.55-.55.31 0 .55.242.55.55 0 .286-.24.55-.55.55-.308 0-.55-.264-.55-.55m0 2.198c0-.308.242-.55.55-.55.31 0 .55.242.55.55 0 .308-.24.55-.55.55-.308 0-.55-.242-.55-.55m0 2.198c0-.307.242-.55.55-.55.31 0 .55.243.55.55 0 .308-.24.55-.55.55-.308 0-.55-.242-.55-.55m0 2.22c0-.307.242-.55.55-.55.31 0 .55.243.55.55 0 .286-.24.55-.55.55-.308 0-.55-.264-.55-.55m0 2.198c0-.307.242-.55.55-.55.31 0 .55.243.55.55 0 .308-.24.55-.55.55-.308 0-.55-.242-.55-.55m0 2.199c0-.308.242-.55.55-.55.31 0 .55.242.55.55 0 .307-.24.55-.55.55-.308 0-.55-.243-.55-.55m0 2.198c0-.286.242-.55.55-.55.31 0 .55.264.55.55 0 .307-.24.55-.55.55-.308 0-.55-.243-.55-.55m0 2.218c0-.306.242-.55.55-.55.31 0 .55.244.55.55 0 .288-.24.55-.55.55-.308 0-.55-.262-.55-.55m0 2.198c0-.306.242-.55.55-.55.31 0 .55.244.55.55 0 .31-.24.55-.55.55-.308 0-.55-.24-.55-.55m0 2.198c0-.284.242-.55.55-.55.31 0 .55.266.55.55 0 .31-.24.55-.55.55-.308 0-.55-.24-.55-.55m0 2.222c0-.308.242-.55.55-.55.31 0 .55.242.55.55 0 .286-.24.55-.55.55-.308 0-.55-.264-.55-.55m0 2.198c0-.308.242-.55.55-.55.31 0 .55.242.55.55 0 .308-.24.55-.55.55-.308 0-.55-.242-.55-.55m0 2.198c0-.307.242-.55.55-.55.31 0 .55.243.55.55 0 .308-.24.55-.55.55-.308 0-.55-.242-.55-.55m0 2.198c0-.285.242-.55.55-.55.31 0 .55.265.55.55 0 .308-.24.55-.55.55-.308 0-.55-.242-.55-.55m0 2.22c0-.307.242-.549.55-.549.31 0 .55.242.55.55 0 .307-.24.55-.55.55-.308 0-.55-.243-.55-.55m0 2.198c0-.308.242-.55.55-.55.31 0 .55.242.55.55 0 .307-.24.55-.55.55-.308 0-.55-.243-.55-.55m0 2.198c0-.286.242-.55.55-.55.31 0 .55.264.55.55 0 .308-.24.571-.55.571-.308 0-.55-.263-.55-.571m0 2.22c0-.308.242-.55.55-.55.31 0 .55.242.55.55 0 .308-.24.55-.55.55-.308 0-.55-.242-.55-.55m0 2.198c0-.308.242-.55.55-.55.31 0 .55.242.55.55 0 .308-.24.55-.55.55-.308 0-.55-.242-.55-.55m0 2.198c0-.308.242-.55.55-.55.31 0 .55.242.55.55 0 .308-.24.57-.55.57-.308 0-.55-.262-.55-.57m0 2.218c0-.306.242-.55.55-.55.31 0 .55.244.55.55 0 .288-.24.55-.55.55-.308 0-.55-.262-.55-.55m0 2.198c0-.305.242-.55.55-.55.31 0 .55.245.55.55 0 .31-.24.55-.55.55-.308 0-.55-.24-.55-.55m0 2.198c0-.305.242-.55.55-.55.31 0 .55.245.55.55 0 .31-.24.55-.55.55-.308 0-.55-.24-.55-.55m0 2.223c0-.308.242-.55.55-.55.31 0 .55.242.55.55 0 .285-.24.549-.55.549-.308 0-.55-.264-.55-.55m0 2.199c0-.308.242-.55.55-.55.31 0 .55.242.55.55 0 .307-.24.55-.55.55-.308 0-.55-.243-.55-.55m0 2.198c0-.308.242-.55.55-.55.31 0 .55.242.55.55 0 .307-.24.55-.55.55-.308 0-.55-.243-.55-.55m0 2.198c0-.286.242-.55.55-.55.31 0 .55.264.55.55 0 .308-.24.55-.55.55-.308 0-.55-.242-.55-.55m0 2.22c0-.308.242-.55.55-.55.31 0 .55.242.55.55 0 .308-.24.55-.55.55-.308 0-.55-.242-.55-.55m0 2.198c0-.308.242-.55.55-.55.31 0 .55.242.55.55 0 .308-.24.55-.55.55-.308 0-.55-.242-.55-.55m0 2.198c0-.308.242-.55.55-.55.31 0 .55.242.55.55 0 .308-.24.55-.55.55-.308 0-.55-.242-.55-.55m0 2.22c0-.307.242-.571.55-.571.31 0 .55.264.55.571 0 .286-.24.55-.55.55-.308 0-.55-.264-.55-.55m0 2.198c0-.307.242-.55.55-.55.31 0 .55.243.55.55 0 .306-.24.55-.55.55-.308 0-.55-.244-.55-.55m0 2.198c0-.307.242-.549.55-.549.31 0 .55.242.55.55 0 .305-.24.549-.55.549-.308 0-.55-.244-.55-.55m0 2.22c0-.307.242-.57.55-.57.31 0 .55.263.55.57 0 .284-.24.55-.55.55-.308 0-.55-.266-.55-.55m0 2.199c0-.308.242-.55.55-.55.31 0 .55.242.55.55 0 .307-.24.55-.55.55-.308 0-.55-.243-.55-.55m0 2.198c0-.308.242-.55.55-.55.31 0 .55.242.55.55 0 .308-.24.55-.55.55-.308 0-.55-.242-.55-.55m0 2.198c0-.286.242-.55.55-.55.31 0 .55.264.55.55 0 .308-.24.571-.55.571-.308 0-.55-.263-.55-.571m0 2.22c0-.308.242-.55.55-.55.31 0 .55.242.55.55 0 .286-.24.55-.55.55-.308 0-.55-.264-.55-.55m0 2.198c0-.308.242-.55.55-.55.31 0 .55.242.55.55 0 .308-.24.55-.55.55-.308 0-.55-.242-.55-.55m0 2.198c0-.307.242-.55.55-.55.31 0 .55.243.55.55 0 .308-.24.55-.55.55-.308 0-.55-.242-.55-.55m0 2.22c0-.31.242-.55.55-.55.31 0 .55.24.55.55 0 .286-.24.55-.55.55-.308 0-.55-.264-.55-.55m0 2.198c0-.31.242-.55.55-.55.31 0 .55.24.55.55 0 .308-.24.55-.55.55-.308 0-.55-.242-.55-.55m0 2.199c0-.31.242-.55.55-.55.31 0 .55.24.55.55 0 .307-.24.55-.55.55-.308 0-.55-.243-.55-.55m0 2.198c0-.286.242-.528.55-.528.31 0 .55.242.55.528 0 .307-.24.55-.55.55-.308 0-.55-.243-.55-.55m0 2.22c0-.308.242-.55.55-.55.31 0 .55.242.55.55 0 .305-.24.55-.55.55-.308 0-.55-.245-.55-.55m0 2.198c0-.308.242-.55.55-.55.31 0 .55.242.55.55 0 .305-.24.55-.55.55-.308 0-.55-.245-.55-.55m0 2.198c0-.286.242-.55.55-.55.31 0 .55.264.55.55 0 .306-.24.55-.55.55-.308 0-.55-.244-.55-.55m0 2.22c0-.308.242-.55.55-.55.31 0 .55.242.55.55 0 .308-.24.55-.55.55-.308 0-.55-.242-.55-.55m0 2.198c0-.308.242-.55.55-.55.31 0 .55.242.55.55 0 .308-.24.55-.55.55-.308 0-.55-.242-.55-.55m0 2.198c0-.307.242-.55.55-.55.31 0 .55.243.55.55 0 .308-.24.55-.55.55-.308 0-.55-.242-.55-.55m0 2.22c0-.307.242-.571.55-.571.31 0 .55.264.55.571 0 .286-.24.55-.55.55-.308 0-.55-.264-.55-.55m0 2.199c0-.308.242-.55.55-.55.31 0 .55.242.55.55 0 .307-.24.549-.55.549-.308 0-.55-.242-.55-.55m0 2.199c0-.308.242-.55.55-.55.31 0 .55.242.55.55 0 .307-.24.55-.55.55-.308 0-.55-.243-.55-.55m0 2.22c0-.31.242-.572.55-.572.31 0 .55.262.55.572 0 .285-.24.55-.55.55-.308 0-.55-.265-.55-.55m0 2.198c0-.31.242-.55.55-.55.31 0 .55.24.55.55 0 .308-.24.55-.55.55-.308 0-.55-.242-.55-.55m0 2.198c0-.31.242-.55.55-.55.31 0 .55.24.55.55 0 .308-.24.55-.55.55-.308 0-.55-.242-.55-.55m0 2.198c0-.286.242-.527.55-.527.31 0 .55.241.55.527 0 .308-.24.55-.55.55-.308 0-.55-.242-.55-.55m0 2.22c0-.308.242-.55.55-.55.31 0 .55.242.55.55 0 .306-.24.55-.55.55-.308 0-.55-.244-.55-.55m0 2.198c0-.307.242-.55.55-.55.31 0 .55.243.55.55 0 .306-.24.55-.55.55-.308 0-.55-.244-.55-.55m0 2.198c0-.307.242-.55.55-.55.31 0 .55.243.55.55 0 .306-.24.55-.55.55-.308 0-.55-.244-.55-.55m0 2.22c0-.307.242-.549.55-.549.31 0 .55.242.55.55 0 .283-.24.549-.55.549-.308 0-.55-.266-.55-.55m0 2.199c0-.308.242-.55.55-.55.31 0 .55.242.55.55 0 .307-.24.55-.55.55-.308 0-.55-.243-.55-.55m0 2.198c0-.308.242-.55.55-.55.31 0 .55.242.55.55 0 .307-.24.55-.55.55-.308 0-.55-.243-.55-.55m0 2.198c0-.286.242-.528.55-.528.31 0 .55.242.55.528 0 .308-.24.55-.55.55-.308 0-.55-.242-.55-.55m0 2.22c0-.308.242-.55.55-.55.31 0 .55.242.55.55 0 .308-.24.55-.55.55-.308 0-.55-.242-.55-.55m0 2.198c0-.308.242-.55.55-.55.31 0 .55.242.55.55 0 .308-.24.55-.55.55-.308 0-.55-.242-.55-.55m0 2.198c0-.288.242-.55.55-.55.31 0 .55.262.55.55 0 .308-.24.55-.55.55-.308 0-.55-.242-.55-.55m0 2.22c0-.31.242-.55.55-.55.31 0 .55.24.55.55 0 .286-.24.55-.55.55-.308 0-.55-.264-.55-.55m0 2.198c0-.31.242-.55.55-.55.31 0 .55.24.55.55 0 .308-.24.55-.55.55-.308 0-.55-.242-.55-.55"/>
        <path fill="#000" d="M620 391.266c-.304 0-.55-.246-.55-.55l.013-262.236c0-.304.246-.55.55-.55.305 0 .549.246.549.55l-.014 262.237c0 .303-.246.55-.549.55"/>
        <mask id="prefix__b" fill="#fff">
            <use xlink:href="#prefix__a"/>
        </mask>
        <path fill="#000" d="M.286 434.341L687.033 434.341 687.033 433.242.286 433.242zM.286 32.679L688.589 32.679 688.589 31.58.286 31.58z" mask="url(#prefix__b)"/>
        <path fill="#1A1919" d="M1.816 176.24c-.141 0-.242-.07-.304-.21-.061-.14-.04-.273.066-.396l8.913-8.045c1.16-1.073 1.74-2.321 1.74-3.746 0-1.424-.492-2.681-1.476-3.772-.985-1.09-2.193-1.635-3.626-1.635-1.433 0-2.659.457-3.679 1.372l-.922.844c-.106.088-.22.11-.343.066-.123-.044-.194-.123-.211-.238-.018-.114.017-.215.105-.303l.923-.87c1.143-1.02 2.527-1.53 4.153-1.53 1.626 0 3.028.641 4.206 1.925 1.02 1.16 1.53 2.554 1.53 4.181 0 1.627-.66 3.02-1.978 4.18l-8.28 7.518h9.941c.211 0 .317.106.317.317 0 .088-.031.167-.093.237-.061.07-.136.106-.224.106H1.816zM19.932 160.915c-1.143 1.706-1.714 3.737-1.714 6.093 0 2.357.57 4.388 1.714 6.094 1.072 1.653 2.377 2.48 3.915 2.48 1.539 0 2.844-.827 3.916-2.48 1.143-1.653 1.714-3.684 1.714-6.094 0-2.409-.571-4.44-1.714-6.093-1.072-1.65-2.377-2.48-3.916-2.48-1.538 0-2.843.83-3.915 2.48m3.902-3.139c1.776.018 3.27.928 4.483 2.73 1.213 1.803 1.82 3.966 1.82 6.49 0 2.523-.603 4.69-1.807 6.501-1.204 1.812-2.703 2.726-4.496 2.744-1.758-.018-3.243-.932-4.456-2.744-1.213-1.811-1.82-3.978-1.82-6.502 0-2.523.607-4.686 1.82-6.489 1.213-1.802 2.698-2.712 4.456-2.73M39.102 158.146c0-.088.036-.167.106-.237.07-.07.14-.106.21-.106.23 0 .344.115.344.343v17.752c0 .229-.115.343-.343.343-.088 0-.163-.035-.224-.106-.062-.07-.093-.149-.093-.237v-17.752zm-3.217 2.506c-.035.018-.11.026-.224.026s-.198-.079-.25-.237c-.053-.158 0-.281.158-.37l3.692-2.189c.193-.14.342-.11.448.093.105.202.061.356-.132.461l-3.692 2.216zM48.608 159.333c-.59.58-.884 1.284-.884 2.11 0 .827.295 1.53.884 2.11.589.581 1.292.871 2.11.871.817 0 1.52-.29 2.109-.87.589-.58.883-1.284.883-2.11 0-.827-.29-1.53-.87-2.11-.58-.581-1.283-.88-2.11-.898-.826.018-1.533.317-2.122.897m-1.57 7.36c-1.019 1.02-1.529 2.25-1.529 3.692 0 1.442.51 2.669 1.53 3.68 1.02 1.011 2.25 1.517 3.692 1.517 1.441 0 2.672-.506 3.691-1.517 1.02-1.011 1.53-2.238 1.53-3.68 0-1.442-.51-2.672-1.53-3.692s-2.25-1.53-3.691-1.53c-1.442 0-2.672.51-3.692 1.53m.026-5.25c0-1.02.356-1.885 1.068-2.598.712-.712 1.574-1.068 2.584-1.068 1.011 0 1.873.356 2.585 1.068.712.713 1.068 1.579 1.068 2.599 0 .72-.194 1.376-.58 1.965-.387.589-.888 1.033-1.504 1.332 1.249.351 2.281 1.046 3.099 2.083.817 1.038 1.226 2.295 1.226 3.772 0 1.478-.576 2.788-1.727 3.93-1.152 1.144-2.536 1.715-4.153 1.715-1.618 0-3.002-.571-4.154-1.714-1.151-1.143-1.727-2.453-1.727-3.93 0-1.478.409-2.735 1.226-3.773.818-1.037 1.85-1.732 3.099-2.083-.633-.3-1.143-.743-1.53-1.332-.386-.59-.58-1.245-.58-1.965M1.816 271.199c-.141 0-.242-.068-.304-.211-.061-.14-.04-.27.066-.394l8.913-8.047c1.16-1.073 1.74-2.321 1.74-3.746 0-1.422-.492-2.679-1.476-3.77-.985-1.092-2.193-1.637-3.626-1.637-1.433 0-2.659.457-3.679 1.372l-.922.844c-.106.09-.22.112-.343.066-.123-.044-.194-.121-.211-.238-.018-.114.017-.215.105-.303l.923-.868c1.143-1.022 2.527-1.53 4.153-1.53 1.626 0 3.028.642 4.206 1.925 1.02 1.159 1.53 2.555 1.53 4.181 0 1.627-.66 3.018-1.978 4.179l-8.28 7.52h9.941c.211 0 .317.103.317.316 0 .088-.031.165-.093.238-.061.068-.136.103-.224.103H1.816zM19.932 255.874c-1.143 1.706-1.714 3.737-1.714 6.093 0 2.359.57 4.39 1.714 6.094 1.072 1.653 2.377 2.481 3.915 2.481 1.539 0 2.844-.828 3.916-2.481 1.143-1.653 1.714-3.684 1.714-6.094 0-2.407-.571-4.438-1.714-6.093-1.072-1.65-2.377-2.48-3.916-2.48-1.538 0-2.843.83-3.915 2.48m3.902-3.139c1.776.018 3.27.928 4.483 2.728 1.213 1.805 1.82 3.968 1.82 6.493 0 2.522-.603 4.689-1.807 6.5s-2.703 2.726-4.496 2.743c-1.758-.017-3.243-.932-4.456-2.743-1.213-1.811-1.82-3.978-1.82-6.5 0-2.525.607-4.688 1.82-6.493 1.213-1.8 2.698-2.71 4.456-2.728M39.102 253.105c0-.088.036-.167.106-.237.07-.07.14-.106.21-.106.23 0 .344.114.344.343v17.752c0 .23-.115.34-.343.34-.088 0-.163-.032-.224-.1-.062-.075-.093-.152-.093-.24v-17.752zm-3.217 2.506c-.035.015-.11.024-.224.024s-.198-.077-.25-.235c-.053-.158 0-.281.158-.37l3.692-2.189c.193-.143.342-.11.448.093.105.204.061.356-.132.461l-3.692 2.216zM48.516 270.988c-.036.14-.11.207-.225.198-.114-.009-.18-.013-.197-.013-.194-.086-.255-.235-.185-.446l7.252-17.28h-9.73c-.23 0-.343-.112-.343-.343 0-.088.035-.167.105-.237.07-.068.15-.106.237-.106h10.284c.088 0 .167.042.238.12.07.08.105.149.105.21 0 .064-.035.145-.105.253l-7.436 17.644zM1.816 366.16c-.141 0-.242-.07-.304-.213-.061-.139-.04-.273.066-.394l8.913-8.047c1.16-1.07 1.74-2.32 1.74-3.746 0-1.424-.492-2.68-1.476-3.77-.985-1.092-2.193-1.637-3.626-1.637-1.433 0-2.659.457-3.679 1.371l-.922.847c-.106.085-.22.107-.343.066-.123-.044-.194-.123-.211-.238-.018-.116.017-.217.105-.305l.923-.87c1.143-1.018 2.527-1.528 4.153-1.528 1.626 0 3.028.641 4.206 1.925 1.02 1.16 1.53 2.554 1.53 4.179 0 1.626-.66 3.022-1.978 4.18l-8.28 7.518h9.941c.211 0 .317.108.317.319 0 .088-.031.167-.093.235-.061.07-.136.108-.224.108H1.816zM19.932 350.833c-1.143 1.706-1.714 3.737-1.714 6.091 0 2.359.57 4.39 1.714 6.095 1.072 1.656 2.377 2.48 3.915 2.48 1.539 0 2.844-.824 3.916-2.48 1.143-1.65 1.714-3.684 1.714-6.095 0-2.407-.571-4.438-1.714-6.09-1.072-1.654-2.377-2.48-3.916-2.48-1.538 0-2.843.826-3.915 2.48m3.902-3.14c1.776.018 3.27.928 4.483 2.73 1.213 1.805 1.82 3.966 1.82 6.49 0 2.523-.603 4.69-1.807 6.503-1.204 1.812-2.703 2.726-4.496 2.744-1.758-.018-3.243-.932-4.456-2.744-1.213-1.813-1.82-3.98-1.82-6.504 0-2.523.607-4.684 1.82-6.489 1.213-1.802 2.698-2.712 4.456-2.73M39.102 348.064c0-.088.036-.167.106-.235.07-.075.14-.108.21-.108.23 0 .344.114.344.343v17.752c0 .229-.115.343-.343.343-.088 0-.163-.035-.224-.106-.062-.07-.093-.15-.093-.237v-17.752zm-3.217 2.508c-.035.015-.11.024-.224.024s-.198-.081-.25-.237c-.053-.156 0-.282.158-.37l3.692-2.189c.193-.14.342-.11.448.093.105.202.061.356-.132.461l-3.692 2.218zM51.14 354.869c-1.469 0-2.721.518-3.759 1.556-1.037 1.037-1.555 2.29-1.555 3.759 0 1.468.518 2.721 1.555 3.76 1.038 1.038 2.29 1.555 3.758 1.555s2.716-.517 3.745-1.554c1.028-1.04 1.56-2.297 1.595-3.774-.035-1.478-.567-2.73-1.595-3.76-1.029-1.028-2.277-1.542-3.745-1.542m-5.946 5.99c-.07-.073-.106-.739-.106-2.007 0-1.266.167-2.555.501-3.862.334-1.31.822-2.508 1.464-3.59.642-1.081 1.499-1.956 2.57-2.622 1.073-.67 2.295-1.031 3.666-1.084.229 0 .343.11.343.332 0 .218-.097.327-.29.327-2.25.106-4.004 1.016-5.26 2.73-1.258 1.717-2.01 3.832-2.255 6.344.492-.982 1.213-1.767 2.162-2.347.95-.58 1.995-.87 3.138-.87 1.652 0 3.063.582 4.232 1.74 1.17 1.16 1.763 2.568 1.78 4.22-.017 1.654-.61 3.067-1.78 4.234-1.169 1.17-2.553 1.756-4.153 1.756-1.6 0-2.962-.507-4.087-1.519-1.125-1.01-1.767-2.272-1.925-3.782" mask="url(#prefix__b)"/>
        <path fill="#000" d="M118.981 130.684c0-.308.242-.55.55-.55.307 0 .549.242.549.55 0 .308-.242.55-.55.55-.307 0-.549-.242-.549-.55m0 2.198c0-.308.242-.55.55-.55.307 0 .549.242.549.55 0 .308-.242.55-.55.55-.307 0-.549-.242-.549-.55m0 2.22c0-.308.242-.55.55-.55.307 0 .549.242.549.55 0 .286-.242.55-.55.55-.307 0-.549-.264-.549-.55m0 2.198c0-.308.242-.55.55-.55.307 0 .549.242.549.55 0 .308-.242.55-.55.55-.307 0-.549-.242-.549-.55m0 2.198c0-.308.242-.55.55-.55.307 0 .549.242.549.55 0 .308-.242.55-.55.55-.307 0-.549-.242-.549-.55m0 2.198c0-.285.242-.527.55-.527.307 0 .549.242.549.527 0 .308-.242.572-.55.572-.307 0-.549-.264-.549-.572m0 2.22c0-.307.242-.55.55-.55.307 0 .549.243.549.55 0 .308-.242.55-.55.55-.307 0-.549-.242-.549-.55m0 2.199c0-.308.242-.55.55-.55.307 0 .549.242.549.55 0 .307-.242.549-.55.549-.307 0-.549-.242-.549-.55m0 2.199c0-.286.242-.55.55-.55.307 0 .549.264.549.55 0 .307-.242.55-.55.55-.307 0-.549-.243-.549-.55m0 2.22c0-.308.242-.55.55-.55.307 0 .549.242.549.55 0 .285-.242.55-.55.55-.307 0-.549-.265-.549-.55m0 2.198c0-.308.242-.55.55-.55.307 0 .549.242.549.55 0 .308-.242.55-.55.55-.307 0-.549-.242-.549-.55m0 2.198c0-.308.242-.55.55-.55.307 0 .549.242.549.55 0 .308-.242.55-.55.55-.307 0-.549-.242-.549-.55m0 2.22c0-.308.242-.55.55-.55.307 0 .549.242.549.55 0 .286-.242.55-.55.55-.307 0-.549-.264-.549-.55m0 2.198c0-.308.242-.55.55-.55.307 0 .549.242.549.55 0 .308-.242.55-.55.55-.307 0-.549-.242-.549-.55m0 2.198c0-.307.242-.55.55-.55.307 0 .549.243.549.55 0 .308-.242.55-.55.55-.307 0-.549-.242-.549-.55m0 2.22c0-.307.242-.571.55-.571.307 0 .549.264.549.571 0 .286-.242.528-.55.528-.307 0-.549-.242-.549-.528m0 2.198c0-.307.242-.549.55-.549.307 0 .549.242.549.55 0 .307-.242.549-.55.549-.307 0-.549-.242-.549-.55m0 2.199c0-.308.242-.55.55-.55.307 0 .549.242.549.55 0 .307-.242.55-.55.55-.307 0-.549-.243-.549-.55m0 2.198c0-.286.242-.55.55-.55.307 0 .549.264.549.55 0 .307-.242.55-.55.55-.307 0-.549-.243-.549-.55m0 2.22c0-.308.242-.55.55-.55.307 0 .549.242.549.55 0 .286-.242.55-.55.55-.307 0-.549-.264-.549-.55m0 2.198c0-.308.242-.55.55-.55.307 0 .549.242.549.55 0 .308-.242.55-.55.55-.307 0-.549-.242-.549-.55m0 2.198c0-.286.242-.55.55-.55.307 0 .549.264.549.55 0 .308-.242.55-.55.55-.307 0-.549-.242-.549-.55m0 2.22c0-.308.242-.571.55-.571.307 0 .549.263.549.571 0 .286-.242.55-.55.55-.307 0-.549-.264-.549-.55m0 2.198c0-.307.242-.55.55-.55.307 0 .549.243.549.55 0 .308-.242.55-.55.55-.307 0-.549-.242-.549-.55m0 2.198c0-.307.242-.55.55-.55.307 0 .549.243.549.55 0 .308-.242.55-.55.55-.307 0-.549-.242-.549-.55m0 2.22c0-.307.242-.571.55-.571.307 0 .549.264.549.571 0 .286-.242.528-.55.528-.307 0-.549-.242-.549-.528m0 2.199c0-.308.242-.55.55-.55.307 0 .549.242.549.55 0 .307-.242.55-.55.55-.307 0-.549-.243-.549-.55m0 2.198c0-.308.242-.55.55-.55.307 0 .549.242.549.55 0 .307-.242.55-.55.55-.307 0-.549-.243-.549-.55m0 2.198c0-.286.242-.55.55-.55.307 0 .549.264.549.55 0 .308-.242.55-.55.55-.307 0-.549-.242-.549-.55m0 2.22c0-.308.242-.55.55-.55.307 0 .549.242.549.55 0 .308-.242.55-.55.55-.307 0-.549-.242-.549-.55m0 2.198c0-.308.242-.55.55-.55.307 0 .549.242.549.55 0 .308-.242.55-.55.55-.307 0-.549-.242-.549-.55m0 2.198c0-.308.242-.55.55-.55.307 0 .549.242.549.55 0 .308-.242.55-.55.55-.307 0-.549-.242-.549-.55m0 2.22c0-.308.242-.55.55-.55.307 0 .549.242.549.55 0 .286-.242.55-.55.55-.307 0-.549-.264-.549-.55m0 2.198c0-.307.242-.55.55-.55.307 0 .549.243.549.55 0 .308-.242.55-.55.55-.307 0-.549-.242-.549-.55m0 2.198c0-.307.242-.55.55-.55.307 0 .549.243.549.55 0 .308-.242.55-.55.55-.307 0-.549-.242-.549-.55m0 2.199c0-.286.242-.528.55-.528.307 0 .549.242.549.528 0 .307-.242.571-.55.571-.307 0-.549-.264-.549-.571m0 2.22c0-.308.242-.55.55-.55.307 0 .549.242.549.55 0 .307-.242.55-.55.55-.307 0-.549-.243-.549-.55m0 2.198c0-.308.242-.55.55-.55.307 0 .549.242.549.55 0 .307-.242.55-.55.55-.307 0-.549-.243-.549-.55m0 2.198c0-.286.242-.55.55-.55.307 0 .549.264.549.55 0 .308-.242.55-.55.55-.307 0-.549-.242-.549-.55m0 2.22c0-.308.242-.55.55-.55.307 0 .549.242.549.55 0 .286-.242.55-.55.55-.307 0-.549-.264-.549-.55m0 2.198c0-.308.242-.55.55-.55.307 0 .549.242.549.55 0 .308-.242.55-.55.55-.307 0-.549-.242-.549-.55m0 2.198c0-.308.242-.55.55-.55.307 0 .549.242.549.55 0 .308-.242.55-.55.55-.307 0-.549-.242-.549-.55m0 2.22c0-.307.242-.55.55-.55.307 0 .549.243.549.55 0 .286-.242.55-.55.55-.307 0-.549-.264-.549-.55m0 2.198c0-.307.242-.55.55-.55.307 0 .549.243.549.55 0 .308-.242.55-.55.55-.307 0-.549-.242-.549-.55m0 2.199c0-.308.242-.55.55-.55.307 0 .549.242.549.55 0 .307-.242.549-.55.549-.307 0-.549-.242-.549-.55m0 2.22c0-.307.242-.57.55-.57.307 0 .549.263.549.57 0 .286-.242.528-.55.528-.307 0-.549-.242-.549-.527m0 2.198c0-.308.242-.55.55-.55.307 0 .549.242.549.55 0 .285-.242.55-.55.55-.307 0-.549-.265-.549-.55m0 2.198c0-.308.242-.55.55-.55.307 0 .549.242.549.55 0 .308-.242.55-.55.55-.307 0-.549-.242-.549-.55m0 2.198c0-.308.242-.55.55-.55.307 0 .549.242.549.55 0 .308-.242.55-.55.55-.307 0-.549-.242-.549-.55m0 2.22c0-.308.242-.55.55-.55.307 0 .549.242.549.55 0 .286-.242.55-.55.55-.307 0-.549-.264-.549-.55m0 2.198c0-.308.242-.55.55-.55.307 0 .549.242.549.55 0 .308-.242.55-.55.55-.307 0-.549-.242-.549-.55m0 2.198c0-.307.242-.55.55-.55.307 0 .549.243.549.55 0 .308-.242.55-.55.55-.307 0-.549-.242-.549-.55m0 2.22c0-.307.242-.571.55-.571.307 0 .549.264.549.571 0 .286-.242.55-.55.55-.307 0-.549-.264-.549-.55m0 2.198c0-.307.242-.55.55-.55.307 0 .549.243.549.55 0 .308-.242.55-.55.55-.307 0-.549-.242-.549-.55m0 2.199c0-.308.242-.55.55-.55.307 0 .549.242.549.55 0 .307-.242.55-.55.55-.307 0-.549-.243-.549-.55m0 2.198c0-.286.242-.55.55-.55.307 0 .549.264.549.55 0 .307-.242.55-.55.55-.307 0-.549-.243-.549-.55m0 2.218c0-.306.242-.55.55-.55.307 0 .549.244.549.55 0 .31-.242.55-.55.55-.307 0-.549-.24-.549-.55m0 2.198c0-.306.242-.55.55-.55.307 0 .549.244.549.55 0 .31-.242.55-.55.55-.307 0-.549-.24-.549-.55m0 2.198c0-.284.242-.55.55-.55.307 0 .549.266.549.55 0 .31-.242.55-.55.55-.307 0-.549-.24-.549-.55m0 2.222c0-.308.242-.55.55-.55.307 0 .549.242.549.55 0 .286-.242.55-.55.55-.307 0-.549-.264-.549-.55m0 2.198c0-.308.242-.55.55-.55.307 0 .549.242.549.55 0 .308-.242.55-.55.55-.307 0-.549-.242-.549-.55m0 2.198c0-.307.242-.55.55-.55.307 0 .549.243.549.55 0 .308-.242.55-.55.55-.307 0-.549-.242-.549-.55m0 2.198c0-.285.242-.55.55-.55.307 0 .549.265.549.55 0 .308-.242.572-.55.572-.307 0-.549-.264-.549-.572m0 2.22c0-.307.242-.549.55-.549.307 0 .549.242.549.55 0 .307-.242.55-.55.55-.307 0-.549-.243-.549-.55m0 2.198c0-.308.242-.55.55-.55.307 0 .549.242.549.55 0 .307-.242.55-.55.55-.307 0-.549-.243-.549-.55m0 2.198c0-.286.242-.528.55-.528.307 0 .549.242.549.528 0 .308-.242.571-.55.571-.307 0-.549-.263-.549-.571m0 2.22c0-.308.242-.55.55-.55.307 0 .549.242.549.55 0 .286-.242.55-.55.55-.307 0-.549-.264-.549-.55m0 2.198c0-.308.242-.55.55-.55.307 0 .549.242.549.55 0 .308-.242.55-.55.55-.307 0-.549-.242-.549-.55m0 2.198c0-.308.242-.55.55-.55.307 0 .549.242.549.55 0 .308-.242.55-.55.55-.307 0-.549-.242-.549-.55m0 2.218c0-.306.242-.55.55-.55.307 0 .549.244.549.55 0 .288-.242.55-.55.55-.307 0-.549-.262-.549-.55m0 2.198c0-.305.242-.55.55-.55.307 0 .549.245.549.55 0 .31-.242.55-.55.55-.307 0-.549-.24-.549-.55m0 2.198c0-.305.242-.55.55-.55.307 0 .549.245.549.55 0 .31-.242.55-.55.55-.307 0-.549-.24-.549-.55m0 2.223c0-.308.242-.55.55-.55.307 0 .549.242.549.55 0 .285-.242.525-.55.525-.307 0-.549-.24-.549-.525m0 2.198c0-.308.242-.55.55-.55.307 0 .549.242.549.55 0 .307-.242.55-.55.55-.307 0-.549-.243-.549-.55m0 2.198c0-.308.242-.55.55-.55.307 0 .549.242.549.55 0 .307-.242.55-.55.55-.307 0-.549-.243-.549-.55m0 2.198c0-.308.242-.55.55-.55.307 0 .549.242.549.55 0 .308-.242.55-.55.55-.307 0-.549-.242-.549-.55m0 2.22c0-.308.242-.55.55-.55.307 0 .549.242.549.55 0 .286-.242.55-.55.55-.307 0-.549-.264-.549-.55m0 2.198c0-.308.242-.55.55-.55.307 0 .549.242.549.55 0 .308-.242.55-.55.55-.307 0-.549-.242-.549-.55m0 2.198c0-.308.242-.55.55-.55.307 0 .549.242.549.55 0 .308-.242.55-.55.55-.307 0-.549-.242-.549-.55m0 2.22c0-.307.242-.55.55-.55.307 0 .549.243.549.55 0 .286-.242.55-.55.55-.307 0-.549-.264-.549-.55m0 2.198c0-.307.242-.55.55-.55.307 0 .549.243.549.55 0 .306-.242.55-.55.55-.307 0-.549-.244-.549-.55m0 2.198c0-.307.242-.549.55-.549.307 0 .549.242.549.55 0 .305-.242.549-.55.549-.307 0-.549-.244-.549-.55m0 2.22c0-.307.242-.57.55-.57.307 0 .549.263.549.57 0 .284-.242.55-.55.55-.307 0-.549-.266-.549-.55m0 2.199c0-.308.242-.55.55-.55.307 0 .549.242.549.55 0 .307-.242.55-.55.55-.307 0-.549-.243-.549-.55m0 2.198c0-.308.242-.55.55-.55.307 0 .549.242.549.55 0 .308-.242.55-.55.55-.307 0-.549-.242-.549-.55m0 2.198c0-.286.242-.55.55-.55.307 0 .549.264.549.55 0 .308-.242.55-.55.55-.307 0-.549-.242-.549-.55m0 2.22c0-.308.242-.55.55-.55.307 0 .549.242.549.55 0 .308-.242.55-.55.55-.307 0-.549-.242-.549-.55m0 2.198c0-.308.242-.55.55-.55.307 0 .549.242.549.55 0 .308-.242.55-.55.55-.307 0-.549-.242-.549-.55m0 2.198c0-.307.242-.55.55-.55.307 0 .549.243.549.55 0 .308-.242.55-.55.55-.307 0-.549-.242-.549-.55m0 2.22c0-.31.242-.55.55-.55.307 0 .549.24.549.55 0 .286-.242.55-.55.55-.307 0-.549-.264-.549-.55m0 2.198c0-.31.242-.55.55-.55.307 0 .549.24.549.55 0 .308-.242.55-.55.55-.307 0-.549-.242-.549-.55m0 2.199c0-.31.242-.55.55-.55.307 0 .549.24.549.55 0 .307-.242.55-.55.55-.307 0-.549-.243-.549-.55m0 2.198c0-.286.242-.55.55-.55.307 0 .549.264.549.55 0 .307-.242.571-.55.571-.307 0-.549-.264-.549-.571m0 2.22c0-.308.242-.55.55-.55.307 0 .549.242.549.55 0 .286-.242.55-.55.55-.307 0-.549-.264-.549-.55m0 2.198c0-.308.242-.55.55-.55.307 0 .549.242.549.55 0 .305-.242.55-.55.55-.307 0-.549-.245-.549-.55m0 2.198c0-.286.242-.528.55-.528.307 0 .549.242.549.528 0 .306-.242.572-.55.572-.307 0-.549-.266-.549-.572m0 2.22c0-.308.242-.55.55-.55.307 0 .549.242.549.55 0 .284-.242.55-.55.55-.307 0-.549-.266-.549-.55m0 2.198c0-.308.242-.55.55-.55.307 0 .549.242.549.55 0 .308-.242.55-.55.55-.307 0-.549-.242-.549-.55m0 2.198c0-.307.242-.55.55-.55.307 0 .549.243.549.55 0 .308-.242.55-.55.55-.307 0-.549-.242-.549-.55m0 2.22c0-.307.242-.55.55-.55.307 0 .549.243.549.55 0 .286-.242.55-.55.55-.307 0-.549-.264-.549-.55m0 2.199c0-.308.242-.55.55-.55.307 0 .549.242.549.55 0 .307-.242.549-.55.549-.307 0-.549-.242-.549-.55m0 2.199c0-.308.242-.55.55-.55.307 0 .549.242.549.55 0 .307-.242.55-.55.55-.307 0-.549-.243-.549-.55m0 2.22c0-.31.242-.55.55-.55.307 0 .549.24.549.55 0 .285-.242.527-.55.527-.307 0-.549-.242-.549-.527m0 2.198c0-.31.242-.55.55-.55.307 0 .549.24.549.55 0 .308-.242.55-.55.55-.307 0-.549-.242-.549-.55m0 2.198c0-.31.242-.55.55-.55.307 0 .549.24.549.55 0 .308-.242.55-.55.55-.307 0-.549-.242-.549-.55m0 2.198c0-.31.242-.55.55-.55.307 0 .549.24.549.55 0 .308-.242.55-.55.55-.307 0-.549-.242-.549-.55m0 2.22c0-.308.242-.55.55-.55.307 0 .549.242.549.55 0 .286-.242.55-.55.55-.307 0-.549-.264-.549-.55m0 2.198c0-.307.242-.55.55-.55.307 0 .549.243.549.55 0 .306-.242.55-.55.55-.307 0-.549-.244-.549-.55m0 2.198c0-.307.242-.55.55-.55.307 0 .549.243.549.55 0 .306-.242.55-.55.55-.307 0-.549-.244-.549-.55m0 2.22c0-.307.242-.549.55-.549.307 0 .549.242.549.55 0 .283-.242.549-.55.549-.307 0-.549-.266-.549-.55m0 2.199c0-.308.242-.55.55-.55.307 0 .549.242.549.55 0 .307-.242.55-.55.55-.307 0-.549-.243-.549-.55m0 2.198c0-.308.242-.55.55-.55.307 0 .549.242.549.55 0 .307-.242.55-.55.55-.307 0-.549-.243-.549-.55m0 2.198c0-.286.242-.55.55-.55.307 0 .549.264.549.55 0 .308-.242.571-.55.571-.307 0-.549-.263-.549-.571m0 2.22c0-.308.242-.55.55-.55.307 0 .549.242.549.55 0 .308-.242.55-.55.55-.307 0-.549-.242-.549-.55m0 2.198c0-.308.242-.55.55-.55.307 0 .549.242.549.55 0 .308-.242.55-.55.55-.307 0-.549-.242-.549-.55m0 2.198c0-.288.242-.55.55-.55.307 0 .549.262.549.55 0 .308-.242.55-.55.55-.307 0-.549-.242-.549-.55m0 2.22c0-.31.242-.55.55-.55.307 0 .549.24.549.55 0 .308-.242.55-.55.55-.307 0-.549-.242-.549-.55m0 2.198c0-.31.242-.55.55-.55.307 0 .549.24.549.55 0 .308-.242.55-.55.55-.307 0-.549-.242-.549-.55" mask="url(#prefix__b)"/>
        <path fill="#000" d="M119.53 391.266c-.304 0-.55-.246-.55-.55l.013-262.236c0-.304.246-.55.55-.55.305 0 .549.246.549.55l-.013 262.237c0 .303-.246.55-.55.55" mask="url(#prefix__b)"/>
        <path fill="#98304A" d="M117.333 112.124L121.728 112.124 121.728 85.643 117.333 85.643zM367.772 112.124L372.167 112.124 372.167 85.643 367.772 85.643zM618.211 112.124L622.606 112.124 622.606 85.643 618.211 85.643z" mask="url(#prefix__b)"/>
        <path fill="#1A1919" d="M114.42 55.715c-.952 1.422-1.429 3.115-1.429 5.078 0 1.965.477 3.657 1.429 5.077.894 1.378 1.982 2.066 3.263 2.066s2.369-.688 3.263-2.066c.952-1.376 1.429-3.068 1.429-5.077 0-2.007-.477-3.7-1.429-5.078-.894-1.376-1.982-2.066-3.263-2.066s-2.369.69-3.263 2.066m3.252-2.616c1.479.016 2.725.774 3.736 2.275 1.01 1.502 1.516 3.306 1.516 5.408 0 2.103-.501 3.908-1.505 5.418-1.002 1.51-2.253 2.273-3.747 2.286-1.466-.013-2.703-.776-3.714-2.286-1.01-1.51-1.516-3.315-1.516-5.418 0-2.102.506-3.906 1.516-5.408 1.011-1.501 2.248-2.26 3.714-2.275M358.706 53.407c0-.072.03-.138.088-.197.057-.06.119-.088.176-.088.191 0 .286.094.286.285v14.794c0 .189-.095.285-.286.285-.073 0-.134-.028-.187-.088-.05-.059-.077-.125-.077-.197V53.407zm-2.68 2.089c-.03.015-.093.022-.188.022-.096 0-.164-.066-.206-.198-.046-.132 0-.236.13-.308l3.078-1.824c.16-.117.284-.093.372.076.09.17.052.297-.108.385l-3.079 1.847zM363.477 70.464c0-.116.057-.213.175-.285.748-.41 1.09-.974 1.033-1.693-.395-.101-.593-.358-.593-.77v-.461c0-.204.07-.376.209-.517.138-.138.312-.208.516-.208.204 0 .376.07.516.208.139.141.21.313.21.517v.55c0 1.127-.216 1.908-.649 2.34-.433.434-.776.649-1.033.649-.255 0-.384-.11-.384-.33M376.003 66.97c-.998 1.01-2.198 1.516-3.606 1.516-1.405 0-2.613-.505-3.624-1.517-.088-.072-.114-.16-.077-.263.035-.104.101-.17.198-.198.094-.029.187-.007.274.066.923.894 2.002 1.34 3.24 1.34 1.239 0 2.305-.446 3.197-1.34.896-.893 1.342-1.972 1.342-3.231 0-1.26-.443-2.33-1.331-3.21-.886-.879-1.95-1.319-3.198-1.319-1.243 0-2.327.44-3.25 1.32-.03.059-.083.087-.167.087-.079 0-.149-.022-.206-.066-.03 0-.046-.013-.046-.044-.057-.057-.08-.138-.064-.241l.77-6.485c.028-.191.144-.286.35-.286h7.428c.073 0 .139.031.196.088.059.06.088.126.088.198 0 .191-.095.286-.284.286h-7.23l-.659 5.583c.892-.673 1.912-1.011 3.053-1.011 1.437 0 2.652.499 3.65 1.495.98 1.01 1.47 2.224 1.47 3.638 0 1.413-.504 2.61-1.514 3.593M384.043 55.715c-.953 1.422-1.426 3.115-1.426 5.078 0 1.965.473 3.657 1.426 5.077.895 1.378 1.98 2.066 3.264 2.066 1.28 0 2.369-.688 3.263-2.066.951-1.376 1.428-3.068 1.428-5.077 0-2.007-.477-3.7-1.428-5.078-.894-1.376-1.982-2.066-3.263-2.066-1.284 0-2.37.69-3.264 2.066m3.253-2.616c1.479.016 2.725.774 3.738 2.275 1.01 1.502 1.514 3.306 1.514 5.408 0 2.103-.501 3.908-1.503 5.418-1.005 1.51-2.255 2.273-3.75 2.286-1.465-.013-2.702-.776-3.713-2.286-1.01-1.51-1.514-3.315-1.514-5.418 0-2.102.503-3.906 1.514-5.408 1.01-1.501 2.248-2.26 3.714-2.275M604.65 58.243c1.245.118 2.285.608 3.12 1.472.997.998 1.496 2.198 1.496 3.605s-.499 2.623-1.496 3.649c-1.024.998-2.235 1.495-3.624 1.495h-.022c-1.424 0-2.624-.497-3.606-1.495-.13-.132-.13-.264 0-.396.134-.132.264-.132.398 0 .892.88 1.969 1.32 3.23 1.32 1.26 0 2.331-.445 3.217-1.33.888-.886 1.332-1.96 1.332-3.22 0-1.26-.44-2.337-1.321-3.232-.908-.88-1.975-1.319-3.208-1.319-.088 0-.191-.061-.306-.187-.118-.125-.11-.253.02-.384l4.439-4.573h-6.79c-.191 0-.286-.094-.286-.285 0-.192.095-.286.286-.286h7.451c.19 0 .286.094.286.286 0 .103-.03.184-.088.242l-4.529 4.638zM613.439 70.464c0-.116.057-.213.176-.285.747-.41 1.09-.974 1.033-1.693-.396-.101-.594-.358-.594-.77v-.461c0-.204.07-.376.21-.517.137-.138.311-.208.515-.208.205 0 .376.07.517.208.138.141.209.313.209.517v.55c0 1.127-.216 1.908-.649 2.34-.433.434-.775.649-1.032.649-.255 0-.385-.11-.385-.33M620.711 55.715c-.953 1.422-1.426 3.115-1.426 5.078 0 1.965.473 3.657 1.426 5.077.895 1.378 1.98 2.066 3.264 2.066 1.28 0 2.369-.688 3.263-2.066.951-1.376 1.428-3.068 1.428-5.077 0-2.007-.477-3.7-1.428-5.078-.894-1.376-1.982-2.066-3.263-2.066-1.284 0-2.37.69-3.264 2.066m3.253-2.616c1.479.016 2.725.774 3.738 2.275 1.01 1.502 1.514 3.306 1.514 5.408 0 2.103-.501 3.908-1.503 5.418-1.005 1.51-2.255 2.273-3.75 2.286-1.465-.013-2.702-.776-3.713-2.286-1.01-1.51-1.514-3.315-1.514-5.418 0-2.102.503-3.906 1.514-5.408 1.01-1.501 2.248-2.26 3.714-2.275M636.313 55.715c-.954 1.422-1.426 3.115-1.426 5.078 0 1.965.472 3.657 1.426 5.077.894 1.378 1.98 2.066 3.263 2.066 1.281 0 2.369-.688 3.263-2.066.952-1.376 1.429-3.068 1.429-5.077 0-2.007-.477-3.7-1.429-5.078-.894-1.376-1.982-2.066-3.263-2.066-1.283 0-2.369.69-3.263 2.066m3.252-2.616c1.479.016 2.725.774 3.738 2.275 1.01 1.502 1.514 3.306 1.514 5.408 0 2.103-.501 3.908-1.503 5.418-1.004 1.51-2.255 2.273-3.749 2.286-1.466-.013-2.703-.776-3.714-2.286-1.01-1.51-1.514-3.315-1.514-5.418 0-2.102.503-3.906 1.514-5.408 1.011-1.501 2.248-2.26 3.714-2.275" mask="url(#prefix__b)"/>
        <path fill="#98304A" d="M70.281 172.097L519.473 172.097 519.473 156.097 70.281 156.097zM531.852 170.869c-.235-.28-.229-.543.022-.791l7.183-6.485c.882-.806 1.321-1.747 1.321-2.824 0-1.077-.367-2.023-1.099-2.836-.734-.813-1.648-1.22-2.746-1.22-1.1 0-2.03.336-2.793 1.011l-.745.682c-.119.1-.25.154-.396.154-.147 0-.268-.06-.362-.176-.097-.117-.145-.249-.145-.396 0-.147.061-.264.175-.352l.747-.703c.985-.864 2.172-1.297 3.56-1.297 1.394 0 2.571.55 3.54 1.649.88.938 1.317 2.101 1.317 3.495 0 1.391-.55 2.593-1.648 3.605l-6.151 5.56h7.274c.147 0 .27.056.373.166.101.11.152.237.152.384 0 .145-.05.27-.152.374-.103.101-.226.154-.373.154h-8.658c-.176 0-.308-.053-.396-.154M544.84 173c0-.116.057-.213.175-.285.747-.41 1.09-.974 1.033-1.693-.396-.1-.593-.358-.593-.77v-.46c0-.205.07-.377.208-.517.139-.139.312-.21.517-.21.204 0 .376.071.516.21.139.14.209.312.209.516v.55c0 1.127-.215 1.908-.648 2.34-.433.434-.776.65-1.033.65-.255 0-.385-.11-.385-.33M553.387 170.693c-.103.22-.268.33-.495.33-.226 0-.38-.093-.461-.275-.081-.185-.097-.34-.055-.473l5.691-13.496h-7.427c-.145 0-.27-.053-.374-.154-.103-.103-.153-.226-.153-.374 0-.147.05-.27.153-.373.104-.104.229-.154.374-.154h8.13c.117-.029.23-.022.332.022.218.103.328.242.328.417 0 .176-.031.302-.088.374l-5.955 14.156zM566.297 157.306c-.415.41-.626.916-.626 1.516 0 .603.21 1.11.626 1.528.417.418.92.635 1.507.649.6-.014 1.108-.233 1.525-.66.418-.424.627-.93.627-1.517 0-.584-.21-1.088-.627-1.505-.417-.418-.923-.627-1.516-.627s-1.099.205-1.516.616m-1.275 5.946c-.769.769-1.151 1.697-1.151 2.78 0 1.086.382 2.012 1.151 2.78.772.77 1.699 1.155 2.791 1.155 1.092 0 2.017-.385 2.78-1.154.762-.77 1.145-1.695 1.145-2.78 0-1.084-.383-2.012-1.145-2.781-.763-.77-1.688-1.154-2.78-1.154-1.092 0-2.02.384-2.79 1.154m.867-1.836c-.848-.66-1.274-1.475-1.274-2.45 0-.974.307-1.772.923-2.397.617-.622 1.364-.934 2.254-.934.886 0 1.644.312 2.272.934.631.625.948 1.423.948 2.396 0 .976-.442 1.792-1.321 2.451.923.38 1.672.99 2.241 1.825.572.835.857 1.767.857 2.791 0 1.394-.488 2.572-1.461 3.54-.973.966-2.15 1.45-3.525 1.45-1.378 0-2.555-.486-3.529-1.462-.973-.974-1.461-2.15-1.461-3.528 0-1.024.286-1.956.86-2.791.568-.836 1.307-1.444 2.216-1.825M70.281 268.376L464.84 268.376 464.84 252.379 70.281 252.379z" mask="url(#prefix__b)"/>
        <path fill="#FFFFFE" d="M478.078 269.724L585.465 269.724 585.465 245.323 478.078 245.323z" mask="url(#prefix__b)"/>
        <path fill="#98304A" d="M479.242 267.15c-.235-.279-.229-.54.022-.789l7.183-6.486c.882-.805 1.321-1.746 1.321-2.825 0-1.075-.367-2.022-1.099-2.836-.734-.813-1.648-1.217-2.747-1.217-1.098 0-2.03.336-2.792 1.01l-.745.68c-.12.103-.25.154-.396.154-.147 0-.268-.06-.363-.176-.096-.114-.145-.248-.145-.393 0-.148.062-.264.176-.354l.747-.704c.985-.861 2.171-1.297 3.56-1.297 1.393 0 2.571.55 3.54 1.649.88.939 1.317 2.104 1.317 3.495 0 1.394-.55 2.594-1.648 3.607l-6.151 5.56h7.273c.148 0 .27.054.374.164.101.11.152.24.152.385 0 .145-.05.27-.152.373-.103.104-.226.154-.374.154h-8.658c-.175 0-.307-.05-.395-.154M492.23 269.284c0-.119.056-.215.175-.288.747-.407 1.09-.974 1.033-1.69-.396-.104-.593-.359-.593-.77v-.463c0-.205.07-.376.208-.515.139-.14.312-.21.517-.21.204 0 .376.07.516.21.139.139.209.31.209.515v.55c0 1.129-.215 1.91-.648 2.34-.433.433-.776.649-1.033.649-.255 0-.385-.108-.385-.328M498.843 263.084h7.274v-9.012l-7.274 9.012zm8.153-10.968c.072.042.138.163.198.352v10.616h1.032c.148 0 .275.051.385.154.11.104.165.229.165.374 0 .147-.055.27-.165.374-.11.103-.237.154-.385.154h-1.032v2.637c0 .145-.055.27-.165.374-.11.101-.24.154-.385.154-.147 0-.27-.053-.373-.154-.104-.103-.154-.229-.154-.374v-2.637h-8.395c-.147 0-.268-.042-.362-.121-.097-.08-.15-.198-.165-.35-.015-.156.03-.283.132-.387l8.9-11.078.022-.022c.22-.264.468-.286.747-.066zM513.433 263.084h7.274v-9.012l-7.274 9.012zm8.153-10.968c.072.042.138.163.198.352v10.616h1.033c.147 0 .274.051.384.154.11.104.165.229.165.374 0 .147-.055.27-.165.374-.11.103-.237.154-.384.154h-1.033v2.637c0 .145-.055.27-.165.374-.11.101-.24.154-.385.154-.147 0-.27-.053-.373-.154-.103-.103-.154-.229-.154-.374v-2.637h-8.394c-.148 0-.268-.042-.363-.121-.097-.08-.15-.198-.165-.35-.015-.156.031-.283.132-.387l8.9-11.078.022-.022c.22-.264.468-.286.747-.066zM70.281 364.658L495.207 364.658 495.207 348.658 70.281 348.658zM512.878 362.088c-.235-.28-.229-.543.022-.792l7.183-6.484c.881-.807 1.32-1.745 1.32-2.825 0-1.077-.366-2.022-1.098-2.837-.734-.811-1.648-1.218-2.747-1.218-1.098 0-2.03.338-2.793 1.013l-.745.677c-.118.104-.25.154-.395.154-.147 0-.268-.057-.363-.176-.096-.114-.145-.248-.145-.393 0-.148.062-.262.176-.354l.747-.704c.985-.861 2.171-1.296 3.56-1.296 1.393 0 2.571.55 3.54 1.648.88.941 1.316 2.104 1.316 3.495 0 1.396-.549 2.596-1.648 3.607l-6.15 5.56h7.273c.147 0 .27.054.374.166.1.108.151.238.151.383 0 .147-.05.272-.151.376-.104.1-.227.151-.374.151h-8.658c-.176 0-.307-.05-.395-.151M525.865 364.22c0-.117.057-.214.176-.287.747-.408 1.09-.973 1.032-1.692-.395-.101-.593-.356-.593-.77v-.461c0-.204.07-.376.209-.517.138-.138.312-.208.516-.208.205 0 .376.07.517.208.138.141.208.313.208.517v.55c0 1.127-.215 1.907-.648 2.34-.433.434-.776.649-1.033.649-.255 0-.384-.11-.384-.33M532.26 357.164v.087c0 .073.006.159.022.253.015.095.015.158 0 .187.13.983.573 1.807 1.327 2.473.756.668 1.664.998 2.725.998 1.063 0 1.99-.39 2.78-1.174.79-.782 1.186-1.725 1.186-2.824 0-1.1-.395-2.043-1.186-2.825-.79-.785-1.738-1.174-2.846-1.174-1.105 0-2.048.39-2.835 1.174-.782.782-1.173 1.725-1.173 2.825m-1.123-.836c.03-2.387.527-4.427 1.496-6.11 1.216-2.141 3.01-3.254 5.382-3.344.15-.013.272.03.376.134.1.104.156.227.162.374.01.145-.04.275-.14.387-.104.105-.229.171-.374.184-1.92.073-3.415 1.005-4.483 2.792-.485.835-.85 1.862-1.098 3.075 1.01-1.154 2.25-1.734 3.722-1.734 1.475 0 2.705.499 3.694 1.495.989.995 1.483 2.193 1.483 3.593s-.494 2.594-1.483 3.586c-.989.987-2.184 1.481-3.582 1.481-1.4 0-2.59-.477-3.57-1.429-.983-.951-1.497-2.11-1.539-3.473-.03-.222-.046-.556-.046-1.01M545.245 353.866c-.015-.028-.018-.079-.011-.151.009-.075.011-.119.011-.134l.75-6.2c0-.16.072-.291.217-.395.088-.088.204-.132.354-.132h7.161c.147 0 .275.05.385.154.11.104.165.235.165.396 0 .163-.051.292-.154.396-.104.1-.233.153-.396.153h-6.7l-.55 4.572c.805-.468 1.675-.705 2.614-.705 1.45 0 2.678.503 3.683 1.508 1.002 1.004 1.503 2.237 1.503 3.704 0 1.464-.512 2.701-1.539 3.703-1.026 1.003-2.254 1.506-3.691 1.506-1.435 0-2.657-.505-3.668-1.517-.119-.103-.178-.23-.178-.386 0-.152.06-.284.178-.394.114-.11.248-.165.393-.165.148 0 .28.06.396.178.822.79 1.79 1.185 2.912 1.185 1.12 0 2.083-.402 2.891-1.207.805-.806 1.207-1.782 1.207-2.923 0-1.145-.394-2.113-1.187-2.904-.79-.791-1.756-1.19-2.9-1.19-1.143 0-2.117.405-2.923 1.212-.117.103-.248.154-.396.154-.248 0-.415-.11-.503-.33v-.022c-.015-.015-.024-.035-.024-.066M0 464.705L17.441 464.705 17.441 448.71 0 448.71zM23.942 461.67v-11.467c0-.117.042-.213.123-.297.082-.081.183-.123.3-.123h6.328c.116 0 .215.042.299.123.081.084.123.185.123.306 0 .125-.042.228-.123.31-.084.08-.183.123-.3.123h-5.888v4.868h5.15c.117 0 .216.049.3.135.08.09.122.189.122.307 0 .117-.041.216-.123.297-.083.086-.182.125-.298.125h-5.151v4.856h5.889c.116 0 .215.037.299.119.081.083.123.184.123.31 0 .125-.042.228-.123.31-.084.08-.183.118-.3.118H24.33c-.105-.009-.198-.055-.272-.127-.077-.077-.115-.176-.115-.293M35 461.739c-.059.235-.193.352-.404.352h-.105c-.13-.033-.222-.112-.282-.227-.013-.013-.017-.03-.017-.053l-.018-.032v-7.863c0-.119.042-.218.123-.3.081-.08.183-.124.299-.124.116 0 .213.044.29.125.075.081.114.18.114.299v.824c.69-.833 1.55-1.248 2.576-1.248s1.88.343 2.566 1.03c.686.686 1.029 1.51 1.029 2.469v4.68c0 .114-.042.217-.123.299-.084.083-.183.12-.3.12-.116 0-.217-.037-.298-.12-.083-.082-.123-.185-.123-.3v-4.679c0-.725-.257-1.347-.774-1.873-.516-.519-1.14-.78-1.872-.78-.731 0-1.356.257-1.872.771-.516.517-.784 1.143-.809 1.882v4.748zM50.628 455.11c-.608-.527-1.316-.789-2.118-.789-.804 0-1.51.262-2.118.78-.611.524-.996 1.194-1.16 2.014h6.522c-.141-.807-.517-1.477-1.126-2.005m2.04 2.374v.068c0 .121-.042.216-.123.284-.084.068-.183.108-.3.108H45.18c.046.936.393 1.72 1.037 2.352.644.635 1.41.954 2.303.954.573 0 1.107-.141 1.6-.425.492-.279.883-.661 1.177-1.143.141-.23.328-.279.563-.14.235.167.281.365.14.6-.375.598-.87 1.068-1.485 1.422-.615.352-1.281.528-1.995.528-1.16 0-2.147-.418-2.962-1.258-.816-.837-1.222-1.85-1.222-3.04 0-1.189.406-2.207 1.222-3.053.815-.842 1.786-1.266 2.918-1.266 1.132 0 2.09.387 2.874 1.15.785.769 1.224 1.72 1.319 2.86M55.655 461.67v-7.752c0-.121.042-.22.123-.302.081-.08.183-.125.299-.125.116 0 .218.044.299.125.081.082.123.18.123.302v1.897c.046-.095.088-.163.123-.211.903-1.407 2.05-2.113 3.446-2.113.116 0 .215.044.298.125.082.082.123.18.123.302 0 .114-.041.213-.123.294-.083.084-.182.125-.298.125-.939 0-1.77.469-2.497 1.41-.422.562-.769 1.226-1.037 2.004-.024.042-.035.09-.035.136v3.783c0 .117-.042.22-.123.302-.081.08-.183.118-.299.118-.116 0-.218-.037-.299-.118-.081-.082-.123-.185-.123-.302M63.39 457.76c0 .953.315 1.769.94 2.441.627.675 1.385 1.01 2.269 1.01.885 0 1.641-.335 2.267-1.01.627-.672.94-1.492.94-2.45 0-.961-.313-1.774-.94-2.438-.626-.662-1.382-.992-2.267-.992-.884 0-1.642.335-2.268 1-.626.669-.94 1.48-.94 2.438m7.26-3.86v7.51c0 1.111-.396 2.065-1.187 2.854-.791.79-1.75 1.19-2.874 1.19-.574 0-1.171-.137-1.793-.41-.233-.162-.293-.35-.176-.56.13-.27.316-.336.562-.193.447.209.915.316 1.407.316.89 0 1.65-.307 2.276-.932.627-.622.94-1.378.94-2.266v-1.055c-.362.528-.825.939-1.388 1.24-.562.297-1.171.446-1.828.446-1.125 0-2.081-.42-2.866-1.257-.784-.838-1.177-1.847-1.177-3.023 0-1.18.395-2.189 1.186-3.027.791-.837 1.745-1.257 2.857-1.257.646 0 1.25.154 1.82.46.568.303 1.034.712 1.397 1.226V453.9c0-.12.044-.217.132-.3.088-.082.187-.124.299-.124.112 0 .208.042.29.123.083.084.123.18.123.301M74.747 461.67v-7.77c0-.12.041-.22.123-.301.08-.081.184-.125.307-.125s.227.044.308.125c.083.081.123.18.123.301v7.77c0 .117-.044.22-.132.302-.088.08-.191.118-.308.118-.116 0-.217-.037-.298-.118-.082-.082-.123-.185-.123-.302m0-10.183v-.403c0-.116.041-.215.123-.296.08-.086.182-.126.298-.126.117 0 .22.04.308.126.088.08.132.18.132.296v.403c0 .13-.044.241-.132.327-.088.09-.191.132-.308.132-.116 0-.217-.042-.298-.132-.082-.086-.123-.198-.123-.327M79.581 457.785c0 .96.319 1.778.958 2.45.64.676 1.4 1.014 2.286 1.014.883 0 1.644-.338 2.276-1.013.633-.673.95-1.49.95-2.451 0-.96-.317-1.783-.95-2.464-.632-.68-1.393-1.018-2.276-1.018-.886 0-1.646.339-2.286 1.018-.639.681-.958 1.503-.958 2.464m6.593-4.185c.081-.082.182-.126.299-.126.116 0 .215.044.298.126.082.081.124.18.124.299v7.772c0 .115-.042.218-.124.3-.083.08-.182.12-.298.12-.117 0-.218-.04-.3-.12-.083-.082-.122-.185-.122-.3v-1.283c-.376.527-.846.943-1.415 1.248-.57.306-1.176.455-1.82.455-1.125 0-2.088-.42-2.883-1.266-.798-.842-1.195-1.855-1.195-3.04s.397-2.198 1.195-3.044c.795-.842 1.758-1.267 2.883-1.267.644 0 1.25.154 1.82.46.569.305 1.039.712 1.415 1.229v-1.264c0-.119.04-.218.123-.3M95.946 461.67v-11.467c0-.117.042-.213.124-.297.08-.081.182-.123.298-.123.12 0 .22.042.308.123.088.084.132.18.132.297v11.467c0 .117-.044.22-.132.302-.088.08-.189.118-.308.118-.116 0-.217-.037-.298-.118-.082-.082-.124-.185-.124-.302M103.7 454.303c-.88 0-1.64.339-2.277 1.018-.64.681-.958 1.499-.958 2.455 0 .954.319 1.774.958 2.451.637.68 1.398 1.022 2.277 1.022.879 0 1.637-.343 2.276-1.022.64-.677.958-1.497.958-2.45 0-.957-.318-1.775-.958-2.456-.64-.68-1.397-1.018-2.276-1.018m-2.883 6.513c-.798-.85-1.196-1.86-1.196-3.031 0-1.172.398-2.185 1.196-3.036.797-.85 1.758-1.275 2.883-1.275s2.085.425 2.883 1.275c.797.851 1.195 1.864 1.195 3.036s-.398 2.18-1.195 3.031c-.798.85-1.758 1.275-2.883 1.275s-2.086-.424-2.883-1.275M111.013 461.67v-7.752c0-.121.042-.22.123-.302.081-.08.183-.125.299-.125.116 0 .218.044.299.125.081.082.123.18.123.302v1.897c.046-.095.088-.163.123-.211.903-1.407 2.05-2.113 3.446-2.113.116 0 .215.044.298.125.082.082.123.18.123.302 0 .114-.041.213-.123.294-.083.084-.182.125-.298.125-.939 0-1.77.469-2.497 1.41-.422.562-.769 1.226-1.037 2.004-.024.042-.035.09-.035.136v3.783c0 .117-.042.22-.123.302-.081.08-.183.118-.299.118-.116 0-.218-.037-.299-.118-.081-.082-.123-.185-.123-.302M118.625 457.794c0 .954.325 1.765.976 2.433.65.67 1.423 1.004 2.32 1.004.897 0 1.663-.32 2.303-.96.637-.635.976-1.414 1.01-2.328v-.284c-.034-.925-.373-1.712-1.01-2.356-.64-.644-1.406-.965-2.303-.965s-1.67.334-2.32 1.01c-.65.672-.976 1.487-.976 2.446m6.61 3.877v-1.25c-.387.516-.868.923-1.442 1.224-.575.296-1.195.446-1.863.446-1.16 0-2.145-.416-2.954-1.257-.808-.838-1.213-1.851-1.213-3.04 0-1.19.405-2.207 1.213-3.054.81-.84 1.794-1.266 2.954-1.266.668 0 1.288.154 1.863.46.574.305 1.055.712 1.442 1.228v-4.959c0-.116.044-.215.132-.296.088-.082.19-.126.307-.126.117 0 .218.044.3.126.08.081.122.18.122.296v11.468c0 .114-.042.218-.123.299-.081.081-.182.12-.299.12-.116 0-.22-.039-.307-.12-.088-.081-.132-.185-.132-.299M129.858 457.785c0 .96.318 1.778.958 2.45.64.676 1.4 1.014 2.285 1.014.884 0 1.644-.338 2.277-1.013.633-.673.95-1.49.95-2.451 0-.96-.317-1.783-.95-2.464-.633-.68-1.393-1.018-2.277-1.018-.885 0-1.646.339-2.285 1.018-.64.681-.958 1.503-.958 2.464m6.592-4.185c.081-.082.183-.126.299-.126.116 0 .215.044.299.126.081.081.123.18.123.299v7.772c0 .115-.042.218-.123.3-.084.08-.183.12-.299.12-.116 0-.218-.04-.299-.12-.083-.082-.123-.185-.123-.3v-1.283c-.376.527-.846.943-1.415 1.248-.57.306-1.176.455-1.82.455-1.125 0-2.087-.42-2.883-1.266-.797-.842-1.195-1.855-1.195-3.04s.398-2.198 1.195-3.044c.796-.842 1.758-1.267 2.883-1.267.644 0 1.25.154 1.82.46.57.305 1.04.712 1.415 1.229v-1.264c0-.119.04-.218.123-.3" mask="url(#prefix__b)"/>
        <path fill="#000" d="M11.516 14.398c.585.704 1.266 1.055 2.044 1.055.776 0 1.441-.35 2-1.044.555-.697.835-1.55.835-2.56v-.044c0-1.027-.295-1.89-.88-2.594-.586-.704-1.267-1.055-2.043-1.055-.778 0-1.444.354-2 1.066-.556.71-.835 1.556-.835 2.539v.044c0 1.026.292 1.89.88 2.593m4.427.176c-.637.776-1.45 1.165-2.44 1.165-.988 0-1.799-.385-2.427-1.154-.631-.77-.945-1.681-.945-2.737v-.043c0-1.071.318-1.994.956-2.77.637-.776 1.45-1.165 2.439-1.165.989 0 1.797.385 2.428 1.154.629.77.945 1.681.945 2.737v.044c0 1.07-.319 1.993-.956 2.77m-12.558.703l.241-.374L14.33.33c.072-.103.145-.153.22-.153.116 0 .186.035.208.11.022.072-.07.254-.274.549L3.78 15.387c-.075.073-.147.11-.22.11-.074 0-.125-.026-.153-.077-.031-.052-.038-.098-.022-.142M2.595 6.55c.57.703 1.252 1.055 2.043 1.055.791 0 1.457-.35 2-1.044.54-.697.813-1.556.813-2.583v-.044c0-1.04-.286-1.912-.857-2.615C6.023.616 5.344.264 4.56.264c-.784 0-1.45.354-2 1.067-.549.71-.823 1.565-.823 2.56v.044c0 1.04.285 1.913.857 2.616m4.427.154c-.637.776-1.45 1.165-2.439 1.165-.989 0-1.8-.385-2.428-1.154-.63-.77-.945-1.682-.945-2.737v-.044c0-1.07.319-1.993.956-2.77C2.803.389 3.616.002 4.606.002c.988 0 1.797.384 2.427 1.154.629.769.945 1.681.945 2.736v.044c0 1.07-.318 1.992-.956 2.77" mask="url(#prefix__b)"/>
    </g>
</svg>
