<svg xmlns="http://www.w3.org/2000/svg" width="680" height="462" viewBox="0 0 680 462">
    <g fill="none" fill-rule="evenodd">
        <path fill="#000" d="M364.445 130.655c0-.304.237-.542.543-.542.282 0 .542.238.542.542 0 .282-.26.542-.542.542-.306 0-.543-.26-.543-.542m0 2.17c0-.304.237-.543.543-.543.282 0 .542.239.542.543 0 .303-.26.542-.542.542-.306 0-.543-.239-.543-.542m0 2.169c0-.304.237-.542.543-.542.282 0 .542.238.542.542 0 .304-.26.542-.542.542-.306 0-.543-.238-.543-.542m0 2.17c0-.283.237-.521.543-.521.282 0 .542.238.542.52 0 .304-.26.543-.542.543-.306 0-.543-.239-.543-.543m0 2.192c0-.304.237-.543.543-.543.282 0 .542.239.542.543 0 .303-.26.542-.542.542-.306 0-.543-.239-.543-.542m0 2.17c0-.305.237-.543.543-.543.282 0 .542.238.542.542 0 .304-.26.542-.542.542-.306 0-.543-.238-.543-.542m0 2.17c0-.304.237-.543.543-.543.282 0 .542.239.542.543 0 .303-.26.542-.542.542-.306 0-.543-.239-.543-.542m0 2.19c0-.303.237-.542.543-.542.282 0 .542.239.542.543 0 .282-.26.542-.542.542-.306 0-.543-.26-.543-.542m0 2.17c0-.305.237-.543.543-.543.282 0 .542.238.542.542 0 .304-.26.542-.542.542-.306 0-.543-.238-.543-.542m0 2.17c0-.304.237-.543.543-.543.282 0 .542.239.542.543 0 .303-.26.542-.542.542-.306 0-.543-.239-.543-.542m0 2.19c0-.303.237-.542.543-.542.282 0 .542.239.542.543 0 .282-.26.542-.542.542-.306 0-.543-.26-.543-.542m0 2.17c0-.305.237-.543.543-.543.282 0 .542.238.542.542 0 .304-.26.543-.542.543-.306 0-.543-.24-.543-.543m0 2.17c0-.304.237-.543.543-.543.282 0 .542.239.542.543 0 .303-.26.542-.542.542-.306 0-.543-.239-.543-.542m0 2.19c0-.303.237-.563.543-.563.282 0 .542.26.542.564 0 .282-.26.542-.542.542-.306 0-.543-.26-.543-.542m0 2.17c0-.305.237-.543.543-.543.282 0 .542.238.542.542 0 .304-.26.543-.542.543-.306 0-.543-.24-.543-.543m0 2.17c0-.304.237-.543.543-.543.282 0 .542.239.542.543 0 .303-.26.542-.542.542-.306 0-.543-.239-.543-.542m0 2.17c0-.283.237-.543.543-.543.282 0 .542.26.542.542 0 .304-.26.542-.542.542-.306 0-.543-.238-.543-.542m0 2.191c0-.303.237-.542.543-.542.282 0 .542.239.542.542 0 .304-.26.543-.542.543-.306 0-.543-.239-.543-.543m0 2.17c0-.304.237-.543.543-.543.282 0 .542.239.542.543 0 .303-.26.542-.542.542-.306 0-.543-.239-.543-.542m0 2.17c0-.283.237-.543.543-.543.282 0 .542.26.542.542 0 .304-.26.543-.542.543-.306 0-.543-.24-.543-.543m0 2.191c0-.303.237-.542.543-.542.282 0 .542.239.542.542 0 .282-.26.543-.542.543-.306 0-.543-.26-.543-.543m0 2.17c0-.304.237-.543.543-.543.282 0 .542.239.542.543 0 .303-.26.542-.542.542-.306 0-.543-.239-.543-.542m0 2.17c0-.305.237-.543.543-.543.282 0 .542.238.542.542 0 .304-.26.543-.542.543-.306 0-.543-.24-.543-.543m0 2.191c0-.303.237-.542.543-.542.282 0 .542.239.542.542 0 .282-.26.521-.542.521-.306 0-.543-.239-.543-.52m0 2.169c0-.304.237-.543.543-.543.282 0 .542.24.542.543 0 .304-.26.542-.542.542-.306 0-.543-.238-.543-.542m0 2.17c0-.304.237-.543.543-.543.282 0 .542.239.542.542 0 .304-.26.543-.542.543-.306 0-.543-.239-.543-.543m0 2.17c0-.282.237-.543.543-.543.282 0 .542.26.542.543 0 .303-.26.542-.542.542-.306 0-.543-.239-.543-.542m0 2.19c0-.303.237-.542.543-.542.282 0 .542.24.542.543 0 .282-.26.542-.542.542-.306 0-.543-.26-.543-.542m0 2.17c0-.304.237-.543.543-.543.282 0 .542.239.542.542 0 .304-.26.543-.542.543-.306 0-.543-.239-.543-.543m0 2.17c0-.282.237-.543.543-.543.282 0 .542.26.542.543 0 .303-.26.542-.542.542-.306 0-.543-.239-.543-.542m0 2.19c0-.303.237-.541.543-.541.282 0 .542.238.542.542 0 .282-.26.542-.542.542-.306 0-.543-.26-.543-.542m0 2.17c0-.304.237-.543.543-.543.282 0 .542.239.542.542 0 .304-.26.543-.542.543-.306 0-.543-.239-.543-.543m0 2.17c0-.304.237-.543.543-.543.282 0 .542.24.542.543 0 .303-.26.542-.542.542-.306 0-.543-.239-.543-.542m0 2.17c0-.283.237-.521.543-.521.282 0 .542.238.542.52 0 .304-.26.564-.542.564-.306 0-.543-.26-.543-.564m0 2.191c0-.303.237-.542.543-.542.282 0 .542.239.542.542 0 .304-.26.543-.542.543-.306 0-.543-.239-.543-.543m0 2.17c0-.304.237-.543.543-.543.282 0 .542.24.542.543 0 .304-.26.542-.542.542-.306 0-.543-.238-.543-.542m0 2.17c0-.283.237-.543.543-.543.282 0 .542.26.542.542 0 .304-.26.543-.542.543-.306 0-.543-.239-.543-.543m0 2.191c0-.303.237-.542.543-.542.282 0 .542.239.542.542 0 .304-.26.543-.542.543-.306 0-.543-.239-.543-.543m0 2.17c0-.304.237-.543.543-.543.282 0 .542.24.542.543 0 .304-.26.542-.542.542-.306 0-.543-.238-.543-.542m0 2.17c0-.304.237-.543.543-.543.282 0 .542.239.542.542 0 .304-.26.543-.542.543-.306 0-.543-.239-.543-.543m0 2.191c0-.303.237-.542.543-.542.282 0 .542.239.542.542 0 .282-.26.543-.542.543-.306 0-.543-.26-.543-.543m0 2.17c0-.304.237-.542.543-.542.282 0 .542.238.542.542 0 .304-.26.542-.542.542-.306 0-.543-.238-.543-.542m0 2.17c0-.304.237-.543.543-.543.282 0 .542.239.542.542 0 .304-.26.543-.542.543-.306 0-.543-.239-.543-.543m0 2.191c0-.303.237-.564.543-.564.282 0 .542.26.542.564 0 .283-.26.543-.542.543-.306 0-.543-.26-.543-.543m0 2.17c0-.304.237-.542.543-.542.282 0 .542.238.542.542 0 .304-.26.542-.542.542-.306 0-.543-.238-.543-.542m0 2.17c0-.304.237-.543.543-.543.282 0 .542.239.542.542 0 .304-.26.543-.542.543-.306 0-.543-.239-.543-.543m0 2.17c0-.282.237-.543.543-.543.282 0 .542.26.542.543 0 .304-.26.542-.542.542-.306 0-.543-.238-.543-.542m0 2.191c0-.304.237-.542.543-.542.282 0 .542.238.542.542 0 .282-.26.542-.542.542-.306 0-.543-.26-.543-.542m0 2.17c0-.304.237-.543.543-.543.282 0 .542.239.542.542 0 .304-.26.543-.542.543-.306 0-.543-.239-.543-.543m0 2.17c0-.282.237-.542.543-.542.282 0 .542.26.542.542 0 .304-.26.542-.542.542-.306 0-.543-.238-.543-.542m0 2.191c0-.304.237-.542.543-.542.282 0 .542.238.542.542 0 .282-.26.542-.542.542-.306 0-.543-.26-.543-.542m0 2.17c0-.304.237-.543.543-.543.282 0 .542.239.542.542 0 .304-.26.543-.542.543-.306 0-.543-.239-.543-.543m0 2.17c0-.304.237-.542.543-.542.282 0 .542.238.542.542 0 .304-.26.542-.542.542-.306 0-.543-.238-.543-.542m0 2.191c0-.304.237-.542.543-.542.282 0 .542.238.542.542 0 .282-.26.52-.542.52-.306 0-.543-.238-.543-.52m0 2.17c0-.304.237-.543.543-.543.282 0 .542.239.542.543 0 .303-.26.542-.542.542-.306 0-.543-.239-.543-.542m0 2.169c0-.304.237-.542.543-.542.282 0 .542.238.542.542 0 .304-.26.542-.542.542-.306 0-.543-.238-.543-.542m0 2.17c0-.304.237-.543.543-.543.282 0 .542.239.542.542 0 .304-.26.543-.542.543-.306 0-.543-.239-.543-.543m0 2.19c0-.302.237-.543.543-.543.282 0 .542.24.542.542 0 .285-.26.543-.542.543-.306 0-.543-.258-.543-.543m0 2.17c0-.302.237-.543.543-.543.282 0 .542.241.542.543 0 .306-.26.542-.542.542-.306 0-.543-.236-.543-.542m0 2.17c0-.302.237-.543.543-.543.282 0 .542.24.542.542 0 .306-.26.543-.542.543-.306 0-.543-.237-.543-.543m0 2.17c0-.28.237-.543.543-.543.282 0 .542.263.542.543 0 .306-.26.566-.542.566-.306 0-.543-.26-.543-.566m0 2.193c0-.304.237-.542.543-.542.282 0 .542.238.542.542 0 .304-.26.542-.542.542-.306 0-.543-.238-.543-.542m0 2.17c0-.304.237-.543.543-.543.282 0 .542.239.542.543 0 .303-.26.542-.542.542-.306 0-.543-.239-.543-.542m0 2.169c0-.282.237-.542.543-.542.282 0 .542.26.542.542 0 .304-.26.564-.542.564-.306 0-.543-.26-.543-.564m0 2.191c0-.304.237-.542.543-.542.282 0 .542.238.542.542 0 .304-.26.542-.542.542-.306 0-.543-.238-.543-.542m0 2.17c0-.304.237-.543.543-.543.282 0 .542.239.542.543 0 .303-.26.542-.542.542-.306 0-.543-.239-.543-.542m0 2.169c0-.304.237-.542.543-.542.282 0 .542.238.542.542 0 .304-.26.542-.542.542-.306 0-.543-.238-.543-.542m0 2.191c0-.304.237-.542.543-.542.282 0 .542.238.542.542 0 .282-.26.543-.542.543-.306 0-.543-.26-.543-.543m0 2.17c0-.304.237-.543.543-.543.282 0 .542.239.542.543 0 .301-.26.542-.542.542-.306 0-.543-.24-.543-.542m0 2.17c0-.305.237-.543.543-.543.282 0 .542.238.542.542 0 .302-.26.542-.542.542-.306 0-.543-.24-.543-.542m0 2.189c0-.302.237-.542.543-.542.282 0 .542.24.542.542 0 .282-.26.542-.542.542-.306 0-.543-.26-.543-.542m0 2.17c0-.302.237-.543.543-.543.282 0 .542.24.542.542 0 .306-.26.543-.542.543-.306 0-.543-.237-.543-.543m0 2.17c0-.302.237-.542.543-.542.282 0 .542.24.542.542 0 .306-.26.542-.542.542-.306 0-.543-.236-.543-.542m0 2.17c0-.28.237-.543.543-.543.282 0 .542.263.542.542 0 .306-.26.543-.542.543-.306 0-.543-.237-.543-.543m0 2.194c0-.304.237-.543.543-.543.282 0 .542.239.542.543 0 .282-.26.542-.542.542-.306 0-.543-.26-.543-.542m0 2.17c0-.305.237-.543.543-.543.282 0 .542.238.542.542 0 .304-.26.543-.542.543-.306 0-.543-.24-.543-.543m0 2.17c0-.304.237-.543.543-.543.282 0 .542.239.542.543 0 .303-.26.542-.542.542-.306 0-.543-.239-.543-.542m0 2.169c0-.284.237-.52.543-.52.282 0 .542.236.542.52 0 .304-.26.564-.542.564-.306 0-.543-.26-.543-.564m0 2.191c0-.306.237-.542.543-.542.282 0 .542.236.542.542 0 .304-.26.543-.542.543-.306 0-.543-.24-.543-.543m0 2.17c0-.306.237-.543.543-.543.282 0 .542.237.542.543 0 .303-.26.542-.542.542-.306 0-.543-.239-.543-.542m0 2.19c0-.303.237-.542.543-.542.282 0 .542.24.542.543 0 .282-.26.542-.542.542-.306 0-.543-.26-.543-.542m0 2.17c0-.304.237-.543.543-.543.282 0 .542.239.542.542 0 .302-.26.543-.542.543-.306 0-.543-.241-.543-.543m0 2.17c0-.304.237-.543.543-.543.282 0 .542.239.542.543 0 .301-.26.542-.542.542-.306 0-.543-.24-.543-.542m0 2.17c0-.283.237-.522.543-.522.282 0 .542.24.542.521 0 .302-.26.542-.542.542-.306 0-.543-.24-.543-.542m0 2.191c0-.303.237-.542.543-.542.282 0 .542.239.542.542 0 .28-.26.543-.542.543-.306 0-.543-.263-.543-.543m0 2.17c0-.304.237-.543.543-.543.282 0 .542.239.542.543 0 .303-.26.542-.542.542-.306 0-.543-.239-.543-.542m0 2.17c0-.305.237-.543.543-.543.282 0 .542.238.542.542 0 .304-.26.543-.542.543-.306 0-.543-.24-.543-.543m0 2.191c0-.303.237-.542.543-.542.282 0 .542.239.542.542 0 .282-.26.543-.542.543-.306 0-.543-.26-.543-.543m0 2.17c0-.304.237-.543.543-.543.282 0 .542.239.542.543 0 .303-.26.542-.542.542-.306 0-.543-.239-.543-.542m0 2.17c0-.305.237-.543.543-.543.282 0 .542.238.542.542 0 .304-.26.543-.542.543-.306 0-.543-.24-.543-.543m0 2.191c0-.306.237-.564.543-.564.282 0 .542.258.542.564 0 .282-.26.543-.542.543-.306 0-.543-.26-.543-.543m0 2.17c0-.306.237-.543.543-.543.282 0 .542.237.542.543 0 .304-.26.542-.542.542-.306 0-.543-.238-.543-.542m0 2.17c0-.307.237-.543.543-.543.282 0 .542.236.542.542 0 .304-.26.543-.542.543-.306 0-.543-.239-.543-.543m0 2.17c0-.282.237-.543.543-.543.282 0 .542.26.542.543 0 .303-.26.542-.542.542-.306 0-.543-.239-.543-.542m0 2.19c0-.303.237-.542.543-.542.282 0 .542.24.542.543 0 .301-.26.542-.542.542-.306 0-.543-.24-.543-.542m0 2.17c0-.304.237-.543.543-.543.282 0 .542.239.542.542 0 .302-.26.543-.542.543-.306 0-.543-.241-.543-.543m0 2.17c0-.282.237-.543.543-.543.282 0 .542.26.542.543 0 .301-.26.542-.542.542-.306 0-.543-.24-.543-.542m0 2.19c0-.303.237-.541.543-.541.282 0 .542.238.542.542 0 .304-.26.542-.542.542-.306 0-.543-.238-.543-.542m0 2.17c0-.304.237-.543.543-.543.282 0 .542.239.542.542 0 .304-.26.543-.542.543-.306 0-.543-.239-.543-.543m0 2.17c0-.282.237-.543.543-.543.282 0 .542.26.542.543 0 .304-.26.542-.542.542-.306 0-.543-.238-.543-.542m0 2.19c0-.303.237-.563.543-.563.282 0 .542.26.542.564 0 .282-.26.52-.542.52-.306 0-.543-.238-.543-.52m0 2.17c0-.304.237-.543.543-.543.282 0 .542.239.542.542 0 .304-.26.543-.542.543-.306 0-.543-.239-.543-.543m0 2.17c0-.304.237-.543.543-.543.282 0 .542.24.542.543 0 .304-.26.542-.542.542-.306 0-.543-.238-.543-.542m0 2.17c0-.285.237-.543.543-.543.282 0 .542.258.542.542 0 .304-.26.543-.542.543-.306 0-.543-.239-.543-.543m0 2.191c0-.305.237-.542.543-.542.282 0 .542.237.542.542 0 .282-.26.543-.542.543-.306 0-.543-.26-.543-.543m0 2.17c0-.306.237-.542.543-.542.282 0 .542.236.542.542 0 .304-.26.542-.542.542-.306 0-.543-.238-.543-.542m0 2.17c0-.307.237-.543.543-.543.282 0 .542.236.542.542 0 .304-.26.543-.542.543-.306 0-.543-.239-.543-.543m0 2.191c0-.303.237-.542.543-.542.282 0 .542.239.542.542 0 .283-.26.543-.542.543-.306 0-.543-.26-.543-.543m0 2.17c0-.304.237-.542.543-.542.282 0 .542.238.542.542 0 .301-.26.542-.542.542-.306 0-.543-.24-.543-.542m0 2.17c0-.304.237-.543.543-.543.282 0 .542.239.542.542 0 .302-.26.543-.542.543-.306 0-.543-.241-.543-.543m0 2.17c0-.282.237-.52.543-.52.282 0 .542.238.542.52 0 .301-.26.564-.542.564-.306 0-.543-.263-.543-.564m0 2.191c0-.304.237-.542.543-.542.282 0 .542.238.542.542 0 .304-.26.542-.542.542-.306 0-.543-.238-.543-.542m0 2.17c0-.304.237-.543.543-.543.282 0 .542.239.542.542 0 .304-.26.543-.542.543-.306 0-.543-.239-.543-.543m0 2.17c0-.282.237-.542.543-.542.282 0 .542.26.542.542 0 .304-.26.542-.542.542-.306 0-.543-.238-.543-.542m0 2.189c0-.302.237-.543.543-.543.282 0 .542.241.542.543 0 .306-.26.542-.542.542-.306 0-.543-.236-.543-.542m0 2.17c0-.302.237-.543.543-.543.282 0 .542.24.542.542 0 .306-.26.543-.542.543-.306 0-.543-.237-.543-.543m0 2.17c0-.282.237-.543.543-.543.282 0 .542.26.542.543 0 .306-.26.542-.542.542-.306 0-.543-.236-.543-.542m0 2.193c0-.306.237-.542.543-.542.282 0 .542.236.542.542 0 .282-.26.542-.542.542-.306 0-.543-.26-.543-.542"/>
        <path fill="#000" d="M364.98 387.83c-.3 0-.543-.244-.543-.543l.013-258.815c0-.3.243-.543.543-.543.301 0 .542.243.542.543l-.013 258.815c0 .3-.243.542-.543.542M611.718 130.655c0-.304.239-.542.543-.542.306 0 .542.238.542.542 0 .282-.236.542-.542.542-.304 0-.543-.26-.543-.542m0 2.17c0-.304.239-.543.543-.543.306 0 .542.239.542.543 0 .303-.236.542-.542.542-.304 0-.543-.239-.543-.542m0 2.169c0-.282.239-.542.543-.542.306 0 .542.26.542.542 0 .304-.236.542-.542.542-.304 0-.543-.238-.543-.542m0 2.17c0-.283.239-.543.543-.543.306 0 .542.26.542.542 0 .304-.236.565-.542.565-.304 0-.543-.26-.543-.565m0 2.192c0-.304.239-.543.543-.543.306 0 .542.239.542.543 0 .303-.236.542-.542.542-.304 0-.543-.239-.543-.542m0 2.17c0-.305.239-.543.543-.543.306 0 .542.238.542.542 0 .304-.236.542-.542.542-.304 0-.543-.238-.543-.542m0 2.17c0-.283.239-.543.543-.543.306 0 .542.26.542.543 0 .303-.236.564-.542.564-.304 0-.543-.26-.543-.564m0 2.19c0-.303.239-.542.543-.542.306 0 .542.239.542.543 0 .282-.236.542-.542.542-.304 0-.543-.26-.543-.542m0 2.17c0-.305.239-.543.543-.543.306 0 .542.238.542.542 0 .304-.236.542-.542.542-.304 0-.543-.238-.543-.542m0 2.17c0-.304.239-.543.543-.543.306 0 .542.239.542.543 0 .303-.236.542-.542.542-.304 0-.543-.239-.543-.542m0 2.19c0-.303.239-.542.543-.542.306 0 .542.239.542.543 0 .282-.236.542-.542.542-.304 0-.543-.26-.543-.542m0 2.17c0-.305.239-.543.543-.543.306 0 .542.238.542.542 0 .304-.236.543-.542.543-.304 0-.543-.24-.543-.543m0 2.17c0-.304.239-.543.543-.543.306 0 .542.239.542.543 0 .303-.236.542-.542.542-.304 0-.543-.239-.543-.542m0 2.19c0-.303.239-.542.543-.542.306 0 .542.239.542.543 0 .282-.236.52-.542.52-.304 0-.543-.238-.543-.52m0 2.17c0-.305.239-.543.543-.543.306 0 .542.238.542.542 0 .304-.236.543-.542.543-.304 0-.543-.24-.543-.543m0 2.17c0-.304.239-.543.543-.543.306 0 .542.239.542.543 0 .303-.236.542-.542.542-.304 0-.543-.239-.543-.542m0 2.17c0-.283.239-.543.543-.543.306 0 .542.26.542.542 0 .304-.236.542-.542.542-.304 0-.543-.238-.543-.542m0 2.191c0-.303.239-.542.543-.542.306 0 .542.239.542.542 0 .304-.236.543-.542.543-.304 0-.543-.239-.543-.543m0 2.17c0-.304.239-.543.543-.543.306 0 .542.239.542.543 0 .303-.236.542-.542.542-.304 0-.543-.239-.543-.542m0 2.17c0-.283.239-.543.543-.543.306 0 .542.26.542.542 0 .304-.236.543-.542.543-.304 0-.543-.24-.543-.543m0 2.191c0-.303.239-.542.543-.542.306 0 .542.239.542.542 0 .282-.236.543-.542.543-.304 0-.543-.26-.543-.543m0 2.17c0-.304.239-.543.543-.543.306 0 .542.239.542.543 0 .303-.236.542-.542.542-.304 0-.543-.239-.543-.542m0 2.17c0-.305.239-.543.543-.543.306 0 .542.238.542.542 0 .304-.236.543-.542.543-.304 0-.543-.24-.543-.543m0 2.17c0-.282.239-.543.543-.543.306 0 .542.26.542.543 0 .303-.236.564-.542.564-.304 0-.543-.26-.543-.564m0 2.19c0-.303.239-.542.543-.542.306 0 .542.24.542.543 0 .304-.236.542-.542.542-.304 0-.543-.238-.543-.542m0 2.17c0-.304.239-.543.543-.543.306 0 .542.239.542.542 0 .304-.236.543-.542.543-.304 0-.543-.239-.543-.543m0 2.17c0-.304.239-.543.543-.543.306 0 .542.239.542.543 0 .303-.236.542-.542.542-.304 0-.543-.239-.543-.542m0 2.19c0-.303.239-.542.543-.542.306 0 .542.24.542.543 0 .282-.236.542-.542.542-.304 0-.543-.26-.543-.542m0 2.17c0-.304.239-.543.543-.543.306 0 .542.239.542.542 0 .304-.236.543-.542.543-.304 0-.543-.239-.543-.543m0 2.17c0-.304.239-.543.543-.543.306 0 .542.239.542.543 0 .303-.236.542-.542.542-.304 0-.543-.239-.543-.542m0 2.19c0-.303.239-.541.543-.541.306 0 .542.238.542.542 0 .282-.236.542-.542.542-.304 0-.543-.26-.543-.542m0 2.17c0-.304.239-.543.543-.543.306 0 .542.239.542.542 0 .304-.236.543-.542.543-.304 0-.543-.239-.543-.543m0 2.17c0-.304.239-.543.543-.543.306 0 .542.24.542.543 0 .303-.236.542-.542.542-.304 0-.543-.239-.543-.542m0 2.17c0-.283.239-.521.543-.521.306 0 .542.238.542.52 0 .304-.236.543-.542.543-.304 0-.543-.24-.543-.543m0 2.191c0-.303.239-.542.543-.542.306 0 .542.239.542.542 0 .304-.236.543-.542.543-.304 0-.543-.239-.543-.543m0 2.17c0-.304.239-.543.543-.543.306 0 .542.24.542.543 0 .304-.236.542-.542.542-.304 0-.543-.238-.543-.542m0 2.17c0-.283.239-.543.543-.543.306 0 .542.26.542.542 0 .304-.236.543-.542.543-.304 0-.543-.239-.543-.543m0 2.191c0-.303.239-.542.543-.542.306 0 .542.239.542.542 0 .304-.236.543-.542.543-.304 0-.543-.239-.543-.543m0 2.17c0-.304.239-.543.543-.543.306 0 .542.24.542.543 0 .304-.236.542-.542.542-.304 0-.543-.238-.543-.542m0 2.17c0-.283.239-.543.543-.543.306 0 .542.26.542.542 0 .304-.236.543-.542.543-.304 0-.543-.239-.543-.543m0 2.191c0-.303.239-.542.543-.542.306 0 .542.239.542.542 0 .282-.236.543-.542.543-.304 0-.543-.26-.543-.543m0 2.17c0-.304.239-.542.543-.542.306 0 .542.238.542.542 0 .304-.236.542-.542.542-.304 0-.543-.238-.543-.542m0 2.17c0-.304.239-.543.543-.543.306 0 .542.239.542.542 0 .304-.236.543-.542.543-.304 0-.543-.239-.543-.543m0 2.17c0-.282.239-.543.543-.543.306 0 .542.26.542.543 0 .304-.236.564-.542.564-.304 0-.543-.26-.543-.564m0 2.19c0-.303.239-.541.543-.541.306 0 .542.238.542.542 0 .304-.236.542-.542.542-.304 0-.543-.238-.543-.542m0 2.17c0-.304.239-.543.543-.543.306 0 .542.239.542.542 0 .304-.236.543-.542.543-.304 0-.543-.239-.543-.543m0 2.17c0-.282.239-.543.543-.543.306 0 .542.26.542.543 0 .304-.236.542-.542.542-.304 0-.543-.238-.543-.542m0 2.191c0-.304.239-.542.543-.542.306 0 .542.238.542.542 0 .282-.236.542-.542.542-.304 0-.543-.26-.543-.542m0 2.17c0-.304.239-.543.543-.543.306 0 .542.239.542.542 0 .304-.236.543-.542.543-.304 0-.543-.239-.543-.543m0 2.17c0-.304.239-.542.543-.542.306 0 .542.238.542.542 0 .304-.236.542-.542.542-.304 0-.543-.238-.543-.542m0 2.191c0-.304.239-.542.543-.542.306 0 .542.238.542.542 0 .282-.236.542-.542.542-.304 0-.543-.26-.543-.542m0 2.17c0-.304.239-.543.543-.543.306 0 .542.239.542.542 0 .304-.236.543-.542.543-.304 0-.543-.239-.543-.543m0 2.17c0-.304.239-.542.543-.542.306 0 .542.238.542.542 0 .304-.236.542-.542.542-.304 0-.543-.238-.543-.542m0 2.17c0-.283.239-.521.543-.521.306 0 .542.238.542.52 0 .304-.236.543-.542.543-.304 0-.543-.239-.543-.543m0 2.192c0-.304.239-.543.543-.543.306 0 .542.239.542.543 0 .303-.236.542-.542.542-.304 0-.543-.239-.543-.542m0 2.169c0-.304.239-.542.543-.542.306 0 .542.238.542.542 0 .304-.236.542-.542.542-.304 0-.543-.238-.543-.542m0 2.17c0-.283.239-.543.543-.543.306 0 .542.26.542.542 0 .304-.236.543-.542.543-.304 0-.543-.239-.543-.543m0 2.19c0-.302.239-.543.543-.543.306 0 .542.24.542.542 0 .285-.236.543-.542.543-.304 0-.543-.258-.543-.543m0 2.17c0-.302.239-.543.543-.543.306 0 .542.241.542.543 0 .306-.236.542-.542.542-.304 0-.543-.236-.543-.542m0 2.17c0-.302.239-.543.543-.543.306 0 .542.24.542.542 0 .306-.236.543-.542.543-.304 0-.543-.237-.543-.543m0 2.194c0-.304.239-.567.543-.567.306 0 .542.263.542.567 0 .282-.236.542-.542.542-.304 0-.543-.26-.543-.542m0 2.17c0-.305.239-.543.543-.543.306 0 .542.238.542.542 0 .282-.236.542-.542.542-.304 0-.543-.26-.543-.542m0 2.17c0-.304.239-.543.543-.543.306 0 .542.239.542.543 0 .303-.236.542-.542.542-.304 0-.543-.239-.543-.542m0 2.19c0-.325.239-.563.543-.563.306 0 .542.238.542.564 0 .282-.236.52-.542.52-.304 0-.543-.238-.543-.52m0 2.17c0-.305.239-.543.543-.543.306 0 .542.238.542.542 0 .282-.236.542-.542.542-.304 0-.543-.26-.543-.542m0 2.17c0-.304.239-.543.543-.543.306 0 .542.239.542.543 0 .303-.236.542-.542.542-.304 0-.543-.239-.543-.542m0 2.19c0-.325.239-.563.543-.563.306 0 .542.238.542.564 0 .282-.236.52-.542.52-.304 0-.543-.238-.543-.52m0 2.17c0-.305.239-.543.543-.543.306 0 .542.238.542.542 0 .282-.236.543-.542.543-.304 0-.543-.26-.543-.543m0 2.17c0-.304.239-.543.543-.543.306 0 .542.239.542.543 0 .301-.236.542-.542.542-.304 0-.543-.24-.543-.542m0 2.17c0-.305.239-.543.543-.543.306 0 .542.238.542.542 0 .302-.236.542-.542.542-.304 0-.543-.24-.543-.542m0 2.189c0-.302.239-.542.543-.542.306 0 .542.24.542.542 0 .282-.236.542-.542.542-.304 0-.543-.26-.543-.542m0 2.17c0-.302.239-.543.543-.543.306 0 .542.24.542.542 0 .306-.236.543-.542.543-.304 0-.543-.237-.543-.543m0 2.17c0-.302.239-.542.543-.542.306 0 .542.24.542.542 0 .306-.236.542-.542.542-.304 0-.543-.236-.543-.542m0 2.17c0-.28.239-.543.543-.543.306 0 .542.263.542.542 0 .306-.236.543-.542.543-.304 0-.543-.237-.543-.543m0 2.194c0-.304.239-.543.543-.543.306 0 .542.239.542.543 0 .303-.236.542-.542.542-.304 0-.543-.239-.543-.542m0 2.17c0-.305.239-.543.543-.543.306 0 .542.238.542.542 0 .304-.236.543-.542.543-.304 0-.543-.24-.543-.543m0 2.17c0-.304.239-.543.543-.543.306 0 .542.239.542.543 0 .303-.236.542-.542.542-.304 0-.543-.239-.543-.542m0 2.19c0-.305.239-.542.543-.542.306 0 .542.237.542.543 0 .282-.236.542-.542.542-.304 0-.543-.26-.543-.542m0 2.17c0-.307.239-.543.543-.543.306 0 .542.236.542.542 0 .304-.236.543-.542.543-.304 0-.543-.24-.543-.543m0 2.17c0-.306.239-.543.543-.543.306 0 .542.237.542.543 0 .303-.236.542-.542.542-.304 0-.543-.239-.543-.542m0 2.19c0-.303.239-.542.543-.542.306 0 .542.24.542.543 0 .282-.236.542-.542.542-.304 0-.543-.26-.543-.542m0 2.17c0-.304.239-.543.543-.543.306 0 .542.239.542.542 0 .302-.236.543-.542.543-.304 0-.543-.241-.543-.543m0 2.17c0-.304.239-.543.543-.543.306 0 .542.239.542.543 0 .301-.236.542-.542.542-.304 0-.543-.24-.543-.542m0 2.19c0-.303.239-.542.543-.542.306 0 .542.24.542.543 0 .28-.236.52-.542.52-.304 0-.543-.24-.543-.52m0 2.17c0-.304.239-.543.543-.543.306 0 .542.239.542.542 0 .28-.236.543-.542.543-.304 0-.543-.263-.543-.543m0 2.17c0-.304.239-.543.543-.543.306 0 .542.239.542.543 0 .303-.236.542-.542.542-.304 0-.543-.239-.543-.542m0 2.17c0-.283.239-.543.543-.543.306 0 .542.26.542.542 0 .304-.236.543-.542.543-.304 0-.543-.24-.543-.543m0 2.191c0-.303.239-.542.543-.542.306 0 .542.239.542.542 0 .282-.236.543-.542.543-.304 0-.543-.26-.543-.543m0 2.17c0-.304.239-.543.543-.543.306 0 .542.239.542.543 0 .303-.236.542-.542.542-.304 0-.543-.239-.543-.542m0 2.17c0-.305.239-.543.543-.543.306 0 .542.238.542.542 0 .304-.236.543-.542.543-.304 0-.543-.24-.543-.543m0 2.17c0-.285.239-.543.543-.543.306 0 .542.258.542.543 0 .303-.236.542-.542.542-.304 0-.543-.239-.543-.542m0 2.19c0-.305.239-.542.543-.542.306 0 .542.237.542.543 0 .304-.236.542-.542.542-.304 0-.543-.238-.543-.542m0 2.17c0-.307.239-.543.543-.543.306 0 .542.236.542.542 0 .304-.236.543-.542.543-.304 0-.543-.239-.543-.543m0 2.17c0-.306.239-.543.543-.543.306 0 .542.237.542.543 0 .303-.236.542-.542.542-.304 0-.543-.239-.543-.542m0 2.19c0-.303.239-.542.543-.542.306 0 .542.24.542.543 0 .301-.236.542-.542.542-.304 0-.543-.24-.543-.542m0 2.17c0-.304.239-.543.543-.543.306 0 .542.239.542.542 0 .302-.236.543-.542.543-.304 0-.543-.241-.543-.543m0 2.17c0-.304.239-.543.543-.543.306 0 .542.239.542.543 0 .301-.236.542-.542.542-.304 0-.543-.24-.543-.542m0 2.19c0-.303.239-.541.543-.541.306 0 .542.238.542.542 0 .28-.236.542-.542.542-.304 0-.543-.262-.543-.542m0 2.17c0-.304.239-.543.543-.543.306 0 .542.239.542.542 0 .304-.236.543-.542.543-.304 0-.543-.239-.543-.543m0 2.17c0-.304.239-.543.543-.543.306 0 .542.24.542.543 0 .304-.236.542-.542.542-.304 0-.543-.238-.543-.542m0 2.19c0-.303.239-.563.543-.563.306 0 .542.26.542.564 0 .282-.236.542-.542.542-.304 0-.543-.26-.543-.542m0 2.17c0-.304.239-.543.543-.543.306 0 .542.239.542.542 0 .304-.236.543-.542.543-.304 0-.543-.239-.543-.543m0 2.17c0-.304.239-.543.543-.543.306 0 .542.24.542.543 0 .304-.236.542-.542.542-.304 0-.543-.238-.543-.542m0 2.17c0-.285.239-.543.543-.543.306 0 .542.258.542.542 0 .304-.236.543-.542.543-.304 0-.543-.239-.543-.543m0 2.191c0-.305.239-.542.543-.542.306 0 .542.237.542.542 0 .304-.236.543-.542.543-.304 0-.543-.239-.543-.543m0 2.17c0-.306.239-.542.543-.542.306 0 .542.236.542.542 0 .304-.236.542-.542.542-.304 0-.543-.238-.543-.542m0 2.17c0-.307.239-.543.543-.543.306 0 .542.236.542.542 0 .304-.236.543-.542.543-.304 0-.543-.239-.543-.543m0 2.191c0-.303.239-.542.543-.542.306 0 .542.239.542.542 0 .283-.236.543-.542.543-.304 0-.543-.26-.543-.543m0 2.17c0-.304.239-.542.543-.542.306 0 .542.238.542.542 0 .301-.236.542-.542.542-.304 0-.543-.24-.543-.542m0 2.17c0-.304.239-.543.543-.543.306 0 .542.239.542.542 0 .302-.236.543-.542.543-.304 0-.543-.241-.543-.543m0 2.192c0-.304.239-.543.543-.543.306 0 .542.239.542.543 0 .28-.236.542-.542.542-.304 0-.543-.263-.543-.542m0 2.169c0-.304.239-.542.543-.542.306 0 .542.238.542.542 0 .304-.236.542-.542.542-.304 0-.543-.238-.543-.542m0 2.17c0-.304.239-.543.543-.543.306 0 .542.239.542.542 0 .304-.236.543-.542.543-.304 0-.543-.239-.543-.543m0 2.17c0-.282.239-.542.543-.542.306 0 .542.26.542.542 0 .304-.236.542-.542.542-.304 0-.543-.238-.543-.542m0 2.189c0-.302.239-.543.543-.543.306 0 .542.241.542.543 0 .284-.236.542-.542.542-.304 0-.543-.258-.543-.542m0 2.17c0-.302.239-.543.543-.543.306 0 .542.24.542.542 0 .306-.236.543-.542.543-.304 0-.543-.237-.543-.543m0 2.17c0-.302.239-.543.543-.543.306 0 .542.241.542.543 0 .306-.236.542-.542.542-.304 0-.543-.236-.543-.542m0 2.193c0-.306.239-.542.543-.542.306 0 .542.236.542.542 0 .282-.236.542-.542.542-.304 0-.543-.26-.543-.542"/>
        <path fill="#000" d="M612.259 387.83c-.3 0-.543-.244-.543-.543l.013-258.815c0-.3.243-.543.543-.543.301 0 .542.243.542.543l-.013 258.815c0 .3-.243.542-.542.542M.282 430.346L678.458 430.346 678.458 429.261.282 429.261zM.282 33.92L679.995 33.92 679.995 32.836.282 32.836z"/>
        <path fill="#1A1919" d="M1.793 175.61c-.139 0-.239-.07-.3-.208-.06-.14-.039-.27.066-.39l8.801-7.941c1.146-1.059 1.719-2.291 1.719-3.697 0-1.406-.486-2.647-1.458-3.723-.973-1.076-2.166-1.614-3.581-1.614s-2.626.452-3.633 1.354l-.911.833c-.104.087-.217.109-.339.065-.121-.043-.19-.121-.208-.234-.017-.113.017-.213.104-.3l.912-.859c1.128-1.006 2.495-1.51 4.101-1.51 1.606 0 2.99.636 4.153 1.9 1.007 1.146 1.51 2.522 1.51 4.127 0 1.606-.65 2.981-1.952 4.126L2.6 174.96h9.817c.209 0 .313.104.313.312 0 .087-.03.165-.091.235-.061.07-.135.104-.222.104H1.793zM19.683 160.485c-1.129 1.681-1.693 3.688-1.693 6.012 0 2.327.564 4.332 1.693 6.015 1.059 1.632 2.348 2.448 3.867 2.448 1.519 0 2.808-.816 3.867-2.448 1.128-1.63 1.692-3.636 1.692-6.015 0-2.376-.564-4.38-1.692-6.012-1.06-1.631-2.348-2.447-3.867-2.447-1.52 0-2.808.816-3.867 2.447m3.854-3.1c1.753.02 3.229.918 4.427 2.694 1.197 1.781 1.796 3.916 1.796 6.407 0 2.49-.594 4.627-1.783 6.417-1.19 1.788-2.67 2.69-4.44 2.707-1.736-.017-3.203-.92-4.401-2.707-1.198-1.79-1.797-3.927-1.797-6.417 0-2.49.6-4.626 1.797-6.407 1.198-1.776 2.665-2.675 4.4-2.694M38.614 157.75c0-.085.035-.163.104-.232.07-.072.14-.104.209-.104.225 0 .338.11.338.336v17.52c0 .228-.113.339-.338.339-.087 0-.16-.033-.222-.102-.06-.072-.09-.15-.09-.236V157.75zm-3.177 2.475c-.034.016-.108.024-.221.024s-.195-.078-.247-.234c-.052-.154 0-.276.156-.365l3.646-2.158c.19-.141.338-.11.442.091.104.2.061.35-.13.456l-3.646 2.186zM48.001 158.922c-.581.574-.872 1.267-.872 2.082 0 .818.29 1.51.872 2.083.582.575 1.276.859 2.083.859.808 0 1.502-.284 2.084-.86.581-.572.872-1.264.872-2.082 0-.815-.286-1.508-.86-2.082-.572-.573-1.267-.866-2.083-.883-.816.017-1.514.31-2.096.883m-1.55 7.265c-1.006 1.007-1.51 2.22-1.51 3.643 0 1.425.504 2.633 1.51 3.631 1.008.998 2.223 1.5 3.646 1.5 1.424 0 2.64-.502 3.646-1.5 1.007-.998 1.51-2.206 1.51-3.631 0-1.424-.503-2.636-1.51-3.643-1.007-1.007-2.222-1.512-3.646-1.512-1.423 0-2.638.505-3.645 1.512m.026-5.183c0-1.006.351-1.859 1.054-2.564.704-.703 1.554-1.054 2.552-1.054.999 0 1.85.351 2.552 1.054.703.705 1.055 1.558 1.055 2.564 0 .712-.191 1.36-.573 1.94-.382.581-.877 1.02-1.484 1.314 1.232.348 2.252 1.035 3.06 2.057.807 1.026 1.21 2.265 1.21 3.723 0 1.458-.568 2.753-1.705 3.879-1.137 1.13-2.504 1.692-4.102 1.692-1.597 0-2.964-.562-4.1-1.692-1.138-1.126-1.707-2.421-1.707-3.88 0-1.457.404-2.696 1.211-3.722.808-1.022 1.827-1.71 3.06-2.057-.625-.295-1.128-.733-1.51-1.314-.382-.58-.573-1.228-.573-1.94M1.793 269.332c-.139 0-.239-.072-.3-.209-.06-.139-.039-.27.066-.392l8.801-7.938c1.146-1.06 1.719-2.291 1.719-3.7 0-1.405-.486-2.646-1.458-3.722-.973-1.074-2.166-1.612-3.581-1.612s-2.626.451-3.633 1.354l-.911.833c-.104.084-.217.106-.339.065-.121-.043-.19-.124-.208-.234-.017-.113.017-.213.104-.3l.912-.861c1.128-1.005 2.495-1.51 4.101-1.51 1.606 0 2.99.636 4.153 1.9 1.007 1.148 1.51 2.521 1.51 4.127 0 1.605-.65 2.983-1.952 4.126l-8.177 7.42h9.817c.209 0 .313.106.313.314 0 .085-.03.165-.091.232-.061.072-.135.107-.222.107H1.793zM19.683 254.205c-1.129 1.681-1.693 3.69-1.693 6.011 0 2.328.564 4.333 1.693 6.018 1.059 1.632 2.348 2.445 3.867 2.445 1.519 0 2.808-.813 3.867-2.445 1.128-1.631 1.692-3.636 1.692-6.018 0-2.375-.564-4.38-1.692-6.011-1.06-1.63-2.348-2.445-3.867-2.445-1.52 0-2.808.815-3.867 2.445m3.854-3.098c1.753.02 3.229.917 4.427 2.694 1.197 1.781 1.796 3.916 1.796 6.404 0 2.49-.594 4.63-1.783 6.42-1.19 1.787-2.67 2.69-4.44 2.707-1.736-.017-3.203-.92-4.401-2.707-1.198-1.79-1.797-3.93-1.797-6.42 0-2.488.6-4.623 1.797-6.404 1.198-1.777 2.665-2.675 4.4-2.694M38.614 251.47c0-.084.035-.162.104-.231.07-.072.14-.105.209-.105.225 0 .338.111.338.337v17.522c0 .224-.113.339-.338.339-.087 0-.16-.035-.222-.107-.06-.067-.09-.147-.09-.232v-17.522zm-3.177 2.476c-.034.017-.108.026-.221.026s-.195-.08-.247-.236c-.052-.154 0-.276.156-.365l3.646-2.158c.19-.141.338-.111.442.09.104.2.061.35-.13.456l-3.646 2.187zM47.91 269.124c-.035.134-.108.204-.221.195-.113-.008-.178-.013-.196-.013-.19-.089-.251-.236-.182-.445l7.161-17.051h-9.609c-.225 0-.338-.113-.338-.339 0-.084.035-.163.104-.234.07-.07.148-.102.234-.102H55.02c.087 0 .165.037.234.115.07.078.105.15.105.208 0 .06-.035.143-.105.247l-7.343 17.419zM1.793 363.05c-.139 0-.239-.067-.3-.208-.06-.14-.039-.267.066-.389l8.801-7.942c1.146-1.059 1.719-2.29 1.719-3.694 0-1.406-.486-2.647-1.458-3.723-.973-1.078-2.166-1.616-3.581-1.616s-2.626.453-3.633 1.355l-.911.831c-.104.09-.217.111-.339.068-.121-.046-.19-.122-.208-.237-.017-.11.017-.213.104-.297l.912-.86c1.128-1.008 2.495-1.511 4.101-1.511 1.606 0 2.99.635 4.153 1.902 1.007 1.144 1.51 2.521 1.51 4.127 0 1.605-.65 2.978-1.952 4.126l-8.177 7.42h9.817c.209 0 .313.101.313.31 0 .089-.03.165-.091.236-.061.067-.135.102-.222.102H1.793zM19.683 347.927c-1.129 1.682-1.693 3.686-1.693 6.012 0 2.328.564 4.332 1.693 6.014 1.059 1.631 2.348 2.449 3.867 2.449 1.519 0 2.808-.818 3.867-2.45 1.128-1.63 1.692-3.635 1.692-6.013 0-2.376-.564-4.38-1.692-6.012-1.06-1.631-2.348-2.449-3.867-2.449-1.52 0-2.808.818-3.867 2.45m3.854-3.103c1.753.022 3.229.92 4.427 2.697 1.197 1.779 1.796 3.913 1.796 6.406 0 2.49-.594 4.625-1.783 6.415-1.19 1.788-2.67 2.69-4.44 2.708-1.736-.018-3.203-.92-4.401-2.708-1.198-1.79-1.797-3.924-1.797-6.415 0-2.493.6-4.627 1.797-6.406 1.198-1.777 2.665-2.675 4.4-2.697M38.614 345.19c0-.084.035-.16.104-.232.07-.07.14-.102.209-.102.225 0 .338.109.338.334v17.52c0 .23-.113.34-.338.34-.087 0-.16-.033-.222-.1-.06-.074-.09-.15-.09-.24v-17.52zm-3.177 2.476c-.034.015-.108.023-.221.023s-.195-.075-.247-.232c-.052-.156 0-.275.156-.364l3.646-2.16c.19-.142.338-.112.442.092.104.2.061.348-.13.454l-3.646 2.187zM50.5 351.91c-1.449 0-2.686.508-3.71 1.534-1.024 1.027-1.536 2.263-1.536 3.712 0 1.45.512 2.686 1.536 3.708 1.024 1.026 2.261 1.538 3.71 1.538 1.45 0 2.683-.512 3.699-1.538 1.015-1.022 1.54-2.263 1.575-3.72-.035-1.463-.56-2.695-1.575-3.713-1.016-1.017-2.249-1.52-3.698-1.52m-5.872 5.907c-.07-.07-.104-.729-.104-1.979 0-1.251.164-2.523.494-3.813.33-1.293.812-2.471 1.446-3.539.633-1.067 1.48-1.933 2.538-2.592 1.06-.658 2.266-1.013 3.62-1.07.226 0 .339.11.339.328 0 .219-.096.325-.287.325-2.222.106-3.954 1.005-5.195 2.695-1.241 1.692-1.983 3.781-2.226 6.263.486-.974 1.198-1.747 2.135-2.317.937-.573 1.97-.861 3.099-.861 1.632 0 3.025.572 4.18 1.72 1.154 1.145 1.74 2.534 1.757 4.165-.017 1.632-.603 3.022-1.758 4.179-1.154 1.152-2.521 1.729-4.101 1.729s-2.925-.497-4.036-1.497c-1.111-1-1.745-2.241-1.901-3.736"/>
        <path fill="#000" d="M117.496 130.655c0-.304.239-.542.542-.542.304 0 .543.238.543.542 0 .282-.239.542-.543.542-.303 0-.542-.26-.542-.542m0 2.17c0-.304.239-.543.542-.543.304 0 .543.239.543.543 0 .303-.239.542-.543.542-.303 0-.542-.239-.542-.542m0 2.169c0-.304.239-.542.542-.542.304 0 .543.238.543.542 0 .304-.239.542-.543.542-.303 0-.542-.238-.542-.542m0 2.17c0-.283.239-.521.542-.521.304 0 .543.238.543.52 0 .304-.239.543-.543.543-.303 0-.542-.239-.542-.543m0 2.192c0-.304.239-.543.542-.543.304 0 .543.239.543.543 0 .303-.239.542-.543.542-.303 0-.542-.239-.542-.542m0 2.17c0-.305.239-.543.542-.543.304 0 .543.238.543.542 0 .304-.239.542-.543.542-.303 0-.542-.238-.542-.542m0 2.17c0-.304.239-.543.542-.543.304 0 .543.239.543.543 0 .303-.239.542-.543.542-.303 0-.542-.239-.542-.542m0 2.19c0-.303.239-.542.542-.542.304 0 .543.239.543.543 0 .282-.239.542-.543.542-.303 0-.542-.26-.542-.542m0 2.17c0-.305.239-.543.542-.543.304 0 .543.238.543.542 0 .304-.239.542-.543.542-.303 0-.542-.238-.542-.542m0 2.17c0-.304.239-.543.542-.543.304 0 .543.239.543.543 0 .303-.239.542-.543.542-.303 0-.542-.239-.542-.542m0 2.19c0-.303.239-.542.542-.542.304 0 .543.239.543.543 0 .282-.239.542-.543.542-.303 0-.542-.26-.542-.542m0 2.17c0-.305.239-.543.542-.543.304 0 .543.238.543.542 0 .304-.239.543-.543.543-.303 0-.542-.24-.542-.543m0 2.17c0-.304.239-.543.542-.543.304 0 .543.239.543.543 0 .303-.239.542-.543.542-.303 0-.542-.239-.542-.542m0 2.19c0-.303.239-.563.542-.563.304 0 .543.26.543.564 0 .282-.239.542-.543.542-.303 0-.542-.26-.542-.542m0 2.17c0-.305.239-.543.542-.543.304 0 .543.238.543.542 0 .304-.239.543-.543.543-.303 0-.542-.24-.542-.543m0 2.17c0-.304.239-.543.542-.543.304 0 .543.239.543.543 0 .303-.239.542-.543.542-.303 0-.542-.239-.542-.542m0 2.17c0-.283.239-.543.542-.543.304 0 .543.26.543.542 0 .304-.239.542-.543.542-.303 0-.542-.238-.542-.542m0 2.191c0-.303.239-.542.542-.542.304 0 .543.239.543.542 0 .304-.239.543-.543.543-.303 0-.542-.239-.542-.543m0 2.17c0-.304.239-.543.542-.543.304 0 .543.239.543.543 0 .303-.239.542-.543.542-.303 0-.542-.239-.542-.542m0 2.17c0-.283.239-.543.542-.543.304 0 .543.26.543.542 0 .304-.239.543-.543.543-.303 0-.542-.24-.542-.543m0 2.191c0-.303.239-.542.542-.542.304 0 .543.239.543.542 0 .282-.239.543-.543.543-.303 0-.542-.26-.542-.543m0 2.17c0-.304.239-.543.542-.543.304 0 .543.239.543.543 0 .303-.239.542-.543.542-.303 0-.542-.239-.542-.542m0 2.17c0-.305.239-.543.542-.543.304 0 .543.238.543.542 0 .304-.239.543-.543.543-.303 0-.542-.24-.542-.543m0 2.191c0-.303.239-.542.542-.542.304 0 .543.239.543.542 0 .282-.239.521-.543.521-.303 0-.542-.239-.542-.52m0 2.169c0-.304.239-.543.542-.543.304 0 .543.24.543.543 0 .304-.239.542-.543.542-.303 0-.542-.238-.542-.542m0 2.17c0-.304.239-.543.542-.543.304 0 .543.239.543.542 0 .304-.239.543-.543.543-.303 0-.542-.239-.542-.543m0 2.17c0-.282.239-.543.542-.543.304 0 .543.26.543.543 0 .303-.239.542-.543.542-.303 0-.542-.239-.542-.542m0 2.19c0-.303.239-.542.542-.542.304 0 .543.24.543.543 0 .282-.239.542-.543.542-.303 0-.542-.26-.542-.542m0 2.17c0-.304.239-.543.542-.543.304 0 .543.239.543.542 0 .304-.239.543-.543.543-.303 0-.542-.239-.542-.543m0 2.17c0-.282.239-.543.542-.543.304 0 .543.26.543.543 0 .303-.239.542-.543.542-.303 0-.542-.239-.542-.542m0 2.19c0-.303.239-.541.542-.541.304 0 .543.238.543.542 0 .282-.239.542-.543.542-.303 0-.542-.26-.542-.542m0 2.17c0-.304.239-.543.542-.543.304 0 .543.239.543.542 0 .304-.239.543-.543.543-.303 0-.542-.239-.542-.543m0 2.17c0-.304.239-.543.542-.543.304 0 .543.24.543.543 0 .303-.239.542-.543.542-.303 0-.542-.239-.542-.542m0 2.17c0-.283.239-.521.542-.521.304 0 .543.238.543.52 0 .304-.239.564-.543.564-.303 0-.542-.26-.542-.564m0 2.191c0-.303.239-.542.542-.542.304 0 .543.239.543.542 0 .304-.239.543-.543.543-.303 0-.542-.239-.542-.543m0 2.17c0-.304.239-.543.542-.543.304 0 .543.24.543.543 0 .304-.239.542-.543.542-.303 0-.542-.238-.542-.542m0 2.17c0-.283.239-.543.542-.543.304 0 .543.26.543.542 0 .304-.239.543-.543.543-.303 0-.542-.239-.542-.543m0 2.191c0-.303.239-.542.542-.542.304 0 .543.239.543.542 0 .304-.239.543-.543.543-.303 0-.542-.239-.542-.543m0 2.17c0-.304.239-.543.542-.543.304 0 .543.24.543.543 0 .304-.239.542-.543.542-.303 0-.542-.238-.542-.542m0 2.17c0-.304.239-.543.542-.543.304 0 .543.239.543.542 0 .304-.239.543-.543.543-.303 0-.542-.239-.542-.543m0 2.191c0-.303.239-.542.542-.542.304 0 .543.239.543.542 0 .282-.239.543-.543.543-.303 0-.542-.26-.542-.543m0 2.17c0-.304.239-.542.542-.542.304 0 .543.238.543.542 0 .304-.239.542-.543.542-.303 0-.542-.238-.542-.542m0 2.17c0-.304.239-.543.542-.543.304 0 .543.239.543.542 0 .304-.239.543-.543.543-.303 0-.542-.239-.542-.543m0 2.191c0-.303.239-.564.542-.564.304 0 .543.26.543.564 0 .283-.239.543-.543.543-.303 0-.542-.26-.542-.543m0 2.17c0-.304.239-.542.542-.542.304 0 .543.238.543.542 0 .304-.239.542-.543.542-.303 0-.542-.238-.542-.542m0 2.17c0-.304.239-.543.542-.543.304 0 .543.239.543.542 0 .304-.239.543-.543.543-.303 0-.542-.239-.542-.543m0 2.17c0-.282.239-.543.542-.543.304 0 .543.26.543.543 0 .304-.239.542-.543.542-.303 0-.542-.238-.542-.542m0 2.191c0-.304.239-.542.542-.542.304 0 .543.238.543.542 0 .282-.239.542-.543.542-.303 0-.542-.26-.542-.542m0 2.17c0-.304.239-.543.542-.543.304 0 .543.239.543.542 0 .304-.239.543-.543.543-.303 0-.542-.239-.542-.543m0 2.17c0-.282.239-.542.542-.542.304 0 .543.26.543.542 0 .304-.239.542-.543.542-.303 0-.542-.238-.542-.542m0 2.191c0-.304.239-.542.542-.542.304 0 .543.238.543.542 0 .282-.239.542-.543.542-.303 0-.542-.26-.542-.542m0 2.17c0-.304.239-.543.542-.543.304 0 .543.239.543.542 0 .304-.239.543-.543.543-.303 0-.542-.239-.542-.543m0 2.17c0-.304.239-.542.542-.542.304 0 .543.238.543.542 0 .304-.239.542-.543.542-.303 0-.542-.238-.542-.542m0 2.191c0-.304.239-.542.542-.542.304 0 .543.238.543.542 0 .282-.239.52-.543.52-.303 0-.542-.238-.542-.52m0 2.17c0-.304.239-.543.542-.543.304 0 .543.239.543.543 0 .303-.239.542-.543.542-.303 0-.542-.239-.542-.542m0 2.169c0-.304.239-.542.542-.542.304 0 .543.238.543.542 0 .304-.239.542-.543.542-.303 0-.542-.238-.542-.542m0 2.17c0-.304.239-.543.542-.543.304 0 .543.239.543.542 0 .304-.239.543-.543.543-.303 0-.542-.239-.542-.543m0 2.19c0-.302.239-.543.542-.543.304 0 .543.24.543.542 0 .285-.239.543-.543.543-.303 0-.542-.258-.542-.543m0 2.17c0-.302.239-.543.542-.543.304 0 .543.241.543.543 0 .306-.239.542-.543.542-.303 0-.542-.236-.542-.542m0 2.17c0-.302.239-.543.542-.543.304 0 .543.24.543.542 0 .306-.239.543-.543.543-.303 0-.542-.237-.542-.543m0 2.17c0-.28.239-.543.542-.543.304 0 .543.263.543.543 0 .306-.239.566-.543.566-.303 0-.542-.26-.542-.566m0 2.193c0-.304.239-.542.542-.542.304 0 .543.238.543.542 0 .304-.239.542-.543.542-.303 0-.542-.238-.542-.542m0 2.17c0-.304.239-.543.542-.543.304 0 .543.239.543.543 0 .303-.239.542-.543.542-.303 0-.542-.239-.542-.542m0 2.169c0-.282.239-.542.542-.542.304 0 .543.26.543.542 0 .304-.239.564-.543.564-.303 0-.542-.26-.542-.564m0 2.191c0-.304.239-.542.542-.542.304 0 .543.238.543.542 0 .304-.239.542-.543.542-.303 0-.542-.238-.542-.542m0 2.17c0-.304.239-.543.542-.543.304 0 .543.239.543.543 0 .303-.239.542-.543.542-.303 0-.542-.239-.542-.542m0 2.169c0-.304.239-.542.542-.542.304 0 .543.238.543.542 0 .304-.239.542-.543.542-.303 0-.542-.238-.542-.542m0 2.191c0-.304.239-.542.542-.542.304 0 .543.238.543.542 0 .282-.239.543-.543.543-.303 0-.542-.26-.542-.543m0 2.17c0-.304.239-.543.542-.543.304 0 .543.239.543.543 0 .301-.239.542-.543.542-.303 0-.542-.24-.542-.542m0 2.17c0-.305.239-.543.542-.543.304 0 .543.238.543.542 0 .302-.239.542-.543.542-.303 0-.542-.24-.542-.542m0 2.189c0-.302.239-.542.542-.542.304 0 .543.24.543.542 0 .282-.239.542-.543.542-.303 0-.542-.26-.542-.542m0 2.17c0-.302.239-.543.542-.543.304 0 .543.24.543.542 0 .306-.239.543-.543.543-.303 0-.542-.237-.542-.543m0 2.17c0-.302.239-.542.542-.542.304 0 .543.24.543.542 0 .306-.239.542-.543.542-.303 0-.542-.236-.542-.542m0 2.17c0-.28.239-.543.542-.543.304 0 .543.263.543.542 0 .306-.239.543-.543.543-.303 0-.542-.237-.542-.543m0 2.194c0-.304.239-.543.542-.543.304 0 .543.239.543.543 0 .282-.239.542-.543.542-.303 0-.542-.26-.542-.542m0 2.17c0-.305.239-.543.542-.543.304 0 .543.238.543.542 0 .304-.239.543-.543.543-.303 0-.542-.24-.542-.543m0 2.17c0-.304.239-.543.542-.543.304 0 .543.239.543.543 0 .303-.239.542-.543.542-.303 0-.542-.239-.542-.542m0 2.169c0-.284.239-.52.542-.52.304 0 .543.236.543.52 0 .304-.239.564-.543.564-.303 0-.542-.26-.542-.564m0 2.191c0-.306.239-.542.542-.542.304 0 .543.236.543.542 0 .304-.239.543-.543.543-.303 0-.542-.24-.542-.543m0 2.17c0-.306.239-.543.542-.543.304 0 .543.237.543.543 0 .303-.239.542-.543.542-.303 0-.542-.239-.542-.542m0 2.19c0-.303.239-.542.542-.542.304 0 .543.24.543.543 0 .282-.239.542-.543.542-.303 0-.542-.26-.542-.542m0 2.17c0-.304.239-.543.542-.543.304 0 .543.239.543.542 0 .302-.239.543-.543.543-.303 0-.542-.241-.542-.543m0 2.17c0-.304.239-.543.542-.543.304 0 .543.239.543.543 0 .301-.239.542-.543.542-.303 0-.542-.24-.542-.542m0 2.17c0-.283.239-.522.542-.522.304 0 .543.24.543.521 0 .302-.239.542-.543.542-.303 0-.542-.24-.542-.542m0 2.191c0-.303.239-.542.542-.542.304 0 .543.239.543.542 0 .28-.239.543-.543.543-.303 0-.542-.263-.542-.543m0 2.17c0-.304.239-.543.542-.543.304 0 .543.239.543.543 0 .303-.239.542-.543.542-.303 0-.542-.239-.542-.542m0 2.17c0-.305.239-.543.542-.543.304 0 .543.238.543.542 0 .304-.239.543-.543.543-.303 0-.542-.24-.542-.543m0 2.191c0-.303.239-.542.542-.542.304 0 .543.239.543.542 0 .282-.239.543-.543.543-.303 0-.542-.26-.542-.543m0 2.17c0-.304.239-.543.542-.543.304 0 .543.239.543.543 0 .303-.239.542-.543.542-.303 0-.542-.239-.542-.542m0 2.17c0-.305.239-.543.542-.543.304 0 .543.238.543.542 0 .304-.239.543-.543.543-.303 0-.542-.24-.542-.543m0 2.191c0-.306.239-.564.542-.564.304 0 .543.258.543.564 0 .282-.239.543-.543.543-.303 0-.542-.26-.542-.543m0 2.17c0-.306.239-.543.542-.543.304 0 .543.237.543.543 0 .304-.239.542-.543.542-.303 0-.542-.238-.542-.542m0 2.17c0-.307.239-.543.542-.543.304 0 .543.236.543.542 0 .304-.239.543-.543.543-.303 0-.542-.239-.542-.543m0 2.17c0-.282.239-.543.542-.543.304 0 .543.26.543.543 0 .303-.239.542-.543.542-.303 0-.542-.239-.542-.542m0 2.19c0-.303.239-.542.542-.542.304 0 .543.24.543.543 0 .301-.239.542-.543.542-.303 0-.542-.24-.542-.542m0 2.17c0-.304.239-.543.542-.543.304 0 .543.239.543.542 0 .302-.239.543-.543.543-.303 0-.542-.241-.542-.543m0 2.17c0-.282.239-.543.542-.543.304 0 .543.26.543.543 0 .301-.239.542-.543.542-.303 0-.542-.24-.542-.542m0 2.19c0-.303.239-.541.542-.541.304 0 .543.238.543.542 0 .304-.239.542-.543.542-.303 0-.542-.238-.542-.542m0 2.17c0-.304.239-.543.542-.543.304 0 .543.239.543.542 0 .304-.239.543-.543.543-.303 0-.542-.239-.542-.543m0 2.17c0-.282.239-.543.542-.543.304 0 .543.26.543.543 0 .304-.239.542-.543.542-.303 0-.542-.238-.542-.542m0 2.19c0-.303.239-.563.542-.563.304 0 .543.26.543.564 0 .282-.239.52-.543.52-.303 0-.542-.238-.542-.52m0 2.17c0-.304.239-.543.542-.543.304 0 .543.239.543.542 0 .304-.239.543-.543.543-.303 0-.542-.239-.542-.543m0 2.17c0-.304.239-.543.542-.543.304 0 .543.24.543.543 0 .304-.239.542-.543.542-.303 0-.542-.238-.542-.542m0 2.17c0-.285.239-.543.542-.543.304 0 .543.258.543.542 0 .304-.239.543-.543.543-.303 0-.542-.239-.542-.543m0 2.191c0-.305.239-.542.542-.542.304 0 .543.237.543.542 0 .282-.239.543-.543.543-.303 0-.542-.26-.542-.543m0 2.17c0-.306.239-.542.542-.542.304 0 .543.236.543.542 0 .304-.239.542-.543.542-.303 0-.542-.238-.542-.542m0 2.17c0-.307.239-.543.542-.543.304 0 .543.236.543.542 0 .304-.239.543-.543.543-.303 0-.542-.239-.542-.543m0 2.191c0-.303.239-.542.542-.542.304 0 .543.239.543.542 0 .283-.239.543-.543.543-.303 0-.542-.26-.542-.543m0 2.17c0-.304.239-.542.542-.542.304 0 .543.238.543.542 0 .301-.239.542-.543.542-.303 0-.542-.24-.542-.542m0 2.17c0-.304.239-.543.542-.543.304 0 .543.239.543.542 0 .302-.239.543-.543.543-.303 0-.542-.241-.542-.543m0 2.17c0-.282.239-.52.542-.52.304 0 .543.238.543.52 0 .301-.239.564-.543.564-.303 0-.542-.263-.542-.564m0 2.191c0-.304.239-.542.542-.542.304 0 .543.238.543.542 0 .304-.239.542-.543.542-.303 0-.542-.238-.542-.542m0 2.17c0-.304.239-.543.542-.543.304 0 .543.239.543.542 0 .304-.239.543-.543.543-.303 0-.542-.239-.542-.543m0 2.17c0-.282.239-.542.542-.542.304 0 .543.26.543.542 0 .304-.239.542-.543.542-.303 0-.542-.238-.542-.542m0 2.189c0-.302.239-.543.542-.543.304 0 .543.241.543.543 0 .306-.239.542-.543.542-.303 0-.542-.236-.542-.542m0 2.17c0-.302.239-.543.542-.543.304 0 .543.24.543.542 0 .306-.239.543-.543.543-.303 0-.542-.237-.542-.543m0 2.17c0-.282.239-.543.542-.543.304 0 .543.26.543.543 0 .306-.239.542-.543.542-.303 0-.542-.236-.542-.542m0 2.193c0-.306.239-.542.542-.542.304 0 .543.236.543.542 0 .282-.239.542-.543.542-.303 0-.542-.26-.542-.542"/>
        <path fill="#000" d="M118.036 387.83c-.3 0-.542-.244-.542-.543l.013-258.815c0-.3.243-.543.542-.543.302 0 .543.243.543.543l-.013 258.815c0 .3-.243.542-.543.542"/>
        <path fill="#98304A" d="M115.866 112.329L120.206 112.329 120.206 86.193 115.866 86.193zM363.18 112.329L367.52 112.329 367.52 86.193 363.18 86.193zM610.495 112.329L614.835 112.329 614.835 86.193 610.495 86.193z"/>
        <path fill="#1A1919" d="M112.99 56.657c-.939 1.401-1.41 3.072-1.41 5.011 0 1.937.471 3.608 1.41 5.01.884 1.36 1.958 2.04 3.223 2.04s2.34-.68 3.223-2.04c.94-1.359 1.41-3.03 1.41-5.01 0-1.983-.47-3.653-1.41-5.011-.884-1.36-1.958-2.04-3.223-2.04s-2.34.68-3.222 2.04m3.211-2.582c1.46.013 2.691.762 3.69 2.245.997 1.482 1.497 3.261 1.497 5.337 0 2.076-.495 3.858-1.487 5.348-.99 1.488-2.224 2.241-3.7 2.256-1.447-.015-2.669-.768-3.667-2.256-.998-1.49-1.497-3.272-1.497-5.348s.499-3.855 1.497-5.337c.998-1.483 2.22-2.232 3.667-2.245M345.246 69.26c-.117 0-.2-.056-.25-.173-.052-.115-.032-.226.055-.326l7.334-6.617c.953-.883 1.433-1.909 1.433-3.08 0-1.172-.404-2.207-1.216-3.103-.81-.896-1.803-1.345-2.983-1.345-1.179 0-2.188.378-3.028 1.128l-.76.695c-.088.071-.18.09-.281.054-.102-.035-.16-.102-.174-.195-.015-.096.013-.178.087-.25l.76-.716c.94-.84 2.078-1.258 3.417-1.258 1.34 0 2.491.527 3.461 1.584.84.954 1.259 2.1 1.259 3.438 0 1.339-.542 2.484-1.627 3.439l-6.814 6.183h8.18c.174 0 .261.087.261.26 0 .072-.026.139-.076.195-.05.057-.113.087-.184.087h-8.854zM358.785 69.218c-.143-.146-.217-.32-.217-.52 0-.205.074-.378.217-.522.143-.145.317-.216.521-.216.202 0 .375.071.52.216.146.144.218.317.218.521 0 .202-.072.375-.217.52-.146.144-.32.218-.521.218-.204 0-.378-.074-.52-.217M365.143 56.657c-.942 1.401-1.409 3.072-1.409 5.011 0 1.937.467 3.608 1.409 5.01.883 1.36 1.955 2.04 3.222 2.04 1.265 0 2.34-.68 3.223-2.04.94-1.359 1.41-3.03 1.41-5.01 0-1.983-.47-3.653-1.41-5.011-.884-1.36-1.958-2.04-3.223-2.04-1.267 0-2.34.68-3.222 2.04m3.211-2.582c1.46.013 2.691.762 3.692 2.245.998 1.482 1.495 3.261 1.495 5.337 0 2.076-.495 3.858-1.485 5.348-.991 1.488-2.226 2.241-3.702 2.256-1.447-.015-2.669-.768-3.667-2.256-.998-1.49-1.495-3.272-1.495-5.348s.497-3.855 1.495-5.337c.998-1.483 2.22-2.232 3.667-2.245M380.551 56.657c-.942 1.401-1.408 3.072-1.408 5.011 0 1.937.466 3.608 1.408 5.01.883 1.36 1.955 2.04 3.223 2.04 1.265 0 2.339-.68 3.222-2.04.94-1.359 1.41-3.03 1.41-5.01 0-1.983-.47-3.653-1.41-5.011-.883-1.36-1.957-2.04-3.222-2.04-1.268 0-2.34.68-3.223 2.04m3.212-2.582c1.46.013 2.69.762 3.691 2.245.998 1.482 1.495 3.261 1.495 5.337 0 2.076-.495 3.858-1.484 5.348-.992 1.488-2.227 2.241-3.702 2.256-1.448-.015-2.67-.768-3.668-2.256-.998-1.49-1.495-3.272-1.495-5.348s.497-3.855 1.495-5.337c.999-1.483 2.22-2.232 3.668-2.245M395.957 56.657c-.941 1.401-1.408 3.072-1.408 5.011 0 1.937.467 3.608 1.408 5.01.884 1.36 1.956 2.04 3.223 2.04 1.265 0 2.34-.68 3.222-2.04.94-1.359 1.411-3.03 1.411-5.01 0-1.983-.47-3.653-1.41-5.011-.884-1.36-1.958-2.04-3.223-2.04-1.267 0-2.34.68-3.223 2.04m3.212-2.582c1.46.013 2.69.762 3.691 2.245.999 1.482 1.495 3.261 1.495 5.337 0 2.076-.494 3.858-1.484 5.348-.992 1.488-2.226 2.241-3.702 2.256-1.447-.015-2.669-.768-3.667-2.256-.998-1.49-1.495-3.272-1.495-5.348s.497-3.855 1.495-5.337c.998-1.483 2.22-2.232 3.667-2.245M586.75 65.485h8.311V55.202l-8.31 10.283zm8.376-11.281c.074-.072.137-.109.196-.109.058 0 .152.065.282.196.015.03.022.05.022.065v11.129h1.323c.187 0 .282.091.282.271 0 .182-.095.271-.282.271h-1.323v2.95c0 .19-.094.283-.283.283-.071 0-.138-.028-.195-.087-.058-.056-.087-.122-.087-.195v-2.95h-8.875c-.102 0-.182-.05-.239-.15-.056-.102-.052-.198.022-.285l9.157-11.39zM601.266 69.218c-.143-.146-.217-.32-.217-.52 0-.205.074-.378.217-.522.144-.145.317-.216.521-.216.202 0 .376.071.52.216.146.144.218.317.218.521 0 .202-.072.375-.217.52-.145.144-.32.218-.52.218-.205 0-.378-.074-.522-.217M607.624 56.657c-.942 1.401-1.409 3.072-1.409 5.011 0 1.937.467 3.608 1.409 5.01.883 1.36 1.955 2.04 3.222 2.04 1.265 0 2.34-.68 3.223-2.04.94-1.359 1.41-3.03 1.41-5.01 0-1.983-.47-3.653-1.41-5.011-.883-1.36-1.958-2.04-3.223-2.04-1.267 0-2.339.68-3.222 2.04m3.211-2.582c1.46.013 2.691.762 3.692 2.245.998 1.482 1.495 3.261 1.495 5.337 0 2.076-.495 3.858-1.484 5.348-.992 1.488-2.227 2.241-3.703 2.256-1.447-.015-2.669-.768-3.667-2.256-.998-1.49-1.495-3.272-1.495-5.348s.497-3.855 1.495-5.337c.998-1.483 2.22-2.232 3.667-2.245M623.032 56.657c-.941 1.401-1.408 3.072-1.408 5.011 0 1.937.467 3.608 1.408 5.01.884 1.36 1.956 2.04 3.223 2.04 1.265 0 2.34-.68 3.222-2.04.94-1.359 1.41-3.03 1.41-5.01 0-1.983-.47-3.653-1.41-5.011-.883-1.36-1.957-2.04-3.222-2.04-1.267 0-2.34.68-3.223 2.04m3.212-2.582c1.46.013 2.69.762 3.691 2.245.998 1.482 1.495 3.261 1.495 5.337 0 2.076-.494 3.858-1.484 5.348-.992 1.488-2.226 2.241-3.702 2.256-1.447-.015-2.67-.768-3.667-2.256-.999-1.49-1.496-3.272-1.496-5.348s.497-3.855 1.496-5.337c.998-1.483 2.22-2.232 3.667-2.245M638.439 56.657c-.942 1.401-1.409 3.072-1.409 5.011 0 1.937.467 3.608 1.409 5.01.883 1.36 1.955 2.04 3.222 2.04 1.265 0 2.34-.68 3.223-2.04.94-1.359 1.41-3.03 1.41-5.01 0-1.983-.47-3.653-1.41-5.011-.884-1.36-1.958-2.04-3.223-2.04-1.267 0-2.34.68-3.222 2.04m3.211-2.582c1.46.013 2.691.762 3.691 2.245.999 1.482 1.496 3.261 1.496 5.337 0 2.076-.495 3.858-1.485 5.348-.991 1.488-2.226 2.241-3.702 2.256-1.447-.015-2.669-.768-3.667-2.256-.998-1.49-1.495-3.272-1.495-5.348s.497-3.855 1.495-5.337c.998-1.483 2.22-2.232 3.667-2.245"/>
        <path fill="#98304A" d="M69.404 163.834L438.252 163.834 438.252 148.042 69.404 148.042z"/>
        <path fill="#000" d="M69.404 182.28L444.404 182.28 444.404 166.491 69.404 166.491z"/>
        <path fill="#98304A" d="M444.938 162.62c-.232-.273-.226-.533.021-.778l7.094-6.402c.87-.794 1.304-1.723 1.304-2.788 0-1.063-.362-1.996-1.085-2.799-.724-.802-1.627-1.201-2.712-1.201-1.085 0-2.005.332-2.758.998l-.736.67c-.117.102-.247.152-.39.152-.146 0-.265-.057-.359-.174-.095-.115-.143-.245-.143-.388 0-.145.061-.26.174-.35l.738-.694c.972-.852 2.144-1.28 3.515-1.28 1.376 0 2.54.543 3.496 1.627.868.927 1.3 2.077 1.3 3.45 0 1.375-.543 2.56-1.628 3.56l-6.074 5.487h7.183c.146 0 .267.054.37.162.099.109.149.237.149.38 0 .145-.05.269-.15.369-.102.102-.223.152-.369.152h-8.55c-.173 0-.303-.05-.39-.152M458.685 162.46c-.21-.21-.315-.469-.315-.77 0-.304.104-.56.315-.773.21-.208.466-.312.77-.312s.56.104.77.312c.21.213.315.469.315.773 0 .301-.104.56-.315.77-.21.21-.466.314-.77.314s-.56-.104-.77-.314M464.078 157.763v.087c0 .071.007.154.022.247.015.095.015.158 0 .184.128.972.566 1.786 1.31 2.441.747.66 1.643.987 2.691.987 1.05 0 1.966-.384 2.745-1.16.782-.773 1.172-1.701 1.172-2.786s-.39-2.016-1.172-2.788c-.779-.774-1.716-1.16-2.81-1.16-1.091 0-2.022.386-2.8 1.16-.772.772-1.158 1.703-1.158 2.788m-1.109-.827c.03-2.356.52-4.367 1.478-6.029 1.2-2.113 2.973-3.213 5.314-3.3.148-.012.27.031.371.133.1.102.154.223.161.369.009.143-.04.271-.139.38-.102.106-.226.169-.369.184-1.896.071-3.372.991-4.427 2.753-.48.826-.84 1.84-1.085 3.037.999-1.141 2.222-1.714 3.676-1.714 1.456 0 2.672.493 3.648 1.475.977.985 1.465 2.168 1.465 3.55 0 1.382-.488 2.56-1.465 3.536-.976.976-2.157 1.464-3.537 1.464-1.382 0-2.558-.47-3.526-1.412-.97-.937-1.478-2.083-1.52-3.428-.03-.217-.045-.549-.045-.998M476.901 154.509c-.015-.03-.017-.08-.01-.152.008-.074.01-.117.01-.133l.74-6.115c0-.159.072-.29.215-.393.087-.087.202-.128.35-.128h7.071c.146 0 .272.05.38.152.109.102.163.23.163.39 0 .159-.05.289-.152.389-.102.102-.23.154-.39.154h-6.617l-.542 4.512c.794-.462 1.653-.696 2.58-.696 1.432 0 2.645.497 3.637 1.488.99.99 1.484 2.209 1.484 3.654 0 1.447-.506 2.666-1.52 3.657-1.012.99-2.226 1.486-3.645 1.486-1.417 0-2.623-.5-3.622-1.499-.117-.1-.175-.225-.175-.38 0-.15.058-.282.175-.388.113-.108.246-.165.389-.165.145 0 .276.059.39.176.812.781 1.77 1.172 2.876 1.172 1.107 0 2.057-.4 2.856-1.194.794-.796 1.19-1.76 1.19-2.885 0-1.13-.388-2.083-1.17-2.866-.782-.779-1.735-1.171-2.865-1.171-1.129 0-2.09.399-2.886 1.193-.115.102-.246.152-.391.152-.245 0-.41-.107-.497-.324v-.023c-.015-.013-.024-.035-.024-.063M493.274 149.235c-.41.406-.619.905-.619 1.497 0 .595.209 1.096.619 1.508.412.412.909.627 1.488.642.593-.015 1.094-.234 1.506-.653.413-.418.619-.917.619-1.497 0-.577-.206-1.074-.619-1.486-.412-.412-.911-.616-1.497-.616-.586 0-1.085.2-1.497.605m-1.259 5.869c-.76.761-1.137 1.675-1.137 2.746 0 1.07.378 1.983 1.137 2.742.762.76 1.678 1.14 2.756 1.14 1.079 0 1.992-.38 2.745-1.14.753-.759 1.13-1.672 1.13-2.742 0-1.071-.377-1.985-1.13-2.746-.753-.76-1.666-1.137-2.745-1.137-1.078 0-1.994.377-2.756 1.137m.857-1.812c-.837-.65-1.258-1.458-1.258-2.419 0-.96.303-1.75.911-2.364.61-.614 1.348-.922 2.227-.922.874 0 1.623.308 2.243.922.623.614.936 1.403.936 2.364 0 .961-.437 1.768-1.305 2.42.912.377 1.652.976 2.214 1.8.564.824.846 1.744.846 2.757 0 1.374-.482 2.539-1.443 3.49-.961.958-2.122 1.433-3.48 1.433-1.361 0-2.524-.48-3.486-1.443-.961-.961-1.443-2.122-1.443-3.48 0-1.013.282-1.933.849-2.757.562-.824 1.29-1.423 2.19-1.8"/>
        <path fill="#000" d="M452.317 182.08c-.233-.273-.226-.534.021-.779l7.094-6.402c.87-.794 1.304-1.722 1.304-2.788 0-1.063-.362-1.996-1.085-2.798-.724-.803-1.627-1.202-2.712-1.202-1.085 0-2.005.332-2.758.998l-.736.67c-.117.102-.247.152-.39.152-.146 0-.265-.056-.359-.173-.095-.115-.143-.246-.143-.389 0-.145.061-.26.174-.35l.738-.693c.972-.853 2.144-1.28 3.515-1.28 1.376 0 2.539.542 3.496 1.627.868.926 1.3 2.076 1.3 3.45 0 1.375-.543 2.56-1.628 3.56l-6.074 5.486h7.183c.146 0 .267.054.37.163.099.108.149.236.149.38 0 .145-.05.268-.15.368-.102.102-.223.152-.369.152h-8.55c-.173 0-.304-.05-.39-.152M466.064 181.919c-.21-.21-.315-.469-.315-.77 0-.304.104-.56.315-.772.21-.209.466-.313.77-.313s.56.104.77.313c.21.212.315.468.315.772 0 .301-.104.56-.315.77-.21.21-.466.315-.77.315s-.56-.105-.77-.315M473.583 181.906c-.102.22-.265.326-.489.326-.223 0-.375-.091-.455-.271-.08-.18-.096-.337-.055-.465l5.62-13.322h-7.334c-.143 0-.267-.05-.369-.15-.102-.102-.152-.226-.152-.369 0-.145.05-.269.152-.368.102-.102.226-.155.369-.155h8.03c.114-.028.225-.019.327.022.215.102.323.241.323.415 0 .173-.03.295-.087.368l-5.88 13.97zM492.18 167.828c-.015.057-.05.115-.108.174l-3.928 4.033c1.011.204 1.881.666 2.604 1.39.998.998 1.497 2.213 1.497 3.645s-.505 2.649-1.519 3.653c-1.013 1.007-2.228 1.51-3.645 1.51-1.42 0-2.628-.507-3.626-1.52-.098-.098-.15-.226-.15-.378 0-.154.052-.278.15-.38.102-.102.225-.151.37-.151.146 0 .274.05.391.151.81.78 1.771 1.172 2.886 1.172 1.114 0 2.068-.395 2.863-1.182.798-.788 1.195-1.749 1.195-2.875 0-1.13-.392-2.087-1.182-2.874-.79-.79-1.747-1.183-2.876-1.183-.173 0-.316-.074-.434-.217h-.021c-.117-.102-.174-.232-.174-.392 0-.159.057-.287.174-.389l3.773-3.883h-5.813c-.146 0-.271-.052-.38-.154-.108-.1-.163-.23-.163-.388 0-.161.055-.289.163-.39.109-.103.234-.153.38-.153h7.096c.16 0 .288.05.39.152.102.102.152.217.152.347 0 .13-.021.224-.065.282M497.648 178.067h7.182v-8.894l-7.182 8.894zm8.05-10.825c.072.043.137.158.196.347v10.478h1.02c.145 0 .27.05.38.152.108.1.162.226.162.369 0 .145-.054.267-.163.369-.108.102-.234.15-.38.15h-1.02v2.605c0 .145-.054.27-.162.369-.109.1-.237.152-.38.152-.145 0-.267-.052-.369-.152-.102-.1-.152-.224-.152-.369v-2.605h-8.29c-.144 0-.264-.037-.357-.118-.096-.078-.148-.195-.163-.347-.015-.152.03-.277.13-.38l8.789-10.933.022-.022c.217-.26.462-.282.737-.065z"/>
        <path fill="#98304A" d="M69.404 258.858L572.965 258.858 572.965 243.068 69.404 243.068z"/>
        <path fill="#000" d="M69.404 277.307L584.652 277.307 584.652 261.515 69.404 261.515z"/>
        <path fill="#FFFFFE" d="M595.485 279.658L668.632 279.658 668.632 255.573 595.485 255.573z"/>
        <path fill="#000" d="M605.967 262.866c-.016.054-.05.115-.109.173l-3.928 4.033c1.012.204 1.882.666 2.604 1.39.999.996 1.498 2.214 1.498 3.645 0 1.432-.506 2.647-1.52 3.652-1.013 1.008-2.228 1.51-3.645 1.51-1.42 0-2.628-.506-3.626-1.52-.098-.099-.15-.227-.15-.379 0-.154.052-.275.15-.377.102-.102.226-.152.371-.152s.273.05.39.152c.81.779 1.771 1.17 2.887 1.17 1.113 0 2.068-.396 2.862-1.183.799-.788 1.196-1.747 1.196-2.873 0-1.132-.393-2.089-1.183-2.876-.79-.79-1.747-1.183-2.875-1.183-.174 0-.317-.073-.434-.217h-.022c-.117-.102-.174-.232-.174-.39 0-.16.057-.286.174-.388l3.774-3.886h-5.814c-.145 0-.271-.052-.38-.154-.108-.098-.162-.228-.162-.388 0-.159.054-.289.162-.39.109-.103.235-.153.38-.153h7.096c.16 0 .289.05.39.152.103.102.153.217.153.347 0 .133-.022.226-.065.285M610.815 276.954c-.21-.208-.314-.466-.314-.77 0-.301.104-.56.314-.772.21-.208.467-.313.77-.313.304 0 .56.105.771.313.21.212.315.47.315.772 0 .304-.104.562-.315.77-.21.213-.467.315-.77.315-.304 0-.56-.102-.77-.315M618.345 263.73c-.41.406-.619.907-.619 1.5 0 .594.208 1.093.619 1.505.412.414.909.627 1.488.644.593-.017 1.094-.234 1.506-.653.413-.42.619-.92.619-1.497 0-.58-.206-1.076-.619-1.486-.412-.412-.911-.618-1.497-.618-.586 0-1.085.202-1.497.605m-1.259 5.868c-.76.764-1.137 1.675-1.137 2.747 0 1.072.378 1.983 1.137 2.744.762.76 1.677 1.137 2.756 1.137 1.078 0 1.992-.377 2.745-1.137.753-.761 1.13-1.672 1.13-2.744 0-1.072-.377-1.983-1.13-2.747-.753-.759-1.667-1.134-2.745-1.134-1.079 0-1.994.375-2.756 1.134m.857-1.809c-.837-.653-1.258-1.458-1.258-2.419 0-.963.303-1.75.911-2.365.61-.614 1.348-.924 2.226-.924.875 0 1.624.31 2.244.924.623.614.936 1.402.936 2.365 0 .961-.437 1.766-1.305 2.42.912.377 1.652.973 2.214 1.8.564.822.846 1.742.846 2.755 0 1.373-.482 2.538-1.443 3.49-.961.957-2.122 1.432-3.48 1.432-1.361 0-2.524-.477-3.486-1.44-.961-.961-1.443-2.122-1.443-3.482 0-1.013.282-1.933.849-2.755.562-.827 1.29-1.423 2.19-1.8M638.254 269.675c0-1.836-.42-3.382-1.27-4.64-.846-1.259-1.833-1.89-2.961-1.89-1.129 0-2.105.627-2.93 1.876-.825 1.252-1.237 2.801-1.237 4.654 0 1.852.428 3.423 1.283 4.707.824 1.215 1.786 1.823 2.884 1.823 1.1 0 2.076-.608 2.93-1.823.867-1.301 1.301-2.868 1.301-4.707m-4.208 7.593c-1.492 0-2.738-.746-3.745-2.233-1.005-1.492-1.506-3.275-1.506-5.36 0-2.08.482-3.851 1.454-5.313 1.055-1.521 2.32-2.28 3.797-2.28 1.474 0 2.74.759 3.798 2.28.983 1.516 1.473 3.287 1.473 5.313s-.49 3.792-1.473 5.295c-1.044 1.53-2.309 2.298-3.798 2.298M647.413 276.942c-.102.22-.265.325-.488.325-.224 0-.375-.089-.456-.271-.08-.178-.095-.334-.054-.464l5.62-13.323h-7.334c-.144 0-.267-.048-.37-.148-.101-.102-.151-.225-.151-.368 0-.146.05-.272.152-.37.102-.101.225-.153.369-.153h8.029c.115-.028.225-.02.327.021.215.102.324.24.324.413s-.03.295-.087.368l-5.88 13.97z"/>
        <path fill="#FFFFFE" d="M582.192 259.365L655.339 259.365 655.339 236.104 582.192 236.104z"/>
        <path fill="#98304A" d="M592.673 243.394c-.015.057-.05.115-.108.174l-3.928 4.033c1.011.204 1.881.666 2.604 1.39.998.999 1.497 2.214 1.497 3.645 0 1.432-.505 2.65-1.519 3.654-1.013 1.008-2.228 1.507-3.645 1.507-1.42 0-2.628-.503-3.626-1.516-.098-.102-.15-.23-.15-.382s.052-.275.15-.377c.102-.102.225-.152.37-.152.146 0 .274.05.391.152.81.78 1.771 1.169 2.886 1.169 1.114 0 2.068-.393 2.863-1.182.798-.788 1.195-1.747 1.195-2.873 0-1.13-.392-2.087-1.182-2.874-.79-.79-1.747-1.183-2.876-1.183-.173 0-.316-.073-.434-.216h-.021c-.118-.102-.174-.233-.174-.393 0-.159.056-.287.174-.388l3.773-3.884H585.1c-.146 0-.271-.052-.38-.154-.108-.1-.163-.23-.163-.388 0-.16.055-.289.163-.39.109-.103.234-.153.38-.153h7.096c.16 0 .288.05.39.152.102.102.152.217.152.347 0 .13-.021.224-.065.282M597.522 257.484c-.21-.208-.315-.466-.315-.77 0-.301.104-.56.315-.772.21-.208.466-.312.77-.312s.56.104.77.312c.21.213.315.47.315.772 0 .304-.104.562-.315.77-.21.213-.466.315-.77.315s-.56-.102-.77-.315M605.04 257.472c-.101.22-.264.325-.488.325-.223 0-.375-.089-.455-.271-.08-.178-.096-.334-.055-.464l5.62-13.323h-7.334c-.143 0-.267-.048-.369-.15-.102-.102-.152-.223-.152-.368 0-.144.05-.27.152-.37.102-.101.226-.151.37-.151h8.028c.115-.03.226-.022.328.022.215.101.323.238.323.412 0 .173-.03.297-.087.369l-5.88 13.969zM616.825 257.277v-13.123l-2.148 1.258c-.087.056-.204.087-.347.087-.146 0-.267-.087-.37-.26-.173-.32-.108-.558.196-.716l2.927-1.782c.118-.071.254-.086.415-.04.302.086.425.294.367.628v13.948c0 .147-.05.271-.152.369-.1.102-.224.151-.37.151-.142 0-.266-.05-.368-.151-.102-.098-.15-.222-.15-.37M623.14 253.634h7.183v-8.895l-7.183 8.895zm8.051-10.826c.072.044.137.159.195.347v10.479h1.02c.146 0 .272.05.38.152.109.102.163.223.163.369 0 .143-.054.266-.163.368-.108.102-.234.152-.38.152h-1.02v2.601c0 .15-.054.272-.162.37-.109.101-.237.151-.38.151-.145 0-.267-.05-.369-.152-.102-.097-.152-.219-.152-.369v-2.6h-8.29c-.145 0-.264-.04-.357-.12-.096-.08-.148-.195-.163-.347-.015-.152.03-.28.13-.382l8.789-10.932.021-.022c.217-.26.463-.282.738-.065zM69.404 353.886L427.796 353.886 427.796 338.095 69.404 338.095z"/>
        <path fill="#000" d="M69.404 372.333L429.641 372.333 429.641 356.541 69.404 356.541zM441.223 372.143c-.232-.275-.226-.534.022-.779l7.093-6.404c.87-.792 1.305-1.723 1.305-2.788 0-1.063-.363-1.996-1.085-2.796-.725-.805-1.628-1.202-2.713-1.202-1.085 0-2.005.33-2.758.996l-.736.672c-.117.102-.247.152-.39.152-.146 0-.265-.058-.358-.173-.096-.118-.144-.246-.144-.389 0-.145.061-.262.174-.349l.738-.694c.972-.855 2.144-1.28 3.515-1.28 1.376 0 2.54.542 3.496 1.627.868.924 1.3 2.076 1.3 3.45 0 1.373-.542 2.56-1.628 3.56l-6.073 5.486h7.182c.146 0 .267.054.37.16.1.111.149.24.149.382 0 .143-.05.267-.15.37-.102.101-.223.15-.369.15h-8.55c-.173 0-.303-.049-.39-.15M454.97 371.982c-.21-.212-.315-.47-.315-.77 0-.306.104-.56.315-.772.21-.209.466-.313.77-.313s.56.104.77.313c.211.212.315.466.315.772 0 .3-.104.558-.315.77-.21.208-.466.315-.77.315s-.56-.107-.77-.315M459.255 364.029c-.015-.03-.018-.08-.011-.152.009-.074.01-.115.01-.132l.74-6.114c0-.16.072-.293.216-.395.086-.084.201-.125.349-.125h7.072c.145 0 .271.05.38.151.108.102.162.228.162.39 0 .157-.05.287-.151.39-.102.101-.23.153-.391.153h-6.616l-.543 4.513c.794-.462 1.654-.697 2.58-.697 1.432 0 2.645.497 3.637 1.489.99.987 1.484 2.206 1.484 3.65 0 1.45-.505 2.667-1.519 3.658-1.013.992-2.226 1.489-3.645 1.489-1.417 0-2.624-.501-3.622-1.502-.117-.097-.176-.223-.176-.377 0-.152.059-.284.176-.388.113-.111.245-.167.389-.167.145 0 .275.06.39.175.812.783 1.769 1.174 2.875 1.174 1.107 0 2.058-.4 2.856-1.195.794-.797 1.191-1.76 1.191-2.886 0-1.128-.388-2.08-1.171-2.866-.782-.778-1.734-1.169-2.865-1.169-1.128 0-2.09.4-2.886 1.191-.115.102-.245.152-.39.152-.246 0-.41-.104-.497-.321v-.026c-.016-.013-.024-.033-.024-.063M472.146 372.143c-.232-.275-.226-.534.021-.779l7.094-6.404c.87-.792 1.304-1.723 1.304-2.788 0-1.063-.362-1.996-1.085-2.796-.724-.805-1.627-1.202-2.712-1.202-1.085 0-2.005.33-2.758.996l-.736.672c-.117.102-.247.152-.39.152-.146 0-.265-.058-.359-.173-.095-.118-.143-.246-.143-.389 0-.145.061-.262.174-.349l.738-.694c.972-.855 2.144-1.28 3.515-1.28 1.376 0 2.539.542 3.496 1.627.868.924 1.3 2.076 1.3 3.45 0 1.373-.543 2.56-1.628 3.56l-6.074 5.486h7.183c.146 0 .267.054.37.16.099.111.149.24.149.382 0 .143-.05.267-.15.37-.102.101-.223.15-.369.15h-8.55c-.173 0-.303-.049-.39-.15M494.278 357.89c-.015.058-.05.114-.108.173l-3.928 4.033c1.011.204 1.881.666 2.604 1.39.998 1 1.497 2.213 1.497 3.645s-.505 2.651-1.519 3.656c-1.013 1.004-2.228 1.51-3.645 1.51-1.42 0-2.628-.51-3.626-1.523-.098-.096-.15-.224-.15-.376 0-.154.052-.28.15-.382.102-.102.225-.151.37-.151.146 0 .274.05.391.151.81.78 1.771 1.174 2.886 1.174 1.114 0 2.068-.395 2.863-1.182.798-.788 1.195-1.751 1.195-2.877 0-1.128-.392-2.085-1.182-2.872-.79-.79-1.747-1.183-2.876-1.183-.173 0-.316-.073-.434-.217h-.021c-.118-.102-.174-.232-.174-.394 0-.157.056-.287.174-.389l3.773-3.881h-5.813c-.146 0-.271-.052-.38-.154-.108-.102-.163-.232-.163-.388 0-.163.055-.289.163-.39.109-.103.234-.153.38-.153h7.096c.16 0 .288.05.39.152.102.102.152.217.152.347 0 .128-.021.222-.065.28"/>
        <path fill="#98304A" d="M436.948 352.682c-.232-.272-.225-.534.022-.78l7.094-6.4c.87-.795 1.304-1.724 1.304-2.787s-.362-1.996-1.085-2.8c-.725-.801-1.627-1.202-2.712-1.202-1.085 0-2.006.334-2.759.997l-.735.67c-.117.103-.248.153-.39.153-.146 0-.266-.055-.359-.174-.095-.113-.143-.245-.143-.388 0-.146.06-.26.173-.35l.738-.694c.972-.85 2.144-1.28 3.516-1.28 1.376 0 2.539.543 3.496 1.627.868.929 1.3 2.077 1.3 3.45 0 1.377-.543 2.56-1.628 3.56l-6.074 5.486h7.183c.145 0 .267.055.369.165.1.107.15.235.15.378 0 .147-.05.271-.15.369-.102.102-.224.151-.37.151h-8.549c-.174 0-.304-.05-.39-.151M450.695 352.52c-.21-.208-.314-.466-.314-.77 0-.301.104-.56.314-.772.211-.208.467-.312.77-.312.305 0 .56.104.771.312.21.213.315.47.315.772 0 .304-.104.562-.315.77-.21.213-.466.315-.77.315s-.56-.102-.77-.314M456.305 348.669h7.183v-8.895l-7.183 8.895zm8.05-10.826c.072.046.137.161.196.348v10.478h1.02c.145 0 .271.05.38.152.108.102.162.225.162.369 0 .145-.054.267-.162.368-.109.102-.235.152-.38.152h-1.02v2.604c0 .147-.054.27-.163.368-.108.1-.236.152-.38.152-.145 0-.266-.052-.368-.152-.102-.097-.152-.22-.152-.368v-2.604h-8.29c-.145 0-.264-.037-.358-.117-.095-.08-.147-.195-.163-.347-.015-.154.03-.28.13-.382l8.79-10.932.021-.021c.217-.263.462-.285.738-.068zM469.389 344.572c-.015-.03-.018-.08-.011-.152.009-.074.01-.12.01-.133l.74-6.117c0-.157.072-.289.216-.391.086-.089.201-.13.349-.13h7.072c.145 0 .271.05.38.152.108.102.163.232.163.39 0 .16-.05.29-.152.389-.102.101-.23.154-.391.154h-6.616l-.543 4.512c.794-.462 1.654-.696 2.58-.696 1.432 0 2.646.496 3.637 1.488.99.991 1.485 2.21 1.485 3.655 0 1.445-.506 2.667-1.52 3.658-1.013.987-2.226 1.484-3.645 1.484-1.417 0-2.624-.501-3.622-1.497-.117-.102-.176-.228-.176-.382 0-.147.059-.28.176-.388.113-.106.245-.163.389-.163.145 0 .275.057.39.176.812.779 1.769 1.17 2.875 1.17 1.107 0 2.058-.4 2.856-1.192.794-.796 1.192-1.76 1.192-2.885 0-1.133-.389-2.085-1.172-2.866-.782-.779-1.734-1.174-2.865-1.174-1.128 0-2.09.4-2.886 1.196-.115.102-.245.152-.39.152-.246 0-.41-.109-.497-.326v-.022c-.016-.013-.024-.036-.024-.062M483.625 347.826v.084c0 .072.007.157.022.25s.015.158 0 .182c.128.972.566 1.786 1.31 2.44.747.662 1.643.988 2.691.988 1.05 0 1.966-.384 2.745-1.16.782-.771 1.172-1.7 1.172-2.784 0-1.085-.39-2.018-1.172-2.788-.779-.777-1.716-1.16-2.81-1.16-1.091 0-2.022.383-2.799 1.16-.773.77-1.159 1.703-1.159 2.788m-1.109-.827c.03-2.356.521-4.37 1.478-6.029 1.2-2.115 2.973-3.213 5.314-3.302.148-.01.27.03.372.133.1.102.154.223.16.369.009.143-.039.27-.139.381-.102.104-.225.17-.369.183-1.896.071-3.372.991-4.427 2.753-.48.826-.84 1.84-1.085 3.039.999-1.141 2.223-1.714 3.676-1.714 1.457 0 2.672.493 3.648 1.475.977.983 1.465 2.165 1.465 3.547 0 1.382-.488 2.56-1.465 3.539-.976.974-2.157 1.462-3.537 1.462-1.382 0-2.558-.47-3.526-1.412-.97-.935-1.478-2.08-1.52-3.428-.03-.215-.045-.547-.045-.996M0 460.315L17.223 460.315 17.223 444.524 0 444.524z"/>
        <path fill="#000" d="M232.646 460.315L249.87 460.315 249.87 444.524 232.646 444.524z"/>
        <path fill="#98304A" d="M23.642 457.315v-11.313c0-.115.042-.215.122-.298.08-.08.18-.117.295-.117h6.25c.115 0 .212.037.295.117.08.083.121.183.121.306 0 .124-.04.226-.121.306-.083.08-.18.117-.295.117h-5.816v4.81h5.087c.115 0 .212.043.295.132.08.085.121.187.121.3 0 .119-.041.217-.121.297-.083.08-.18.124-.295.124h-5.087v4.788h5.816c.115 0 .212.04.295.121.08.082.121.182.121.302 0 .123-.04.225-.121.305-.083.08-.18.122-.295.122h-6.285c-.104-.013-.195-.054-.269-.13-.076-.076-.113-.17-.113-.289M34.562 457.387c-.059.228-.191.347-.4.347h-.104c-.128-.032-.22-.11-.278-.223-.013-.013-.017-.03-.017-.056l-.017-.033v-7.76c0-.113.04-.21.121-.295.08-.08.18-.12.295-.12.115 0 .21.04.287.12.073.084.113.182.113.295v.818c.68-.822 1.53-1.233 2.543-1.233 1.013 0 1.857.339 2.534 1.014.677.677 1.016 1.49 1.016 2.44v4.615c0 .117-.041.214-.122.297-.082.08-.18.121-.295.121-.115 0-.214-.04-.295-.121-.082-.083-.121-.18-.121-.297V452.7c0-.716-.254-1.334-.764-1.848-.51-.516-1.126-.775-1.849-.775-.723 0-1.339.259-1.849.766-.51.51-.775 1.128-.798 1.857v4.686zM49.995 450.845c-.6-.52-1.3-.783-2.091-.783-.795 0-1.491.258-2.092.774-.604.512-.983 1.174-1.146 1.988h6.44c-.138-.8-.51-1.458-1.11-1.979m2.013 2.343v.067c0 .115-.041.209-.121.28-.083.067-.18.102-.295.102h-6.98c.046.929.39 1.703 1.025 2.326.636.622 1.393.937 2.274.937.567 0 1.094-.139 1.58-.414.486-.28.872-.653 1.163-1.128.139-.233.323-.28.556-.14.232.161.277.36.139.589-.372.59-.86 1.058-1.467 1.408-.608.347-1.266.52-1.97.52-1.147 0-2.12-.416-2.926-1.24-.805-.827-1.207-1.832-1.207-3.005 0-1.174.402-2.178 1.207-3.01.805-.835 1.764-1.249 2.882-1.249 1.117 0 2.063.377 2.838 1.135.775.759 1.209 1.698 1.302 2.822M54.96 457.315v-7.651c0-.115.042-.213.122-.298.08-.08.18-.119.295-.119.115 0 .215.04.295.12.08.084.122.182.122.297v1.872c.045-.09.087-.16.121-.208.892-1.385 2.025-2.08 3.403-2.08.115 0 .213.038.295.118.08.085.121.183.121.298 0 .112-.04.214-.121.295-.082.08-.18.119-.295.119-.927 0-1.747.466-2.465 1.39-.417.556-.76 1.215-1.025 1.98-.023.045-.034.092-.034.138v3.73c0 .119-.042.216-.122.296-.08.08-.18.122-.295.122-.115 0-.215-.041-.295-.122-.08-.08-.122-.177-.122-.297M62.598 453.455c0 .946.31 1.747.929 2.41.618.666 1.367 1 2.24 1 .874 0 1.62-.334 2.239-1 .618-.663.929-1.468.929-2.419 0-.948-.31-1.75-.93-2.401-.618-.653-1.364-.983-2.239-.983-.872 0-1.62.33-2.24.992-.618.655-.928 1.46-.928 2.401m7.17-3.81v7.411c0 1.098-.39 2.04-1.172 2.823-.781.779-1.727 1.17-2.838 1.17-.567 0-1.157-.133-1.771-.4-.23-.16-.289-.347-.174-.553.128-.267.313-.332.556-.191.44.206.903.308 1.389.308.878 0 1.63-.304 2.248-.92.618-.61.929-1.36.929-2.237v-1.04c-.359.52-.816.925-1.372 1.223-.555.297-1.157.44-1.805.44-1.111 0-2.055-.41-2.83-1.237-.775-.83-1.163-1.822-1.163-2.987 0-1.16.39-2.156 1.172-2.983.78-.83 1.723-1.24 2.82-1.24.639 0 1.235.147 1.797.448.562.3 1.022.708 1.38 1.215v-1.25c0-.114.044-.212.13-.297.088-.08.185-.117.296-.117.11 0 .206.037.286.117.083.085.122.183.122.298M73.813 457.315v-7.669c0-.115.04-.212.121-.297.08-.08.182-.12.304-.12.121 0 .223.04.304.12.082.085.121.182.121.297v7.67c0 .119-.043.216-.13.296-.087.08-.189.122-.304.122-.115 0-.215-.041-.295-.122-.08-.08-.121-.177-.121-.297m0-10.046v-.397c0-.12.04-.217.121-.298.08-.08.18-.123.295-.123.115 0 .217.043.304.123s.13.178.13.298v.397c0 .128-.043.234-.13.323-.087.084-.189.126-.304.126-.115 0-.215-.042-.295-.126-.08-.09-.121-.195-.121-.323M78.587 453.48c0 .949.315 1.76.946 2.424.632.666 1.382.996 2.257.996.872 0 1.623-.33 2.248-.996.625-.664.938-1.475.938-2.423 0-.949-.313-1.76-.938-2.428-.625-.675-1.376-1.009-2.248-1.009-.875 0-1.625.334-2.257 1.009-.631.668-.946 1.48-.946 2.428m6.51-4.131c.08-.08.18-.12.295-.12.115 0 .213.04.295.12.08.085.122.182.122.295v7.671c0 .117-.041.215-.122.295-.082.08-.18.124-.295.124-.115 0-.215-.044-.295-.124-.082-.08-.121-.178-.121-.295v-1.267c-.372.52-.836.93-1.398 1.232-.562.302-1.16.454-1.797.454-1.11 0-2.061-.419-2.847-1.25-.788-.835-1.18-1.835-1.18-3.004 0-1.17.392-2.17 1.18-3 .786-.836 1.736-1.25 2.847-1.25.636 0 1.235.147 1.797.449.562.301 1.026.707 1.398 1.217v-1.252c0-.113.039-.21.121-.295M95.478 453.307v.139c0 .937.317 1.737.955 2.395.635.661 1.395.995 2.274 1.008.903-.013 1.67-.347 2.309-1.008.636-.658.955-1.458.955-2.395 0-.935-.32-1.732-.955-2.385-.638-.653-1.396-.982-2.274-.982-.88 0-1.637.312-2.266.939-.631.623-.963 1.386-.998 2.289m-.85 7.567v-11.227c0-.115.038-.213.12-.297.081-.08.18-.12.296-.12.115 0 .217.04.304.12.086.084.13.182.13.297v1.232c.369-.51.837-.911 1.406-1.208.566-.293 1.174-.44 1.823-.44 1.146 0 2.118.412 2.916 1.232.799.817 1.198 1.813 1.198 2.976 0 1.16-.4 2.16-1.198 2.994-.798.83-1.77 1.247-2.916 1.247-.649 0-1.257-.15-1.823-.449-.569-.301-1.037-.71-1.406-1.217v4.86c0 .115-.044.217-.13.297-.087.08-.19.12-.304.12-.115 0-.215-.04-.295-.12-.083-.08-.122-.182-.122-.297M106.084 457.315v-7.651c0-.115.041-.213.122-.298.08-.08.18-.119.295-.119.115 0 .215.04.295.12.08.084.122.182.122.297v1.872c.045-.09.086-.16.121-.208.892-1.385 2.025-2.08 3.403-2.08.115 0 .212.038.295.118.08.085.121.183.121.298 0 .112-.04.214-.121.295-.083.08-.18.119-.295.119-.927 0-1.747.466-2.465 1.39-.417.556-.76 1.215-1.025 1.98-.024.045-.034.092-.034.138v3.73c0 .119-.042.216-.122.296-.08.08-.18.122-.295.122-.115 0-.215-.041-.295-.122-.08-.08-.122-.177-.122-.297M116.951 450.044c-.868 0-1.619.334-2.248 1.009-.631.668-.946 1.477-.946 2.419 0 .946.315 1.75.946 2.423.63.67 1.38 1.005 2.248 1.005.868 0 1.617-.335 2.248-1.005.632-.672.947-1.477.947-2.423 0-.942-.315-1.75-.947-2.42-.631-.674-1.38-1.008-2.248-1.008m-2.847 6.433c-.787-.84-1.18-1.84-1.18-2.996 0-1.157.393-2.153 1.18-2.992.788-.84 1.736-1.258 2.847-1.258s2.06.418 2.847 1.258c.788.84 1.18 1.835 1.18 2.992 0 1.156-.392 2.156-1.18 2.996-.787.84-1.736 1.258-2.847 1.258-1.11 0-2.059-.419-2.847-1.258M124.451 453.489c0 .946.321 1.746.964 2.406.642.657 1.406.987 2.291.987.886 0 1.643-.312 2.274-.944.63-.631.964-1.399.999-2.301v-.276c-.035-.913-.37-1.69-.999-2.326-.631-.635-1.388-.956-2.274-.956-.885 0-1.649.334-2.291 1-.643.664-.964 1.468-.964 2.41m6.528 3.827v-1.23c-.382.51-.858.911-1.424 1.204-.569.297-1.18.445-1.84.445-1.146 0-2.118-.415-2.917-1.241-.798-.827-1.198-1.831-1.198-3.005s.4-2.178 1.198-3.009c.799-.833 1.771-1.25 2.917-1.25.66 0 1.271.148 1.84.45.566.301 1.042.707 1.424 1.216v-4.894c0-.115.043-.217.13-.297.087-.08.189-.12.304-.12.115 0 .214.04.295.12.08.08.121.182.121.297v11.314c0 .117-.041.215-.121.295-.08.08-.18.124-.295.124-.115 0-.217-.044-.304-.124s-.13-.178-.13-.295M139.26 450.044c-.868 0-1.619.334-2.248 1.009-.632.668-.946 1.477-.946 2.419 0 .946.314 1.75.946 2.423.629.67 1.38 1.005 2.248 1.005.868 0 1.616-.335 2.248-1.005.631-.672.946-1.477.946-2.423 0-.942-.315-1.75-.946-2.42-.632-.674-1.38-1.008-2.248-1.008m-2.847 6.433c-.788-.84-1.18-1.84-1.18-2.996 0-1.157.392-2.153 1.18-2.992.787-.84 1.736-1.258 2.847-1.258 1.11 0 2.06.418 2.847 1.258.788.84 1.18 1.835 1.18 2.992 0 1.156-.392 2.156-1.18 2.996-.788.84-1.736 1.258-2.847 1.258s-2.06-.419-2.847-1.258M149.033 449.23c.105 0 .2.044.287.129.087.089.13.182.13.286 0 .106-.043.2-.13.288-.087.085-.182.128-.287.128h-1.093v6.199c0 .182.071.336.217.449.145.115.275.173.39.173.115 0 .22.048.313.141.093.094.139.191.139.293 0 .104-.046.202-.14.286-.093.09-.19.133-.294.133-.428 0-.784-.141-1.068-.419-.284-.275-.425-.627-.425-1.056v-6.199h-1.06c-.186 0-.3-.034-.346-.101-.046-.072-.07-.161-.07-.28 0-.115.007-.196.017-.241.035-.141.168-.208.4-.208h1.059v-3.161c0-.102.043-.2.13-.285.087-.088.184-.13.295-.13.11 0 .21.042.304.13.093.085.139.183.139.285v3.16h1.093zM155.977 449.23c.104 0 .2.044.286.129.087.089.13.182.13.286 0 .106-.043.2-.13.288-.087.085-.182.128-.286.128h-1.094v6.199c0 .182.072.336.217.449.146.115.276.173.39.173.116 0 .22.048.313.141.094.094.14.191.14.293 0 .104-.046.202-.14.286-.093.09-.19.133-.295.133-.427 0-.783-.141-1.068-.419-.284-.275-.425-.627-.425-1.056v-6.199h-1.059c-.186 0-.301-.034-.347-.101-.046-.072-.07-.161-.07-.28 0-.115.007-.196.018-.241.035-.141.167-.208.4-.208h1.058v-3.161c0-.102.044-.2.13-.285.087-.088.185-.13.295-.13.111 0 .21.042.304.13.094.085.14.183.14.285v3.16h1.093zM160.283 453.48c0 .949.315 1.76.946 2.424.632.666 1.382.996 2.257.996.872 0 1.623-.33 2.248-.996.625-.664.938-1.475.938-2.423 0-.949-.313-1.76-.938-2.428-.625-.675-1.376-1.009-2.248-1.009-.875 0-1.625.334-2.257 1.009-.631.668-.946 1.48-.946 2.428m6.51-4.131c.08-.08.18-.12.295-.12.115 0 .213.04.295.12.08.085.122.182.122.295v7.671c0 .117-.041.215-.122.295-.082.08-.18.124-.295.124-.115 0-.215-.044-.295-.124-.082-.08-.121-.178-.121-.295v-1.267c-.372.52-.836.93-1.398 1.232-.562.302-1.16.454-1.797.454-1.11 0-2.061-.419-2.847-1.25-.787-.835-1.18-1.835-1.18-3.004 0-1.17.393-2.17 1.18-3 .786-.836 1.736-1.25 2.847-1.25.636 0 1.235.147 1.797.449.562.301 1.026.707 1.398 1.217v-1.252c0-.113.039-.21.121-.295M177.139 457.387c-.059.228-.191.347-.4.347h-.104c-.128-.032-.219-.11-.277-.223-.013-.013-.018-.03-.018-.056l-.017-.033v-7.76c0-.113.041-.21.121-.295.08-.08.18-.12.296-.12.115 0 .21.04.286.12.074.084.113.182.113.295v.818c.681-.822 1.53-1.233 2.543-1.233 1.014 0 1.858.339 2.535 1.014.677.677 1.015 1.49 1.015 2.44v4.615c0 .117-.04.214-.121.297-.083.08-.18.121-.295.121-.115 0-.215-.04-.295-.121-.083-.083-.122-.18-.122-.297V452.7c0-.716-.254-1.334-.764-1.848-.51-.516-1.126-.775-1.849-.775-.722 0-1.339.259-1.849.766-.51.51-.774 1.128-.798 1.857v4.686zM192.572 450.845c-.601-.52-1.3-.783-2.092-.783-.794 0-1.491.258-2.092.774-.603.512-.983 1.174-1.146 1.988h6.44c-.138-.8-.51-1.458-1.11-1.979m2.013 2.343v.067c0 .115-.04.209-.121.28-.083.067-.18.102-.295.102h-6.979c.046.929.388 1.703 1.024 2.326.636.622 1.393.937 2.274.937.567 0 1.094-.139 1.58-.414.486-.28.873-.653 1.163-1.128.14-.233.324-.28.556-.14.232.161.278.36.139.589-.371.59-.86 1.058-1.467 1.408-.608.347-1.265.52-1.97.52-1.146 0-2.12-.416-2.926-1.24-.805-.827-1.206-1.832-1.206-3.005 0-1.174.401-2.178 1.206-3.01.805-.835 1.764-1.249 2.882-1.249s2.064.377 2.838 1.135c.775.759 1.21 1.698 1.302 2.822M200.088 449.23c.105 0 .2.044.287.129.087.089.13.182.13.286 0 .106-.043.2-.13.288-.087.085-.182.128-.287.128h-1.093v6.199c0 .182.071.336.217.449.145.115.275.173.39.173.115 0 .22.048.313.141.093.094.139.191.139.293 0 .104-.046.202-.14.286-.092.09-.19.133-.294.133-.428 0-.784-.141-1.068-.419-.284-.275-.425-.627-.425-1.056v-6.199h-1.06c-.186 0-.3-.034-.346-.101-.046-.072-.07-.161-.07-.28 0-.115.007-.196.017-.241.035-.141.168-.208.4-.208h1.059v-3.161c0-.102.043-.2.13-.285.087-.088.184-.13.295-.13.11 0 .21.042.304.13.093.085.139.183.139.285v3.16h1.093zM207.033 449.23c.104 0 .2.044.286.129.087.089.13.182.13.286 0 .106-.043.2-.13.288-.086.085-.182.128-.286.128h-1.094v6.199c0 .182.072.336.217.449.146.115.276.173.39.173.116 0 .22.048.313.141.094.094.14.191.14.293 0 .104-.046.202-.14.286-.093.09-.19.133-.295.133-.427 0-.783-.141-1.067-.419-.285-.275-.426-.627-.426-1.056v-6.199h-1.059c-.186 0-.301-.034-.347-.101-.046-.072-.07-.161-.07-.28 0-.115.007-.196.018-.241.035-.141.167-.208.4-.208h1.058v-3.161c0-.102.044-.2.13-.285.087-.088.185-.13.296-.13.11 0 .21.042.303.13.094.085.14.183.14.285v3.16h1.093zM211.338 453.48c0 .949.314 1.76.946 2.424.631.666 1.382.996 2.257.996.872 0 1.623-.33 2.248-.996.625-.664.937-1.475.937-2.423 0-.949-.312-1.76-.937-2.428-.625-.675-1.376-1.009-2.248-1.009-.875 0-1.626.334-2.257 1.009-.632.668-.946 1.48-.946 2.428m6.51-4.131c.08-.08.18-.12.295-.12.115 0 .213.04.293.12.085.085.124.182.124.295v7.671c0 .117-.04.215-.124.295-.08.08-.178.124-.293.124-.115 0-.215-.044-.295-.124-.08-.08-.122-.178-.122-.295v-1.267c-.37.52-.835.93-1.397 1.232-.562.302-1.161.454-1.797.454-1.11 0-2.061-.419-2.847-1.25-.788-.835-1.18-1.835-1.18-3.004 0-1.17.392-2.17 1.18-3 .786-.836 1.736-1.25 2.847-1.25.636 0 1.235.147 1.797.449.562.301 1.026.707 1.397 1.217v-1.252c0-.113.042-.21.122-.295"/>
        <path fill="#000" d="M255.054 457.315v-11.313c0-.115.042-.215.122-.298.08-.08.18-.117.295-.117h6.25c.115 0 .214.037.295.117.08.083.121.183.121.306 0 .124-.041.226-.121.306-.08.08-.18.117-.295.117h-5.816v4.81h5.086c.115 0 .215.043.296.132.08.085.121.187.121.3 0 .119-.041.217-.121.297-.08.08-.18.124-.296.124h-5.086v4.788h5.816c.115 0 .214.04.295.121.08.082.121.182.121.302 0 .123-.041.225-.121.305-.08.08-.18.122-.295.122h-6.285c-.104-.013-.193-.054-.269-.13-.074-.076-.113-.17-.113-.289M265.974 457.387c-.058.228-.19.347-.401.347h-.102c-.128-.032-.22-.11-.278-.223-.01-.013-.017-.03-.017-.056l-.018-.033v-7.76c0-.113.042-.21.122-.295.08-.08.18-.12.293-.12.117 0 .212.04.288.12.074.084.113.182.113.295v.818c.682-.822 1.53-1.233 2.544-1.233 1.013 0 1.857.339 2.534 1.014.677.677 1.016 1.49 1.016 2.44v4.615c0 .117-.042.214-.122.297-.08.08-.18.121-.295.121-.115 0-.213-.04-.297-.121-.08-.083-.12-.18-.12-.297V452.7c0-.716-.253-1.334-.763-1.848-.51-.516-1.127-.775-1.85-.775-.722 0-1.338.259-1.848.766-.51.51-.775 1.128-.799 1.857v4.686zM281.406 450.845c-.601-.52-1.3-.783-2.092-.783s-1.489.258-2.092.774c-.6.512-.985 1.174-1.146 1.988h6.441c-.139-.8-.51-1.458-1.111-1.979m2.014 2.343v.067c0 .115-.041.209-.122.28-.08.067-.18.102-.295.102h-6.979c.046.929.387 1.703 1.025 2.326.635.622 1.395.937 2.274.937.566 0 1.093-.139 1.58-.414.486-.28.874-.653 1.163-1.128.139-.233.323-.28.555-.14.23.161.276.36.14.589-.372.59-.86 1.058-1.468 1.408-.607.347-1.265.52-1.97.52-1.146 0-2.12-.416-2.928-1.24-.803-.827-1.204-1.832-1.204-3.005 0-1.174.401-2.178 1.204-3.01.808-.835 1.767-1.249 2.884-1.249 1.116 0 2.064.377 2.839 1.135.777.759 1.208 1.698 1.302 2.822M286.371 457.315v-7.651c0-.115.041-.213.122-.298.08-.08.18-.119.293-.119.117 0 .215.04.297.12.08.084.122.182.122.297v1.872c.045-.09.086-.16.119-.208.894-1.385 2.027-2.08 3.405-2.08.117 0 .212.038.295.118.08.085.121.183.121.298 0 .112-.041.214-.121.295-.083.08-.178.119-.295.119-.927 0-1.75.466-2.466 1.39-.416.556-.759 1.215-1.026 1.98-.022.045-.032.092-.032.138v3.73c0 .119-.042.216-.122.296-.082.08-.18.122-.297.122-.113 0-.213-.041-.293-.122-.08-.08-.122-.177-.122-.297M294.01 453.455c0 .946.311 1.747.93 2.41.618.666 1.365 1 2.239 1 .872 0 1.619-.334 2.24-1 .618-.663.928-1.468.928-2.419 0-.948-.31-1.75-.929-2.401-.62-.653-1.367-.983-2.239-.983-.874 0-1.621.33-2.24.992-.618.655-.928 1.46-.928 2.401m7.17-3.81v7.411c0 1.098-.391 2.04-1.172 2.823-.784.779-1.728 1.17-2.839 1.17-.568 0-1.156-.133-1.77-.4-.233-.16-.289-.347-.174-.553.126-.267.312-.332.553-.191.443.206.903.308 1.391.308.88 0 1.628-.304 2.248-.92.619-.61.93-1.36.93-2.237v-1.04c-.361.52-.817.925-1.372 1.223-.556.297-1.159.44-1.806.44-1.113 0-2.055-.41-2.832-1.237-.774-.83-1.16-1.822-1.16-2.987 0-1.16.39-2.156 1.17-2.983.783-.83 1.722-1.24 2.822-1.24.636 0 1.235.147 1.797.448.56.3 1.02.708 1.38 1.215v-1.25c0-.114.041-.212.128-.297.09-.08.187-.117.298-.117.108 0 .204.037.286.117.08.085.122.183.122.298M305.223 457.315v-7.669c0-.115.042-.212.122-.297.082-.08.182-.12.304-.12.121 0 .223.04.303.12.08.085.122.182.122.297v7.67c0 .119-.043.216-.13.296-.087.08-.189.122-.304.122-.115 0-.213-.041-.295-.122-.08-.08-.122-.177-.122-.297m0-10.046v-.397c0-.12.042-.217.122-.298.082-.08.18-.123.295-.123.115 0 .217.043.304.123s.13.178.13.298v.397c0 .128-.043.234-.13.323-.087.084-.189.126-.304.126-.115 0-.213-.042-.295-.126-.08-.09-.122-.195-.122-.323M309.998 453.48c0 .949.317 1.76.946 2.424.631.666 1.382.996 2.257.996.874 0 1.623-.33 2.248-.996.625-.664.937-1.475.937-2.423 0-.949-.312-1.76-.937-2.428-.625-.675-1.374-1.009-2.248-1.009-.875 0-1.626.334-2.257 1.009-.63.668-.946 1.48-.946 2.428m6.51-4.131c.08-.08.18-.12.295-.12.115 0 .213.04.293.12.085.085.124.182.124.295v7.671c0 .117-.04.215-.124.295-.08.08-.178.124-.293.124-.115 0-.215-.044-.295-.124-.08-.08-.122-.178-.122-.295v-1.267c-.37.52-.835.93-1.397 1.232-.562.302-1.159.454-1.797.454-1.111 0-2.061-.419-2.847-1.25-.788-.835-1.18-1.835-1.18-3.004 0-1.17.392-2.17 1.18-3 .786-.836 1.736-1.25 2.847-1.25.638 0 1.235.147 1.797.449.562.301 1.026.707 1.397 1.217v-1.252c0-.113.042-.21.122-.295M326.89 453.307v.139c0 .937.317 1.737.955 2.395.635.661 1.395.995 2.274 1.008.902-.013 1.673-.347 2.31-1.008.637-.658.953-1.458.953-2.395 0-.935-.316-1.732-.952-2.385-.638-.653-1.398-.982-2.277-.982-.878 0-1.634.312-2.265.939-.63.623-.961 1.386-.998 2.289m-.851 7.567v-11.227c0-.115.041-.213.122-.297.08-.08.18-.12.295-.12.117 0 .217.04.303.12.087.084.13.182.13.297v1.232c.372-.51.84-.911 1.407-1.208.566-.293 1.174-.44 1.823-.44 1.148 0 2.118.412 2.916 1.232.799.817 1.198 1.813 1.198 2.976 0 1.16-.4 2.16-1.198 2.994-.798.83-1.768 1.247-2.916 1.247-.65 0-1.257-.15-1.823-.449-.567-.301-1.035-.71-1.406-1.217v4.86c0 .115-.044.217-.13.297-.087.08-.187.12-.304.12-.115 0-.215-.04-.295-.12-.08-.08-.122-.182-.122-.297M337.496 457.315v-7.651c0-.115.041-.213.122-.298.08-.08.18-.119.293-.119.117 0 .214.04.297.12.08.084.121.182.121.297v1.872c.046-.09.087-.16.12-.208.894-1.385 2.027-2.08 3.405-2.08.117 0 .212.038.295.118.08.085.121.183.121.298 0 .112-.041.214-.121.295-.083.08-.178.119-.295.119-.927 0-1.75.466-2.466 1.39-.416.556-.76 1.215-1.026 1.98-.022.045-.033.092-.033.138v3.73c0 .119-.04.216-.121.296-.083.08-.18.122-.297.122-.113 0-.213-.041-.293-.122-.08-.08-.122-.177-.122-.297M348.363 450.044c-.868 0-1.616.334-2.248 1.009-.631.668-.946 1.477-.946 2.419 0 .946.315 1.75.946 2.423.632.67 1.38 1.005 2.248 1.005.868 0 1.617-.335 2.248-1.005.63-.672.946-1.477.946-2.423 0-.942-.316-1.75-.946-2.42-.631-.674-1.38-1.008-2.248-1.008m-2.847 6.433c-.788-.84-1.18-1.84-1.18-2.996 0-1.157.392-2.153 1.18-2.992.788-.84 1.736-1.258 2.847-1.258s2.06.418 2.847 1.258c.788.84 1.18 1.835 1.18 2.992 0 1.156-.392 2.156-1.18 2.996-.787.84-1.736 1.258-2.847 1.258-1.11 0-2.06-.419-2.847-1.258M355.863 453.489c0 .946.319 1.746.963 2.406.643.657 1.406.987 2.292.987.885 0 1.643-.312 2.274-.944.631-.631.963-1.399.998-2.301v-.276c-.035-.913-.367-1.69-.998-2.326-.631-.635-1.389-.956-2.274-.956-.886 0-1.65.334-2.292 1-.644.664-.963 1.468-.963 2.41m6.527 3.827v-1.23c-.382.51-.857.911-1.423 1.204-.567.297-1.18.445-1.84.445-1.146 0-2.118-.415-2.917-1.241-.799-.827-1.198-1.831-1.198-3.005s.4-2.178 1.198-3.009c.799-.833 1.77-1.25 2.917-1.25.66 0 1.273.148 1.84.45.566.301 1.041.707 1.423 1.216v-4.894c0-.115.044-.217.13-.297.087-.08.187-.12.304-.12.115 0 .215.04.295.12.08.08.122.182.122.297v11.314c0 .117-.041.215-.122.295-.08.08-.18.124-.295.124-.117 0-.217-.044-.304-.124-.086-.08-.13-.178-.13-.295M370.672 450.044c-.868 0-1.617.334-2.248 1.009-.632.668-.947 1.477-.947 2.419 0 .946.315 1.75.947 2.423.631.67 1.38 1.005 2.248 1.005.868 0 1.616-.335 2.248-1.005.63-.672.946-1.477.946-2.423 0-.942-.317-1.75-.946-2.42-.632-.674-1.38-1.008-2.248-1.008m-2.847 6.433c-.788-.84-1.18-1.84-1.18-2.996 0-1.157.392-2.153 1.18-2.992.787-.84 1.736-1.258 2.847-1.258 1.11 0 2.059.418 2.847 1.258.787.84 1.18 1.835 1.18 2.992 0 1.156-.393 2.156-1.18 2.996-.788.84-1.736 1.258-2.847 1.258s-2.06-.419-2.847-1.258M380.445 449.23c.104 0 .2.044.287.129.087.089.13.182.13.286 0 .106-.043.2-.13.288-.087.085-.183.128-.287.128h-1.093v6.199c0 .182.071.336.217.449.145.115.275.173.39.173.115 0 .22.048.313.141.093.094.139.191.139.293 0 .104-.046.202-.14.286-.093.09-.19.133-.294.133-.428 0-.784-.141-1.068-.419-.284-.275-.425-.627-.425-1.056v-6.199h-1.06c-.186 0-.299-.034-.347-.101-.045-.072-.07-.161-.07-.28 0-.115.007-.196.018-.241.035-.141.167-.208.4-.208h1.059v-3.161c0-.102.043-.2.13-.285.087-.088.184-.13.295-.13.11 0 .213.042.304.13.093.085.139.183.139.285v3.16h1.093zM387.39 449.23c.104 0 .2.044.286.129.087.089.13.182.13.286 0 .106-.043.2-.13.288-.087.085-.182.128-.286.128h-1.094v6.199c0 .182.072.336.217.449.145.115.276.173.39.173.116 0 .22.048.313.141.093.094.14.191.14.293 0 .104-.047.202-.14.286-.093.09-.19.133-.295.133-.427 0-.783-.141-1.068-.419-.284-.275-.425-.627-.425-1.056v-6.199h-1.059c-.187 0-.3-.034-.347-.101-.046-.072-.07-.161-.07-.28 0-.115.007-.196.018-.241.035-.141.167-.208.4-.208h1.058v-3.161c0-.102.043-.2.13-.285.087-.088.185-.13.295-.13.111 0 .213.042.304.13.094.085.14.183.14.285v3.16h1.093zM391.694 453.48c0 .949.317 1.76.946 2.424.631.666 1.382.996 2.257.996.874 0 1.623-.33 2.248-.996.625-.664.937-1.475.937-2.423 0-.949-.312-1.76-.937-2.428-.625-.675-1.374-1.009-2.248-1.009-.875 0-1.626.334-2.257 1.009-.63.668-.946 1.48-.946 2.428m6.51-4.131c.08-.08.18-.12.295-.12.115 0 .213.04.293.12.085.085.124.182.124.295v7.671c0 .117-.04.215-.124.295-.08.08-.178.124-.293.124-.115 0-.215-.044-.295-.124-.08-.08-.122-.178-.122-.295v-1.267c-.37.52-.835.93-1.397 1.232-.562.302-1.159.454-1.797.454-1.111 0-2.061-.419-2.847-1.25-.788-.835-1.18-1.835-1.18-3.004 0-1.17.392-2.17 1.18-3 .786-.836 1.736-1.25 2.847-1.25.638 0 1.235.147 1.797.449.562.301 1.026.707 1.397 1.217v-1.252c0-.113.042-.21.122-.295M407.857 457.315v-11.313c0-.115.04-.215.123-.298.08-.08.178-.117.293-.117.115 0 .217.037.304.117.087.083.132.183.132.298v11.313c0 .12-.045.217-.132.297-.087.08-.189.122-.304.122-.115 0-.212-.041-.293-.122-.082-.08-.123-.177-.123-.297M415.53 450.044c-.868 0-1.617.334-2.248 1.009-.632.668-.946 1.477-.946 2.419 0 .946.314 1.75.946 2.423.631.67 1.38 1.005 2.248 1.005.868 0 1.617-.335 2.248-1.005.63-.672.946-1.477.946-2.423 0-.942-.317-1.75-.946-2.42-.631-.674-1.38-1.008-2.248-1.008m-2.847 6.433c-.788-.84-1.18-1.84-1.18-2.996 0-1.157.392-2.153 1.18-2.992.788-.84 1.736-1.258 2.847-1.258s2.06.418 2.847 1.258c.788.84 1.18 1.835 1.18 2.992 0 1.156-.392 2.156-1.18 2.996-.788.84-1.736 1.258-2.847 1.258s-2.06-.419-2.847-1.258M422.752 457.315v-7.651c0-.115.042-.213.122-.298.08-.08.18-.119.293-.119.117 0 .215.04.297.12.08.084.122.182.122.297v1.872c.045-.09.086-.16.119-.208.894-1.385 2.027-2.08 3.405-2.08.117 0 .212.038.295.118.08.085.121.183.121.298 0 .112-.04.214-.121.295-.083.08-.178.119-.295.119-.927 0-1.75.466-2.465 1.39-.417.556-.76 1.215-1.027 1.98-.022.045-.032.092-.032.138v3.73c0 .119-.042.216-.122.296-.082.08-.18.122-.297.122-.113 0-.213-.041-.293-.122-.08-.08-.122-.177-.122-.297M430.286 453.489c0 .946.319 1.746.963 2.406.643.657 1.406.987 2.292.987.885 0 1.642-.312 2.274-.944.631-.631.963-1.399.998-2.301v-.276c-.035-.913-.367-1.69-.998-2.326-.632-.635-1.389-.956-2.274-.956-.886 0-1.65.334-2.292 1-.644.664-.963 1.468-.963 2.41m6.527 3.827v-1.23c-.382.51-.857.911-1.423 1.204-.567.297-1.18.445-1.84.445-1.146 0-2.118-.415-2.917-1.241-.799-.827-1.198-1.831-1.198-3.005s.4-2.178 1.198-3.009c.799-.833 1.77-1.25 2.916-1.25.66 0 1.274.148 1.84.45.567.301 1.042.707 1.424 1.216v-4.894c0-.115.044-.217.13-.297.087-.08.187-.12.304-.12.115 0 .215.04.295.12.08.08.122.182.122.297v11.314c0 .117-.041.215-.122.295-.08.08-.18.124-.295.124-.117 0-.217-.044-.304-.124-.086-.08-.13-.178-.13-.295M441.378 453.48c0 .949.316 1.76.946 2.424.631.666 1.382.996 2.257.996.874 0 1.623-.33 2.248-.996.625-.664.937-1.475.937-2.423 0-.949-.312-1.76-.937-2.428-.625-.675-1.374-1.009-2.248-1.009-.875 0-1.626.334-2.257 1.009-.63.668-.946 1.48-.946 2.428m6.51-4.131c.08-.08.18-.12.295-.12.115 0 .212.04.293.12.084.085.123.182.123.295v7.671c0 .117-.039.215-.123.295-.08.08-.178.124-.293.124-.115 0-.215-.044-.295-.124-.08-.08-.122-.178-.122-.295v-1.267c-.37.52-.835.93-1.397 1.232-.562.302-1.16.454-1.797.454-1.111 0-2.062-.419-2.847-1.25-.788-.835-1.18-1.835-1.18-3.004 0-1.17.392-2.17 1.18-3 .785-.836 1.736-1.25 2.847-1.25.638 0 1.235.147 1.797.449.562.301 1.026.707 1.397 1.217v-1.252c0-.113.041-.21.122-.295M14.149 9.825H9.483c-.074 0-.137-.028-.195-.087-.059-.056-.087-.123-.087-.195 0-.072.028-.137.087-.195.058-.057.121-.087.195-.087h4.97c.173 0 .26.102.26.304v5.51c0 .03-.009.05-.022.065v.046c-.015.071-.043.121-.087.15-1.46 1.13-3.125 1.692-4.99 1.692-2.214-.016-4.106-.784-5.675-2.31-1.57-1.526-2.355-3.366-2.355-5.522 0-2.154.786-3.994 2.355-5.521 1.569-1.525 3.46-2.29 5.674-2.29 1.895 0 3.559.565 4.991 1.695.174.128.191.271.055.421-.14.152-.272.163-.402.035-1.345-1.072-2.895-1.608-4.644-1.608-2.055 0-3.813.71-5.273 2.126-1.46 1.42-2.192 3.129-2.192 5.131 0 2.005.727 3.718 2.181 5.142 1.454 1.425 3.216 2.139 5.284 2.139 1.678 0 3.19-.501 4.536-1.5V9.826zM34.047 16.833L29.794 6.658l-4.296 10.197c-.044.115-.124.173-.24.173-.116 0-.203-.058-.26-.173l-6.14-14.6c-.103-.159-.06-.276.13-.348.173-.043.295 0 .368.13l5.881 14.015L29.49 5.964c.044-.13.137-.197.283-.197.13-.026.23.039.303.197l4.232 10.088L40.21 2.038c.057-.087.141-.135.25-.141.108-.01.195.026.26.097.065.072.068.159.011.26l-6.141 14.6c-.059.116-.148.174-.271.174-.124 0-.215-.065-.272-.195M43.682 17.028c-.188 0-.282-.078-.282-.238V2.124c0-.189.091-.282.272-.282.18 0 .27.093.27.282v6.508c.376-.68.901-1.223 1.574-1.627.673-.405 1.406-.607 2.203-.607 1.187 0 2.198.419 3.038 1.258.837.838 1.258 1.86 1.258 3.06v6.03c0 .072-.026.14-.076.195-.05.057-.113.087-.184.087-.189 0-.282-.093-.282-.282v-6.03c0-1.042-.367-1.927-1.096-2.658-.731-.732-1.61-1.096-2.637-1.096-1.028 0-1.905.35-2.636 1.052-.732.7-1.118 1.551-1.161 2.55v6.182c0 .189-.074.282-.217.282h-.044z"/>
    </g>
</svg>
