<svg xmlns="http://www.w3.org/2000/svg" xmlns:xlink="http://www.w3.org/1999/xlink" width="691" height="456" viewBox="0 0 691 456">
    <defs>
        <path id="prefix__a" d="M0 455.744L690.444 455.744 690.444 0 0 0z"/>
    </defs>
    <g fill="none" fill-rule="evenodd">
        <path fill="#000" d="M377.933 128.151c0-.28.236-.537.537-.537.3 0 .537.258.537.537 0 .302-.236.538-.537.538-.3 0-.537-.236-.537-.538m0 2.173c0-.301.236-.538.537-.538.3 0 .537.237.537.538 0 .301-.236.538-.537.538-.3 0-.537-.237-.537-.538m0 2.15c0-.3.236-.537.537-.537.3 0 .537.237.537.538 0 .301-.236.538-.537.538-.3 0-.537-.237-.537-.538m0 2.15c0-.3.236-.537.537-.537.3 0 .537.237.537.538 0 .301-.236.538-.537.538-.3 0-.537-.237-.537-.538m0 2.172c0-.3.236-.537.537-.537.3 0 .537.236.537.537 0 .28-.236.538-.537.538-.3 0-.537-.258-.537-.538m0 2.151c0-.3.236-.538.537-.538.3 0 .537.237.537.538 0 .301-.236.538-.537.538-.3 0-.537-.237-.537-.538m0 2.151c0-.301.236-.538.537-.538.3 0 .537.237.537.538 0 .301-.236.538-.537.538-.3 0-.537-.237-.537-.538m0 2.151c0-.28.236-.538.537-.538.3 0 .537.258.537.538 0 .301-.236.538-.537.538-.3 0-.537-.237-.537-.538m0 2.173c0-.302.236-.538.537-.538.3 0 .537.236.537.538 0 .28-.236.537-.537.537-.3 0-.537-.258-.537-.537m0 2.15c0-.3.236-.537.537-.537.3 0 .537.236.537.538 0 .3-.236.537-.537.537-.3 0-.537-.236-.537-.537m0 2.15c0-.28.236-.537.537-.537.3 0 .537.258.537.537 0 .302-.236.538-.537.538-.3 0-.537-.236-.537-.538m0 2.173c0-.301.236-.538.537-.538.3 0 .537.237.537.538 0 .28-.236.538-.537.538-.3 0-.537-.258-.537-.538m0 2.15c0-.3.236-.537.537-.537.3 0 .537.237.537.538 0 .301-.236.538-.537.538-.3 0-.537-.237-.537-.538m0 2.15c0-.279.236-.537.537-.537.3 0 .537.258.537.538 0 .3-.236.538-.537.538-.3 0-.537-.237-.537-.538m0 2.172c0-.3.236-.559.537-.559.3 0 .537.258.537.56 0 .279-.236.537-.537.537-.3 0-.537-.258-.537-.538m0 2.151c0-.3.236-.538.537-.538.3 0 .537.237.537.538 0 .301-.236.538-.537.538-.3 0-.537-.237-.537-.538m0 2.151c0-.301.236-.538.537-.538.3 0 .537.237.537.538 0 .301-.236.538-.537.538-.3 0-.537-.237-.537-.538m0 2.151c0-.28.236-.538.537-.538.3 0 .537.258.537.538 0 .301-.236.56-.537.56-.3 0-.537-.259-.537-.56m0 2.173c0-.302.236-.538.537-.538.3 0 .537.236.537.538 0 .3-.236.537-.537.537-.3 0-.537-.236-.537-.537m0 2.15c0-.3.236-.537.537-.537.3 0 .537.236.537.537 0 .302-.236.538-.537.538-.3 0-.537-.236-.537-.538m0 2.151c0-.3.236-.537.537-.537.3 0 .537.236.537.537 0 .302-.236.538-.537.538-.3 0-.537-.236-.537-.538m0 2.173c0-.301.236-.538.537-.538.3 0 .537.237.537.538 0 .28-.236.538-.537.538-.3 0-.537-.259-.537-.538m0 2.15c0-.3.236-.537.537-.537.3 0 .537.237.537.538 0 .3-.236.538-.537.538-.3 0-.537-.237-.537-.538m0 2.15c0-.3.236-.537.537-.537.3 0 .537.237.537.538 0 .3-.236.537-.537.537-.3 0-.537-.236-.537-.537m0 2.172c0-.3.236-.538.537-.538.3 0 .537.237.537.538 0 .28-.236.538-.537.538-.3 0-.537-.258-.537-.538m0 2.151c0-.301.236-.538.537-.538.3 0 .537.237.537.538 0 .301-.236.538-.537.538-.3 0-.537-.237-.537-.538m0 2.151c0-.301.236-.538.537-.538.3 0 .537.237.537.538 0 .301-.236.538-.537.538-.3 0-.537-.237-.537-.538m0 2.173c0-.302.236-.56.537-.56.3 0 .537.258.537.56 0 .28-.236.516-.537.516-.3 0-.537-.237-.537-.516m0 2.15c0-.3.236-.537.537-.537.3 0 .537.236.537.537 0 .302-.236.538-.537.538-.3 0-.537-.236-.537-.538m0 2.151c0-.3.236-.537.537-.537.3 0 .537.236.537.537 0 .302-.236.538-.537.538-.3 0-.537-.236-.537-.538m0 2.151c0-.28.236-.537.537-.537.3 0 .537.258.537.537 0 .302-.236.538-.537.538-.3 0-.537-.236-.537-.538m0 2.173c0-.301.236-.538.537-.538.3 0 .537.237.537.538 0 .28-.236.538-.537.538-.3 0-.537-.259-.537-.538m0 2.15c0-.3.236-.537.537-.537.3 0 .537.237.537.538 0 .3-.236.538-.537.538-.3 0-.537-.237-.537-.538m0 2.15c0-.3.236-.537.537-.537.3 0 .537.237.537.538 0 .3-.236.537-.537.537-.3 0-.537-.236-.537-.537m0 2.15c0-.279.236-.516.537-.516.3 0 .537.237.537.517 0 .3-.236.559-.537.559-.3 0-.537-.258-.537-.56m0 2.173c0-.301.236-.538.537-.538.3 0 .537.237.537.538 0 .301-.236.538-.537.538-.3 0-.537-.237-.537-.538m0 2.151c0-.301.236-.538.537-.538.3 0 .537.237.537.538 0 .301-.236.538-.537.538-.3 0-.537-.237-.537-.538m0 2.151c0-.28.236-.538.537-.538.3 0 .537.258.537.538 0 .301-.236.538-.537.538-.3 0-.537-.237-.537-.538m0 2.172c0-.3.236-.537.537-.537.3 0 .537.236.537.537 0 .28-.236.538-.537.538-.3 0-.537-.258-.537-.538m0 2.151c0-.3.236-.537.537-.537.3 0 .537.236.537.537 0 .302-.236.538-.537.538-.3 0-.537-.236-.537-.538m0 2.151c0-.28.236-.537.537-.537.3 0 .537.258.537.537 0 .301-.236.538-.537.538-.3 0-.537-.237-.537-.538m0 2.173c0-.301.236-.538.537-.538.3 0 .537.237.537.538 0 .28-.236.538-.537.538-.3 0-.537-.259-.537-.538m0 2.15c0-.3.236-.537.537-.537.3 0 .537.237.537.538 0 .3-.236.537-.537.537-.3 0-.537-.236-.537-.537m0 2.15c0-.3.236-.537.537-.537.3 0 .537.237.537.538 0 .3-.236.537-.537.537-.3 0-.537-.236-.537-.537m0 2.172c0-.301.236-.538.537-.538.3 0 .537.237.537.538 0 .28-.236.538-.537.538-.3 0-.537-.258-.537-.538m0 2.151c0-.301.236-.538.537-.538.3 0 .537.237.537.538 0 .301-.236.538-.537.538-.3 0-.537-.237-.537-.538m0 2.151c0-.301.236-.538.537-.538.3 0 .537.237.537.538 0 .301-.236.538-.537.538-.3 0-.537-.237-.537-.538m0 2.151c0-.28.236-.538.537-.538.3 0 .537.258.537.538 0 .299-.236.538-.537.538-.3 0-.537-.24-.537-.538m0 2.17c0-.299.236-.537.537-.537.3 0 .537.238.537.537 0 .28-.236.538-.537.538-.3 0-.537-.258-.537-.538m0 2.151c0-.299.236-.538.537-.538.3 0 .537.24.537.538 0 .303-.236.538-.537.538-.3 0-.537-.235-.537-.538m0 2.151c0-.299.236-.538.537-.538.3 0 .537.24.537.538 0 .303-.236.538-.537.538-.3 0-.537-.235-.537-.538m0 2.175c0-.301.236-.538.537-.538.3 0 .537.237.537.538 0 .28-.236.537-.537.537-.3 0-.537-.258-.537-.537m0 2.15c0-.3.236-.537.537-.537.3 0 .537.237.537.538 0 .3-.236.537-.537.537-.3 0-.537-.236-.537-.537m0 2.15c0-.3.236-.537.537-.537.3 0 .537.237.537.538 0 .3-.236.537-.537.537-.3 0-.537-.236-.537-.537m0 2.172c0-.303.236-.56.537-.56.3 0 .537.257.537.56 0 .28-.236.516-.537.516-.3 0-.537-.236-.537-.516m0 2.151c0-.303.236-.538.537-.538.3 0 .537.235.537.538 0 .301-.236.538-.537.538-.3 0-.537-.237-.537-.538m0 2.151c0-.303.236-.538.537-.538.3 0 .537.235.537.538 0 .301-.236.538-.537.538-.3 0-.537-.237-.537-.538m0 2.15c0-.279.236-.537.537-.537.3 0 .537.258.537.538 0 .301-.236.538-.537.538-.3 0-.537-.237-.537-.538m0 2.172c0-.3.236-.537.537-.537.3 0 .537.236.537.537 0 .28-.236.538-.537.538-.3 0-.537-.258-.537-.538m0 2.151c0-.3.236-.537.537-.537.3 0 .537.236.537.537 0 .3-.236.538-.537.538-.3 0-.537-.239-.537-.538m0 2.151c0-.3.236-.537.537-.537.3 0 .537.236.537.537 0 .3-.236.538-.537.538-.3 0-.537-.239-.537-.538m0 2.17c0-.298.236-.537.537-.537.3 0 .537.239.537.538 0 .28-.236.537-.537.537-.3 0-.537-.258-.537-.537m0 2.15c0-.298.236-.537.537-.537.3 0 .537.239.537.538 0 .303-.236.537-.537.537-.3 0-.537-.234-.537-.537m0 2.15c0-.299.236-.537.537-.537.3 0 .537.238.537.537 0 .304-.236.538-.537.538-.3 0-.537-.234-.537-.538m0 2.151c0-.277.236-.537.537-.537.3 0 .537.26.537.537 0 .304-.236.538-.537.538-.3 0-.537-.234-.537-.538m0 2.175c0-.301.236-.538.537-.538.3 0 .537.237.537.538 0 .301-.236.538-.537.538-.3 0-.537-.237-.537-.538m0 2.15c0-.3.236-.537.537-.537.3 0 .537.237.537.538 0 .301-.236.538-.537.538-.3 0-.537-.237-.537-.538m0 2.15c0-.28.236-.537.537-.537.3 0 .537.256.537.538 0 .301-.236.538-.537.538-.3 0-.537-.237-.537-.538m0 2.172c0-.303.236-.537.537-.537.3 0 .537.234.537.537 0 .301-.236.538-.537.538-.3 0-.537-.237-.537-.538m0 2.151c0-.303.236-.537.537-.537.3 0 .537.234.537.537 0 .301-.236.538-.537.538-.3 0-.537-.237-.537-.538m0 2.151c0-.303.236-.538.537-.538.3 0 .537.235.537.538 0 .301-.236.538-.537.538-.3 0-.537-.237-.537-.538m0 2.173c0-.301.236-.538.537-.538.3 0 .537.237.537.538 0 .299-.236.537-.537.537-.3 0-.537-.238-.537-.537m0 2.15c0-.3.236-.537.537-.537.3 0 .537.236.537.538 0 .299-.236.537-.537.537-.3 0-.537-.238-.537-.537m0 2.15c0-.3.236-.537.537-.537.3 0 .537.236.537.538 0 .299-.236.537-.537.537-.3 0-.537-.238-.537-.537m0 2.15c0-.28.236-.537.537-.537.3 0 .537.258.537.538 0 .298-.236.557-.537.557-.3 0-.537-.259-.537-.557m0 2.17c0-.3.236-.538.537-.538.3 0 .537.239.537.538 0 .28-.236.538-.537.538-.3 0-.537-.259-.537-.538m0 2.15c0-.298.236-.537.537-.537.3 0 .537.239.537.538 0 .303-.236.537-.537.537-.3 0-.537-.234-.537-.537m0 2.15c0-.298.236-.537.537-.537.3 0 .537.239.537.538 0 .303-.236.537-.537.537-.3 0-.537-.234-.537-.537m0 2.174c0-.3.236-.537.537-.537.3 0 .537.236.537.537 0 .28-.236.538-.537.538-.3 0-.537-.258-.537-.538m0 2.151c0-.3.236-.537.537-.537.3 0 .537.236.537.537 0 .301-.236.538-.537.538-.3 0-.537-.237-.537-.538m0 2.151c0-.3.236-.538.537-.538.3 0 .537.237.537.538 0 .301-.236.538-.537.538-.3 0-.537-.237-.537-.538m0 2.173c0-.304.236-.538.537-.538.3 0 .537.234.537.538 0 .28-.236.537-.537.537-.3 0-.537-.258-.537-.537m0 2.15c0-.303.236-.537.537-.537.3 0 .537.234.537.538 0 .3-.236.537-.537.537-.3 0-.537-.236-.537-.537m0 2.15c0-.303.236-.537.537-.537.3 0 .537.234.537.538 0 .3-.236.537-.537.537-.3 0-.537-.236-.537-.537m0 2.172c0-.301.236-.56.537-.56.3 0 .537.259.537.56 0 .28-.236.516-.537.516-.3 0-.537-.236-.537-.516m0 2.15c0-.3.236-.537.537-.537.3 0 .537.237.537.538 0 .299-.236.538-.537.538-.3 0-.537-.24-.537-.538m0 2.15c0-.3.236-.537.537-.537.3 0 .537.237.537.538 0 .299-.236.538-.537.538-.3 0-.537-.24-.537-.538m0 2.15c0-.279.236-.537.537-.537.3 0 .537.258.537.538 0 .299-.236.538-.537.538-.3 0-.537-.24-.537-.538m0 2.172c0-.3.236-.537.537-.537.3 0 .537.236.537.537 0 .278-.236.538-.537.538-.3 0-.537-.26-.537-.538m0 2.151c0-.3.236-.538.537-.538.3 0 .537.237.537.538 0 .301-.236.538-.537.538-.3 0-.537-.237-.537-.538m0 2.151c0-.301.236-.538.537-.538.3 0 .537.237.537.538 0 .301-.236.538-.537.538-.3 0-.537-.237-.537-.538m0 2.151c0-.28.236-.518.537-.518.3 0 .537.238.537.518 0 .301-.236.557-.537.557-.3 0-.537-.256-.537-.557m0 2.17c0-.299.236-.537.537-.537.3 0 .537.238.537.537 0 .304-.236.538-.537.538-.3 0-.537-.234-.537-.538m0 2.151c0-.299.236-.537.537-.537.3 0 .537.238.537.537 0 .304-.236.538-.537.538-.3 0-.537-.234-.537-.538m0 2.151c0-.28.236-.537.537-.537.3 0 .537.258.537.537 0 .304-.236.538-.537.538-.3 0-.537-.234-.537-.538m0 2.175c0-.303.236-.538.537-.538.3 0 .537.235.537.538 0 .301-.236.538-.537.538-.3 0-.537-.237-.537-.538m0 2.15c0-.302.236-.537.537-.537.3 0 .537.235.537.538 0 .301-.236.538-.537.538-.3 0-.537-.237-.537-.538m0 2.15c0-.279.236-.537.537-.537.3 0 .537.258.537.538 0 .3-.236.538-.537.538-.3 0-.537-.237-.537-.538m0 2.172c0-.3.236-.538.537-.538.3 0 .537.237.537.538 0 .3-.236.538-.537.538-.3 0-.537-.239-.537-.538m0 2.151c0-.301.236-.538.537-.538.3 0 .537.237.537.538 0 .3-.236.538-.537.538-.3 0-.537-.239-.537-.538m0 2.151c0-.301.236-.538.537-.538.3 0 .537.237.537.538 0 .3-.236.538-.537.538-.3 0-.537-.239-.537-.538m0 2.173c0-.302.236-.538.537-.538.3 0 .537.236.537.538 0 .277-.236.537-.537.537-.3 0-.537-.26-.537-.537m0 2.15c0-.3.236-.537.537-.537.3 0 .537.236.537.538 0 .3-.236.537-.537.537-.3 0-.537-.236-.537-.537m0 2.15c0-.3.236-.537.537-.537.3 0 .537.236.537.537 0 .302-.236.538-.537.538-.3 0-.537-.236-.537-.538m0 2.151c0-.28.236-.537.537-.537.3 0 .537.258.537.537 0 .302-.236.538-.537.538-.3 0-.537-.236-.537-.538m0 2.17c0-.298.236-.537.537-.537.3 0 .537.239.537.538 0 .281-.236.537-.537.537-.3 0-.537-.256-.537-.537m0 2.15c0-.298.236-.537.537-.537.3 0 .537.239.537.538 0 .303-.236.537-.537.537-.3 0-.537-.234-.537-.537m0 2.15c0-.298.236-.537.537-.537.3 0 .537.239.537.538 0 .303-.236.537-.537.537-.3 0-.537-.234-.537-.537m0 2.174c0-.303.236-.538.537-.538.3 0 .537.235.537.538 0 .28-.236.538-.537.538-.3 0-.537-.258-.537-.538m0 2.151c0-.303.236-.538.537-.538.3 0 .537.235.537.538 0 .301-.236.538-.537.538-.3 0-.537-.237-.537-.538m0 2.151c0-.303.236-.538.537-.538.3 0 .537.235.537.538 0 .301-.236.538-.537.538-.3 0-.537-.237-.537-.538m0 2.173c0-.302.236-.538.537-.538.3 0 .537.236.537.538 0 .299-.236.537-.537.537-.3 0-.537-.238-.537-.537m0 2.15c0-.3.236-.537.537-.537.3 0 .537.236.537.537 0 .3-.236.538-.537.538-.3 0-.537-.239-.537-.538m0 2.151c0-.3.236-.537.537-.537.3 0 .537.236.537.537 0 .3-.236.538-.537.538-.3 0-.537-.239-.537-.538m0 2.151c0-.28.236-.537.537-.537.3 0 .537.258.537.537 0 .3-.236.56-.537.56-.3 0-.537-.26-.537-.56m0 2.173c0-.301.236-.538.537-.538.3 0 .537.237.537.538 0 .277-.236.538-.537.538-.3 0-.537-.26-.537-.538m0 2.15c0-.3.236-.537.537-.537.3 0 .537.237.537.538 0 .3-.236.537-.537.537-.3 0-.537-.236-.537-.537m0 2.15c0-.3.236-.537.537-.537.3 0 .537.237.537.538 0 .3-.236.557-.537.557-.3 0-.537-.256-.537-.557"/>
        <path fill="#000" d="M378.47 383.15c-.297 0-.537-.241-.537-.538l.013-256.61c0-.297.24-.537.537-.537.299 0 .537.24.537.537l-.013 256.61c0 .297-.24.538-.537.538M622.82 128.151c0-.28.234-.537.537-.537.3 0 .537.258.537.537 0 .302-.236.538-.537.538-.303 0-.537-.236-.537-.538m0 2.173c0-.301.234-.538.537-.538.3 0 .537.237.537.538 0 .28-.236.538-.537.538-.303 0-.537-.258-.537-.538m0 2.15c0-.3.234-.537.537-.537.3 0 .537.237.537.538 0 .301-.236.538-.537.538-.303 0-.537-.237-.537-.538m0 2.15c0-.3.234-.537.537-.537.3 0 .537.237.537.538 0 .301-.236.538-.537.538-.303 0-.537-.237-.537-.538m0 2.15c0-.279.234-.515.537-.515.3 0 .537.236.537.516 0 .3-.236.559-.537.559-.303 0-.537-.258-.537-.56m0 2.173c0-.3.234-.538.537-.538.3 0 .537.237.537.538 0 .28-.236.538-.537.538-.303 0-.537-.258-.537-.538m0 2.151c0-.301.234-.538.537-.538.3 0 .537.237.537.538 0 .301-.236.538-.537.538-.303 0-.537-.237-.537-.538m0 2.151c0-.28.234-.516.537-.516.3 0 .537.236.537.516 0 .301-.236.538-.537.538-.303 0-.537-.237-.537-.538m0 2.173c0-.302.234-.538.537-.538.3 0 .537.236.537.538 0 .3-.236.537-.537.537-.303 0-.537-.236-.537-.537m0 2.15c0-.3.234-.537.537-.537.3 0 .537.236.537.538 0 .3-.236.537-.537.537-.303 0-.537-.236-.537-.537m0 2.15c0-.28.234-.537.537-.537.3 0 .537.258.537.537 0 .302-.236.538-.537.538-.303 0-.537-.236-.537-.538m0 2.173c0-.301.234-.538.537-.538.3 0 .537.237.537.538 0 .28-.236.538-.537.538-.303 0-.537-.258-.537-.538m0 2.15c0-.3.234-.537.537-.537.3 0 .537.237.537.538 0 .301-.236.538-.537.538-.303 0-.537-.237-.537-.538m0 2.15c0-.3.234-.537.537-.537.3 0 .537.237.537.538 0 .3-.236.538-.537.538-.303 0-.537-.237-.537-.538m0 2.172c0-.3.234-.537.537-.537.3 0 .537.236.537.537 0 .28-.236.516-.537.516-.303 0-.537-.236-.537-.516m0 2.151c0-.3.234-.538.537-.538.3 0 .537.237.537.538 0 .301-.236.538-.537.538-.303 0-.537-.237-.537-.538m0 2.151c0-.301.234-.538.537-.538.3 0 .537.237.537.538 0 .301-.236.538-.537.538-.303 0-.537-.237-.537-.538m0 2.151c0-.28.234-.516.537-.516.3 0 .537.236.537.516 0 .301-.236.538-.537.538-.303 0-.537-.237-.537-.538m0 2.173c0-.302.234-.538.537-.538.3 0 .537.236.537.538 0 .3-.236.537-.537.537-.303 0-.537-.236-.537-.537m0 2.15c0-.3.234-.537.537-.537.3 0 .537.236.537.537 0 .302-.236.538-.537.538-.303 0-.537-.236-.537-.538m0 2.151c0-.3.234-.537.537-.537.3 0 .537.236.537.537 0 .302-.236.538-.537.538-.303 0-.537-.236-.537-.538m0 2.173c0-.301.234-.538.537-.538.3 0 .537.237.537.538 0 .301-.236.538-.537.538-.303 0-.537-.237-.537-.538m0 2.15c0-.3.234-.537.537-.537.3 0 .537.237.537.538 0 .3-.236.538-.537.538-.303 0-.537-.237-.537-.538m0 2.15c0-.3.234-.537.537-.537.3 0 .537.237.537.538 0 .3-.236.537-.537.537-.303 0-.537-.236-.537-.537m0 2.172c0-.3.234-.538.537-.538.3 0 .537.237.537.538 0 .28-.236.516-.537.516-.303 0-.537-.236-.537-.516m0 2.151c0-.301.234-.538.537-.538.3 0 .537.237.537.538 0 .301-.236.538-.537.538-.303 0-.537-.237-.537-.538m0 2.151c0-.301.234-.538.537-.538.3 0 .537.237.537.538 0 .301-.236.538-.537.538-.303 0-.537-.237-.537-.538m0 2.151c0-.28.234-.538.537-.538.3 0 .537.258.537.538 0 .301-.236.538-.537.538-.303 0-.537-.237-.537-.538m0 2.172c0-.3.234-.537.537-.537.3 0 .537.236.537.537 0 .302-.236.538-.537.538-.303 0-.537-.236-.537-.538m0 2.151c0-.3.234-.537.537-.537.3 0 .537.236.537.537 0 .302-.236.538-.537.538-.303 0-.537-.236-.537-.538m0 2.151c0-.3.234-.537.537-.537.3 0 .537.236.537.537 0 .302-.236.538-.537.538-.303 0-.537-.236-.537-.538m0 2.173c0-.301.234-.538.537-.538.3 0 .537.237.537.538 0 .28-.236.538-.537.538-.303 0-.537-.259-.537-.538m0 2.15c0-.3.234-.537.537-.537.3 0 .537.237.537.538 0 .3-.236.538-.537.538-.303 0-.537-.237-.537-.538m0 2.15c0-.3.234-.537.537-.537.3 0 .537.237.537.538 0 .3-.236.537-.537.537-.303 0-.537-.236-.537-.537m0 2.172c0-.301.234-.538.537-.538.3 0 .537.237.537.538 0 .28-.236.516-.537.516-.303 0-.537-.236-.537-.516m0 2.151c0-.301.234-.538.537-.538.3 0 .537.237.537.538 0 .301-.236.538-.537.538-.303 0-.537-.237-.537-.538m0 2.151c0-.301.234-.538.537-.538.3 0 .537.237.537.538 0 .301-.236.538-.537.538-.303 0-.537-.237-.537-.538m0 2.151c0-.28.234-.538.537-.538.3 0 .537.258.537.538 0 .301-.236.56-.537.56-.303 0-.537-.259-.537-.56m0 2.172c0-.3.234-.537.537-.537.3 0 .537.236.537.537 0 .28-.236.538-.537.538-.303 0-.537-.258-.537-.538m0 2.151c0-.3.234-.537.537-.537.3 0 .537.236.537.537 0 .302-.236.538-.537.538-.303 0-.537-.236-.537-.538m0 2.151c0-.3.234-.537.537-.537.3 0 .537.236.537.537 0 .301-.236.538-.537.538-.303 0-.537-.237-.537-.538m0 2.173c0-.301.234-.538.537-.538.3 0 .537.237.537.538 0 .28-.236.538-.537.538-.303 0-.537-.259-.537-.538m0 2.15c0-.3.234-.537.537-.537.3 0 .537.237.537.538 0 .3-.236.537-.537.537-.303 0-.537-.236-.537-.537m0 2.15c0-.279.234-.537.537-.537.3 0 .537.258.537.538 0 .3-.236.537-.537.537-.303 0-.537-.236-.537-.537m0 2.172c0-.301.234-.56.537-.56.3 0 .537.259.537.56 0 .28-.236.538-.537.538-.303 0-.537-.258-.537-.538m0 2.151c0-.301.234-.538.537-.538.3 0 .537.237.537.538 0 .301-.236.538-.537.538-.303 0-.537-.237-.537-.538m0 2.151c0-.301.234-.538.537-.538.3 0 .537.237.537.538 0 .301-.236.538-.537.538-.303 0-.537-.237-.537-.538m0 2.151c0-.301.234-.538.537-.538.3 0 .537.237.537.538 0 .299-.236.538-.537.538-.303 0-.537-.24-.537-.538m0 2.17c0-.299.234-.537.537-.537.3 0 .537.238.537.537 0 .28-.236.538-.537.538-.303 0-.537-.258-.537-.538m0 2.151c0-.299.234-.538.537-.538.3 0 .537.24.537.538 0 .303-.236.538-.537.538-.303 0-.537-.235-.537-.538m0 2.151c0-.277.234-.538.537-.538.3 0 .537.26.537.538 0 .303-.236.538-.537.538-.303 0-.537-.235-.537-.538m0 2.175c0-.301.234-.538.537-.538.3 0 .537.237.537.538 0 .28-.236.537-.537.537-.303 0-.537-.258-.537-.537m0 2.15c0-.3.234-.537.537-.537.3 0 .537.237.537.538 0 .3-.236.537-.537.537-.303 0-.537-.236-.537-.537m0 2.15c0-.3.234-.537.537-.537.3 0 .537.237.537.538 0 .3-.236.537-.537.537-.303 0-.537-.236-.537-.537m0 2.15c0-.281.234-.537.537-.537.3 0 .537.256.537.538 0 .3-.236.559-.537.559-.303 0-.537-.258-.537-.56m0 2.173c0-.303.234-.538.537-.538.3 0 .537.235.537.538 0 .301-.236.538-.537.538-.303 0-.537-.237-.537-.538m0 2.151c0-.303.234-.538.537-.538.3 0 .537.235.537.538 0 .301-.236.538-.537.538-.303 0-.537-.237-.537-.538m0 2.15c0-.279.234-.537.537-.537.3 0 .537.258.537.538 0 .301-.236.538-.537.538-.303 0-.537-.237-.537-.538m0 2.172c0-.3.234-.537.537-.537.3 0 .537.236.537.537 0 .28-.236.538-.537.538-.303 0-.537-.258-.537-.538m0 2.151c0-.3.234-.537.537-.537.3 0 .537.236.537.537 0 .3-.236.538-.537.538-.303 0-.537-.239-.537-.538m0 2.151c0-.3.234-.537.537-.537.3 0 .537.236.537.537 0 .3-.236.538-.537.538-.303 0-.537-.239-.537-.538m0 2.17c0-.298.234-.537.537-.537.3 0 .537.239.537.538 0 .28-.236.537-.537.537-.303 0-.537-.258-.537-.537m0 2.15c0-.298.234-.537.537-.537.3 0 .537.239.537.538 0 .303-.236.537-.537.537-.303 0-.537-.234-.537-.537m0 2.15c0-.299.234-.537.537-.537.3 0 .537.238.537.537 0 .304-.236.538-.537.538-.303 0-.537-.234-.537-.538m0 2.151c0-.277.234-.537.537-.537.3 0 .537.26.537.537 0 .304-.236.538-.537.538-.303 0-.537-.234-.537-.538m0 2.175c0-.301.234-.538.537-.538.3 0 .537.237.537.538 0 .301-.236.538-.537.538-.303 0-.537-.237-.537-.538m0 2.15c0-.3.234-.537.537-.537.3 0 .537.237.537.538 0 .301-.236.538-.537.538-.303 0-.537-.237-.537-.538m0 2.15c0-.28.234-.537.537-.537.3 0 .537.256.537.538 0 .301-.236.538-.537.538-.303 0-.537-.237-.537-.538m0 2.172c0-.303.234-.537.537-.537.3 0 .537.234.537.537 0 .28-.236.538-.537.538-.303 0-.537-.258-.537-.538m0 2.151c0-.303.234-.537.537-.537.3 0 .537.234.537.537 0 .301-.236.538-.537.538-.303 0-.537-.237-.537-.538m0 2.151c0-.303.234-.538.537-.538.3 0 .537.235.537.538 0 .301-.236.538-.537.538-.303 0-.537-.237-.537-.538m0 2.173c0-.301.234-.538.537-.538.3 0 .537.237.537.538 0 .28-.236.537-.537.537-.303 0-.537-.258-.537-.537m0 2.15c0-.3.234-.537.537-.537.3 0 .537.236.537.538 0 .299-.236.537-.537.537-.303 0-.537-.238-.537-.537m0 2.15c0-.3.234-.537.537-.537.3 0 .537.236.537.538 0 .299-.236.537-.537.537-.303 0-.537-.238-.537-.537m0 2.15c0-.28.234-.518.537-.518.3 0 .537.239.537.519 0 .298-.236.557-.537.557-.303 0-.537-.259-.537-.557m0 2.17c0-.3.234-.538.537-.538.3 0 .537.239.537.538 0 .28-.236.538-.537.538-.303 0-.537-.259-.537-.538m0 2.15c0-.298.234-.537.537-.537.3 0 .537.239.537.538 0 .303-.236.537-.537.537-.303 0-.537-.234-.537-.537m0 2.15c0-.277.234-.537.537-.537.3 0 .537.26.537.538 0 .303-.236.537-.537.537-.303 0-.537-.234-.537-.537m0 2.174c0-.3.234-.537.537-.537.3 0 .537.236.537.537 0 .28-.236.538-.537.538-.303 0-.537-.258-.537-.538m0 2.151c0-.3.234-.537.537-.537.3 0 .537.236.537.537 0 .301-.236.538-.537.538-.303 0-.537-.237-.537-.538m0 2.151c0-.3.234-.538.537-.538.3 0 .537.237.537.538 0 .301-.236.538-.537.538-.303 0-.537-.237-.537-.538m0 2.173c0-.304.234-.538.537-.538.3 0 .537.234.537.538 0 .28-.236.537-.537.537-.303 0-.537-.258-.537-.537m0 2.15c0-.303.234-.537.537-.537.3 0 .537.234.537.538 0 .3-.236.537-.537.537-.303 0-.537-.236-.537-.537m0 2.15c0-.303.234-.537.537-.537.3 0 .537.234.537.538 0 .3-.236.537-.537.537-.303 0-.537-.236-.537-.537m0 2.172c0-.301.234-.538.537-.538.3 0 .537.237.537.538 0 .28-.236.516-.537.516-.303 0-.537-.236-.537-.516m0 2.15c0-.3.234-.537.537-.537.3 0 .537.237.537.538 0 .299-.236.538-.537.538-.303 0-.537-.24-.537-.538m0 2.15c0-.3.234-.537.537-.537.3 0 .537.237.537.538 0 .299-.236.538-.537.538-.303 0-.537-.24-.537-.538m0 2.15c0-.279.234-.537.537-.537.3 0 .537.258.537.538 0 .299-.236.538-.537.538-.303 0-.537-.24-.537-.538m0 2.172c0-.3.234-.537.537-.537.3 0 .537.236.537.537 0 .278-.236.538-.537.538-.303 0-.537-.26-.537-.538m0 2.151c0-.3.234-.538.537-.538.3 0 .537.237.537.538 0 .301-.236.538-.537.538-.303 0-.537-.237-.537-.538m0 2.151c0-.301.234-.538.537-.538.3 0 .537.237.537.538 0 .301-.236.538-.537.538-.303 0-.537-.237-.537-.538m0 2.17c0-.299.234-.537.537-.537.3 0 .537.238.537.537 0 .282-.236.519-.537.519-.303 0-.537-.237-.537-.519m0 2.151c0-.299.234-.537.537-.537.3 0 .537.238.537.537 0 .304-.236.538-.537.538-.303 0-.537-.234-.537-.538m0 2.151c0-.299.234-.537.537-.537.3 0 .537.238.537.537 0 .304-.236.538-.537.538-.303 0-.537-.234-.537-.538m0 2.151c0-.28.234-.537.537-.537.3 0 .537.258.537.537 0 .304-.236.538-.537.538-.303 0-.537-.234-.537-.538m0 2.175c0-.303.234-.538.537-.538.3 0 .537.235.537.538 0 .301-.236.538-.537.538-.303 0-.537-.237-.537-.538m0 2.15c0-.302.234-.537.537-.537.3 0 .537.235.537.538 0 .301-.236.538-.537.538-.303 0-.537-.237-.537-.538m0 2.15c0-.303.234-.537.537-.537.3 0 .537.234.537.538 0 .3-.236.538-.537.538-.303 0-.537-.237-.537-.538m0 2.172c0-.3.234-.538.537-.538.3 0 .537.237.537.538 0 .3-.236.538-.537.538-.303 0-.537-.239-.537-.538m0 2.151c0-.301.234-.538.537-.538.3 0 .537.237.537.538 0 .3-.236.538-.537.538-.303 0-.537-.239-.537-.538m0 2.151c0-.301.234-.538.537-.538.3 0 .537.237.537.538 0 .3-.236.538-.537.538-.303 0-.537-.239-.537-.538m0 2.173c0-.302.234-.538.537-.538.3 0 .537.236.537.538 0 .277-.236.537-.537.537-.303 0-.537-.26-.537-.537m0 2.15c0-.3.234-.537.537-.537.3 0 .537.236.537.538 0 .3-.236.537-.537.537-.303 0-.537-.236-.537-.537m0 2.15c0-.3.234-.537.537-.537.3 0 .537.236.537.537 0 .302-.236.538-.537.538-.303 0-.537-.236-.537-.538m0 2.151c0-.28.234-.537.537-.537.3 0 .537.258.537.537 0 .302-.236.538-.537.538-.303 0-.537-.236-.537-.538m0 2.17c0-.298.234-.537.537-.537.3 0 .537.239.537.538 0 .303-.236.537-.537.537-.303 0-.537-.234-.537-.537m0 2.15c0-.298.234-.537.537-.537.3 0 .537.239.537.538 0 .303-.236.537-.537.537-.303 0-.537-.234-.537-.537m0 2.15c0-.298.234-.537.537-.537.3 0 .537.239.537.538 0 .303-.236.537-.537.537-.303 0-.537-.234-.537-.537m0 2.174c0-.303.234-.538.537-.538.3 0 .537.235.537.538 0 .28-.236.538-.537.538-.303 0-.537-.258-.537-.538m0 2.151c0-.303.234-.538.537-.538.3 0 .537.235.537.538 0 .301-.236.538-.537.538-.303 0-.537-.237-.537-.538m0 2.151c0-.303.234-.538.537-.538.3 0 .537.235.537.538 0 .301-.236.538-.537.538-.303 0-.537-.237-.537-.538m0 2.173c0-.302.234-.538.537-.538.3 0 .537.236.537.538 0 .28-.236.537-.537.537-.303 0-.537-.258-.537-.537m0 2.15c0-.3.234-.537.537-.537.3 0 .537.236.537.537 0 .3-.236.538-.537.538-.303 0-.537-.239-.537-.538m0 2.151c0-.3.234-.537.537-.537.3 0 .537.236.537.537 0 .3-.236.538-.537.538-.303 0-.537-.239-.537-.538m0 2.151c0-.28.234-.537.537-.537.3 0 .537.258.537.537 0 .3-.236.56-.537.56-.303 0-.537-.26-.537-.56m0 2.173c0-.301.234-.538.537-.538.3 0 .537.237.537.538 0 .277-.236.538-.537.538-.303 0-.537-.26-.537-.538m0 2.15c0-.3.234-.537.537-.537.3 0 .537.237.537.538 0 .3-.236.537-.537.537-.303 0-.537-.236-.537-.537m0 2.15c0-.3.234-.537.537-.537.3 0 .537.237.537.538 0 .3-.236.537-.537.537-.303 0-.537-.236-.537-.537"/>
        <path fill="#000" d="M623.36 383.15c-.296 0-.536-.241-.536-.538l.013-256.61c0-.297.24-.537.537-.537.299 0 .537.24.537.537l-.013 256.61c0 .297-.24.538-.537.538"/>
        <mask id="prefix__b" fill="#fff">
            <use xlink:href="#prefix__a"/>
        </mask>
        <path fill="#000" d="M17.294 425.3L688.923 425.3 688.923 424.224 17.294 424.224zM17.294 32.258L690.444 32.258 690.444 31.182 17.294 31.182z" mask="url(#prefix__b)"/>
        <path fill="#1A1919" d="M18.79 172.74c-.138 0-.237-.07-.297-.207-.06-.138-.039-.267.065-.387l8.716-7.873c1.135-1.05 1.702-2.271 1.702-3.665 0-1.394-.481-2.624-1.444-3.69-.963-1.068-2.145-1.601-3.546-1.601-1.401 0-2.6.447-3.597 1.342l-.903.826c-.103.086-.215.108-.335.065-.12-.044-.19-.12-.207-.233-.017-.112.018-.21.104-.297l.902-.851c1.118-.998 2.472-1.497 4.062-1.497 1.59 0 2.961.628 4.113 1.884.997 1.135 1.496 2.5 1.496 4.09 0 1.593-.645 2.956-1.934 4.092l-8.098 7.356h9.723c.206 0 .309.103.309.31 0 .086-.03.163-.09.232-.06.07-.133.103-.22.103H18.79zM36.507 157.743c-1.118 1.669-1.676 3.656-1.676 5.962 0 2.306.558 4.294 1.676 5.963 1.049 1.617 2.325 2.426 3.83 2.426 1.504 0 2.78-.809 3.83-2.426 1.117-1.618 1.675-3.605 1.675-5.963 0-2.357-.558-4.345-1.676-5.962-1.049-1.615-2.325-2.426-3.83-2.426-1.504 0-2.78.81-3.83 2.426m3.818-3.072c1.736.018 3.197.908 4.384 2.672 1.186 1.764 1.78 3.88 1.78 6.35 0 2.469-.59 4.59-1.767 6.362-1.178 1.772-2.644 2.667-4.397 2.684-1.72-.017-3.172-.912-4.359-2.684-1.186-1.773-1.78-3.893-1.78-6.363 0-2.469.594-4.585 1.78-6.35 1.187-1.763 2.64-2.653 4.359-2.67M55.254 155.033c0-.086.035-.163.104-.232.068-.069.137-.103.206-.103.223 0 .335.111.335.335v17.371c0 .224-.112.336-.335.336-.086 0-.16-.035-.22-.104-.06-.068-.09-.146-.09-.232v-17.37zm-3.146 2.452c-.034.017-.107.026-.219.026s-.193-.077-.245-.232c-.052-.155 0-.276.155-.362l3.61-2.142c.19-.138.335-.108.439.09.103.198.06.349-.13.452l-3.61 2.168zM64.552 156.195c-.576.567-.864 1.256-.864 2.065 0 .808.288 1.497.864 2.064.576.568 1.263.852 2.063.852.8 0 1.487-.284 2.063-.852.576-.567.864-1.256.864-2.064 0-.81-.284-1.498-.851-2.065-.567-.568-1.255-.86-2.063-.878-.808.017-1.5.31-2.076.878m-1.535 7.201c-.997.998-1.495 2.203-1.495 3.614 0 1.41.498 2.61 1.495 3.6.998.99 2.201 1.484 3.61 1.484 1.41 0 2.614-.494 3.611-1.484.997-.99 1.496-2.19 1.496-3.6 0-1.411-.499-2.616-1.496-3.614-.997-.998-2.2-1.497-3.61-1.497-1.41 0-2.613.499-3.61 1.497m.025-5.136c0-.999.348-1.846 1.045-2.543.696-.697 1.538-1.045 2.527-1.045.988 0 1.83.348 2.527 1.045.696.697 1.045 1.544 1.045 2.543 0 .705-.19 1.346-.568 1.922-.378.577-.868 1.011-1.47 1.304 1.221.344 2.231 1.024 3.03 2.039.8 1.015 1.2 2.246 1.2 3.691 0 1.445-.563 2.727-1.69 3.846-1.126 1.118-2.48 1.678-4.061 1.678-1.582 0-2.936-.56-4.062-1.678-1.126-1.119-1.69-2.4-1.69-3.846 0-1.445.4-2.676 1.2-3.691.8-1.015 1.81-1.695 3.03-2.04-.619-.292-1.117-.726-1.496-1.303-.378-.576-.567-1.217-.567-1.922M18.79 265.659c-.138 0-.237-.067-.297-.207-.06-.137-.039-.264.065-.385l8.716-7.874c1.135-1.05 1.702-2.272 1.702-3.663 0-1.394-.481-2.625-1.444-3.691-.963-1.07-2.145-1.603-3.546-1.603-1.401 0-2.6.45-3.597 1.344l-.903.824c-.103.088-.215.11-.335.067-.12-.045-.19-.12-.207-.235-.017-.11.018-.21.104-.294l.902-.852c1.118-1 2.472-1.5 4.062-1.5 1.59 0 2.961.631 4.113 1.887.997 1.134 1.496 2.5 1.496 4.091 0 1.592-.645 2.954-1.934 4.091l-8.098 7.357h9.723c.206 0 .309.1.309.307 0 .088-.03.164-.09.235-.06.066-.133.1-.22.1H18.79zM36.507 250.665c-1.118 1.667-1.676 3.654-1.676 5.96 0 2.308.558 4.296 1.676 5.963 1.049 1.617 2.325 2.428 3.83 2.428 1.504 0 2.78-.81 3.83-2.428 1.117-1.618 1.675-3.605 1.675-5.963 0-2.355-.558-4.343-1.676-5.96-1.049-1.618-2.325-2.428-3.83-2.428-1.504 0-2.78.81-3.83 2.428m3.818-3.076c1.736.022 3.197.912 4.384 2.674 1.186 1.763 1.78 3.88 1.78 6.351 0 2.47-.59 4.586-1.767 6.36-1.178 1.773-2.644 2.668-4.397 2.685-1.72-.017-3.172-.912-4.359-2.684-1.186-1.775-1.78-3.891-1.78-6.36 0-2.472.594-4.589 1.78-6.352 1.187-1.762 2.64-2.652 4.359-2.674M55.254 247.951c0-.084.035-.16.104-.23.068-.069.137-.101.206-.101.223 0 .335.107.335.331v17.371c0 .228-.112.336-.335.336-.086 0-.16-.033-.22-.1-.06-.072-.09-.148-.09-.236v-17.37zm-3.146 2.454c-.034.015-.107.024-.219.024s-.193-.075-.245-.23c-.052-.155 0-.273.155-.362l3.61-2.142c.19-.14.335-.11.439.093.103.197.06.344-.13.45l-3.61 2.167zM64.462 265.453c-.035.137-.108.202-.22.193-.111-.008-.176-.013-.193-.013-.19-.084-.25-.23-.18-.436l7.091-16.909h-9.516c-.223 0-.335-.11-.335-.338 0-.083.034-.159.103-.23.069-.066.146-.1.232-.1h10.058c.086 0 .163.038.232.113.069.08.103.146.103.205 0 .064-.034.144-.103.249l-7.272 17.266zM18.79 358.582c-.138 0-.237-.071-.297-.207-.06-.137-.039-.269.065-.389l8.716-7.87c1.135-1.05 1.702-2.272 1.702-3.668 0-1.393-.481-2.624-1.444-3.69-.963-1.065-2.145-1.599-3.546-1.599-1.401 0-2.6.445-3.597 1.34l-.903.828c-.103.084-.215.106-.335.065-.12-.043-.19-.123-.207-.232-.017-.114.018-.211.104-.3l.902-.851c1.118-.996 2.472-1.495 4.062-1.495 1.59 0 2.961.63 4.113 1.882.997 1.138 1.496 2.5 1.496 4.091 0 1.592-.645 2.958-1.934 4.091l-8.098 7.356h9.723c.206 0 .309.106.309.312 0 .084-.03.164-.09.23-.06.071-.133.106-.22.106H18.79zM36.507 343.584c-1.118 1.667-1.676 3.659-1.676 5.96 0 2.308.558 4.296 1.676 5.967 1.049 1.618 2.325 2.424 3.83 2.424 1.504 0 2.78-.806 3.83-2.424 1.117-1.617 1.675-3.605 1.675-5.967 0-2.355-.558-4.342-1.676-5.96-1.049-1.617-2.325-2.424-3.83-2.424-1.504 0-2.78.807-3.83 2.424m3.818-3.071c1.736.017 3.197.907 4.384 2.671 1.186 1.766 1.78 3.883 1.78 6.35 0 2.469-.59 4.59-1.767 6.364-1.178 1.773-2.644 2.667-4.397 2.685-1.72-.018-3.172-.912-4.359-2.685-1.186-1.774-1.78-3.895-1.78-6.364 0-2.467.594-4.584 1.78-6.35 1.187-1.764 2.64-2.654 4.359-2.671M55.254 340.874c0-.083.035-.163.104-.23.068-.073.137-.105.206-.105.223 0 .335.112.335.335v17.371c0 .224-.112.336-.335.336-.086 0-.16-.032-.22-.103-.06-.07-.09-.149-.09-.233v-17.37zm-3.146 2.455c-.034.015-.107.023-.219.023s-.193-.08-.245-.234c-.052-.15 0-.273.155-.362l3.61-2.138c.19-.14.335-.11.439.089.103.198.06.348-.13.453l-3.61 2.169zM67.027 347.533c-1.435 0-2.66.508-3.675 1.525-1.014 1.013-1.521 2.24-1.521 3.676 0 1.437.507 2.663 1.521 3.68 1.015 1.013 2.24 1.521 3.675 1.521 1.436 0 2.657-.508 3.662-1.52 1.006-1.018 1.526-2.248 1.56-3.694-.034-1.445-.554-2.671-1.56-3.676-1.005-1.009-2.226-1.512-3.662-1.512m-5.815 5.861c-.069-.073-.103-.722-.103-1.963 0-1.24.163-2.5.49-3.78.326-1.282.803-2.454 1.431-3.512.628-1.058 1.466-1.912 2.514-2.566 1.05-.656 2.244-1.009 3.585-1.06.224 0 .335.11.335.324 0 .213-.094.323-.283.323-2.201.1-3.916.991-5.145 2.667-1.23 1.682-1.964 3.75-2.205 6.21.481-.962 1.186-1.732 2.115-2.297.928-.568 1.95-.85 3.068-.85 1.616 0 2.996.568 4.14 1.701 1.143 1.136 1.723 2.513 1.74 4.13-.017 1.618-.597 3-1.74 4.143-1.144 1.146-2.498 1.718-4.062 1.718-1.565 0-2.897-.496-3.998-1.488-1.1-.987-1.727-2.222-1.882-3.7" mask="url(#prefix__b)"/>
        <path fill="#000" d="M133.368 128.151c0-.28.237-.537.537-.537.301 0 .538.258.538.537 0 .302-.237.538-.538.538-.3 0-.537-.236-.537-.538m0 2.173c0-.301.237-.538.537-.538.301 0 .538.237.538.538 0 .301-.237.538-.538.538-.3 0-.537-.237-.537-.538m0 2.15c0-.3.237-.537.537-.537.301 0 .538.237.538.538 0 .301-.237.538-.538.538-.3 0-.537-.237-.537-.538m0 2.15c0-.3.237-.537.537-.537.301 0 .538.237.538.538 0 .301-.237.538-.538.538-.3 0-.537-.237-.537-.538m0 2.172c0-.3.237-.537.537-.537.301 0 .538.236.538.537 0 .28-.237.538-.538.538-.3 0-.537-.258-.537-.538m0 2.151c0-.3.237-.538.537-.538.301 0 .538.237.538.538 0 .301-.237.538-.538.538-.3 0-.537-.237-.537-.538m0 2.151c0-.301.237-.538.537-.538.301 0 .538.237.538.538 0 .301-.237.538-.538.538-.3 0-.537-.237-.537-.538m0 2.151c0-.28.237-.538.537-.538.301 0 .538.258.538.538 0 .301-.237.538-.538.538-.3 0-.537-.237-.537-.538m0 2.173c0-.302.237-.538.537-.538.301 0 .538.236.538.538 0 .28-.237.537-.538.537-.3 0-.537-.258-.537-.537m0 2.15c0-.3.237-.537.537-.537.301 0 .538.236.538.538 0 .3-.237.537-.538.537-.3 0-.537-.236-.537-.537m0 2.15c0-.28.237-.537.537-.537.301 0 .538.258.538.537 0 .302-.237.538-.538.538-.3 0-.537-.236-.537-.538m0 2.173c0-.301.237-.538.537-.538.301 0 .538.237.538.538 0 .28-.237.538-.538.538-.3 0-.537-.258-.537-.538m0 2.15c0-.3.237-.537.537-.537.301 0 .538.237.538.538 0 .301-.237.538-.538.538-.3 0-.537-.237-.537-.538m0 2.15c0-.279.237-.537.537-.537.301 0 .538.258.538.538 0 .3-.237.538-.538.538-.3 0-.537-.237-.537-.538m0 2.172c0-.3.237-.559.537-.559.301 0 .538.258.538.56 0 .279-.237.537-.538.537-.3 0-.537-.258-.537-.538m0 2.151c0-.3.237-.538.537-.538.301 0 .538.237.538.538 0 .301-.237.538-.538.538-.3 0-.537-.237-.537-.538m0 2.151c0-.301.237-.538.537-.538.301 0 .538.237.538.538 0 .301-.237.538-.538.538-.3 0-.537-.237-.537-.538m0 2.151c0-.28.237-.538.537-.538.301 0 .538.258.538.538 0 .301-.237.56-.538.56-.3 0-.537-.259-.537-.56m0 2.173c0-.302.237-.538.537-.538.301 0 .538.236.538.538 0 .3-.237.537-.538.537-.3 0-.537-.236-.537-.537m0 2.15c0-.3.237-.537.537-.537.301 0 .538.236.538.537 0 .302-.237.538-.538.538-.3 0-.537-.236-.537-.538m0 2.151c0-.3.237-.537.537-.537.301 0 .538.236.538.537 0 .302-.237.538-.538.538-.3 0-.537-.236-.537-.538m0 2.173c0-.301.237-.538.537-.538.301 0 .538.237.538.538 0 .28-.237.538-.538.538-.3 0-.537-.259-.537-.538m0 2.15c0-.3.237-.537.537-.537.301 0 .538.237.538.538 0 .3-.237.538-.538.538-.3 0-.537-.237-.537-.538m0 2.15c0-.3.237-.537.537-.537.301 0 .538.237.538.538 0 .3-.237.537-.538.537-.3 0-.537-.236-.537-.537m0 2.172c0-.3.237-.538.537-.538.301 0 .538.237.538.538 0 .28-.237.538-.538.538-.3 0-.537-.258-.537-.538m0 2.151c0-.301.237-.538.537-.538.301 0 .538.237.538.538 0 .301-.237.538-.538.538-.3 0-.537-.237-.537-.538m0 2.151c0-.301.237-.538.537-.538.301 0 .538.237.538.538 0 .301-.237.538-.538.538-.3 0-.537-.237-.537-.538m0 2.173c0-.302.237-.56.537-.56.301 0 .538.258.538.56 0 .28-.237.516-.538.516-.3 0-.537-.237-.537-.516m0 2.15c0-.3.237-.537.537-.537.301 0 .538.236.538.537 0 .302-.237.538-.538.538-.3 0-.537-.236-.537-.538m0 2.151c0-.3.237-.537.537-.537.301 0 .538.236.538.537 0 .302-.237.538-.538.538-.3 0-.537-.236-.537-.538m0 2.151c0-.28.237-.537.537-.537.301 0 .538.258.538.537 0 .302-.237.538-.538.538-.3 0-.537-.236-.537-.538m0 2.173c0-.301.237-.538.537-.538.301 0 .538.237.538.538 0 .28-.237.538-.538.538-.3 0-.537-.259-.537-.538m0 2.15c0-.3.237-.537.537-.537.301 0 .538.237.538.538 0 .3-.237.538-.538.538-.3 0-.537-.237-.537-.538m0 2.15c0-.3.237-.537.537-.537.301 0 .538.237.538.538 0 .3-.237.537-.538.537-.3 0-.537-.236-.537-.537m0 2.15c0-.279.237-.516.537-.516.301 0 .538.237.538.517 0 .3-.237.559-.538.559-.3 0-.537-.258-.537-.56m0 2.173c0-.301.237-.538.537-.538.301 0 .538.237.538.538 0 .301-.237.538-.538.538-.3 0-.537-.237-.537-.538m0 2.151c0-.301.237-.538.537-.538.301 0 .538.237.538.538 0 .301-.237.538-.538.538-.3 0-.537-.237-.537-.538m0 2.151c0-.28.237-.538.537-.538.301 0 .538.258.538.538 0 .301-.237.538-.538.538-.3 0-.537-.237-.537-.538m0 2.172c0-.3.237-.537.537-.537.301 0 .538.236.538.537 0 .28-.237.538-.538.538-.3 0-.537-.258-.537-.538m0 2.151c0-.3.237-.537.537-.537.301 0 .538.236.538.537 0 .302-.237.538-.538.538-.3 0-.537-.236-.537-.538m0 2.151c0-.28.237-.537.537-.537.301 0 .538.258.538.537 0 .301-.237.538-.538.538-.3 0-.537-.237-.537-.538m0 2.173c0-.301.237-.538.537-.538.301 0 .538.237.538.538 0 .28-.237.538-.538.538-.3 0-.537-.259-.537-.538m0 2.15c0-.3.237-.537.537-.537.301 0 .538.237.538.538 0 .3-.237.537-.538.537-.3 0-.537-.236-.537-.537m0 2.15c0-.3.237-.537.537-.537.301 0 .538.237.538.538 0 .3-.237.537-.538.537-.3 0-.537-.236-.537-.537m0 2.172c0-.301.237-.538.537-.538.301 0 .538.237.538.538 0 .28-.237.538-.538.538-.3 0-.537-.258-.537-.538m0 2.151c0-.301.237-.538.537-.538.301 0 .538.237.538.538 0 .301-.237.538-.538.538-.3 0-.537-.237-.537-.538m0 2.151c0-.301.237-.538.537-.538.301 0 .538.237.538.538 0 .301-.237.538-.538.538-.3 0-.537-.237-.537-.538m0 2.151c0-.28.237-.538.537-.538.301 0 .538.258.538.538 0 .299-.237.538-.538.538-.3 0-.537-.24-.537-.538m0 2.17c0-.299.237-.537.537-.537.301 0 .538.238.538.537 0 .28-.237.538-.538.538-.3 0-.537-.258-.537-.538m0 2.151c0-.299.237-.538.537-.538.301 0 .538.24.538.538 0 .303-.237.538-.538.538-.3 0-.537-.235-.537-.538m0 2.151c0-.299.237-.538.537-.538.301 0 .538.24.538.538 0 .303-.237.538-.538.538-.3 0-.537-.235-.537-.538m0 2.175c0-.301.237-.538.537-.538.301 0 .538.237.538.538 0 .28-.237.537-.538.537-.3 0-.537-.258-.537-.537m0 2.15c0-.3.237-.537.537-.537.301 0 .538.237.538.538 0 .3-.237.537-.538.537-.3 0-.537-.236-.537-.537m0 2.15c0-.3.237-.537.537-.537.301 0 .538.237.538.538 0 .3-.237.537-.538.537-.3 0-.537-.236-.537-.537m0 2.172c0-.303.237-.56.537-.56.301 0 .538.257.538.56 0 .28-.237.516-.538.516-.3 0-.537-.236-.537-.516m0 2.151c0-.303.237-.538.537-.538.301 0 .538.235.538.538 0 .301-.237.538-.538.538-.3 0-.537-.237-.537-.538m0 2.151c0-.303.237-.538.537-.538.301 0 .538.235.538.538 0 .301-.237.538-.538.538-.3 0-.537-.237-.537-.538m0 2.15c0-.279.237-.537.537-.537.301 0 .538.258.538.538 0 .301-.237.538-.538.538-.3 0-.537-.237-.537-.538m0 2.172c0-.3.237-.537.537-.537.301 0 .538.236.538.537 0 .28-.237.538-.538.538-.3 0-.537-.258-.537-.538m0 2.151c0-.3.237-.537.537-.537.301 0 .538.236.538.537 0 .3-.237.538-.538.538-.3 0-.537-.239-.537-.538m0 2.151c0-.3.237-.537.537-.537.301 0 .538.236.538.537 0 .3-.237.538-.538.538-.3 0-.537-.239-.537-.538m0 2.17c0-.298.237-.537.537-.537.301 0 .538.239.538.538 0 .28-.237.537-.538.537-.3 0-.537-.258-.537-.537m0 2.15c0-.298.237-.537.537-.537.301 0 .538.239.538.538 0 .303-.237.537-.538.537-.3 0-.537-.234-.537-.537m0 2.15c0-.299.237-.537.537-.537.301 0 .538.238.538.537 0 .304-.237.538-.538.538-.3 0-.537-.234-.537-.538m0 2.151c0-.277.237-.537.537-.537.301 0 .538.26.538.537 0 .304-.237.538-.538.538-.3 0-.537-.234-.537-.538m0 2.175c0-.301.237-.538.537-.538.301 0 .538.237.538.538 0 .301-.237.538-.538.538-.3 0-.537-.237-.537-.538m0 2.15c0-.3.237-.537.537-.537.301 0 .538.237.538.538 0 .301-.237.538-.538.538-.3 0-.537-.237-.537-.538m0 2.15c0-.28.237-.537.537-.537.301 0 .538.256.538.538 0 .301-.237.538-.538.538-.3 0-.537-.237-.537-.538m0 2.172c0-.303.237-.537.537-.537.301 0 .538.234.538.537 0 .301-.237.538-.538.538-.3 0-.537-.237-.537-.538m0 2.151c0-.303.237-.537.537-.537.301 0 .538.234.538.537 0 .301-.237.538-.538.538-.3 0-.537-.237-.537-.538m0 2.151c0-.303.237-.538.537-.538.301 0 .538.235.538.538 0 .301-.237.538-.538.538-.3 0-.537-.237-.537-.538m0 2.173c0-.301.237-.538.537-.538.301 0 .538.237.538.538 0 .299-.237.537-.538.537-.3 0-.537-.238-.537-.537m0 2.15c0-.3.237-.537.537-.537.301 0 .538.236.538.538 0 .299-.237.537-.538.537-.3 0-.537-.238-.537-.537m0 2.15c0-.3.237-.537.537-.537.301 0 .538.236.538.538 0 .299-.237.537-.538.537-.3 0-.537-.238-.537-.537m0 2.15c0-.28.237-.537.537-.537.301 0 .538.258.538.538 0 .298-.237.557-.538.557-.3 0-.537-.259-.537-.557m0 2.17c0-.3.237-.538.537-.538.301 0 .538.239.538.538 0 .28-.237.538-.538.538-.3 0-.537-.259-.537-.538m0 2.15c0-.298.237-.537.537-.537.301 0 .538.239.538.538 0 .303-.237.537-.538.537-.3 0-.537-.234-.537-.537m0 2.15c0-.298.237-.537.537-.537.301 0 .538.239.538.538 0 .303-.237.537-.538.537-.3 0-.537-.234-.537-.537m0 2.174c0-.3.237-.537.537-.537.301 0 .538.236.538.537 0 .28-.237.538-.538.538-.3 0-.537-.258-.537-.538m0 2.151c0-.3.237-.537.537-.537.301 0 .538.236.538.537 0 .301-.237.538-.538.538-.3 0-.537-.237-.537-.538m0 2.151c0-.3.237-.538.537-.538.301 0 .538.237.538.538 0 .301-.237.538-.538.538-.3 0-.537-.237-.537-.538m0 2.173c0-.304.237-.538.537-.538.301 0 .538.234.538.538 0 .28-.237.537-.538.537-.3 0-.537-.258-.537-.537m0 2.15c0-.303.237-.537.537-.537.301 0 .538.234.538.538 0 .3-.237.537-.538.537-.3 0-.537-.236-.537-.537m0 2.15c0-.303.237-.537.537-.537.301 0 .538.234.538.538 0 .3-.237.537-.538.537-.3 0-.537-.236-.537-.537m0 2.172c0-.301.237-.56.537-.56.301 0 .538.259.538.56 0 .28-.237.516-.538.516-.3 0-.537-.236-.537-.516m0 2.15c0-.3.237-.537.537-.537.301 0 .538.237.538.538 0 .299-.237.538-.538.538-.3 0-.537-.24-.537-.538m0 2.15c0-.3.237-.537.537-.537.301 0 .538.237.538.538 0 .299-.237.538-.538.538-.3 0-.537-.24-.537-.538m0 2.15c0-.279.237-.537.537-.537.301 0 .538.258.538.538 0 .299-.237.538-.538.538-.3 0-.537-.24-.537-.538m0 2.172c0-.3.237-.537.537-.537.301 0 .538.236.538.537 0 .278-.237.538-.538.538-.3 0-.537-.26-.537-.538m0 2.151c0-.3.237-.538.537-.538.301 0 .538.237.538.538 0 .301-.237.538-.538.538-.3 0-.537-.237-.537-.538m0 2.151c0-.301.237-.538.537-.538.301 0 .538.237.538.538 0 .301-.237.538-.538.538-.3 0-.537-.237-.537-.538m0 2.151c0-.28.237-.518.537-.518.301 0 .538.238.538.518 0 .301-.237.557-.538.557-.3 0-.537-.256-.537-.557m0 2.17c0-.299.237-.537.537-.537.301 0 .538.238.538.537 0 .304-.237.538-.538.538-.3 0-.537-.234-.537-.538m0 2.151c0-.299.237-.537.537-.537.301 0 .538.238.538.537 0 .304-.237.538-.538.538-.3 0-.537-.234-.537-.538m0 2.151c0-.28.237-.537.537-.537.301 0 .538.258.538.537 0 .304-.237.538-.538.538-.3 0-.537-.234-.537-.538m0 2.175c0-.303.237-.538.537-.538.301 0 .538.235.538.538 0 .301-.237.538-.538.538-.3 0-.537-.237-.537-.538m0 2.15c0-.302.237-.537.537-.537.301 0 .538.235.538.538 0 .301-.237.538-.538.538-.3 0-.537-.237-.537-.538m0 2.15c0-.279.237-.537.537-.537.301 0 .538.258.538.538 0 .3-.237.538-.538.538-.3 0-.537-.237-.537-.538m0 2.172c0-.3.237-.538.537-.538.301 0 .538.237.538.538 0 .3-.237.538-.538.538-.3 0-.537-.239-.537-.538m0 2.151c0-.301.237-.538.537-.538.301 0 .538.237.538.538 0 .3-.237.538-.538.538-.3 0-.537-.239-.537-.538m0 2.151c0-.301.237-.538.537-.538.301 0 .538.237.538.538 0 .3-.237.538-.538.538-.3 0-.537-.239-.537-.538m0 2.173c0-.302.237-.538.537-.538.301 0 .538.236.538.538 0 .277-.237.537-.538.537-.3 0-.537-.26-.537-.537m0 2.15c0-.3.237-.537.537-.537.301 0 .538.236.538.538 0 .3-.237.537-.538.537-.3 0-.537-.236-.537-.537m0 2.15c0-.3.237-.537.537-.537.301 0 .538.236.538.537 0 .302-.237.538-.538.538-.3 0-.537-.236-.537-.538m0 2.151c0-.28.237-.537.537-.537.301 0 .538.258.538.537 0 .302-.237.538-.538.538-.3 0-.537-.236-.537-.538m0 2.17c0-.298.237-.537.537-.537.301 0 .538.239.538.538 0 .281-.237.537-.538.537-.3 0-.537-.256-.537-.537m0 2.15c0-.298.237-.537.537-.537.301 0 .538.239.538.538 0 .303-.237.537-.538.537-.3 0-.537-.234-.537-.537m0 2.15c0-.298.237-.537.537-.537.301 0 .538.239.538.538 0 .303-.237.537-.538.537-.3 0-.537-.234-.537-.537m0 2.174c0-.303.237-.538.537-.538.301 0 .538.235.538.538 0 .28-.237.538-.538.538-.3 0-.537-.258-.537-.538m0 2.151c0-.303.237-.538.537-.538.301 0 .538.235.538.538 0 .301-.237.538-.538.538-.3 0-.537-.237-.537-.538m0 2.151c0-.303.237-.538.537-.538.301 0 .538.235.538.538 0 .301-.237.538-.538.538-.3 0-.537-.237-.537-.538m0 2.173c0-.302.237-.538.537-.538.301 0 .538.236.538.538 0 .299-.237.537-.538.537-.3 0-.537-.238-.537-.537m0 2.15c0-.3.237-.537.537-.537.301 0 .538.236.538.537 0 .3-.237.538-.538.538-.3 0-.537-.239-.537-.538m0 2.151c0-.3.237-.537.537-.537.301 0 .538.236.538.537 0 .3-.237.538-.538.538-.3 0-.537-.239-.537-.538m0 2.151c0-.28.237-.537.537-.537.301 0 .538.258.538.537 0 .3-.237.56-.538.56-.3 0-.537-.26-.537-.56m0 2.173c0-.301.237-.538.537-.538.301 0 .538.237.538.538 0 .277-.237.538-.538.538-.3 0-.537-.26-.537-.538m0 2.15c0-.3.237-.537.537-.537.301 0 .538.237.538.538 0 .3-.237.537-.538.537-.3 0-.537-.236-.537-.537m0 2.15c0-.3.237-.537.537-.537.301 0 .538.237.538.538 0 .3-.237.557-.538.557-.3 0-.537-.256-.537-.557" mask="url(#prefix__b)"/>
        <path fill="#000" d="M133.91 383.15c-.296 0-.537-.241-.537-.538l.013-256.61c0-.297.24-.537.537-.537.3 0 .538.24.538.537l-.013 256.61c0 .297-.24.538-.537.538" mask="url(#prefix__b)"/>
        <path fill="#98304A" d="M131.762 109.997L136.06 109.997 136.06 84.085 131.762 84.085zM376.689 109.997L380.987 109.997 380.987 84.085 376.689 84.085zM621.616 109.997L625.914 109.997 625.914 84.085 621.616 84.085z" mask="url(#prefix__b)"/>
        <path fill="#1A1919" d="M128.914 54.799c-.931 1.392-1.397 3.048-1.397 4.969 0 1.923.466 3.579 1.397 4.968.874 1.349 1.938 2.022 3.19 2.022 1.254 0 2.318-.673 3.192-2.022.93-1.346 1.397-3.002 1.397-4.968 0-1.964-.466-3.62-1.397-4.97-.874-1.346-1.938-2.02-3.191-2.02s-2.317.674-3.191 2.02m3.18-2.559c1.447.015 2.665.757 3.654 2.227.988 1.469 1.482 3.235 1.482 5.29 0 2.06-.49 3.825-1.472 5.303-.98 1.478-2.202 2.224-3.664 2.237-1.433-.013-2.643-.76-3.632-2.237-.988-1.478-1.483-3.244-1.483-5.302 0-2.056.495-3.822 1.483-5.291.989-1.47 2.199-2.212 3.632-2.227M365.374 67.296c-.118 0-.198-.056-.247-.172-.052-.114-.034-.221.054-.323l7.261-6.56c.946-.875 1.419-1.893 1.419-3.054 0-1.162-.4-2.188-1.202-3.076-.803-.888-1.788-1.334-2.955-1.334-1.169 0-2.168.372-3 1.119l-.75.688c-.088.073-.18.09-.28.054-.1-.035-.158-.101-.171-.194-.015-.092.013-.176.086-.247l.75-.71c.933-.832 2.061-1.247 3.385-1.247 1.326 0 2.47.524 3.428 1.57.831.946 1.246 2.082 1.246 3.409s-.537 2.463-1.612 3.41l-6.746 6.13h8.102c.172 0 .256.085.256.258 0 .07-.026.137-.075.193-.05.058-.11.086-.18.086h-8.769zM377.966 69.232c0-.114.056-.209.172-.28.73-.4 1.066-.953 1.01-1.656-.387-.099-.582-.35-.582-.753v-.452c0-.2.07-.367.206-.505.136-.136.305-.204.503-.204.202 0 .37.068.507.204.136.138.202.305.202.505v.538c0 1.104-.208 1.867-.632 2.29-.423.425-.76.635-1.01.635-.249 0-.376-.107-.376-.322M390.214 65.812c-.973.99-2.149 1.484-3.524 1.484-1.373 0-2.558-.495-3.544-1.484-.088-.071-.114-.157-.075-.258.032-.101.1-.166.193-.194.093-.028.183-.006.269.065.902.875 1.96 1.312 3.168 1.312 1.212 0 2.254-.437 3.126-1.312.875-.873 1.314-1.93 1.314-3.162 0-1.233-.435-2.28-1.3-3.14-.869-.86-1.909-1.291-3.128-1.291-1.218 0-2.278.43-3.18 1.29-.03.059-.084.087-.163.087-.078 0-.147-.022-.203-.065-.03 0-.042-.013-.042-.043-.059-.056-.08-.135-.067-.237l.754-6.345c.026-.187.142-.28.344-.28h7.264c.07 0 .135.03.191.087.06.058.086.122.086.193 0 .187-.094.28-.277.28h-7.07l-.645 5.463c.872-.658 1.867-.99 2.985-.99 1.405 0 2.592.489 3.57 1.463.958.99 1.437 2.177 1.437 3.56s-.492 2.556-1.483 3.517M398.08 54.799c-.932 1.392-1.397 3.048-1.397 4.969 0 1.923.465 3.579 1.397 4.968.873 1.349 1.939 2.022 3.192 2.022 1.253 0 2.316-.673 3.193-2.022.929-1.346 1.395-3.002 1.395-4.968 0-1.964-.466-3.62-1.395-4.97-.877-1.346-1.94-2.02-3.193-2.02-1.253 0-2.32.674-3.192 2.02m3.18-2.559c1.447.015 2.668.757 3.654 2.227.991 1.469 1.483 3.235 1.483 5.29 0 2.06-.49 3.825-1.47 5.303-.982 1.478-2.205 2.224-3.666 2.237-1.434-.013-2.643-.76-3.632-2.237-.989-1.478-1.483-3.244-1.483-5.302 0-2.056.494-3.822 1.483-5.291.989-1.47 2.198-2.212 3.632-2.227M611.145 65.812c-.976.99-2.15 1.484-3.527 1.484-1.373 0-2.555-.495-3.544-1.484-.086-.071-.112-.157-.075-.258.034-.101.099-.166.193-.194.093-.028.183-.006.269.065.903.875 1.958 1.312 3.168 1.312 1.212 0 2.254-.437 3.127-1.312.876-.873 1.313-1.93 1.313-3.162 0-1.233-.434-2.28-1.303-3.14-.866-.86-1.906-1.291-3.127-1.291-1.216 0-2.275.43-3.178 1.29-.03.059-.082.087-.163.087-.078 0-.147-.022-.202-.065-.03 0-.046-.013-.046-.043-.055-.056-.077-.135-.062-.237l.752-6.345c.028-.187.142-.28.344-.28h7.264c.07 0 .135.03.191.087.058.058.086.122.086.193 0 .187-.092.28-.277.28h-7.07l-.645 5.463c.872-.658 1.87-.99 2.985-.99 1.405 0 2.594.489 3.57 1.463.958.99 1.437 2.177 1.437 3.56s-.492 2.556-1.48 3.517M616.838 69.232c0-.114.056-.209.172-.28.73-.4 1.066-.953 1.01-1.656-.387-.099-.58-.35-.58-.753v-.452c0-.2.069-.367.204-.505.136-.136.305-.204.505-.204s.368.068.505.204c.136.138.204.305.204.505v.538c0 1.104-.21 1.867-.634 2.29-.423.425-.758.635-1.01.635-.249 0-.376-.107-.376-.322M623.95 54.799c-.932 1.392-1.394 3.048-1.394 4.969 0 1.923.462 3.579 1.395 4.968.874 1.349 1.936 2.022 3.191 2.022 1.253 0 2.317-.673 3.191-2.022.93-1.346 1.397-3.002 1.397-4.968 0-1.964-.466-3.62-1.397-4.97-.874-1.346-1.938-2.02-3.191-2.02-1.255 0-2.317.674-3.191 2.02m3.18-2.559c1.447.015 2.665.757 3.656 2.227.988 1.469 1.48 3.235 1.48 5.29 0 2.06-.49 3.825-1.47 5.303-.982 1.478-2.204 2.224-3.666 2.237-1.433-.013-2.643-.76-3.632-2.237-.988-1.478-1.48-3.244-1.48-5.302 0-2.056.492-3.822 1.48-5.291.989-1.47 2.199-2.212 3.632-2.227M639.208 54.799c-.932 1.392-1.394 3.048-1.394 4.969 0 1.923.462 3.579 1.394 4.968.875 1.349 1.937 2.022 3.192 2.022 1.253 0 2.316-.673 3.191-2.022.93-1.346 1.397-3.002 1.397-4.968 0-1.964-.466-3.62-1.397-4.97-.875-1.346-1.938-2.02-3.191-2.02-1.255 0-2.317.674-3.192 2.02m3.181-2.559c1.446.015 2.665.757 3.656 2.227.988 1.469 1.48 3.235 1.48 5.29 0 2.06-.49 3.825-1.47 5.303-.982 1.478-2.205 2.224-3.666 2.237-1.433-.013-2.643-.76-3.632-2.237-.989-1.478-1.48-3.244-1.48-5.302 0-2.056.491-3.822 1.48-5.291.989-1.47 2.199-2.212 3.632-2.227" mask="url(#prefix__b)"/>
        <path fill="#98304A" d="M85.748 168.683L291.654 168.683 291.654 153.027 85.748 153.027zM305.411 167.116v-13.013l-2.127 1.248c-.086.058-.2.086-.344.086-.144 0-.265-.086-.366-.258-.172-.314-.107-.55.194-.71l2.901-1.764c.114-.07.252-.086.408-.043.301.086.424.295.366.624v13.83c0 .145-.05.267-.15.366-.102.101-.222.15-.366.15s-.264-.049-.365-.15c-.101-.099-.15-.221-.15-.366M310.14 169.569c0-.114.055-.209.171-.28.731-.4 1.069-.953 1.01-1.656-.386-.099-.58-.35-.58-.753v-.452c0-.2.07-.367.204-.505.136-.136.306-.204.506-.204s.37.068.505.204c.135.138.204.305.204.505v.538c0 1.104-.213 1.867-.634 2.29-.424.425-.759.635-1.01.635-.252 0-.376-.107-.376-.322M316.393 162.664v.086c0 .074.006.155.021.248.015.094.015.155 0 .183.129.961.56 1.768 1.3 2.42.737.651 1.627.978 2.665.978s1.945-.383 2.719-1.15c.773-.766 1.16-1.69 1.16-2.765 0-1.075-.387-1.996-1.16-2.764-.774-.767-1.7-1.15-2.783-1.15-1.081 0-2.006.383-2.773 1.15-.767.768-1.15 1.689-1.15 2.764m-1.096-.817c.028-2.336.516-4.33 1.462-5.98 1.188-2.092 2.944-3.183 5.265-3.269.144-.015.264.028.365.13.1.1.155.22.162.365.006.144-.04.269-.14.376-.101.108-.221.17-.365.183-1.877.071-3.338.983-4.385 2.732-.472.817-.83 1.822-1.074 3.011.988-1.131 2.203-1.7 3.643-1.7s2.643.489 3.61 1.463c.967.977 1.45 2.15 1.45 3.517 0 1.37-.483 2.538-1.45 3.506s-2.134 1.452-3.503 1.452c-1.369 0-2.532-.467-3.492-1.398-.96-.931-1.462-2.065-1.505-3.398-.027-.216-.043-.545-.043-.99M332.295 167.31c-.098.216-.262.323-.483.323-.222 0-.372-.09-.451-.269-.08-.18-.097-.333-.054-.462l5.566-13.207h-7.264c-.142 0-.266-.051-.365-.15-.101-.101-.15-.222-.15-.366s.049-.265.15-.366c.099-.1.223-.15.365-.15h7.952c.114-.028.221-.022.322.021.215.101.322.237.322.409s-.028.295-.086.366l-5.824 13.852zM85.748 262.899L518.069 262.899 518.069 247.242 85.748 247.242z" mask="url(#prefix__b)"/>
        <path fill="#FFFFFE" d="M534.086 264.218L618.586 264.218 618.586 240.34 534.086 240.34z" mask="url(#prefix__b)"/>
        <path fill="#98304A" d="M544.465 247.569c-.013.054-.05.114-.108.172l-3.888 3.999c1.002.202 1.862.66 2.577 1.378.99.988 1.483 2.194 1.483 3.614s-.5 2.624-1.504 3.62c-1.004 1-2.205 1.497-3.61 1.497-1.404 0-2.601-.501-3.59-1.506-.099-.099-.15-.226-.15-.376 0-.153.051-.273.15-.374.101-.101.224-.15.366-.15.144 0 .273.049.386.15.802.772 1.754 1.159 2.859 1.159 1.104 0 2.048-.391 2.836-1.172.791-.781 1.182-1.732 1.182-2.848 0-1.123-.389-2.071-1.17-2.852-.78-.783-1.73-1.173-2.848-1.173-.172 0-.314-.073-.428-.215h-.024c-.116-.1-.17-.23-.17-.387 0-.159.054-.284.17-.385l3.74-3.852h-5.76c-.144 0-.268-.052-.374-.153-.11-.097-.163-.226-.163-.385 0-.157.054-.286.163-.387.106-.101.23-.15.374-.15h7.028c.159 0 .288.049.389.15.099.101.148.215.148.344 0 .131-.02.224-.064.282M548.356 263.785c0-.114.056-.206.172-.282.73-.398 1.065-.953 1.01-1.654-.387-.1-.583-.348-.583-.753v-.45c0-.201.071-.37.207-.507.135-.135.305-.202.502-.202.202 0 .37.067.508.202.135.138.202.306.202.508v.538c0 1.1-.209 1.864-.632 2.288-.424.422-.761.635-1.01.635-.25 0-.376-.108-.376-.323M554.61 251.749c0 1.084.382 2.005 1.15 2.764.764.761 1.69 1.142 2.782 1.142 1.088 0 2.012-.38 2.77-1.142.761-.76 1.14-1.68 1.14-2.764 0-1.08-.383-2.005-1.148-2.764-.767-.757-1.691-1.138-2.774-1.138-1.081 0-2.006.38-2.77 1.138-.768.76-1.15 1.684-1.15 2.764m8.875-.525l.063 1.357c0 2.306-.477 4.307-1.438 6-1.219 2.09-2.977 3.183-5.267 3.267h-.022c-.157 0-.286-.045-.385-.138-.1-.092-.152-.21-.152-.357 0-.34.172-.53.518-.56 1.889-.07 3.352-.978 4.384-2.729.516-.903.874-1.908 1.074-3.013-.96 1.105-2.168 1.66-3.62 1.66-1.458 0-2.666-.488-3.633-1.454-.969-.966-1.45-2.138-1.45-3.508s.485-2.538 1.459-3.504c.975-.97 2.12-1.454 3.438-1.454s2.448.422 3.387 1.26c.937.837 1.479 1.883 1.62 3.13.016.013.024.03.024.043M567.309 253.656c-.015-.03-.017-.08-.01-.15.008-.073.01-.119.01-.132l.733-6.065c0-.155.07-.286.212-.387.086-.089.2-.13.346-.13h7.004c.144 0 .269.05.376.151.108.101.162.23.162.387 0 .16-.05.289-.15.385-.102.101-.229.153-.388.153h-6.552l-.537 4.474c.786-.458 1.637-.69 2.555-.69 1.418 0 2.62.492 3.602 1.475.98.983 1.47 2.192 1.47 3.624 0 1.433-.501 2.644-1.505 3.627-1.003.979-2.205 1.471-3.61 1.471-1.404 0-2.598-.497-3.587-1.484-.116-.101-.174-.226-.174-.379 0-.146.058-.277.174-.385.112-.105.243-.16.385-.16.144 0 .273.055.387.173.803.773 1.751 1.16 2.847 1.16s2.037-.396 2.828-1.181c.787-.79 1.18-1.745 1.18-2.86 0-1.124-.385-2.068-1.16-2.842-.774-.772-1.718-1.164-2.837-1.164-1.118 0-2.07.396-2.858 1.185-.114.101-.243.15-.387.15-.243 0-.406-.107-.492-.322v-.021c-.015-.013-.024-.037-.024-.063M85.748 357.113L405.372 357.113 405.372 341.46 85.748 341.46zM422.85 354.595c-.23-.269-.224-.53.02-.772l7.026-6.345c.862-.79 1.292-1.71 1.292-2.764 0-1.054-.36-1.98-1.075-2.777-.716-.794-1.612-1.192-2.686-1.192-1.075 0-1.986.331-2.732.99l-.728.664c-.114.101-.245.15-.387.15-.144 0-.262-.053-.355-.171-.094-.112-.142-.243-.142-.385 0-.144.06-.258.172-.347l.731-.688c.963-.843 2.121-1.269 3.484-1.269 1.36 0 2.514.538 3.46 1.613.86.92 1.287 2.059 1.287 3.42 0 1.366-.537 2.538-1.612 3.53l-6.015 5.44h7.111c.146 0 .267.053.366.163.1.106.15.232.15.374 0 .147-.05.27-.15.366-.1.101-.22.15-.366.15h-8.465c-.172 0-.303-.049-.387-.15M435.55 356.683c0-.114.054-.207.172-.282.731-.398 1.066-.953 1.008-1.654-.387-.101-.58-.348-.58-.753v-.45c0-.201.069-.37.206-.507.134-.135.303-.202.503-.202.202 0 .37.067.505.202.138.138.204.306.204.508v.537c0 1.102-.21 1.865-.631 2.29-.426.42-.761.634-1.013.634-.249 0-.374-.108-.374-.323M441.802 349.78v.084c0 .071.007.155.024.248.013.092.013.157 0 .18.127.964.559 1.77 1.298 2.42.737.656 1.627.979 2.663.979 1.042 0 1.949-.38 2.72-1.15.772-.764 1.161-1.685 1.161-2.76 0-1.076-.389-2-1.16-2.764-.772-.77-1.7-1.151-2.783-1.151-1.084 0-2.006.38-2.773 1.15-.765.764-1.15 1.69-1.15 2.765m-1.096-.82c.028-2.336.514-4.332 1.462-5.977 1.19-2.098 2.944-3.186 5.265-3.274.144-.01.264.03.365.131.101.101.155.222.162.366.006.142-.04.269-.14.378-.101.104-.224.168-.365.181-1.877.071-3.338.983-4.382 2.73-.475.82-.832 1.824-1.075 3.013.986-1.131 2.2-1.7 3.64-1.7s2.644.489 3.613 1.463c.965.975 1.449 2.147 1.449 3.517s-.484 2.538-1.449 3.508c-.97.966-2.136 1.45-3.505 1.45-1.369 0-2.532-.467-3.492-1.4-.96-.927-1.462-2.063-1.502-3.399-.03-.213-.046-.542-.046-.987M454.506 346.554c-.017-.03-.022-.08-.013-.15.009-.074.013-.119.013-.132l.73-6.065c0-.155.071-.286.213-.387.086-.089.202-.13.346-.13h7.004c.144 0 .269.05.376.151.108.101.161.23.161.387 0 .16-.05.288-.15.385-.101.101-.228.153-.387.153h-6.552l-.538 4.474c.787-.458 1.638-.69 2.558-.69 1.416 0 2.617.492 3.597 1.475.982.983 1.472 2.192 1.472 3.624 0 1.433-.5 2.644-1.504 3.627-1.001.979-2.205 1.471-3.61 1.471-1.404 0-2.599-.497-3.587-1.484-.116-.101-.174-.226-.174-.379 0-.146.058-.277.174-.385.114-.105.243-.16.384-.16.147 0 .271.055.39.173.801.772 1.749 1.16 2.845 1.16s2.04-.396 2.828-1.181c.787-.79 1.18-1.745 1.18-2.861 0-1.123-.385-2.067-1.16-2.841-.774-.773-1.718-1.164-2.835-1.164-1.12 0-2.072.396-2.859 1.185-.118.101-.242.15-.389.15-.242 0-.408-.107-.492-.322v-.021c-.017-.013-.021-.037-.021-.063M17.014 455.013L34.071 455.013 34.071 439.356 17.014 439.356zM40.43 452.043V440.82c0-.114.04-.208.12-.29.08-.08.178-.12.292-.12h6.19c.113 0 .21.04.292.12.08.082.12.18.12.299 0 .123-.04.224-.12.303-.082.08-.179.12-.293.12h-5.76v4.765h5.038c.114 0 .21.047.292.131.08.089.12.185.12.301 0 .114-.04.211-.12.29-.081.085-.178.123-.292.123h-5.037v4.752h5.76c.113 0 .21.036.292.116.08.082.12.18.12.303s-.04.224-.12.304c-.082.08-.179.116-.293.116h-6.223c-.104-.009-.194-.054-.267-.125-.075-.075-.112-.172-.112-.286M51.243 452.11c-.058.23-.19.344-.396.344h-.103c-.127-.032-.217-.11-.275-.221-.013-.013-.017-.03-.017-.052l-.017-.032v-7.694c0-.116.04-.213.12-.293.08-.08.178-.122.292-.122.114 0 .209.043.284.122.073.08.112.177.112.293v.806c.675-.815 1.515-1.221 2.519-1.221 1.003 0 1.84.335 2.51 1.008.67.672 1.005 1.478 1.005 2.416v4.58c0 .111-.04.212-.12.292-.082.082-.178.118-.292.118-.114 0-.213-.036-.292-.118-.082-.08-.12-.18-.12-.293v-4.579c0-.71-.252-1.319-.757-1.833-.505-.507-1.116-.763-1.831-.763-.716 0-1.326.251-1.831.755-.505.505-.768 1.118-.791 1.841v4.646zM66.528 445.624c-.596-.517-1.288-.773-2.072-.773-.787 0-1.476.256-2.072.764-.597.512-.973 1.168-1.134 1.97h6.378c-.138-.79-.505-1.445-1.1-1.961m1.994 2.323v.066c0 .119-.04.211-.12.278-.082.066-.179.105-.293.105h-6.911c.045.917.385 1.684 1.014 2.302.63.621 1.38.933 2.253.933.56 0 1.083-.137 1.564-.415.481-.273.864-.647 1.152-1.118.137-.226.32-.274.55-.138.23.163.275.357.138.587-.368.585-.851 1.046-1.453 1.392-.602.344-1.253.516-1.951.516-1.135 0-2.1-.409-2.897-1.23-.798-.82-1.195-1.811-1.195-2.975 0-1.164.397-2.16 1.195-2.988.797-.824 1.747-1.239 2.854-1.239 1.106 0 2.043.379 2.81 1.125.768.753 1.198 1.684 1.29 2.799M71.445 452.043v-7.586c0-.119.04-.216.12-.295.08-.08.179-.123.293-.123.113 0 .212.043.292.123.08.08.12.176.12.295v1.856c.045-.093.086-.16.12-.207.884-1.376 2.006-2.067 3.37-2.067.114 0 .21.043.293.123.079.08.12.176.12.295 0 .111-.041.208-.12.288-.082.081-.179.122-.293.122-.917 0-1.73.459-2.441 1.38-.413.55-.752 1.2-1.014 1.96-.024.042-.035.089-.035.134v3.702c0 .114-.04.215-.12.295-.08.08-.179.116-.292.116-.114 0-.213-.037-.293-.116-.08-.08-.12-.181-.12-.295M79.009 448.216c0 .933.307 1.731.92 2.39.612.66 1.353.987 2.217.987.866 0 1.606-.327 2.218-.988.613-.658.92-1.46.92-2.398 0-.94-.307-1.736-.92-2.385-.612-.648-1.352-.97-2.218-.97-.864 0-1.605.327-2.217.978-.613.654-.92 1.448-.92 2.386m7.1-3.777v7.347c0 1.089-.387 2.022-1.16 2.794-.774.773-1.71 1.164-2.811 1.164-.561 0-1.146-.133-1.754-.4-.228-.16-.286-.344-.172-.549.127-.264.31-.329.55-.189.437.205.894.31 1.376.31.87 0 1.614-.301 2.226-.912.613-.609.92-1.349.92-2.218v-1.032c-.355.516-.808.918-1.358 1.213-.55.29-1.146.437-1.788.437-1.1 0-2.035-.411-2.803-1.23-.767-.82-1.151-1.808-1.151-2.958 0-1.155.386-2.143 1.16-2.962.774-.82 1.706-1.23 2.794-1.23.632 0 1.223.15 1.78.45.556.296 1.011.696 1.366 1.2v-1.235c0-.119.043-.213.129-.295.086-.08.183-.12.292-.12.11 0 .204.04.284.12.082.082.12.176.12.295M90.115 452.043v-7.604c0-.118.04-.215.12-.294.08-.08.18-.123.301-.123.12 0 .222.043.301.123.082.08.12.176.12.294v7.604c0 .114-.043.215-.129.295-.086.08-.187.116-.3.116-.114 0-.213-.037-.293-.116-.08-.08-.12-.181-.12-.295m0-9.965v-.394c0-.114.04-.21.12-.29.08-.084.179-.123.293-.123.113 0 .214.039.3.123.086.08.13.176.13.29v.394c0 .126-.044.236-.13.32-.086.088-.187.13-.3.13-.114 0-.213-.042-.293-.13-.08-.084-.12-.194-.12-.32M94.843 448.24c0 .94.312 1.741.937 2.4.626.66 1.37.99 2.235.99.864 0 1.608-.33 2.227-.99.619-.659.928-1.46.928-2.4s-.31-1.744-.928-2.41c-.62-.665-1.363-.996-2.227-.996-.866 0-1.61.331-2.235.996-.625.666-.937 1.47-.937 2.41m6.448-4.094c.079-.08.178-.123.292-.123.114 0 .21.043.292.123.08.08.12.176.12.292v7.606c0 .112-.04.213-.12.292-.082.08-.178.119-.292.119-.114 0-.213-.04-.292-.119-.082-.08-.12-.18-.12-.292v-1.256c-.368.516-.828.922-1.385 1.221-.556.3-1.15.446-1.78.446-1.1 0-2.04-.411-2.819-1.24-.78-.823-1.169-1.815-1.169-2.974 0-1.16.39-2.151 1.17-2.98.777-.823 1.718-1.238 2.819-1.238.63 0 1.223.15 1.78.45.556.298 1.016.696 1.383 1.202v-1.237c0-.116.039-.213.12-.292M110.745 452.043v-7.604c0-.118.041-.215.12-.294.08-.08.181-.123.301-.123s.222.043.301.123c.082.08.12.176.12.294v7.604c0 .114-.042.215-.128.295-.086.08-.187.116-.301.116-.114 0-.213-.037-.293-.116-.079-.08-.12-.181-.12-.295m0-9.965v-.394c0-.114.041-.21.12-.29.08-.084.179-.123.293-.123.114 0 .215.039.3.123.087.08.13.176.13.29v.394c0 .126-.043.236-.13.32-.085.088-.186.13-.3.13-.114 0-.213-.042-.293-.13-.079-.084-.12-.194-.12-.32M115.835 448.25c0 .933.318 1.726.954 2.38.636.656 1.392.983 2.27.983.876 0 1.626-.314 2.251-.94.624-.621.955-1.383.989-2.277v-.278c-.034-.905-.365-1.676-.989-2.306-.625-.63-1.375-.944-2.252-.944-.877 0-1.633.327-2.27.987-.635.658-.953 1.456-.953 2.394m6.464 3.795v-1.224c-.378.505-.849.903-1.41 1.198-.563.29-1.169.436-1.822.436-1.135 0-2.098-.406-2.889-1.23-.79-.82-1.186-1.811-1.186-2.975 0-1.163.396-2.16 1.186-2.987.791-.822 1.754-1.24 2.889-1.24.653 0 1.26.151 1.822.45.561.3 1.032.697 1.41 1.203v-4.853c0-.114.043-.21.129-.29.086-.08.187-.123.3-.123.115 0 .214.043.293.123.08.08.12.176.12.29v11.222c0 .111-.04.212-.12.292-.08.08-.178.118-.292.118-.114 0-.215-.038-.301-.118-.086-.08-.129-.18-.129-.292M126.906 452.043v-7.586c0-.119.041-.216.12-.295.08-.08.18-.123.293-.123.114 0 .213.043.292.123.08.08.12.176.12.295v1.856c.046-.093.087-.16.12-.207.884-1.376 2.006-2.067 3.37-2.067.115 0 .211.043.293.123.08.08.12.176.12.295 0 .111-.04.208-.12.288-.082.081-.178.122-.292.122-.918 0-1.73.459-2.442 1.38-.412.55-.752 1.2-1.014 1.96-.024.042-.034.089-.034.134v3.702c0 .114-.041.215-.12.295-.08.08-.18.116-.293.116-.114 0-.213-.037-.292-.116-.08-.08-.12-.181-.12-.295M137.668 444.834c-.86 0-1.603.331-2.226.996-.625.666-.937 1.467-.937 2.402 0 .934.312 1.736.937 2.399.623.664 1.367 1 2.226 1 .86 0 1.602-.336 2.227-1 .625-.663.937-1.465.937-2.399 0-.935-.312-1.736-.937-2.402-.625-.665-1.367-.996-2.227-.996m-2.82 6.373c-.78-.832-1.168-1.82-1.168-2.966 0-1.147.389-2.138 1.169-2.97.78-.833 1.72-1.248 2.82-1.248 1.1 0 2.039.415 2.819 1.247.78.833 1.17 1.824 1.17 2.97 0 1.147-.39 2.135-1.17 2.967-.78.832-1.72 1.248-2.82 1.248-1.1 0-2.039-.416-2.82-1.248M150.374 445.624c-.595-.517-1.287-.773-2.072-.773-.786 0-1.476.256-2.071.764-.598.512-.974 1.168-1.135 1.97h6.378c-.137-.79-.505-1.445-1.1-1.961m1.994 2.323v.066c0 .119-.04.211-.12.278-.082.066-.178.105-.292.105h-6.912c.045.917.385 1.684 1.015 2.302.63.621 1.38.933 2.252.933.56 0 1.083-.137 1.564-.415.482-.273.864-.647 1.152-1.118.138-.226.32-.274.55-.138.23.163.276.357.138.587-.368.585-.851 1.046-1.453 1.392-.602.344-1.253.516-1.951.516-1.135 0-2.1-.409-2.897-1.23-.797-.82-1.195-1.811-1.195-2.975 0-1.164.398-2.16 1.195-2.988.797-.824 1.747-1.239 2.854-1.239s2.044.379 2.81 1.125c.768.753 1.198 1.684 1.29 2.799M155.41 452.043V440.82c0-.114.042-.208.121-.29.08-.08.178-.12.292-.12.116 0 .215.04.301.12.086.082.13.176.13.29v11.222c0 .114-.044.215-.13.295-.086.08-.185.116-.3.116-.115 0-.213-.037-.293-.116-.08-.08-.12-.181-.12-.295M164.954 445.624c-.596-.517-1.288-.773-2.072-.773-.787 0-1.476.256-2.072.764-.597.512-.973 1.168-1.134 1.97h6.378c-.138-.79-.505-1.445-1.1-1.961m1.994 2.323v.066c0 .119-.04.211-.12.278-.082.066-.179.105-.293.105h-6.911c.045.917.385 1.684 1.014 2.302.63.621 1.38.933 2.253.933.56 0 1.083-.137 1.564-.415.481-.273.864-.647 1.152-1.118.138-.226.32-.274.55-.138.23.163.275.357.138.587-.368.585-.851 1.046-1.453 1.392-.602.344-1.253.516-1.951.516-1.135 0-2.1-.409-2.897-1.23-.798-.82-1.195-1.811-1.195-2.975 0-1.164.397-2.16 1.195-2.988.797-.824 1.747-1.239 2.854-1.239 1.106 0 2.043.379 2.81 1.125.768.753 1.198 1.684 1.29 2.799M172.397 444.023c.103 0 .197.043.283.131.086.084.13.181.13.284 0 .101-.044.198-.13.282-.086.088-.18.131-.283.131h-1.084v6.141c0 .185.071.334.215.45.144.114.273.172.387.172.114 0 .217.043.31.135.092.093.137.19.137.295 0 .103-.045.196-.137.284-.093.084-.19.127-.293.127-.423 0-.775-.14-1.057-.411-.282-.277-.421-.626-.421-1.052v-6.14h-1.049c-.185 0-.299-.035-.344-.106-.045-.067-.069-.16-.069-.273 0-.119.007-.198.018-.243.034-.136.165-.207.395-.207h1.049v-3.13c0-.105.043-.197.129-.286.086-.083.182-.129.292-.129.11 0 .208.046.3.13.093.088.138.18.138.285v3.13h1.084zM179.274 444.023c.103 0 .198.043.284.131.086.084.129.181.129.284 0 .101-.043.198-.13.282-.085.088-.18.131-.283.131h-1.083v6.141c0 .185.07.334.215.45.144.114.273.172.387.172.113 0 .217.043.31.135.091.093.137.19.137.295 0 .103-.046.196-.138.284-.092.084-.19.127-.292.127-.424 0-.776-.14-1.058-.411-.281-.277-.42-.626-.42-1.052v-6.14h-1.05c-.184 0-.298-.035-.343-.106-.045-.067-.07-.16-.07-.273 0-.119.007-.198.018-.243.034-.136.166-.207.395-.207h1.05v-3.13c0-.105.042-.197.128-.286.086-.083.183-.129.292-.129.11 0 .209.046.301.13.093.088.138.18.138.285v3.13h1.083zM183.624 452.043v-7.586c0-.119.04-.216.12-.295.08-.08.178-.123.292-.123.114 0 .213.043.293.123.08.08.12.176.12.295v1.856c.045-.093.086-.16.12-.207.884-1.376 2.005-2.067 3.37-2.067.114 0 .21.043.292.123.08.08.12.176.12.295 0 .111-.04.208-.12.288-.081.081-.178.122-.292.122-.918 0-1.73.459-2.441 1.38-.413.55-.752 1.2-1.015 1.96-.023.042-.034.089-.034.134v3.702c0 .114-.04.215-.12.295-.08.08-.179.116-.293.116-.114 0-.212-.037-.292-.116-.08-.08-.12-.181-.12-.295M191.188 452.043v-7.604c0-.118.041-.215.12-.294.08-.08.181-.123.302-.123.12 0 .221.043.3.123.082.08.12.176.12.294v7.604c0 .114-.042.215-.128.295-.086.08-.187.116-.301.116-.114 0-.213-.037-.292-.116-.08-.08-.12-.181-.12-.295m0-9.965v-.394c0-.114.04-.21.12-.29.08-.084.178-.123.292-.123.114 0 .215.039.3.123.087.08.13.176.13.29v.394c0 .126-.043.236-.13.32-.085.088-.186.13-.3.13-.114 0-.213-.042-.292-.13-.08-.084-.12-.194-.12-.32M196.664 451.224c-.843-.82-1.264-1.816-1.264-2.992 0-1.175.421-2.17 1.264-2.986.842-.815 1.818-1.224 2.923-1.224 1.106 0 2.048.312 2.828.93.092.058.144.146.154.26.011.114-.023.22-.103.312-.172.191-.36.213-.567.066-.63-.505-1.393-.757-2.287-.757-.894 0-1.682.334-2.364.996-.68.669-1.023 1.471-1.023 2.411 0 .942.342 1.74 1.023 2.4.682.659 1.468.99 2.356.99.887 0 1.655-.247 2.295-.738.206-.152.4-.122.576.084.178.205.146.402-.095.583-.767.598-1.65.895-2.647.895-1.204 0-2.227-.407-3.07-1.23M205.733 448.24c0 .94.312 1.741.937 2.4.626.66 1.37.99 2.235.99.864 0 1.608-.33 2.227-.99.619-.659.928-1.46.928-2.4s-.31-1.744-.928-2.41c-.62-.665-1.363-.996-2.227-.996-.866 0-1.61.331-2.235.996-.625.666-.937 1.47-.937 2.41m6.448-4.094c.079-.08.178-.123.292-.123.114 0 .21.043.292.123.08.08.12.176.12.292v7.606c0 .112-.04.213-.12.292-.082.08-.178.119-.292.119-.114 0-.213-.04-.292-.119-.082-.08-.12-.18-.12-.292v-1.256c-.368.516-.828.922-1.385 1.221-.556.3-1.15.446-1.78.446-1.1 0-2.04-.411-2.819-1.24-.78-.823-1.169-1.815-1.169-2.974 0-1.16.39-2.151 1.17-2.98.777-.823 1.718-1.238 2.819-1.238.63 0 1.223.15 1.78.45.556.298 1.016.696 1.383 1.202v-1.237c0-.116.039-.213.12-.292" mask="url(#prefix__b)"/>
        <path fill="#000" d="M31.027 8.368h-4.62c-.073 0-.136-.03-.194-.086-.058-.058-.086-.123-.086-.194 0-.073.028-.135.086-.193.058-.058.12-.086.194-.086h4.921c.172 0 .258.1.258.3v5.464c0 .028-.009.05-.022.065v.043c-.015.07-.043.12-.086.15-1.446 1.119-3.094 1.678-4.942 1.678-2.192-.015-4.066-.779-5.62-2.29-1.554-1.513-2.332-3.34-2.332-5.475 0-2.138.778-3.962 2.332-5.474C22.47.756 24.344 0 26.536 0c1.876 0 3.524.56 4.942 1.678.172.13.19.27.054.42-.137.15-.268.161-.397.032-1.333-1.062-2.867-1.592-4.6-1.592-2.035 0-3.775.704-5.222 2.108-1.446 1.405-2.17 3.102-2.17 5.087 0 1.986.72 3.685 2.16 5.098 1.44 1.411 3.185 2.119 5.233 2.119 1.66 0 3.159-.495 4.491-1.484V8.368zM50.734 15.315L46.522 5.227l-4.255 10.11c-.043.114-.123.172-.237.172-.116 0-.202-.058-.258-.172L35.69.86c-.1-.157-.058-.273.13-.344.171-.043.292 0 .365.129l5.824 13.895L46.22 4.539c.043-.129.135-.193.28-.193.128-.028.227.036.3.193l4.19 10.002L56.838.646c.056-.086.14-.133.247-.14.108-.008.194.024.258.097.065.07.067.157.011.258l-6.082 14.476c-.058.114-.146.172-.268.172-.123 0-.213-.065-.27-.194M60.276 15.509c-.187 0-.28-.08-.28-.237V.732c0-.188.09-.28.269-.28.178 0 .269.092.269.28v6.452c.371-.673.892-1.21 1.558-1.613.666-.402 1.392-.602 2.181-.602 1.176 0 2.177.415 3.009 1.247.83.833 1.246 1.844 1.246 3.033v5.98c0 .07-.026.138-.075.193-.05.059-.112.087-.183.087-.187 0-.28-.093-.28-.28v-5.98c0-1.032-.362-1.91-1.084-2.635-.725-.725-1.595-1.086-2.611-1.086-1.02 0-1.887.346-2.612 1.043-.724.695-1.106 1.538-1.15 2.528v6.13c0 .187-.072.28-.214.28h-.043z" mask="url(#prefix__b)"/>
    </g>
</svg>
