<svg xmlns="http://www.w3.org/2000/svg" width="20" height="27" viewBox="0 0 20 27">
    <path fill="#FFF" fill-rule="evenodd" d="M15.426 0l-.913 2.574L20 6.305 15.426 0zm-2.981 10.766c-.643-.477-1.464-.7-2.729-.7-.761 0-1.483.048-2.037.136v6.444c.376.048.93.097 1.71.097 1.305 0 2.373-.273 3.075-.847.643-.535 1.107-1.402 1.107-2.658 0-1.158-.435-1.966-1.126-2.472zm2.113 5.909h1.513v-2.639h2.393V12.83H16.07v-1.5h2.56v-1.216h-4.073v6.56zm-7.837-4.566c0-.642-.286-1.187-.711-1.518-.445-.35-1.107-.526-2.037-.526-.919 0-1.571.058-2.036.137v6.473H3.43v-2.347c.138.02.316.03.514.03.89 0 1.65-.215 2.164-.69.396-.37.613-.916.613-1.559zm6.174-8.932L20 8.008V27H0V0h14.023l-1.128 3.177zm-8.842 8.008c-.307 0-.514.029-.623.058v1.937c.128.03.286.04.504.04.8 0 1.295-.4 1.295-1.072 0-.603-.425-.963-1.176-.963zm7.917 2.103c0 1.567-.89 2.306-2.254 2.297-.188 0-.396 0-.524-.03v-4.293c.128-.029.346-.058.682-.058 1.294 0 2.106.72 2.096 2.084z"/>
</svg>
