<svg xmlns="http://www.w3.org/2000/svg" width="616" height="595" viewBox="0 0 616 595">
    <g fill="none" fill-rule="evenodd">
        <path fill="#A38FB9" d="M175.365 594.224h206.169c-29.822-17.39-46.71-43.99-47.463-45.179l-70.635-113.893-73.995-108.958-81.81 98.012c-1.05 1.37-19.698 25.868-26.073 57.404-4.96 24.565 4.319 47.989 4.41 48.217l.914 2.194-.091.434c13.071 34.232 52.33 61.769 88.574 61.769"/>
        <path fill="#DA222A" d="M394.221 52.696c-7.404-15.31-16.842-25.114-23.537-30.644l-6.924-5.05c-.572-.343-.96-.549-1.051-.594L360.4 15.15l-.343-.709C345.775 5.12 327.197 0 307.568 0c-21.139 0-40.86 5.873-55.53 16.522L84.715 138.094c2.696-.137 5.439-.183 8.204-.183 30.918 0 55.758 7.975 56.81 8.318l.274.091 129.775 47.944 123.56 44.56 3.474-124.61c0-.298 1.69-32.016-12.592-61.518"/>
        <path fill="#FF8B00" d="M586.319 318.55c16.567-17.299 23.72-37.317 25-41.156 11.425-35.306-4.297-83.638-34.347-105.461L410.04 50.635c13.483 30.987 12.112 61.7 11.975 64.397l-3.725 134.734-4.182 131.627 118.053-32.13c.32-.068 31.718-7.267 54.159-30.713"/>
        <path fill="#00AEF0" d="M408.168 398.8L281.59 435.521l65.425 105.484c.137.206 17.276 27.057 46.252 42.276 18.785 9.895 39.785 10.878 45.773 10.946h.708c37.203 0 78.336-29.89 89.808-65.265l63.642-195.794c-24.428 22.897-54.501 30.21-57.564 30.895L408.168 398.8z"/>
        <path fill="#42AD49" d="M264.731 204.96l-119.858-44.286c-1.805-.572-24.588-7.541-51.965-7.541-3.816 0-7.587.137-11.243.41-20.704 1.51-42.71 17.757-45.155 19.608-29.342 22.6-44.013 69.424-32.678 104.364l63.825 196.389c8.044-33.615 27.24-58.135 28.085-59.21l.114-.16 88.277-105.757L264.73 204.96z"/>
        <text fill="#FFF" font-family="TeutonNormal, Teuton Normal" font-size="26">
            <tspan x="270" y="147">People</tspan>
        </text>
        <text fill="#FFF" font-family="TeutonNormal, Teuton Normal" font-size="26">
            <tspan x="70" y="305">Planet</tspan>
        </text>
        <text fill="#FFF" font-family="TeutonNormal, Teuton Normal" font-size="26">
            <tspan x="446" y="279">Prosperity</tspan>
        </text>
        <text fill="#FFF" font-family="TeutonNormal, Teuton Normal" font-size="26">
            <tspan x="127" y="532">Partnership</tspan>
        </text>
        <text fill="#FFF" font-family="TeutonNormal, Teuton Normal" font-size="26">
            <tspan x="406" y="532">Peace</tspan>
        </text>
        <path fill="#FFF" d="M91.132 215.114v-.052c.036-.35.141-.69.31-1 .175-.303.413-.565.7-.766.699-.517 1.78-.756 3.277-.59 1.505.105 3.013-.147 4.401-.735-.43 2.754-1.16 4.66-2.035 5.928-.47.756-1.17 1.34-1.998 1.667-.484.165-1.005.188-1.502.068-.478.44-.904.936-1.268 1.475l.197.083c1.014.418 2.145.454 3.184.104 1.2-.45 2.224-1.276 2.915-2.356 1.196-1.724 2.148-4.437 2.557-8.43.05-.503-.317-.952-.82-1.002-.194-.02-.39.024-.557.123 0 0-2.532 1.506-4.887 1.247-1.983-.217-3.495.171-4.546.927-.505.358-.924.823-1.227 1.362-.284.524-.46 1.1-.518 1.693-.068.575-.041 1.157.078 1.724.518-.559 1.102-1.053 1.74-1.47m15.806 29.496c.001-.692-.039-1.384-.119-2.07-1.646-2.31-3.733-3.589-5.52-4.692-3.323-2.06-5.777-3.572-4.022-8.952-2.446-1.23-5.147-1.868-7.885-1.864-3.962 0-7.806 1.343-10.904 3.811.595 2.314 2.22 3.723 3.702 4.996 1.729 1.481 3.24 2.786 3.282 5.105.031 1.74-.828 2.796-1.786 3.966-.843.902-1.462 1.99-1.807 3.174-.097.782-.111 1.572-.041 2.356.041 1.719.119 3.723-.518 5.203-.526 1.459-2 2.35-3.536 2.139 2.135 1.885 4.697 3.222 7.466 3.893-.37-1.748.368-3.544 1.858-4.53 1.543-1.129 4.194-.342 6.985.492 2.128.626 4.344 1.289 5.809 1.035 4.425-3.32 7.031-8.53 7.036-14.062m-9.723 15.72c-1.175-.229-2.413-.596-3.625-.959-2.345-.699-4.571-1.361-5.379-.771-1.105.763-1.51 2.206-.963 3.433.711.086 1.427.13 2.144.129v.005c2.715.003 5.393-.626 7.823-1.838m-17.588-5.41c.481-1.114.409-2.89.352-4.417-.085-.95-.054-1.906.093-2.847.396-1.462 1.14-2.805 2.17-3.915.735-.9 1.377-1.714 1.377-2.785-.026-1.486-1.264-2.553-2.646-3.738-1.517-1.3-3.174-2.724-4.018-5.043-3.295 3.294-5.142 7.766-5.13 12.426-.008 3.866 1.267 7.626 3.623 10.691 2.625 1.077 3.744.663 4.179-.372m22.652-18.64c1.323.769 2.575 1.652 3.743 2.641-1.282-3.741-3.786-6.942-7.109-9.087-1.04 3.733.834 4.893 3.366 6.446m6.53 8.328c-.006 10.718-8.7 19.4-19.417 19.393-5.15.004-10.088-2.046-13.721-5.695-3.635-3.642-5.675-8.578-5.672-13.723.007-10.718 8.7-19.4 19.418-19.393 10.717.007 19.4 8.701 19.393 19.418m-10.844-29.975c.294-.412.2-.984-.213-1.279-.411-.294-.984-.199-1.278.213l-.021.03c-.653.953-1.631 1.492-2.636 2.04-1.553.86-3.184 1.745-4.225 3.972-1.237-4.551-3.826-5.98-6.332-7.347-1.392-.761-2.749-1.507-3.67-2.858-.295-.412-.867-.507-1.28-.212-.399.286-.502.836-.232 1.247 1.17 1.714 2.713 2.563 4.302 3.433 2.63 1.434 5.395 2.951 5.975 9.521h1.072c.27 0 .953 0 1.035.026.554-4.142 2.434-5.177 4.225-6.14 1.212-.684 2.382-1.326 3.278-2.646m-25.08-9.62c-.024-.227.038-.455.173-.639.3-.407.874-.495 1.281-.194.373.212 3.625 2.05 6.731 1.708 2.6-.285 4.562.223 5.918 1.196.64.459 1.17 1.053 1.553 1.74.371.668.604 1.404.684 2.164.102 1.051-.03 2.112-.383 3.107-.456-.527-.96-1.009-1.507-1.44.096-.487.118-.986.067-1.48-.053-.517-.21-1.017-.46-1.47-.256-.456-.61-.849-1.036-1.15-1.035-.725-2.552-1.093-4.66-.86-2.371.264-4.784-.528-6.306-1.185.575 4.074 1.615 6.886 2.879 8.703.674 1.075 1.676 1.905 2.858 2.366.918.307 1.916.272 2.811-.098.214-.086.421-.186.622-.3.349.324.659.689.921 1.087.076.117.149.236.218.357-.351.215-.72.399-1.103.549-1.298.535-2.745.582-4.075.134-1.559-.581-2.887-1.653-3.785-3.054-1.59-2.289-2.858-5.903-3.401-11.24M158.954 450.444l-.04-.042c-.857-.92-2.069-1.449-3.326-1.449h-6.694v.305c0 .665.26 1.289.731 1.758.469.466 1.09.723 1.75.723h.012l2.68-.013h.006c.537 0 .974.434.976.972.003.54-.433.979-.972.981l-2.68.013h-.022c-.318 0-.631-.034-.935-.1l2.682 2.684 5.832-5.832zm-5.583 9.558c0-.46-.18-.895-.506-1.22l-5.863-5.864c-.337-.337-.779-.505-1.221-.505-.443 0-.885.168-1.222.505-.673.673-.673 1.769 0 2.443l.955.954.001.002 4.908 4.907c.673.673 1.77.673 2.443 0 .326-.326.505-.76.505-1.222zm-3.824 3.825c0-.462-.18-.895-.506-1.222l-2.671-2.671-2.237-2.237c-.336-.336-.778-.504-1.22-.504-.442 0-.885.168-1.222.505-.326.326-.506.76-.506 1.221 0 .462.18.895.506 1.222l4.908 4.907c.673.673 1.77.673 2.443 0 .326-.326.505-.76.505-1.221zm-3.824 3.824c0-.462-.18-.895-.506-1.222l-3.951-3.951c-.326-.327-.76-.506-1.221-.506-.462 0-.895.18-1.222.506-.673.673-.673 1.77 0 2.442l1.313 1.313 2.639 2.639c.673.674 1.77.674 2.443 0 .326-.326.505-.76.505-1.221zm-4.33 2.602l-2.639-2.639c-.326-.326-.76-.506-1.22-.506-.462 0-.896.18-1.222.506-.674.674-.674 1.77 0 2.443l2.639 2.64c.326.326.76.505 1.221.505.461 0 .895-.18 1.222-.506.673-.673.673-1.77 0-2.443zm22.239 20.492c.381.381.381 1 0 1.381-.191.191-.441.286-.691.286-.25 0-.5-.095-.69-.286l-5.04-5.039c-1.955.13-3.878-.37-5.514-1.418l-6.438 6.462c-.19.191-.441.287-.692.287-.25 0-.499-.095-.69-.285-.381-.38-.382-.999-.002-1.381l8.753-8.786c.175-.175.41-.278.657-.286 3.363-.123 6.525-1.5 8.904-3.88l9.475-9.475c.674-.673.674-1.77 0-2.442-.673-.674-1.768-.674-2.441-.001l-1.202 1.2c-.19.191-.44.287-.69.287-.25 0-.5-.096-.69-.286-.382-.382-.382-1 0-1.382l1.2-1.2 1.312-1.312c.326-.326.506-.76.506-1.221 0-.462-.18-.895-.506-1.222-.326-.326-.76-.506-1.221-.506-.462 0-.896.18-1.222.506l-2.512 2.513c-.191.19-.441.286-.69.286-.25 0-.5-.096-.692-.286-.381-.382-.381-1 0-1.382l2.513-2.512.956-.956c.673-.674.673-1.77 0-2.443s-1.77-.673-2.443 0l-3.468 3.469c-.19.19-.441.286-.69.286-.25 0-.5-.096-.691-.286-.382-.382-.382-1 0-1.382l3.468-3.468.956-.956c.326-.327.506-.76.506-1.222 0-.461-.18-.895-.506-1.22-.326-.327-.76-.507-1.221-.507-.462 0-.895.18-1.222.506l-6.483 6.484c1.185 1.444 1.104 3.587-.244 4.936-.718.717-1.66 1.076-2.603 1.076-.05 0-.098-.002-.147-.004.002.05.004.1.004.149 0 .983-.383 1.907-1.078 2.603-.718.717-1.66 1.076-2.603 1.076-.05 0-.098-.002-.147-.004.002.05.004.1.004.149 0 .983-.383 1.907-1.078 2.602-.718.718-1.66 1.077-2.603 1.077-.05 0-.099-.002-.148-.004.04.992-.318 1.996-1.073 2.751-.695.696-1.62 1.079-2.603 1.079-.648 0-1.27-.168-1.82-.48l-9.685 9.685c-.19.19-.44.286-.69.286-.25 0-.5-.095-.69-.286-.382-.382-.382-1 0-1.381l9.592-9.593-1.948-1.949c-1.436-1.435-1.436-3.77 0-5.205.496-.496 1.108-.832 1.775-.985-.63-1.36-.384-3.03.737-4.151.544-.545 1.23-.897 1.974-1.025-.12-.367-.184-.755-.184-1.153 0-.983.382-1.907 1.078-2.602.558-.559 1.252-.899 1.977-1.023-.42-1.278-.124-2.743.89-3.757.696-.696 1.62-1.078 2.603-1.078.493 0 .971.096 1.413.28-.166-.47-.253-.969-.253-1.481v-1.281c0-.54.438-.977.977-.977h7.67c1.798 0 3.531.755 4.756 2.071l.094.101c.534-.29 1.134-.446 1.758-.446.983 0 1.908.383 2.603 1.079.695.695 1.078 1.62 1.078 2.602 0 .4-.064.788-.185 1.156.724.124 1.417.464 1.975 1.021 1.014 1.015 1.31 2.478.891 3.756.745.127 1.432.48 1.977 1.025.695.695 1.078 1.619 1.078 2.602 0 .545-.118 1.072-.341 1.552.65.149 1.269.476 1.775.982 1.435 1.435 1.435 3.77 0 5.205l-9.475 9.475c-2.638 2.638-6.114 4.202-9.826 4.431l-.628.63c1.234.691 2.647 1.005 4.076.887l.31-.025c.286-.023.567.08.77.283l5.358 5.358zm6.885-16.067l-.001.001c-.382.382-.381 1 0 1.38.19.191.44.287.69.287.25 0 .502-.096.692-.287.382-.381.382-1 0-1.381-.38-.382-1-.382-1.38 0zm6.2 6.164c-.191.193-.443.29-.694.29-.249 0-.497-.095-.688-.284l-2.383-2.364c-.383-.38-.386-.999-.006-1.382.38-.383.998-.385 1.381-.005l2.384 2.364c.383.38.386.998.006 1.381zM454.401 464.077c-.936.017-2.542.202-3.669 1.168-1.133.971-1.56 2.526-1.717 3.447.936-.017 2.543-.202 3.67-1.168 1.127-.966 1.556-2.524 1.716-3.447m-7.857.16c-.488-.798-1.46-2.09-2.863-2.574-1.403-.483-2.963-.065-3.84.264.488.8 1.46 2.09 2.862 2.574 1.403.484 2.964.065 3.841-.263m-.333-6.593c.876-.329 2.33-1.04 3.069-2.328.744-1.295.625-2.903.466-3.823-.876.329-2.33 1.04-3.069 2.328-.743 1.295-.625 2.903-.466 3.823m-5.357-9.828c-.822-1.247-2.31-1.864-3.204-2.136-.1.93-.119 2.548.699 3.788.816 1.239 2.309 1.86 3.204 2.134.1-.931.118-2.547-.699-3.786M456 463.38c-.005.139-.154 3.42-2.332 5.287-1.535 1.316-3.608 1.528-4.748 1.534-.009.467-.031.93-.068 1.392 0 .017-.002.034-.004.05-.215 2.627-.882 5.155-1.994 7.543-.184.396-.685.553-1.063.332-.332-.194-.465-.62-.303-.968.698-1.5 1.207-3.059 1.527-4.666-1.532 1.76-3.802 4.531-5.26 7.063-3.895 6.764-11.834 7.099-17.467 6.762-1.787-.107-3.81.521-6.014 1.867-.378.231-.887.077-1.075-.324-.16-.343-.033-.765.29-.962 2.472-1.51 4.79-2.21 6.889-2.086 3.806.228 6.73-.012 9.205-.755 3.124-.937 5.37-2.656 6.866-5.255 1.807-3.137 4.71-6.519 6.186-8.159l-2.594-.51c-.22-.043-.41-.183-.518-.381-.012-.023-1.371-2.465-3.87-3.094-1.592-.402-3.341.009-5.199 1.218-2.237 1.458-4.39 1.988-6.335 1.988-2.204 0-4.144-.68-5.649-1.463-2.546-1.326-4.938-3.538-6.735-6.23-1.124-1.684-1.951-3.472-2.407-5.158-.492 1.22-1.051 2.886-1.4 4.81-.073.405-.471.681-.875.608-.404-.073-.68-.472-.607-.876.78-4.31 2.512-7.326 2.585-7.452.17-.292.524-.437.85-.349.315.086.544.375.555.702.068 2.043.999 4.55 2.552 6.878.714 1.068 1.526 2.053 2.405 2.925.07-2.291.547-6.421 2.84-10.17.33-.541 1.169-.438 1.36.164.016.049 1.617 4.974 5.051 8.648.285.304.269.78-.036 1.065-.303.284-.78.268-1.065-.036-2.464-2.635-4.015-5.788-4.79-7.642-1.9 3.986-1.892 8.15-1.846 9.308.729.57 1.486 1.066 2.26 1.468 2.199 1.145 5.462 2.035 9.078.326-.803-.36-1.585-.812-2.337-1.357-.337-.244-.413-.715-.169-1.052.244-.337.715-.413 1.052-.169 1.003.726 2.06 1.265 3.143 1.611 2.123-1.302 4.174-1.714 6.104-1.223 2.568.654 4.108 2.719 4.621 3.519l2.74.539c.02-.487.026-.977.013-1.47-.03-1.158-.15-2.334-.36-3.522-.714.266-1.783.569-2.95.569-.615 0-1.257-.084-1.889-.302-2.713-.935-4.058-3.931-4.114-4.058-.159-.36-.013-.782.334-.968.122-.065 3.028-1.596 5.74-.661.64.22 1.204.557 1.693.942-.02-.059-.04-.118-.062-.177-1.46-4.063-3.49-6.999-4.069-7.791-.867-.2-3.329-.92-4.643-2.914-1.58-2.396-.82-5.59-.786-5.726.094-.382.466-.627.854-.563.137.023 3.374.581 4.954 2.977 1.288 1.954 1.02 4.439.858 5.362.32.438.966 1.363 1.72 2.678.109-.654.318-1.325.68-1.955 1.428-2.488 4.624-3.246 4.76-3.277.382-.088.77.134.887.51.041.132.998 3.274-.431 5.762-.99 1.726-2.83 2.618-3.91 3.014.18.44.357.896.527 1.367.618 1.708 1.07 3.41 1.355 5.092.308-.517.697-1.015 1.193-1.44 2.178-1.867 5.443-1.512 5.581-1.496.391.045.681.384.666.777m-16.204 8.68c0-.788-.64-1.429-1.429-1.429-.787 0-1.428.641-1.428 1.429 0 .787.64 1.428 1.428 1.428.788 0 1.429-.64 1.429-1.428m-23.948 18.265c.262.323.213.797-.11 1.06-2.297 1.866-3.876 3.763-3.892 3.782-.14.169-.347.269-.567.273h-.014c-.214 0-.42-.092-.562-.252-5.022-5.633-4.709-12.836-4.693-13.14.012-.233.131-.448.323-.58.192-.133.435-.17.657-.1 3.946 1.253 8.352 1.014 10.74.739-2.703-2.132-4.714-4.605-5.99-7.37-1.223-2.65-1.776-5.57-1.645-8.682.018-.415.37-.74.785-.72.416.017.739.368.721.784-.275 6.488 2.577 11.817 8.478 15.842.25.17.374.474.314.771-.06.297-.291.53-.588.59-.274.056-6.443 1.278-12.277-.231.096 1.962.663 6.558 3.75 10.44.686-.751 1.926-2.03 3.51-3.316.323-.263.798-.213 1.06.11M457.667 204v-.833h1.666V204c0 1.84 1.493 3.333 3.334 3.333V209c-2.762 0-5-2.239-5-5zM496 209v1.667h-2.5v2.5h-1.667v-2.5h-2.5V209h2.5v-2.5h1.667v2.5h2.5zm-41.667 2.975c.324.465.727.868 1.192 1.192-.465.323-.868.726-1.192 1.191-.323-.465-.726-.868-1.191-1.191.465-.324.868-.727 1.191-1.192zM450.867 214c1.347.231 2.402 1.286 2.633 2.633 0 .46.373.834.833.834.46 0 .834-.373.834-.834.23-1.347 1.286-2.402 2.633-2.633.46 0 .833-.373.833-.833 0-.46-.373-.834-.833-.834-1.347-.23-2.402-1.286-2.633-2.633 0-.46-.373-.833-.834-.833-.46 0-.833.373-.833.833-.231 1.347-1.286 2.402-2.633 2.633-.46 0-.834.374-.834.834 0 .46.373.833.834.833zm36.8-20.358c.323.465.726.868 1.191 1.191-.465.324-.868.727-1.191 1.192-.324-.465-.727-.868-1.192-1.192.465-.323.868-.726 1.192-1.191zm-3.467 2.025c1.347.23 2.402 1.286 2.633 2.633 0 .46.373.833.834.833.46 0 .833-.373.833-.833.231-1.347 1.286-2.402 2.633-2.633.46 0 .834-.373.834-.834 0-.46-.373-.833-.834-.833-1.347-.231-2.402-1.286-2.633-2.633 0-.46-.373-.834-.833-.834-.46 0-.834.373-.834.834-.23 1.347-1.286 2.402-2.633 2.633-.46 0-.833.373-.833.833 0 .46.373.834.833.834zm.133 23.333h-1.666c0-1.84 1.492-3.333 3.333-3.333v1.666c-.92 0-1.667.747-1.667 1.667zm1.667 1.667c.92 0 1.667-.746 1.667-1.667h1.666c0 1.841-1.492 3.333-3.333 3.333v-1.666zm6.667 10h-10V229h10v1.667zm-10 3.333h10v-1.667h-10V234zm0 3.333h10v-1.666h-10v1.666zm-1.667-10h10v-1.666h-10v1.666zm0-8.333c0-2.761 2.239-5 5-5s5 2.239 5 5-2.239 5-5 5-5-2.239-5-5zm-15 18.333h10v-1.666h-10v1.666zM464.333 224h10v-1.667h-10V224zm0-6.667h10v-1.666h-10v1.666zM466 214h10v-1.667h-10V214zm0 6.667h10V219h-10v1.667zm0 6.666v-1.666h10v1.666h-10zm0 3.334h10V229h-10v1.667zm1.667 3.333h10v-1.667h-10V234zM451 237.333h10v-1.666h-10v1.666zM449.333 234h10v-1.667h-10V234zm0-6.667h10v-1.666h-10v1.666zm0-3.333h10v-1.667h-10V224zm1.667 6.667h10V229h-10v1.667zm18.333-25c-3.818-.002-7.025-2.872-7.45-6.667h.784c3.818.002 7.025 2.872 7.45 6.667h-.784zm0-10.834c-2.44.002-4.526-1.76-4.933-4.166h.767c2.44-.002 4.526 1.76 4.933 4.166h-.767zm7.5-4.166h.767c-.407 2.407-2.492 4.168-4.933 4.166h-.767c.407-2.407 2.492-4.168 4.933-4.166zm2.5 8.333h.784c-.425 3.795-3.632 6.665-7.45 6.667h-.784c.425-3.795 3.632-6.665 7.45-6.667zm15 35.833v-6.666c0-.46-.373-.834-.833-.834h-.833v-2.5c0-.46-.373-.833-.834-.833h-1.441c2.77-2.425 3.05-6.637.624-9.407-2.426-2.77-6.638-3.05-9.408-.624-2.77 2.425-3.05 6.637-.624 9.407.194.222.403.43.624.624h-1.441c-.46 0-.834.373-.834.833v3.334c0 .46.373.833.834.833H481v8.333h-3.333v-1.666h.833c.46 0 .833-.373.833-.834V231.5c0-.46-.373-.833-.833-.833h-.833v-5.834c0-.46-.373-.833-.834-.833H476v-1.667h.833c.46 0 .834-.373.834-.833v-3.333c0-.46-.373-.834-.834-.834H476v-1.666h.833c.46 0 .834-.373.834-.834V211.5c0-.46-.373-.833-.834-.833h-5v-3.334h.834c5.062 0 9.166-4.104 9.166-9.166 0-.46-.373-.834-.833-.834h-1.667c-2.989.005-5.788 1.467-7.5 3.917v-4.75h.834c3.682 0 6.666-2.985 6.666-6.667 0-.46-.373-.833-.833-.833h-1.667c-2.427.002-4.662 1.324-5.833 3.45-1.171-2.126-3.406-3.448-5.833-3.45H463.5c-.46 0-.833.373-.833.833 0 3.682 2.984 6.667 6.666 6.667h.834v4.75c-1.712-2.45-4.511-3.912-7.5-3.917H461c-.46 0-.833.373-.833.834 0 5.062 4.104 9.166 9.166 9.166h.834v3.334h-5c-.46 0-.834.373-.834.833v2.5h-.833c-.46 0-.833.373-.833.833v3.334c0 .46.373.833.833.833h.833v1.667h-.833c-.46 0-.833.373-.833.833v3.333c0 .46.373.834.833.834h.833v5.833c0 .46.373.833.834.833H466V234h-.833c-.46 0-.834.373-.834.833v2.5h-1.666v-2.5c0-.46-.373-.833-.834-.833H461v-1.667h.833c.46 0 .834-.373.834-.833v-3.333c0-.46-.373-.834-.834-.834H461V221.5c0-.46-.373-.833-.833-.833H448.5c-.46 0-.833.373-.833.833v6.667c0 .46.373.833.833.833h.833v1.667h-.833c-.46 0-.833.373-.833.833v3.333c0 .46.373.834.833.834h.833v1.666H446V239h50v-1.667h-1.667v-2.5zM307.134 94.535c-2.752 0-5.162-1.807-5.942-4.422l1.657-.664c.942-.376 1.55-1.275 1.55-2.289v-1.147c.876.296 1.8.453 2.735.453.934 0 1.858-.157 2.734-.453v1.147c0 1.014.609 1.913 1.55 2.29l1.658.663c-.78 2.615-3.19 4.422-5.942 4.422zm-9.605-9.293c.13-1.136.415-3.81.608-6.889.153.086.316.157.487.208.031.428.094.852.189 1.268.42 1.856 1.472 3.54 2.96 4.743.366.296.755.558 1.162.788v1.26c-2.82-.559-4.595-1.102-5.406-1.378zm9.605-.241c-1.636 0-3.17-.542-4.44-1.568-1.233-.997-2.104-2.392-2.453-3.928-.116-.513-.175-1.041-.175-1.572 0-.404-.328-.732-.732-.732-.552 0-1.001-.45-1.001-1.001 0-.552.449-1.001 1-1.001 2.221 0 3.832-2.011 4.56-3.137 1.708 1.1 3.662 1.488 5.41 1.835 3.219.64 4.899 1.109 4.899 4.036 0 .53-.06 1.06-.175 1.572-.35 1.536-1.22 2.931-2.454 3.928-1.269 1.026-2.804 1.568-4.44 1.568zm-8.802-12.268c0-4.853 3.949-8.801 8.802-8.801s8.801 3.948 8.801 8.8c0 5.03.598 10.706.804 12.51-.812.276-2.587.82-5.406 1.379V85.36c.407-.23.796-.492 1.161-.788 1.488-1.203 2.54-2.887 2.961-4.743.14-.619.211-1.256.211-1.896 0-4.266-3.09-4.88-6.078-5.473-1.911-.38-3.887-.772-5.463-2.033-.173-.137-.399-.19-.614-.143-.216.047-.4.19-.499.387-.004.008-.414.816-1.108 1.603-.588.666-1.511 1.46-2.57 1.46-.361 0-.704.078-1.013.218.008-.409.011-.816.011-1.22zm19.573 17.733l-5.943-2.377c-.05-.02-.098-.044-.144-.071 4.025-.81 5.91-1.573 5.994-1.607.306-.125.49-.44.449-.768-.009-.07-.861-6.958-.861-12.91 0-5.66-4.605-10.266-10.266-10.266s-10.266 4.605-10.266 10.266c0 5.95-.853 12.84-.861 12.91-.041.328.143.643.449.768.083.034 1.968.796 5.993 1.607-.045.027-.093.051-.144.071l-5.942 2.378c-1.273.509-2.095 1.723-2.095 3.094v1.84h-2.002v-3.428l1.656-3.312c.18-.362.034-.802-.328-.983-.362-.18-.802-.034-.982.328l-1.734 3.467c-.05.102-.077.214-.077.327v13.868c0 .404.328.732.732.732.405 0 .733-.328.733-.732v-8.802h2.002v1.002c0 .194.077.38.214.518.138.137.324.214.518.214h.134v7.068c0 .404.328.732.733.732.404 0 .732-.328.732-.732V98.6h2.002v7.068c0 .404.328.732.733.732.404 0 .732-.328.732-.732v-9.534c0-.405-.328-.733-.732-.733-.405 0-.733.328-.733.733v1h-2.869v-3.573c0-.768.461-1.45 1.174-1.734l2.922-1.17c1.004 3.166 3.949 5.342 7.306 5.342s6.302-2.176 7.306-5.341l2.921 1.169c.713.285 1.174.966 1.174 1.734v3.574h-2.869v-1.001c0-.405-.327-.733-.732-.733-.404 0-.732.328-.732.733v9.534c0 .404.328.732.732.732.405 0 .732-.328.732-.732V98.6h2.002v7.068c0 .404.328.732.733.732.404 0 .732-.328.732-.732V98.6h.135c.404 0 .732-.328.732-.733v-4.306c0-1.371-.822-2.585-2.095-3.095zM311.333 76.2v.866c0 .405-.328.733-.732.733-.405 0-.733-.328-.733-.733V76.2c0-.405.328-.733.733-.733.404 0 .732.328.732.733zm-6.934 0v.866c0 .405-.327.733-.732.733-.405 0-.732-.328-.732-.733V76.2c0-.405.327-.733.732-.733.405 0 .732.328.732.733zm5.037 4.795c-.586.723-1.425 1.137-2.302 1.137s-1.716-.414-2.302-1.137c-.255-.315-.207-.776.107-1.03.314-.255.776-.207 1.03.107.312.384.725.595 1.165.595.44 0 .853-.211 1.164-.595.255-.314.716-.363 1.03-.108.315.255.363.716.108 1.03zm-22.969-8.262v-.867c0-.404.328-.732.733-.732.404 0 .732.328.732.732v.867c0 .404-.328.732-.732.732-.405 0-.733-.328-.733-.732zm-6.933 0v-.867c0-.404.328-.732.732-.732.405 0 .733.328.733.732v.867c0 .404-.328.732-.733.732-.404 0-.732-.328-.732-.732zm1.897 3.928c-.255-.314-.207-.775.107-1.03s.776-.207 1.03.107c.312.385.726.596 1.165.596.44 0 .853-.211 1.165-.596.254-.314.716-.362 1.03-.107.314.255.362.716.107 1.03-.586.723-1.425 1.138-2.302 1.138s-1.716-.415-2.302-1.138zm6.91 11.831c-1.28 1.102-2.917 1.71-4.608 1.71-3.32 0-6.192-2.343-6.9-5.534l1.926-.578c.449 2.337 2.508 4.11 4.974 4.11s4.525-1.773 4.974-4.11l1.925.578c-.328 1.48-1.13 2.826-2.29 3.824zm-1.007-7.159v1.8c0 1.986-1.615 3.601-3.601 3.601-1.983 0-3.596-1.61-3.601-3.591v-1.81c1.095.512 2.315.8 3.6.8 1.287 0 2.507-.288 3.602-.8zM276.665 73.6c0-.405-.328-.733-.732-.733-.552 0-1.001-.449-1.001-1 0-.356.188-.678.502-.86.017-.01.031-.021.047-.032.139-.07.294-.11.452-.11h1.108c.69 0 1.3-.44 1.517-1.093l.505-1.514c1.722-.038 7.148-.279 10.198-1.804.362-.18.508-.62.327-.982-.18-.362-.62-.509-.982-.328-3.271 1.635-10.006 1.656-10.073 1.656-.316 0-.595.202-.695.501l-.67 2.008c-.018.054-.069.091-.127.091h-1.108c-.045 0-.09.002-.135.005v-3.606c0-2.941 2.393-5.334 5.335-5.334h6.933c.92 0 1.691.662 1.836 1.574.035.22.169.413.364.523.864.488 1.401 1.396 1.401 2.37v5.441c0 .26.14.502.364.633.315.183.503.505.503.86 0 .552-.449 1.001-1 1.001-.405 0-.733.328-.733.733 0 3.897-3.17 7.067-7.068 7.067-3.897 0-7.068-3.17-7.068-7.067zm16.97 11.969c.07.02.141.03.21.03.316 0 .607-.204.702-.522.116-.387-.104-.795-.49-.912l-5.258-1.577V80.46c1.943-1.439 3.257-3.68 3.444-6.231 1.015-.305 1.756-1.249 1.756-2.362 0-.72-.324-1.403-.867-1.867v-5.066c0-1.39-.703-2.688-1.856-3.467-.385-1.448-1.684-2.466-3.21-2.466h-6.933c-3.75 0-6.8 3.05-6.8 6.8v4.199c-.542.464-.866 1.147-.866 1.867 0 1.113.741 2.057 1.756 2.362.187 2.55 1.501 4.792 3.444 6.231v2.13l-6.292 1.887c-1.42.426-2.375 1.709-2.375 3.192v8.466c0 .404.328.732.732.732h.135v8.801c0 .405.328.733.732.733.405 0 .733-.328.733-.733v-8.8h2.868v8.8c0 .405.328.733.733.733.404 0 .732-.328.732-.733V91.8c0-.113-.026-.226-.077-.327l-1.734-3.467c-.18-.362-.62-.509-.982-.328s-.509.621-.328.983l1.656 3.312v3.428H271.465v-7.733c0-.831.535-1.55 1.33-1.79l2.631-.788c.894 3.8 4.335 6.576 8.307 6.576 2.042 0 4.018-.733 5.564-2.063 1.373-1.182 2.33-2.768 2.741-4.514l1.597.48z"/>
    </g>
</svg>
