<svg xmlns="http://www.w3.org/2000/svg" width="90" height="90" viewBox="0 0 90 90">
    <g fill="none">
        <path fill="#FFB000" d="M0 0H90V90H0z"/>
        <path fill="#FFB000" d="M2.455 2.455H86.728V86.728H2.455z"/>
        <g fill="#FFF">
            <path d="M33.651 34c-6.84 0-12.384 5.555-12.384 12.407 0 6.855 5.545 12.408 12.384 12.408 6.84 0 12.384-5.553 12.384-12.408 0-6.852-5.544-12.406-12.384-12.406m-.917 4.9c0-.412.414-.867.922-.867.507 0 .918.455.918.868v4.26c0 .41-.41.86-.918.86s-.922-.45-.922-.86v-4.26zm.92 13.864c-3.558 0-6.442-2.889-6.442-6.453 0-2.897 1.903-5.347 4.527-6.163v2.402c-1.366.699-2.303 2.119-2.303 3.76 0 2.334 1.887 4.225 4.217 4.225 2.33 0 4.217-1.89 4.217-4.224 0-1.647-.942-3.07-2.313-3.766v-2.4c2.628.813 4.539 3.265 4.539 6.166 0 3.564-2.884 6.453-6.443 6.453M19.434 46.299c0-.563-.497-1.019-.952-1.019H13.06c-.458 0-.96.456-.96 1.019 0 .564.502 1.022.96 1.022h5.423c.455 0 .952-.458.952-1.022M55.209 46.299c0-.563-.498-1.019-.952-1.019h-5.424c-.457 0-.959.456-.959 1.019 0 .564.502 1.022.96 1.022h5.423c.454 0 .952-.458.952-1.022M33.656 67.891c.56 0 1.016-.498 1.016-.953v-5.432c0-.458-.455-.962-1.016-.962-.562 0-1.021.504-1.021.962v5.432c0 .455.459.953 1.021.953M52.362 57.024c.279-.488.073-1.131-.32-1.358l-4.708-2.698c-.397-.228-1.059-.082-1.337.407-.28.488-.071 1.137.325 1.364l4.708 2.698c.394.226 1.052.076 1.332-.413M22.95 65.04c.486.28 1.128.074 1.354-.321l2.694-4.715c.227-.398.081-1.061-.406-1.34-.488-.28-1.135-.07-1.362.326l-2.694 4.715c-.225.395-.075 1.056.413 1.336M44.4 65.017c.487-.28.634-.94.408-1.334l-2.704-4.71c-.229-.397-.873-.605-1.36-.325-.488.28-.634.945-.405 1.343l2.703 4.71c.226.393.87.597 1.358.316M14.97 57.066c.28.487.937.634 1.331.407l4.701-2.709c.397-.228.606-.873.325-1.361-.279-.489-.943-.635-1.339-.407l-4.702 2.708c-.394.226-.597.873-.316 1.362M33.656 32.056c.56 0 1.016-.498 1.016-.953V25.67c0-.458-.455-.96-1.016-.96-.562 0-1.021.502-1.021.96v5.433c0 .455.459.953 1.021.953M21.313 39.223c.28-.488.074-1.13-.32-1.357l-4.708-2.698c-.397-.228-1.058-.083-1.338.406-.279.489-.07 1.136.327 1.364l4.707 2.699c.394.226 1.053.076 1.332-.414M40.72 33.939c.486.279 1.128.073 1.354-.322l2.694-4.715c.227-.398.081-1.06-.406-1.34-.488-.28-1.135-.071-1.362.326l-2.694 4.715c-.226.396-.076 1.056.413 1.336M26.567 33.951c.487-.28.633-.94.407-1.334l-2.704-4.71c-.229-.397-.872-.605-1.36-.325-.488.28-.634.946-.405 1.343l2.703 4.709c.227.394.87.598 1.359.317M45.982 39.201c.28.487.938.634 1.332.408l4.7-2.709c.398-.228.607-.874.327-1.362-.281-.488-.944-.635-1.34-.406l-4.702 2.708c-.394.227-.598.873-.317 1.361M.036 2.423L4.459 2.423.638 17.149 3.479 17.149 7.224 2.725 7.224.081.036.081zM15.246 7.232L16.59.097h1.366l1.355 7.135h-1.23l-.22-1.305h-1.27l-.21 1.305h-1.135zm1.501-2.263h.957l-.473-2.862h-.01l-.474 2.862zM19.803.097L22.608.097 22.608 1.076 21.001 1.076 21.001 3.118 22.199 3.118 22.199 4.086 21.001 4.086 21.001 7.232 19.803 7.232zM23.132.097L25.937.097 25.937 1.076 24.33 1.076 24.33 3.118 25.528 3.118 25.528 4.086 24.33 4.086 24.33 7.232 23.132 7.232zM26.357 5.39V1.94c0-1.115.546-1.926 1.807-1.926 1.27 0 1.817.81 1.817 1.926V5.39c0 1.105-.546 1.926-1.817 1.926-1.26 0-1.807-.82-1.807-1.926m2.427.19V1.75c0-.432-.19-.737-.62-.737-.42 0-.61.305-.61.737v3.83c0 .432.19.736.61.736.43 0 .62-.304.62-.736M31.86 3.96v3.272h-1.197V.097h1.744c1.208 0 1.65.6 1.65 1.6v.916c0 .768-.274 1.22-.957 1.378l1.145 3.241h-1.26L31.86 3.959zm0-2.884v2.22h.4c.41 0 .588-.21.588-.589V1.655c0-.39-.178-.579-.588-.579h-.4zM38.289 2.013v3.304c0 1.094-.452 1.915-1.734 1.915h-1.849V.097h1.85c1.281 0 1.733.81 1.733 1.916m-1.88 4.24c.493 0 .682-.294.682-.726V1.792c0-.421-.19-.716-.683-.716h-.504v5.178h.504zM38.624 7.232L39.969.097h1.365l1.356 7.135h-1.23l-.22-1.305h-1.271l-.21 1.305h-1.135zm1.502-2.263h.956l-.473-2.862h-.01l-.473 2.862zM43.182.097h1.734c1.197 0 1.596.558 1.596 1.569v.726c0 .6-.22.978-.714 1.136.599.137.893.537.893 1.189v.947c0 1.01-.452 1.568-1.65 1.568h-1.86V.097zm1.198 3.01h.42c.389 0 .567-.2.567-.579v-.873c0-.39-.178-.579-.578-.579h-.41v2.031zm0 .916v2.23h.525c.4 0 .588-.2.588-.578V4.6c0-.379-.178-.578-.599-.578h-.514zM47.288.097L48.486.097 48.486 6.254 49.915 6.254 49.915 7.232 47.288 7.232zM50.46.097L53.317.097 53.317 1.076 51.657 1.076 51.657 3.118 52.845 3.118 52.845 4.086 51.657 4.086 51.657 6.254 53.317 6.254 53.317 7.232 50.46 7.232zM55.57 7.232L56.914.097h1.366l1.355 7.135h-1.23l-.22-1.305h-1.27l-.21 1.305H55.57zm1.502-2.263h.956l-.473-2.862h-.01l-.473 2.862zM61.136 2.75L61.136 7.232 60.128 7.232 60.128.097 61.304.097 62.596 4.191 62.596.097 63.594.097 63.594 7.232 62.544 7.232zM67.858 2.013v3.304c0 1.094-.452 1.915-1.733 1.915h-1.85V.097h1.85c1.281 0 1.733.81 1.733 1.916m-1.88 4.24c.494 0 .683-.294.683-.726V1.792c0-.421-.19-.716-.683-.716h-.504v5.178h.504zM15.434 15.385v-3.452c0-1.115.526-1.926 1.786-1.926 1.324 0 1.692.737 1.692 1.79v.841h-1.093v-.936c0-.443-.147-.695-.578-.695-.43 0-.609.305-.609.737v3.83c0 .432.179.737.61.737.43 0 .577-.274.577-.695v-1.315h1.093v1.231c0 1.02-.42 1.778-1.692 1.778-1.26 0-1.786-.82-1.786-1.925M19.562 10.091L20.76 10.091 20.76 16.248 22.189 16.248 22.189 17.226 19.562 17.226zM22.733 10.091L25.591 10.091 25.591 11.07 23.931 11.07 23.931 13.112 25.118 13.112 25.118 14.08 23.931 14.08 23.931 16.248 25.591 16.248 25.591 17.226 22.733 17.226zM26.042 17.226l1.345-7.135h1.365l1.355 7.135h-1.229l-.22-1.304h-1.271l-.21 1.304h-1.135zm1.502-2.262h.956l-.473-2.863h-.01l-.473 2.863zM31.608 12.743L31.608 17.226 30.6 17.226 30.6 10.091 31.776 10.091 33.069 14.185 33.069 10.091 34.067 10.091 34.067 17.226 33.016 17.226zM36.55 10.091L39.407 10.091 39.407 11.07 37.748 11.07 37.748 13.112 38.935 13.112 38.935 14.08 37.748 14.08 37.748 16.248 39.407 16.248 39.407 17.226 36.55 17.226zM41.056 12.743L41.056 17.226 40.047 17.226 40.047 10.091 41.224 10.091 42.516 14.185 42.516 10.091 43.514 10.091 43.514 17.226 42.464 17.226zM44.195 10.091L47.053 10.091 47.053 11.07 45.393 11.07 45.393 13.112 46.58 13.112 46.58 14.08 45.393 14.08 45.393 16.248 47.053 16.248 47.053 17.226 44.195 17.226zM48.89 13.953v3.273h-1.197v-7.135h1.744c1.208 0 1.65.6 1.65 1.6v.915c0 .769-.274 1.222-.957 1.38l1.145 3.24h-1.26l-1.124-3.273zm0-2.883v2.22h.4c.41 0 .588-.21.588-.589V11.65c0-.39-.178-.579-.588-.579h-.4zM53.543 13.417h1.702v3.81h-.862v-.78c-.157.537-.493.864-1.145.864-1.029 0-1.502-.821-1.502-1.926v-3.452c0-1.115.536-1.926 1.797-1.926 1.323 0 1.712.737 1.712 1.79v.63h-1.093v-.725c0-.443-.167-.695-.598-.695-.431 0-.62.305-.62.737v3.83c0 .432.178.737.588.737.389 0 .589-.22.589-.684v-1.263h-.568v-.947zM57.996 14.511L57.996 17.226 56.799 17.226 56.799 14.511 55.464 10.091 56.715 10.091 57.44 12.796 57.45 12.796 58.175 10.091 59.32 10.091z" transform="translate(11.455 9.818)"/>
        </g>
    </g>
</svg>
