<svg xmlns="http://www.w3.org/2000/svg" width="18" height="21" viewBox="0 0 18 21">
    <path fill="#FFF" fill-rule="evenodd" d="M8.999 20.306c-.293 0-.568-.112-.775-.319l-7.211-7.212c-.206-.206-.319-.48-.319-.773 0-.292.114-.567.32-.772l.655-.655c.206-.206.483-.32.776-.32.292 0 .571.114.777.32l4.216 4.207V1.4l-.006.031c0-.603.479-1.124 1.08-1.124h.927c.603 0 1.122.506 1.122 1.11V14.83l4.24-4.255c.206-.206.466-.32.758-.32.293 0 .568.114.773.32l.655.655c.206.205.319.48.319.772 0 .293-.113.567-.319.773l-7.212 7.212c-.206.207-.482.32-.776.319"/>
</svg>
