<svg xmlns="http://www.w3.org/2000/svg" width="60" height="60" viewBox="0 0 60 60">
    <path fill-rule="evenodd" d="M12.881 40.875h21.387v-2H12.88v2zm0 4h21.387v-2H12.88v2zM57.71 34.732l-.707.707-1.415-1.414.709-.707c.395-.378 1.018-.378 1.413 0 .39.39.39 1.023 0 1.414zm-2.821 2.82l-1.415-1.414.7-.7 1.415 1.414-.7.7zm-14.207 14.2l-2.621 1.207 1.207-2.62 12.788-12.783 1.415 1.414-12.789 12.782zm18.44-19.844c-1.188-1.133-3.056-1.133-4.244 0L37.725 49.051c-.083.084-.15.181-.2.289l-2.415 5.242c-.174.38-.094.829.202 1.124.296.296.745.376 1.125.202l5.245-2.414c.107-.05.205-.116.289-.2l17.15-17.143c1.172-1.172 1.172-3.071 0-4.243zM20.01 29h2v-2h-2v2zm2-4h-2c-1.105 0-2.001.896-2.001 2v2c0 1.104.896 2 2 2h2.002c1.105 0 2-.896 2-2v-2c0-1.104-.895-2-2-2zm-9.004 4h2.001v-2h-2v2zm2.001-4h-2c-1.106 0-2.002.896-2.002 2v2c0 1.104.896 2 2.001 2h2.001c1.105 0 2.001-.896 2.001-2v-2c0-1.104-.896-2-2-2zm-9.004 4h2v-2h-2v2zm2-4h-2c-1.105 0-2.001.896-2.001 2v2c0 1.104.896 2 2 2h2.002c1.105 0 2-.896 2-2v-2c0-1.104-.895-2-2-2zm12.007-3h2v-2h-2v2zm2-4h-2c-1.105 0-2.001.896-2.001 2v2c0 1.104.896 2 2 2h2.002c1.105 0 2-.896 2-2v-2c0-1.104-.895-2-2-2zm-9.004 4h2.001v-2h-2v2zm2.001-4h-2c-1.106 0-2.002.896-2.002 2v2c0 1.104.896 2 2.001 2h2.001c1.105 0 2.001-.896 2.001-2v-2c0-1.104-.896-2-2-2zm-9.004 4h2v-2h-2v2zm2-4h-2c-1.105 0-2.001.896-2.001 2v2c0 1.104.896 2 2 2h2.002c1.105 0 2-.896 2-2v-2c0-1.104-.895-2-2-2zm12.007-3h2v-2h-2v2zm2-4h-2c-1.105 0-2.001.896-2.001 2v2c0 1.104.896 2 2 2h2.002c1.105 0 2-.896 2-2v-2c0-1.104-.895-2-2-2zm-9.004 4h2.001v-2h-2v2zm2.001-4h-2c-1.106 0-2.002.896-2.002 2v2c0 1.104.896 2 2.001 2h2.001c1.105 0 2.001-.896 2.001-2v-2c0-1.104-.896-2-2-2zm-9.004 4h2v-2h-2v2zm2-4h-2c-1.105 0-2.001.896-2.001 2v2c0 1.104.896 2 2 2h2.002c1.105 0 2-.896 2-2v-2c0-1.104-.895-2-2-2zm-3-3H23.01V5H5.002v3zM3 10h22.011V3H3.002v7zm33.017 25h12.005v-2H36.018v2zm-4.002 0h2v-2h-2v2zm4.002-4h12.005v-2H36.018v2zm-4.002 0h2v-2h-2v2zm4.002-8h12.005v-2H36.018v2zm-4.002 0h2v-2h-2v2zm4.002 4h12.005v-2H36.018v2zm-4.002 0h2v-2h-2v2zM3 32c-.552 0-1-.448-1-1V3c0-.552.448-1 1-1h22.011c.553 0 1 .448 1 1v28c0 .552-.447 1-1 1H3.002zm38.02-24.586L49.61 16h-8.59V7.414zM51.024 58H9.005V34h16.007c1.658 0 3.002-1.343 3.002-3V6h11.005v12h12.006v14h2V16.586L40.435 4h-12.42V3c0-1.657-1.344-3-3.002-3H3.002C1.343 0 0 1.343 0 3v28c0 1.657 1.344 3 3.001 3h4.002v26h46.023V46h-2.001v12z"/>
</svg>
