<svg xmlns="http://www.w3.org/2000/svg" width="81" height="98" viewBox="0 0 81 98">
    <path fill="#FFF" fill-rule="evenodd" d="M58.92.882C58.57.332 57.963 0 57.31 0c-.652 0-1.259.333-1.61.882-.55.862-13.535 21.264-18.956 35.647-.372.988.127 2.09 1.114 2.461.987.373 2.09-.126 2.461-1.113C44.494 26.798 53.616 11.52 57.316 5.512c6.53 10.562 19.098 32.6 19.098 40.91 0 10.533-8.57 19.103-19.104 19.103-8.528 0-16.092-5.728-18.394-13.929-.285-1.015-1.34-1.608-2.356-1.323-1.016.285-1.607 1.34-1.323 2.356C38 62.471 47.077 69.345 57.31 69.345c12.64 0 22.924-10.283 22.924-22.924 0-10.53-15.864-37.02-21.313-45.539m-22.624 45.54c1.055 0 1.91-.856 1.91-1.911 0-1.055-.855-1.91-1.91-1.91-1.056 0-1.91.855-1.91 1.91s.854 1.91 1.91 1.91M22.924 56.546c0-3.697-5.342-13.075-9.552-19.499-4.209 6.425-9.551 15.805-9.551 19.5 0 5.266 4.285 9.55 9.551 9.55 5.267 0 9.552-4.284 9.552-9.55m3.82 0c0 7.372-5.998 13.372-13.372 13.372C6 69.919 0 63.919 0 56.546c0-6.732 10.593-22.261 11.8-24.01.358-.516.945-.824 1.572-.824.628 0 1.215.308 1.572.824 1.208 1.749 11.8 17.278 11.8 24.01m15.284 29.228c0-2.943-4.197-10.627-7.642-16.143-3.445 5.516-7.641 13.2-7.641 16.143 0 4.376 3.57 8.215 7.641 8.215 4.07 0 7.642-3.839 7.642-8.215m-6.05-20.732c1.01 1.523 9.87 15.046 9.87 20.732 0 6.524-5.249 12.036-11.462 12.036s-11.462-5.512-11.462-12.036c0-5.686 8.86-19.21 9.87-20.732.354-.534.952-.855 1.592-.855.64 0 1.238.321 1.593.855m21.331-3.338c-1.055 0-1.91-.855-1.91-1.91 0-1.056.855-1.91 1.91-1.91 6.32 0 11.462-5.142 11.462-11.463 0-1.055.856-1.91 1.91-1.91 1.056 0 1.911.855 1.911 1.91 0 8.427-6.855 15.283-15.283 15.283"/>
</svg>
