<svg xmlns="http://www.w3.org/2000/svg" width="110" height="88" viewBox="0 0 110 88">
    <path fill="#FFF" fill-rule="evenodd" d="M13.538 22.021h37.891c6.071 0 11.01-4.94 11.01-11.01C62.44 4.939 57.5 0 51.43 0c-6.072 0-11.01 4.939-11.01 11.01 0 .904.731 1.635 1.634 1.635.904 0 1.636-.731 1.636-1.634 0-4.269 3.472-7.74 7.74-7.74 4.268 0 7.74 3.471 7.74 7.74 0 4.267-3.472 7.74-7.74 7.74H13.538c-.904 0-1.636.732-1.636 1.635s.732 1.635 1.636 1.635zm80.2-1.628c0-6.072-4.94-11.011-11.011-11.011-6.071 0-11.011 4.94-11.011 11.01 0 .904.732 1.636 1.636 1.636.903 0 1.634-.732 1.634-1.635 0-4.268 3.472-7.74 7.74-7.74 4.269 0 7.74 3.472 7.74 7.74 0 4.268-3.471 7.74-7.74 7.74H1.636c-.903 0-1.635.732-1.635 1.636 0 .903.732 1.634 1.635 1.634h81.092c6.07 0 11.01-4.939 11.01-11.01zm-23.25 44.723H32.725c-.903 0-1.635.733-1.635 1.636 0 .903.732 1.635 1.635 1.635H70.49c4.268 0 7.74 3.472 7.74 7.74 0 4.268-3.472 7.74-7.74 7.74-4.267 0-7.74-3.472-7.74-7.74 0-.903-.732-1.635-1.635-1.635-.904 0-1.636.732-1.636 1.635 0 6.072 4.94 11.01 11.01 11.01 6.073 0 11.012-4.938 11.012-11.01 0-6.071-4.94-11.01-11.011-11.01zm-45.395 0H3.508c-.903 0-1.636.733-1.636 1.636 0 .903.733 1.635 1.636 1.635h21.585c.903 0 1.635-.732 1.635-1.635s-.732-1.636-1.635-1.636zm73.896-9.88H17.9c-.904 0-1.636.733-1.636 1.636 0 .903.732 1.635 1.635 1.635H98.99c4.269 0 7.74 3.472 7.74 7.74 0 4.269-3.471 7.74-7.74 7.74-4.267 0-7.74-3.471-7.74-7.74 0-.903-.732-1.634-1.635-1.634-.904 0-1.635.731-1.635 1.635 0 6.07 4.94 11.01 11.01 11.01 6.071 0 11.011-4.94 11.011-11.01 0-6.072-4.939-11.011-11.01-11.011zM4.926 47.153c0 .903.731 1.634 1.634 1.634h82.853c.903 0 1.635-.731 1.635-1.634 0-.903-.732-1.636-1.635-1.636H6.56c-.903 0-1.634.733-1.634 1.636zm57.996-8.692c0 .903.731 1.635 1.635 1.635H96.39c.903 0 1.635-.732 1.635-1.635s-.732-1.635-1.635-1.635H64.557c-.904 0-1.635.732-1.635 1.635zm-49.384 1.635c-.904 0-1.636-.732-1.636-1.635s.732-1.635 1.636-1.635h44.477c.904 0 1.636.732 1.636 1.635s-.732 1.635-1.636 1.635H13.538z"/>
</svg>
