<svg xmlns="http://www.w3.org/2000/svg" width="110" height="110" viewBox="0 0 110 110">
    <path fill="#FFF" fill-rule="evenodd" d="M93.891 16.109c.717.718.717 1.876 0 2.592l-7.777 7.778c-.36.359-.828.537-1.297.537s-.938-.18-1.296-.537c-.716-.717-.716-1.876 0-2.593L91.3 16.11c.716-.717 1.874-.717 2.592 0zm-67.41 67.412c.717.717.717 1.876 0 2.593L18.7 93.89c-.357.356-.826.537-1.295.537-.47 0-.94-.18-1.297-.537-.717-.718-.717-1.876 0-2.593l7.779-7.777c.718-.717 1.877-.717 2.592 0zm-10.372-64.82c-.717-.716-.717-1.874 0-2.592.715-.717 1.876-.717 2.593 0l7.778 7.777c.718.717.718 1.876 0 2.593-.357.359-.828.537-1.295.537-.47 0-.94-.18-1.297-.537L16.109 18.7zm77.782 72.597c.717.717.717 1.875 0 2.593-.357.356-.828.537-1.297.537s-.938-.18-1.295-.537l-7.778-7.777c-.716-.717-.716-1.876 0-2.593.717-.717 1.876-.717 2.593 0l7.777 7.777zM49.278 73.893l3.841-16.647c.125-.547-.004-1.119-.352-1.555-.347-.436-.875-.691-1.434-.691h-6.985l16.374-18.893-3.843 16.647c-.124.546.006 1.119.353 1.554.348.437.876.692 1.435.692h6.985L49.278 73.893zm20.389-22.56H60.97l4.981-21.586c.192-.82-.203-1.666-.955-2.047-.75-.381-1.664-.203-2.216.434l-23.834 27.5c-.47.542-.58 1.31-.282 1.962.3.65.95 1.07 1.669 1.07h8.695l-4.98 21.588c-.19.822.204 1.667.954 2.048.264.134.548.198.83.198.52 0 1.03-.22 1.387-.635l23.833-27.5c.47-.542.58-1.309.282-1.961-.299-.651-.95-1.07-1.668-1.07zM110 55c0 1.012-.822 1.834-1.834 1.834h-11c-1.012 0-1.832-.822-1.832-1.834s.82-1.834 1.833-1.834h11c1.011 0 1.833.822 1.833 1.834zm-95.333 0c0 1.012-.821 1.834-1.833 1.834h-11C.822 56.834 0 56.012 0 55s.822-1.834 1.834-1.834h11c1.012 0 1.833.822 1.833 1.834zm38.5-42.167v-11C53.166.823 53.987 0 55 0s1.834.822 1.834 1.834v11c0 1.012-.822 1.832-1.834 1.832s-1.834-.82-1.834-1.833zm3.667 84.333v11c0 1.012-.822 1.834-1.834 1.834s-1.834-.822-1.834-1.834v-11c0-1.012.822-1.833 1.834-1.833s1.834.821 1.834 1.833zM55 88c-18.195 0-33-14.805-33-33 0-18.196 14.805-33 33-33 18.196 0 33 14.804 33 33 0 18.195-14.804 33-33 33zm0-69.667c-20.218 0-36.667 16.449-36.667 36.667S34.783 91.667 55 91.667c20.218 0 36.667-16.45 36.667-36.667 0-20.218-16.449-36.667-36.667-36.667z"/>
</svg>
