<svg xmlns="http://www.w3.org/2000/svg" width="90" height="90" viewBox="0 0 90 90">
    <g fill="#FFF" fill-rule="evenodd">
        <path d="M65.77 43.49l-.037-.868c-.276-6.526-1.643-12.93-4.063-19.033l-.492-1.24h19.106l.266.425c3.716 5.925 5.896 12.757 6.305 19.757l.056.959h-21.14zm21.085 3.979c-.41 7-2.59 13.832-6.305 19.757l-.266.425H61.178l.492-1.24c2.422-6.11 3.789-12.513 4.063-19.033l.037-.868H86.91l-.056.959zM76.95 72.165c-6.567 7.71-15.687 12.788-25.682 14.295l-2.405.363 1.582-1.848c2.467-2.881 6.05-7.614 9.115-13.8l.25-.504H78.22l-1.272 1.494zM45 86.41l-.652-.676c-2.135-2.213-6.272-6.939-9.984-13.722l-.733-1.34h22.738l-.733 1.34c-3.71 6.78-7.848 11.507-9.984 13.722L45 86.41zm-6.27.05c-9.996-1.508-19.115-6.585-25.68-14.295l-1.27-1.494h18.41l.25.504c3.063 6.18 6.647 10.916 9.114 13.8l1.58 1.848-2.404-.363zM9.45 67.226C5.734 61.301 3.554 54.47 3.145 47.47l-.056-.959h21.14l.037.868c.277 6.526 1.645 12.93 4.064 19.033l.492 1.24H9.716l-.266-.425zM3.145 42.531c.412-7.007 2.593-13.839 6.308-19.758l.266-.424h19.105l-.492 1.24c-2.423 6.106-3.792 12.51-4.068 19.033l-.037.868H3.09l.056-.96zm9.906-24.696c6.566-7.713 15.686-12.79 25.68-14.295l2.403-.362-1.58 1.847c-2.468 2.884-6.052 7.62-9.113 13.8l-.25.504H11.779l1.272-1.494zM45 3.59l.652.676c2.137 2.215 6.275 6.943 9.984 13.722l.733 1.34H33.631l.733-1.34c3.709-6.78 7.847-11.507 9.984-13.722L45 3.59zm17.756 42.92l-.045.949c-.316 6.696-1.887 13.307-4.668 19.65l-.238.542H32.197l-.238-.542c-2.78-6.342-4.351-12.954-4.668-19.65l-.045-.949h35.51zm-35.51-3.02l.045-.949c.317-6.696 1.887-13.308 4.668-19.65l.238-.542h25.606l.238.542c2.78 6.336 4.351 12.947 4.668 19.65l.045.949H27.246zM51.267 3.54c9.995 1.505 19.116 6.582 25.682 14.295l1.272 1.494H59.809l-.25-.504c-3.064-6.186-6.648-10.919-9.115-13.8l-1.582-1.847 2.405.362zM89.927 43.4c-.018-.255-.035-.51-.049-.766l-.05-.923c-.238-1.121-.366-2.258-.38-3.394l-.068-.421c-1.667-10.449-7.022-20.033-15.079-26.989C66.155 3.873 55.75 0 45 0 20.187 0 0 20.187 0 45c0 9.144 2.744 17.95 7.937 25.464 5.05 7.31 12.058 12.925 20.27 16.243 1.678.304 3.3.85 4.831 1.625l.121.033C37.12 89.45 41.104 90 45 90c24.813 0 45-20.187 45-45 0-.53-.036-1.05-.073-1.601z"/>
        <path d="M32.919 37.752L37.752 37.752 37.752 32.919 32.919 32.919zM42.584 37.752L47.416 37.752 47.416 32.919 42.584 32.919zM52.248 37.752L57.081 37.752 57.081 32.919 52.248 32.919zM32.919 57.081L37.752 57.081 37.752 52.248 32.919 52.248zM42.584 57.081L47.416 57.081 47.416 52.248 42.584 52.248zM52.248 57.081L57.081 57.081 57.081 52.248 52.248 52.248z"/>
    </g>
</svg>
