<svg xmlns="http://www.w3.org/2000/svg" width="69" height="60" viewBox="0 0 69 60">
    <path fill="#FFF" fill-rule="evenodd" d="M42.763 12.482H31.636l-5.67 17.399h4.646c.085 0 .17.01.252.031.565.142.908.715.766 1.28l-3.419 13.275L41.422 29.1h-5.616c-.167 0-.332-.04-.48-.117-.518-.266-.722-.902-.455-1.42l7.892-15.08zM45.395 12l-7.85 14.967h6.182c.286-.01.563.098.768.296.419.406.43 1.073.025 1.492L26.895 49.263c-.285.327-.74.446-1.149.3-.548-.196-.834-.8-.638-1.348l4.17-16.249h-4.765c-.14.001-.278-.025-.406-.078-.54-.22-.798-.836-.577-1.376l6.343-19.418c.142-.433.545-.726 1-.727h13.635c.582 0 1.054.472 1.054 1.055.002.204-.056.405-.167.578zM6.08 24.31c.56.16 1.144-.164 1.304-.724.009-.03.016-.061.022-.092C10.993 8.52 26.034-.71 41.003 2.878 49.22 4.848 56.1 10.44 59.708 18.083l2.109-.44C55 2.552 37.245-4.152 22.16 2.667 13.72 6.485 7.516 13.992 5.357 23.005c-.16.56.163 1.144.723 1.304zm60.305-3.301l-4.229.888-4.229.887 2.883 3.218 2.883 3.217 1.346-4.105 1.346-4.105zm2.555-1.12l-1.912 5.845-1.912 5.845c-.065.2-.188.377-.355.506-.459.358-1.121.276-1.48-.184l-4.055-4.529-4.104-4.576c-.126-.142-.21-.315-.245-.502-.108-.572.268-1.124.84-1.232l6.01-1.233 6.016-1.263c.57-.117 1.126.248 1.245.816.026.17.01.344-.048.507zM6.858 38.103l4.23-.887-2.884-3.218-2.883-3.217-1.352 4.105-1.346 4.111 4.235-.894zm.4 2.068L1.24 41.434c-.169.03-.343.02-.507-.033-.555-.177-.86-.77-.684-1.325l1.918-5.84 1.93-5.845c.065-.2.189-.377.355-.506.46-.358 1.122-.275 1.48.184l4.056 4.529 4.104 4.576c.125.142.21.316.245.502.108.573-.269 1.124-.841 1.232l-6.04 1.263zm56.4-3.176c-2.159 9.013-8.362 16.52-16.805 20.337-15.084 6.82-32.838.115-39.655-14.974l2.108-.441c3.612 7.644 10.495 13.235 18.715 15.202 14.97 3.581 30.007-5.655 33.587-20.63.136-.566.703-.915 1.269-.78.006 0 .013.002.019.004.564.144.905.718.761 1.282z"/>
</svg>
