<svg xmlns="http://www.w3.org/2000/svg" width="23" height="25" viewBox="0 0 23 25">
    <path fill="#FFF" fill-rule="evenodd" d="M17.982 14.352c0 .256-.187.463-.418.463h-4.182v4.63c0 .255-.187.462-.418.462-.232 0-.419-.207-.419-.463v-4.63H8.364c-.232 0-.419-.206-.419-.462s.187-.463.419-.463h4.181v-4.63c0-.256.187-.463.419-.463.23 0 .418.207.418.463v4.63h4.182c.23 0 .418.207.418.463zm4.182 9.722h-18.4V4.63h18.4v19.445zm-19.237-3.24H.837V.925h18.818v2.778H2.927v17.13zm17.564-17.13V0H0v21.76h2.927V25H23V3.704h-2.51z"/>
</svg>
