<svg xmlns="http://www.w3.org/2000/svg" width="60" height="60" viewBox="0 0 60 60">
    <path fill="#FFF" fill-rule="evenodd" d="M49.667 49.727v1.88c0 .484-.394.878-.88.878-.485 0-.878-.394-.878-.879v-1.879c0-.485.393-.879.879-.879.485 0 .879.394.879.88zm-3.758 0v1.88c0 .484-.393.878-.879.878-.485 0-.879-.394-.879-.879v-1.879c0-.485.394-.879.88-.879.485 0 .878.394.878.88zm-3.758 0v1.88c0 .484-.393.878-.878.878-.486 0-.88-.394-.88-.879v-1.879c0-.485.394-.879.88-.879.485 0 .878.394.878.88zm-3.757 0v1.88c0 .484-.393.878-.879.878-.485 0-.879-.394-.879-.879v-1.879c0-.485.394-.879.879-.879.486 0 .879.394.879.88zm-3.758 0v1.88c0 .484-.393.878-.879.878-.485 0-.878-.394-.878-.879v-1.879c0-.485.393-.879.878-.879.486 0 .88.394.88.88zm-3.757 0v1.88c0 .484-.394.878-.879.878s-.879-.394-.879-.879v-1.879c0-.485.394-.879.879-.879s.879.394.879.88zm-3.758 0v1.88c0 .484-.393.878-.878.878-.486 0-.88-.394-.88-.879v-1.879c0-.485.394-.879.88-.879.485 0 .878.394.878.88zm-3.757 0v1.88c0 .484-.394.878-.88.878-.485 0-.878-.394-.878-.879v-1.879c0-.485.393-.879.879-.879.485 0 .879.394.879.88zM14.09 12.151c0-1.52 1.237-2.757 2.757-2.757.098 0 .196.005.293.016.558-1.654 2.12-2.834 3.935-2.834.367 0 .728.05 1.08.148 1.023-2.341 3.352-3.906 5.965-3.906.885 0 1.763.183 2.575.533C32.262 1.811 34.37.94 36.576.94c1.818 0 3.573.591 5.022 1.678C43.616.924 46.14 0 48.788 0 54.97 0 60 5.03 60 11.212c0 6.183-5.03 11.212-11.212 11.212-3.841 0-7.392-1.962-9.446-5.17-.892.314-1.819.473-2.766.473-2.207 0-4.314-.871-5.88-2.411-.812.35-1.69.532-2.575.532-1.703 0-3.3-.651-4.506-1.815-.722.565-1.608.876-2.54.876-.485 0-.878-.394-.878-.879s.393-.879.879-.879c.734 0 1.421-.34 1.886-.933.167-.212.422-.336.692-.336h.004c.272.001.527.128.693.343.91 1.186 2.285 1.866 3.77 1.866.816 0 1.624-.214 2.337-.617.364-.206.824-.126 1.098.19 1.265 1.465 3.095 2.306 5.02 2.306.956 0 1.888-.206 2.77-.612.419-.194.917-.029 1.138.377 1.66 3.042 4.843 4.931 8.304 4.931 5.213 0 9.454-4.24 9.454-9.454 0-5.213-4.241-9.454-9.454-9.454-2.453 0-4.781.942-6.556 2.652-.333.32-.858.328-1.2.017-1.228-1.115-2.81-1.73-4.456-1.73-1.925 0-3.755.84-5.02 2.305-.274.317-.734.397-1.098.19-.713-.403-1.521-.616-2.337-.616-2.152 0-4.04 1.455-4.593 3.538-.07.263-.257.479-.507.584-.251.106-.537.09-.773-.044-.378-.212-.773-.32-1.172-.32-1.264 0-2.314.994-2.39 2.264-.02.306-.196.58-.468.724-.271.143-.598.134-.861-.024-.163-.097-.334-.146-.508-.146-.552 0-1 .448-1 1 0 .485-.394.879-.88.879-.485 0-.878-.394-.878-.88zm40.333 32.94h-1.878c-.486 0-.88.393-.88.879 0 .485.394.878.88.878h1.878l.06-.001v11.395H16.789V46.847l.06.001h31.94c.486 0 .88-.393.88-.878 0-.486-.394-.88-.88-.88h-31.94c-.55 0-1-.448-1-1 0-.55.45-.999 1-.999h37.576c.551 0 1 .449 1 1 0 .551-.449 1-1 1zM15.03 58.242h-1.98l.9-40.515h3.918l.524 23.606H16.85c-1.521 0-2.758 1.237-2.758 2.758 0 .824.364 1.565.94 2.07v12.081zm10.16-30.181h2.106l.829 13.272H24.36l.83-13.272zm9.393 0h2.106l.83 13.272h-3.765l.83-13.272zm9.394 0h2.106l.83 13.272h-3.765l.829-13.272zM11.501 48.848H8.394c-.485 0-.878.394-.878.88 0 .485.393.878.878.878h3.068l-.17 7.636H4.576v-7.637l.06.001c.486 0 .88-.393.88-.879 0-.485-.394-.879-.88-.879-.551 0-1-.448-1-1 0-.55.45-1 1-1h6.909l-.044 2zm47.62 9.394h-2.879v-12.08c.576-.506.94-1.247.94-2.071 0-1.52-1.237-2.758-2.758-2.758h-5.75l-.888-14.206c-.029-.463-.413-.824-.877-.824h-3.758c-.464 0-.848.36-.877.824l-.888 14.206H39.28l-.888-14.206c-.029-.463-.413-.824-.877-.824h-3.757c-.464 0-.849.36-.878.824l-.888 14.206h-2.106l-.888-14.206c-.029-.463-.413-.824-.877-.824h-3.757c-.464 0-.848.36-.877.824l-.888 14.206H20.15l-.545-24.504c-.01-.478-.4-.86-.878-.86H13.09c-.478 0-.868.382-.879.86l-.628 28.262H4.636c-1.52 0-2.757 1.237-2.757 2.757 0 .825.364 1.565.94 2.071v8.323H.878c-.485 0-.879.394-.879.88 0 .485.394.878.879.878H59.12c.486 0 .879-.393.879-.879 0-.485-.393-.879-.879-.879z"/>
</svg>
