<svg xmlns="http://www.w3.org/2000/svg" width="60" height="60" viewBox="0 0 60 60">
    <path fill="#FFF" fill-rule="evenodd" d="M60 20c0 .552-.447 1-1 1h-5c-.553 0-1-.448-1-1s.447-1 1-1h5c.553 0 1 .448 1 1zM32 57c0 .551-.448 1-1 1h-2c-.551 0-1-.449-1-1v-1h4v1zM30 0C18.972 0 10 8.972 10 20c0 8.44 3.31 14.736 10.419 19.814.034.024.084.054.121.074.052.028 1.128.629 1.398 2.315C20.81 42.634 20 43.721 20 45c0 .768.29 1.47.766 2-.476.531-.766 1.232-.766 2s.29 1.469.766 2c-.476.531-.766 1.232-.766 2 0 1.654 1.346 3 3 3 .552 0 1-.448 1-1s-.448-1-1-1c-.551 0-1-.449-1-1 0-.55.449-1 1-1h10c.553 0 1-.448 1-1s-.447-1-1-1H23c-.551 0-1-.448-1-1 0-.55.449-1 1-1h10c.553 0 1-.448 1-1 0-.551-.447-1-1-1H23c-.551 0-1-.448-1-1 0-.55.449-1 1-1h10c.553 0 1-.447 1-1 0-.551-.447-1-1-1h-9.068c-.354-2.517-1.986-3.608-2.395-3.844C14.941 33.429 12 27.828 12 20c0-9.925 8.075-18 18-18s18 8.075 18 18c0 7.827-2.94 13.428-9.537 18.155C38.003 38.42 36 39.766 36 43c0 .552.447 1 1 1 .552 0 1 .449 1 1 0 .55-.448 1-1 1-.553 0-1 .448-1 1 0 .551.447 1 1 1 .552 0 1 .448 1 1 0 .55-.448 1-1 1-.553 0-1 .447-1 1 0 .551.447 1 1 1 .552 0 1 .448 1 1 0 .57-.43 1-1 1H27c-.552 0-1 .447-1 1V57c0 1.654 1.346 3 3 3h2c1.654 0 3-1.346 3-3v-1h3c1.683 0 3-1.318 3-3 0-.768-.29-1.469-.766-2 .476-.531.766-1.232.766-2s-.29-1.469-.766-2c.476-.531.766-1.232.766-2 0-1.28-.809-2.366-1.939-2.797.27-1.686 1.345-2.286 1.386-2.31.047-.022.092-.05.134-.08C46.689 34.737 50 28.44 50 20 50 8.972 41.028 0 30 0zm27.593 11.021l-4.699 1.71c-.112.042-.228.061-.341.061-.409 0-.792-.252-.94-.658-.189-.519.078-1.093.598-1.282l4.698-1.71c.518-.19 1.093.079 1.281.597.19.519-.078 1.093-.597 1.282zM6.998 20.002c0 .552-.448 1-1 1H1c-.552 0-1-.448-1-1s.448-1 1-1h4.998c.552 0 1 .448 1 1zM47.619 5.217c-.355-.424-.3-1.054.123-1.409l3.83-3.215c.425-.355 1.056-.298 1.408.123.356.424.3 1.054-.123 1.409l-3.83 3.215c-.187.157-.415.234-.641.234-.286 0-.57-.122-.767-.357zM8.385 12.135c-.148.406-.532.659-.94.659-.114 0-.229-.02-.342-.061l-4.697-1.709c-.52-.189-.786-.763-.598-1.282.19-.519.763-.786 1.282-.598l4.697 1.709c.519.189.787.763.598 1.282zM7.017.718c.356-.422.986-.477 1.409-.123l3.828 3.213c.423.355.478.986.123 1.409-.197.236-.481.357-.766.357-.227 0-.455-.076-.643-.234L7.14 2.127c-.423-.355-.478-.985-.123-1.409zM26 22h-3c-1.654 0-3-1.346-3-3s1.346-3 3-3 3 1.346 3 3v3zm8-3c0-1.654 1.346-3 3-3s3 1.346 3 3-1.346 3-3 3h-3v-3zm-1 20c.553 0 1-.448 1-1V24h3c2.757 0 5-2.243 5-5s-2.243-5-5-5-5 2.243-5 5v3h-4v-3c0-2.757-2.243-5-5-5s-5 2.243-5 5 2.243 5 5 5h3v14c0 .552.448 1 1 1s1-.448 1-1V24h4v14c0 .552.447 1 1 1z"/>
</svg>
