<svg xmlns="http://www.w3.org/2000/svg" xmlns:xlink="http://www.w3.org/1999/xlink" width="60" height="60" viewBox="0 0 60 60">
    <defs>
        <path id="prefix__a" d="M0 0L59.927 0 59.927 59.928 0 59.928z"/>
    </defs>
    <g fill="none" fill-rule="evenodd">
        <mask id="prefix__b" fill="#fff">
            <use xlink:href="#prefix__a"/>
        </mask>
        <path fill="#000" d="M59.927 19.976c0 .551-.446.999-.998.999h-4.994c-.553 0-.999-.448-.999-1 0-.55.446-.998.999-.998h4.994c.552 0 .998.447.998.999zM31.961 56.93c0 .55-.447.999-.998.999h-1.998c-.55 0-.999-.448-.999-.999v-.999h3.995v1zM29.964 0C18.949 0 9.988 8.961 9.988 19.976c0 8.43 3.306 14.718 10.406 19.79.034.024.084.054.121.074.052.028 1.127.628 1.397 2.312-1.128.43-1.936 1.516-1.936 2.794 0 .767.29 1.467.765 1.997-.476.53-.765 1.23-.765 1.998 0 .767.29 1.467.765 1.997-.476.53-.765 1.231-.765 1.998 0 1.652 1.344 2.996 2.996 2.996.552 0 .999-.447.999-.998 0-.552-.447-.999-.999-.999-.55 0-.999-.448-.999-.999 0-.55.449-.998 1-.998h9.987c.552 0 .999-.448.999-1 0-.55-.447-.998-.999-.998h-9.988c-.55 0-.999-.448-.999-.999 0-.55.449-.998 1-.998h9.987c.552 0 .999-.448.999-1 0-.55-.447-.998-.999-.998h-9.988c-.55 0-.999-.448-.999-.999 0-.55.449-.998 1-.998h9.987c.552 0 .999-.448.999-1 0-.55-.447-.998-.999-.998h-9.057c-.353-2.515-1.983-3.605-2.392-3.84-6.588-4.722-9.525-10.316-9.525-18.134 0-9.913 8.065-17.978 17.978-17.978 9.913 0 17.978 8.065 17.978 17.978 0 7.818-2.937 13.412-9.525 18.134-.46.264-2.46 1.608-2.46 4.839 0 .551.446.999.998.999s1 .448 1 .998-.448.999-1 .999-.998.447-.998.999c0 .551.446.999.998.999s1 .448 1 .998-.448.999-1 .999-.998.447-.998.999c0 .551.446.999.998.999s1 .448 1 .998c0 .57-.43 1-1 1h-9.988c-.551 0-.998.446-.998.998v1.997c0 1.652 1.344 2.997 2.996 2.997h1.998c1.652 0 2.996-1.345 2.996-2.997v-.999h2.996c1.681 0 2.997-1.316 2.997-2.996 0-.767-.29-1.467-.765-1.998.475-.53.765-1.23.765-1.997 0-.767-.29-1.467-.765-1.998.475-.53.765-1.23.765-1.997 0-1.278-.808-2.364-1.937-2.794.27-1.684 1.343-2.283 1.384-2.306.047-.023.092-.05.134-.08 7.1-5.072 10.407-11.36 10.407-19.79C49.94 8.96 40.978 0 29.964 0zm27.56 11.008l-4.694 1.708c-.112.042-.228.06-.34.06-.409 0-.792-.251-.94-.657-.188-.518.079-1.091.598-1.28l4.692-1.708c.518-.19 1.092.079 1.28.596.19.519-.078 1.092-.597 1.28zm-50.535 8.97c0 .551-.447.999-.998.999H.999c-.552 0-.999-.448-.999-1 0-.55.447-.998.999-.998H5.99c.551 0 .998.447.998.999zM47.562 5.21c-.355-.424-.3-1.053.122-1.408L51.51.593c.424-.355 1.054-.298 1.406.122.356.424.3 1.053-.123 1.407l-3.825 3.212c-.187.156-.415.233-.64.233-.286 0-.57-.121-.766-.356zM8.375 12.12c-.148.405-.531.658-.94.658-.113 0-.228-.02-.34-.061L2.402 11.01c-.518-.19-.785-.762-.597-1.28.19-.52.762-.786 1.28-.598l4.692 1.707c.518.189.786.762.597 1.28zM7.009.717c.355-.421.984-.476 1.407-.123l3.823 3.21c.423.354.478.984.123 1.407-.197.235-.48.356-.765.356-.227 0-.454-.076-.642-.233L7.13 2.124C6.71 1.77 6.654 1.141 7.01.717zm18.96 21.256h-2.997c-1.652 0-2.996-1.344-2.996-2.996s1.344-2.996 2.996-2.996 2.997 1.344 2.997 2.996v2.996zm7.99-2.996c0-1.652 1.344-2.996 2.996-2.996s2.997 1.344 2.997 2.996-1.345 2.996-2.997 2.996H33.96v-2.996zm-.999 19.976c.552 0 .999-.448.999-.999V23.971h2.996c2.754 0 4.994-2.24 4.994-4.994 0-2.754-2.24-4.994-4.994-4.994-2.753 0-4.994 2.24-4.994 4.994v2.996h-3.995v-2.996c0-2.754-2.24-4.994-4.994-4.994-2.753 0-4.994 2.24-4.994 4.994 0 2.754 2.24 4.994 4.994 4.994h2.997v13.983c0 .551.447.999.998.999.551 0 1-.448 1-.999V23.971h3.994v13.983c0 .551.447.999 1 .999z" mask="url(#prefix__b)"/>
    </g>
</svg>
