<svg xmlns="http://www.w3.org/2000/svg" width="15" height="13" viewBox="0 0 15 13">
    <path fill="#797979" fill-rule="evenodd" d="M0 6.229c0-.22.084-.426.24-.581L5.647.239c.154-.154.36-.239.58-.239.22 0 .425.085.58.24l.49.491c.155.155.24.362.24.582 0 .22-.085.429-.24.583L4.143 5.058H14.18l-.023-.005c.452 0 .843.36.843.811v.695c0 .452-.38.841-.832.841H4.108l3.19 3.18c.155.155.24.35.24.569 0 .22-.085.425-.24.58l-.49.49c-.155.155-.36.24-.58.24-.22 0-.426-.085-.58-.24L.24 6.812C.084 6.656 0 6.45 0 6.229"/>
</svg>
