<svg xmlns="http://www.w3.org/2000/svg" width="50" height="49" viewBox="0 0 50 49">
    <path fill="#990434" fill-rule="evenodd" d="M39.09 28.13c0 .501-.405.907-.908.907H29.09v9.074c0 .502-.406.907-.91.907-.502 0-.908-.405-.908-.907v-9.074h-9.091c-.503 0-.91-.406-.91-.907 0-.502.407-.908.91-.908h9.09v-9.074c0-.502.407-.907.91-.907.503 0 .909.405.909.907v9.074h9.09c.504 0 .91.406.91.908zm9.092 19.055h-40V9.074h40v38.111zM6.364 40.833H1.818V1.815h40.91v5.444H6.363v33.574zM44.545 7.26V0H0v42.648h6.364V49H50V7.26h-5.455z"/>
</svg>
