<svg xmlns="http://www.w3.org/2000/svg" width="80" height="80" viewBox="0 0 80 80">
    <path fill="#FFF" fill-rule="evenodd" d="M20.645 27.097H36.13v-2.58H20.645v2.58zm0-5.162H36.13v-2.58H20.645v2.58zm0-10.322H36.13v-2.58H20.645v2.58zm1.29 5.161h2.581v-2.58h-2.58v2.58zm10.323 0h2.58v-2.58h-2.58v2.58zm-5.161 0h2.58v-2.58h-2.58v2.58zm16.774-5.161h15.484v-2.58H43.87v2.58zm0 5.161h15.484v-2.58H43.87v2.58zm0 5.161h15.484v-2.58H43.87v2.58zm0 9.033h15.484v-2.58H43.87v2.58zm0 10.322h15.484v-2.58H43.87v2.58zm1.29-5.161h2.58v-2.58h-2.58v2.58zm10.323 0h2.58v-2.58h-2.58v2.58zm-5.161 0h2.58v-2.58h-2.58v2.58zm-1.177 30.968h-17.04c-.133-.626-.348-1.234-.66-1.797l-5.153-9.273c-.318-.573-.487-1.223-.487-1.88V32.258c2.847 0 5.162 2.315 5.162 5.161v8.277l2.268 2.268c2.698 2.698 4.183 6.285 4.183 10.1H40c0-.434-.03-.864-.063-1.294.021 0 .042.004.063.004 3.116 0 5.723-2.22 6.321-5.161h7.873v2.775c0 .547-.113 1.075-.334 1.572l-4.271 9.61c-.218.49-.353 1.005-.443 1.527zm-.114 5.161h-2.58v2.58h2.58v2.581H32.258v-2.58h11.613v-2.58H32.258v-2.582h16.774v2.581zm-25.806-40v11.613h-5.161V2.581h11.612c4.98 0 9.033 4.051 9.033 9.032v10.322h2.58V11.613c0-4.98 4.053-9.032 9.033-9.032h11.612v41.29H41.29V24.516h-2.58v19.355h-5.162v-6.452c0-4.27-3.472-7.742-7.742-7.742-1.423 0-2.58 1.158-2.58 2.581zm0 16.774H9.032v-40h6.452v37.42h7.742v2.58zm41.29-40h6.452v40H43.87v1.29c0 2.134-1.737 3.872-3.871 3.872-.161 0-.318-.04-.478-.06-.682-2.867-2.103-5.503-4.177-7.682h29.171V9.032zM51.613 77.42v-9.227c0-.546.112-1.074.334-1.572l4.27-9.61c.369-.83.557-1.712.557-2.622v-2.775h16.774V6.452h-9.032V0H50.323C45.833 0 41.933 2.56 40 6.295 38.067 2.56 34.166 0 29.677 0H15.484v6.452H6.452v45.16h16.774v2.535c0 1.094.28 2.177.811 3.133l5.154 9.275c.318.571.486 1.222.486 1.879v8.985H0V80h80v-2.58H51.613z"/>
</svg>
