<svg xmlns="http://www.w3.org/2000/svg" width="15" height="13" viewBox="0 0 15 13">
    <path fill="#FFF" fill-rule="evenodd" d="M15 6.23c0 .22-.084.426-.24.581L9.353 12.22c-.154.154-.36.239-.58.239-.22 0-.425-.085-.58-.24l-.49-.491c-.155-.155-.24-.362-.24-.582 0-.22.085-.429.24-.583L10.857 7.4H.82l.023.005c-.452 0-.843-.36-.843-.811V5.9c0-.452.38-.841.832-.841h10.06l-3.19-3.18c-.155-.155-.24-.35-.24-.57 0-.219.085-.424.24-.579l.49-.49c.155-.155.36-.24.58-.24.22 0 .426.085.58.24l5.409 5.408c.155.155.24.361.239.582"/>
</svg>
