<svg xmlns="http://www.w3.org/2000/svg" width="60" height="60" viewBox="0 0 60 60">
    <path fill-rule="evenodd" d="M58 58H35.84l-.758-3.788 6.033-8.294c4.073.614 8.743 2.313 14.985 5.582 1.2.7 1.9 1.9 1.9 3.2V58zm-23.78-6.029l-2.695-6.065c3.222-.393 6.099-2.011 8.422-4.336l.077-.076.02-.02c.153-.154.306-.312.456-.474l.4 1.8-1.022 1.403c-.065.053-.125.117-.178.197l-4.16 5.76-1.32 1.811zM26.24 58l.6-3h6.313l.57 3H26.24zm-1.78-7.84L20.3 44.4c-.032-.032-.067-.063-.104-.094L19.1 42.8l.4-1.8c.136.146.273.288.412.428 2.347 2.401 5.275 4.077 8.563 4.478l-2.696 6.066-1.32-1.813zm-.3 7.84H2v-3.3c0-1.3.7-2.5 1.9-3.1 6.374-3.386 10.963-5.086 15.05-5.594l5.968 8.206L24.16 58zm7.34-7.2l.978 2.2H27.6l1.8-4.126.606-1.362 1.494 3.289zM16 27v-4h28v4c0 4.36-1.496 8.235-3.742 11.18l-.058.02-.3.3c-.503.67-1.034 1.283-1.589 1.834-2.355 2.194-5.163 3.522-7.87 3.654-.135-.059-.288-.088-.441-.088-.154 0-.292.03-.417.09-1.656-.077-3.351-.602-4.959-1.5-1.628-.935-3.16-2.284-4.524-3.99l-.3-.3-.059-.02C17.496 35.236 16 31.36 16 27zm-2-6v-1c0-2.661.67-5.171 1.882-7.365L22.8 14h.2c.3 0 .5-.1.8-.2.3-.2.4-.6.3-.9L22.727 6.22c.723-.348 1.482-.647 2.273-.893V8c0 .6.4 1 1 1s1-.4 1-1V3c0-.5.4-1 1-1h4c.5 0 1 .4 1 1v5c0 .6.4 1 1 1s1-.4 1-1V5.326c.817.254 1.6.564 2.345.927L36 12.8c0 .3.1.7.3.9.2.2.4.3.7.3h.2l6.873-1.447C45.313 14.766 46 17.306 46 20v1H14zm6.473-13.46c.109-.077.219-.152.33-.226L21.7 11.7l-4.6-.9c.922-1.198 2.098-2.31 3.373-3.26zm18.724-.226c.111.074.221.149.33.225 1.275.95 2.451 2.063 3.373 3.261l-4.6.9.897-4.386zM57 49.8c-5.968-3.165-10.546-4.94-14.622-5.62l.422-.58c.2-.2.3-.5.2-.8l-.937-3.749C44.542 35.548 46 31.167 46 27v-4h3c.6 0 1-.4 1-1s-.4-1-1-1h-1v-1c0-7.9-5.2-14.6-13-16.8V3c0-1.6-1.3-3-3-3h-4c-1.6 0-3 1.3-3 3v.2C17.2 5.4 12 12.1 12 20v1h-1c-.6 0-1 .4-1 1s.4 1 1 1h3v4c0 4.167 1.458 8.547 3.937 12.051L17 42.8c0 .2 0 .6.2.8l.422.58C13.546 44.86 8.968 46.635 3 49.8c-1.9.9-3 2.8-3 4.9V59c0 .6.4 1 1 1H59c.6 0 1-.4 1-1v-4.3c0-2-1.2-3.9-3-4.9z"/>
</svg>
